<?xml version='1.0' encoding='ASCII' standalone='yes'?>
<svg xmlns:xlink="http://www.w3.org/1999/xlink" xmlns="http://www.w3.org/2000/svg" width="589.773388pt" height="492.075pt" viewBox="0 0 294.886694 246.0375" version="1.1">
 <metadata>
  <rdf:RDF xmlns:dc="http://purl.org/dc/elements/1.1/" xmlns:cc="http://creativecommons.org/ns#" xmlns:rdf="http://www.w3.org/1999/02/22-rdf-syntax-ns#">
   <cc:Work>
    <dc:type rdf:resource="http://purl.org/dc/dcmitype/StillImage"/>
    <dc:date>2023-12-07T16:49:08.407696</dc:date>
    <dc:format>image/svg+xml</dc:format>
    <dc:creator>
     <cc:Agent>
      <dc:title>Matplotlib v3.8.0, https://matplotlib.org/</dc:title>
     </cc:Agent>
    </dc:creator>
   </cc:Work>
  </rdf:RDF>
 </metadata>
 <defs>
  <style type="text/css">*{stroke-linejoin: round; stroke-linecap: butt}</style>
 </defs>
 <g id="figure_1">
  <g id="patch_1">
   <path d="M 0 246.0375  L 294.886694 246.0375  L 294.886694 0  L 0 0  z " style="fill: #ffffff"/>
  </g>
  <g id="axes_1">
   <g id="patch_2">
    <path d="M 36.849303 211.06851  L 285.704111 211.06851  L 285.704111 3.00024  L 36.849303 3.00024  z " style="fill: #ffffff"/>
   </g>
   <g id="matplotlib.axis_1">
    <g id="xtick_1">
     <g id="line2d_1">
      <defs>
       <path id="m87a351ff1d" d="M 0 0  L 0 3.5  " style="stroke: #000000; stroke-width: 0.8"/>
      </defs>
      <g>
       <use xlink:href="#m87a351ff1d" x="42.918932" y="211.06851" style="stroke: #000000; stroke-width: 0.8"/>
      </g>
     </g>
     <g id="text_1">
      <!-- 0 -->
      <g transform="translate(39.82776 226.31851) scale(0.11 -0.11)">
       <defs>
        <path id="Roboto-Regular-30" d="M 3234 1944  Q 3234 825 2848 381  Q 2463 -63 1800 -63  Q 1156 -63 764 368  Q 372 800 359 1872  L 359 2638  Q 359 3753 750 4183  Q 1141 4613 1794 4613  Q 2447 4613 2834 4195  Q 3222 3778 3234 2709  L 3234 1944  z M 2653 2734  Q 2653 3503 2434 3822  Q 2216 4141 1794 4141  Q 1388 4141 1167 3831  Q 947 3522 941 2778  L 941 1850  Q 941 1088 1164 750  Q 1388 413 1800 413  Q 2222 413 2436 745  Q 2650 1078 2653 1825  L 2653 2734  z " transform="scale(0.015625)"/>
       </defs>
       <use xlink:href="#Roboto-Regular-30"/>
      </g>
     </g>
    </g>
    <g id="xtick_2">
     <g id="line2d_2">
      <g>
       <use xlink:href="#m87a351ff1d" x="103.615227" y="211.06851" style="stroke: #000000; stroke-width: 0.8"/>
      </g>
     </g>
     <g id="text_2">
      <!-- 10 -->
      <g transform="translate(97.432883 226.31851) scale(0.11 -0.11)">
       <defs>
        <path id="Roboto-Regular-31" d="M 2278 4575  L 2278 0  L 1700 0  L 1700 3853  L 534 3428  L 534 3950  L 2188 4575  L 2278 4575  z " transform="scale(0.015625)"/>
       </defs>
       <use xlink:href="#Roboto-Regular-31"/>
       <use xlink:href="#Roboto-Regular-30" x="56.201172"/>
      </g>
     </g>
    </g>
    <g id="xtick_3">
     <g id="line2d_3">
      <g>
       <use xlink:href="#m87a351ff1d" x="164.311521" y="211.06851" style="stroke: #000000; stroke-width: 0.8"/>
      </g>
     </g>
     <g id="text_3">
      <!-- 20 -->
      <g transform="translate(158.129178 226.31851) scale(0.11 -0.11)">
       <defs>
        <path id="Roboto-Regular-32" d="M 3359 475  L 3359 0  L 381 0  L 381 416  L 1925 2134  Q 2306 2566 2439 2819  Q 2572 3072 2572 3328  Q 2572 3663 2364 3900  Q 2156 4138 1778 4138  Q 1322 4138 1097 3878  Q 872 3619 872 3213  L 294 3213  Q 294 3788 672 4200  Q 1050 4613 1778 4613  Q 2422 4613 2786 4278  Q 3150 3944 3150 3397  Q 3150 2997 2903 2592  Q 2656 2188 2297 1797  L 1078 475  L 3359 475  z " transform="scale(0.015625)"/>
       </defs>
       <use xlink:href="#Roboto-Regular-32"/>
       <use xlink:href="#Roboto-Regular-30" x="56.201172"/>
      </g>
     </g>
    </g>
    <g id="xtick_4">
     <g id="line2d_4">
      <g>
       <use xlink:href="#m87a351ff1d" x="225.007816" y="211.06851" style="stroke: #000000; stroke-width: 0.8"/>
      </g>
     </g>
     <g id="text_4">
      <!-- 30 -->
      <g transform="translate(218.825472 226.31851) scale(0.11 -0.11)">
       <defs>
        <path id="Roboto-Regular-33" d="M 1222 2084  L 1222 2559  L 1647 2559  Q 2094 2563 2312 2784  Q 2531 3006 2531 3338  Q 2531 4138 1738 4138  Q 1369 4138 1141 3927  Q 913 3716 913 3359  L 334 3359  Q 334 3881 720 4247  Q 1106 4613 1738 4613  Q 2353 4613 2733 4286  Q 3113 3959 3113 3325  Q 3113 3072 2942 2784  Q 2772 2497 2397 2338  Q 2850 2191 3015 1884  Q 3181 1578 3181 1269  Q 3181 631 2768 284  Q 2356 -63 1741 -63  Q 1147 -63 722 267  Q 297 597 297 1203  L 875 1203  Q 875 844 1108 628  Q 1341 413 1741 413  Q 2138 413 2369 622  Q 2600 831 2600 1256  Q 2600 1681 2337 1882  Q 2075 2084 1634 2084  L 1222 2084  z " transform="scale(0.015625)"/>
       </defs>
       <use xlink:href="#Roboto-Regular-33"/>
       <use xlink:href="#Roboto-Regular-30" x="56.201172"/>
      </g>
     </g>
    </g>
    <g id="xtick_5">
     <g id="line2d_5">
      <g>
       <use xlink:href="#m87a351ff1d" x="285.704111" y="211.06851" style="stroke: #000000; stroke-width: 0.8"/>
      </g>
     </g>
     <g id="text_5">
      <!-- 40 -->
      <g transform="translate(279.521767 226.31851) scale(0.11 -0.11)">
       <defs>
        <path id="Roboto-Regular-34" d="M 166 1397  L 2203 4550  L 2819 4550  L 2819 1531  L 3453 1531  L 3453 1056  L 2819 1056  L 2819 0  L 2241 0  L 2241 1056  L 166 1056  L 166 1397  z M 822 1531  L 2241 1531  L 2241 3766  L 2169 3638  L 822 1531  z " transform="scale(0.015625)"/>
       </defs>
       <use xlink:href="#Roboto-Regular-34"/>
       <use xlink:href="#Roboto-Regular-30" x="56.201172"/>
      </g>
     </g>
    </g>
    <g id="text_6">
     <!-- Time, $t/t_{0}$ -->
     <g transform="translate(139.716707 240.802885) scale(0.11 -0.11)">
      <defs>
       <path id="Roboto-Regular-54" d="M 156 4056  L 156 4550  L 3672 4550  L 3672 4056  L 2209 4056  L 2209 0  L 1616 0  L 1616 4056  L 156 4056  z " transform="scale(0.015625)"/>
       <path id="Roboto-Regular-69" d="M 444 4278  Q 444 4419 530 4516  Q 616 4613 784 4613  Q 950 4613 1039 4516  Q 1128 4419 1128 4278  Q 1128 4144 1039 4048  Q 950 3953 784 3953  Q 616 3953 530 4048  Q 444 4144 444 4278  z M 1069 3381  L 1069 0  L 488 0  L 488 3381  L 1069 3381  z " transform="scale(0.015625)"/>
       <path id="Roboto-Regular-6d" d="M 1794 2956  Q 1225 2956 1016 2478  L 1016 0  L 434 0  L 434 3381  L 984 3381  L 1000 3013  Q 1366 3444 2000 3444  Q 2325 3444 2579 3314  Q 2834 3184 2969 2900  Q 3138 3144 3408 3294  Q 3678 3444 4044 3444  Q 4588 3444 4883 3153  Q 5178 2863 5178 2222  L 5178 0  L 4597 0  L 4597 2228  Q 4597 2653 4401 2804  Q 4206 2956 3875 2956  Q 3525 2956 3325 2748  Q 3125 2541 3094 2244  L 3094 0  L 2516 0  L 2516 2225  Q 2516 2622 2319 2789  Q 2122 2956 1794 2956  z " transform="scale(0.015625)"/>
       <path id="Roboto-Regular-65" d="M 3116 591  Q 2950 341 2647 139  Q 2344 -63 1844 -63  Q 1138 -63 714 396  Q 291 856 291 1572  L 291 1703  Q 291 2256 502 2645  Q 713 3034 1050 3239  Q 1388 3444 1769 3444  Q 2494 3444 2826 2970  Q 3159 2497 3159 1788  L 3159 1528  L 872 1528  Q 884 1063 1148 736  Q 1413 409 1875 409  Q 2181 409 2393 534  Q 2606 659 2766 869  L 3116 591  z M 1769 2969  Q 1425 2969 1187 2719  Q 950 2469 891 2000  L 2581 2000  L 2581 2044  Q 2559 2381 2386 2675  Q 2213 2969 1769 2969  z " transform="scale(0.015625)"/>
       <path id="Roboto-Regular-2c" d="M 966 688  L 966 222  Q 966 -63 822 -380  Q 678 -697 419 -909  L 91 -681  Q 391 -263 400 175  L 400 688  L 966 688  z " transform="scale(0.015625)"/>
       <path id="Roboto-Regular-20" transform="scale(0.015625)"/>
       <path id="STIXGeneral-Italic-74" d="M 1894 2739  L 1862 2534  L 1325 2534  L 768 435  Q 755 384 755 346  Q 755 243 851 243  Q 928 243 1030 342  Q 1133 442 1370 749  L 1453 704  Q 1158 256 969 93  Q 781 -70 538 -70  Q 243 -70 243 166  Q 243 230 346 640  L 845 2534  L 365 2534  L 358 2573  Q 358 2688 570 2733  Q 730 2771 992 2979  Q 1254 3187 1421 3437  Q 1459 3494 1510 3494  Q 1568 3494 1568 3443  Q 1568 3411 1562 3398  L 1382 2739  L 1894 2739  z " transform="scale(0.015625)"/>
       <path id="STIXGeneral-Regular-2f" d="M 1837 4326  L 378 -90  L -58 -90  L 1408 4326  L 1837 4326  z " transform="scale(0.015625)"/>
       <path id="STIXGeneral-Regular-30" d="M 3046 2112  Q 3046 1683 2963 1302  Q 2880 922 2717 602  Q 2554 282 2266 96  Q 1978 -90 1600 -90  Q 1210 -90 915 108  Q 621 307 461 640  Q 301 973 227 1350  Q 154 1728 154 2150  Q 154 2746 301 3222  Q 448 3699 790 4012  Q 1133 4326 1626 4326  Q 2253 4326 2649 3712  Q 3046 3098 3046 2112  z M 2432 2080  Q 2432 3091 2217 3625  Q 2003 4160 1587 4160  Q 1190 4160 979 3622  Q 768 3085 768 2106  Q 768 1120 979 598  Q 1190 77 1600 77  Q 2003 77 2217 598  Q 2432 1120 2432 2080  z " transform="scale(0.015625)"/>
      </defs>
      <use xlink:href="#Roboto-Regular-54" transform="translate(0 0.921875)"/>
      <use xlink:href="#Roboto-Regular-69" transform="translate(59.667969 0.921875)"/>
      <use xlink:href="#Roboto-Regular-6d" transform="translate(83.984375 0.921875)"/>
      <use xlink:href="#Roboto-Regular-65" transform="translate(171.679688 0.921875)"/>
      <use xlink:href="#Roboto-Regular-2c" transform="translate(224.707031 0.921875)"/>
      <use xlink:href="#Roboto-Regular-20" transform="translate(244.384766 0.921875)"/>
      <use xlink:href="#STIXGeneral-Italic-74" transform="translate(269.189453 0.921875)"/>
      <use xlink:href="#STIXGeneral-Regular-2f" transform="translate(296.989441 0.921875)"/>
      <use xlink:href="#STIXGeneral-Italic-74" transform="translate(324.789429 0.921875)"/>
      <use xlink:href="#STIXGeneral-Regular-30" transform="translate(352.589417 -12.30625) scale(0.7)"/>
     </g>
    </g>
   </g>
   <g id="matplotlib.axis_2">
    <g id="ytick_1">
     <g id="line2d_6">
      <defs>
       <path id="m13c9baa64a" d="M 0 0  L -3.5 0  " style="stroke: #000000; stroke-width: 0.8"/>
      </defs>
      <g>
       <use xlink:href="#m13c9baa64a" x="36.849303" y="205.123702" style="stroke: #000000; stroke-width: 0.8"/>
      </g>
     </g>
     <g id="text_7">
      <!-- 0 -->
      <g transform="translate(23.666959 209.248702) scale(0.11 -0.11)">
       <use xlink:href="#Roboto-Regular-30"/>
      </g>
     </g>
    </g>
    <g id="ytick_2">
     <g id="line2d_7">
      <g>
       <use xlink:href="#m13c9baa64a" x="36.849303" y="181.344471" style="stroke: #000000; stroke-width: 0.8"/>
      </g>
     </g>
     <g id="text_8">
      <!-- 2 -->
      <g transform="translate(23.666959 185.469471) scale(0.11 -0.11)">
       <use xlink:href="#Roboto-Regular-32"/>
      </g>
     </g>
    </g>
    <g id="ytick_3">
     <g id="line2d_8">
      <g>
       <use xlink:href="#m13c9baa64a" x="36.849303" y="157.565241" style="stroke: #000000; stroke-width: 0.8"/>
      </g>
     </g>
     <g id="text_9">
      <!-- 4 -->
      <g transform="translate(23.666959 161.690241) scale(0.11 -0.11)">
       <use xlink:href="#Roboto-Regular-34"/>
      </g>
     </g>
    </g>
    <g id="ytick_4">
     <g id="line2d_9">
      <g>
       <use xlink:href="#m13c9baa64a" x="36.849303" y="133.78601" style="stroke: #000000; stroke-width: 0.8"/>
      </g>
     </g>
     <g id="text_10">
      <!-- 6 -->
      <g transform="translate(23.666959 137.91101) scale(0.11 -0.11)">
       <defs>
        <path id="Roboto-Regular-36" d="M 3291 1484  Q 3291 838 2930 387  Q 2569 -63 1878 -63  Q 1388 -63 1063 198  Q 738 459 577 861  Q 416 1263 416 1684  L 416 1956  Q 416 2597 595 3194  Q 775 3791 1247 4173  Q 1719 4556 2597 4556  L 2647 4556  L 2647 4066  Q 2041 4066 1705 3853  Q 1369 3641 1205 3302  Q 1041 2963 1006 2575  Q 1369 2984 1984 2984  Q 2438 2984 2727 2765  Q 3016 2547 3153 2201  Q 3291 1856 3291 1484  z M 997 1666  Q 997 1059 1267 737  Q 1538 416 1878 416  Q 2278 416 2498 708  Q 2719 1000 2719 1456  Q 2719 1863 2516 2184  Q 2313 2506 1891 2506  Q 1588 2506 1341 2325  Q 1094 2144 997 1884  L 997 1666  z " transform="scale(0.015625)"/>
       </defs>
       <use xlink:href="#Roboto-Regular-36"/>
      </g>
     </g>
    </g>
    <g id="ytick_5">
     <g id="line2d_10">
      <g>
       <use xlink:href="#m13c9baa64a" x="36.849303" y="110.006779" style="stroke: #000000; stroke-width: 0.8"/>
      </g>
     </g>
     <g id="text_11">
      <!-- 8 -->
      <g transform="translate(23.666959 114.131779) scale(0.11 -0.11)">
       <defs>
        <path id="Roboto-Regular-38" d="M 3244 1231  Q 3244 606 2826 271  Q 2409 -63 1796 -63  Q 1184 -63 767 271  Q 350 606 350 1231  Q 350 1613 554 1905  Q 759 2197 1109 2347  Q 806 2494 629 2762  Q 453 3031 453 3366  Q 453 3963 833 4288  Q 1213 4613 1794 4613  Q 2378 4613 2758 4288  Q 3138 3963 3138 3366  Q 3138 3028 2956 2761  Q 2775 2494 2472 2347  Q 2825 2197 3034 1903  Q 3244 1609 3244 1231  z M 2559 3356  Q 2559 3697 2346 3917  Q 2134 4138 1793 4138  Q 1453 4138 1243 3927  Q 1034 3716 1034 3356  Q 1034 3003 1243 2790  Q 1453 2578 1797 2578  Q 2138 2578 2348 2790  Q 2559 3003 2559 3356  z M 2663 1244  Q 2663 1625 2420 1865  Q 2178 2106 1791 2106  Q 1394 2106 1161 1865  Q 928 1625 928 1244  Q 928 850 1161 631  Q 1394 413 1797 413  Q 2200 413 2431 631  Q 2663 850 2663 1244  z " transform="scale(0.015625)"/>
       </defs>
       <use xlink:href="#Roboto-Regular-38"/>
      </g>
     </g>
    </g>
    <g id="ytick_6">
     <g id="line2d_11">
      <g>
       <use xlink:href="#m13c9baa64a" x="36.849303" y="86.227548" style="stroke: #000000; stroke-width: 0.8"/>
      </g>
     </g>
     <g id="text_12">
      <!-- 10 -->
      <g transform="translate(17.484615 90.352548) scale(0.11 -0.11)">
       <use xlink:href="#Roboto-Regular-31"/>
       <use xlink:href="#Roboto-Regular-30" x="56.201172"/>
      </g>
     </g>
    </g>
    <g id="ytick_7">
     <g id="line2d_12">
      <g>
       <use xlink:href="#m13c9baa64a" x="36.849303" y="62.448317" style="stroke: #000000; stroke-width: 0.8"/>
      </g>
     </g>
     <g id="text_13">
      <!-- 12 -->
      <g transform="translate(17.484615 66.573317) scale(0.11 -0.11)">
       <use xlink:href="#Roboto-Regular-31"/>
       <use xlink:href="#Roboto-Regular-32" x="56.201172"/>
      </g>
     </g>
    </g>
    <g id="ytick_8">
     <g id="line2d_13">
      <g>
       <use xlink:href="#m13c9baa64a" x="36.849303" y="38.669086" style="stroke: #000000; stroke-width: 0.8"/>
      </g>
     </g>
     <g id="text_14">
      <!-- 14 -->
      <g transform="translate(17.484615 42.794086) scale(0.11 -0.11)">
       <use xlink:href="#Roboto-Regular-31"/>
       <use xlink:href="#Roboto-Regular-34" x="56.201172"/>
      </g>
     </g>
    </g>
    <g id="ytick_9">
     <g id="line2d_14">
      <g>
       <use xlink:href="#m13c9baa64a" x="36.849303" y="14.889855" style="stroke: #000000; stroke-width: 0.8"/>
      </g>
     </g>
     <g id="text_15">
      <!-- 16 -->
      <g transform="translate(17.484615 19.014855) scale(0.11 -0.11)">
       <use xlink:href="#Roboto-Regular-31"/>
       <use xlink:href="#Roboto-Regular-36" x="56.201172"/>
      </g>
     </g>
    </g>
    <g id="text_16">
     <!-- Front position, $x_{\rm f}/l_{0}$ -->
     <g transform="translate(11.174615 152.629375) rotate(-90) scale(0.11 -0.11)">
      <defs>
       <path id="Roboto-Regular-46" d="M 528 0  L 528 4550  L 3347 4550  L 3347 4056  L 1131 4056  L 1131 2503  L 3038 2503  L 3038 2009  L 1131 2009  L 1131 0  L 528 0  z " transform="scale(0.015625)"/>
       <path id="Roboto-Regular-72" d="M 1791 2888  Q 1225 2888 1019 2400  L 1019 0  L 441 0  L 441 3381  L 1003 3381  L 1016 2994  Q 1294 3444 1819 3444  Q 1981 3444 2075 3400  L 2072 2863  Q 1944 2888 1791 2888  z " transform="scale(0.015625)"/>
       <path id="Roboto-Regular-6f" d="M 288 1725  Q 288 2459 700 2951  Q 1113 3444 1822 3444  Q 2531 3444 2943 2961  Q 3356 2478 3366 1756  L 3366 1653  Q 3366 919 2952 428  Q 2538 -63 1828 -63  Q 1116 -63 702 428  Q 288 919 288 1653  L 288 1725  z M 866 1653  Q 866 1150 1105 781  Q 1344 413 1828 413  Q 2300 413 2540 777  Q 2781 1141 2784 1644  L 2784 1725  Q 2784 2222 2543 2595  Q 2303 2969 1822 2969  Q 1344 2969 1105 2595  Q 866 2222 866 1725  L 866 1653  z " transform="scale(0.015625)"/>
       <path id="Roboto-Regular-6e" d="M 1844 2956  Q 1566 2956 1353 2806  Q 1141 2656 1019 2416  L 1019 0  L 441 0  L 441 3381  L 988 3381  L 1006 2959  Q 1391 3444 2016 3444  Q 2513 3444 2805 3166  Q 3097 2888 3100 2231  L 3100 0  L 2519 0  L 2519 2222  Q 2519 2619 2345 2787  Q 2172 2956 1844 2956  z " transform="scale(0.015625)"/>
       <path id="Roboto-Regular-74" d="M 1872 0  Q 1675 -63 1425 -63  Q 1103 -63 875 134  Q 647 331 647 841  L 647 2938  L 28 2938  L 28 3381  L 647 3381  L 647 4203  L 1225 4203  L 1225 3381  L 1856 3381  L 1856 2938  L 1225 2938  L 1225 838  Q 1225 578 1337 506  Q 1450 434 1597 434  Q 1706 434 1869 472  L 1872 0  z " transform="scale(0.015625)"/>
       <path id="Roboto-Regular-70" d="M 1984 -63  Q 1375 -63 1019 328  L 1019 -1300  L 438 -1300  L 438 3381  L 969 3381  L 997 3009  Q 1353 3444 1975 3444  Q 2616 3444 2956 2969  Q 3297 2494 3297 1719  L 3297 1653  Q 3297 913 2955 425  Q 2613 -63 1984 -63  z M 1806 2956  Q 1281 2956 1019 2491  L 1019 872  Q 1284 413 1813 413  Q 2281 413 2498 781  Q 2716 1150 2716 1653  L 2716 1719  Q 2716 2222 2498 2589  Q 2281 2956 1806 2956  z " transform="scale(0.015625)"/>
       <path id="Roboto-Regular-73" d="M 2409 897  Q 2409 1081 2273 1229  Q 2138 1378 1647 1478  Q 1081 1594 747 1814  Q 413 2034 413 2456  Q 413 2856 755 3150  Q 1097 3444 1666 3444  Q 2272 3444 2612 3134  Q 2953 2825 2953 2388  L 2375 2388  Q 2375 2597 2190 2783  Q 2006 2969 1666 2969  Q 1306 2969 1150 2812  Q 994 2656 994 2472  Q 994 2288 1139 2173  Q 1284 2059 1756 1953  Q 2378 1813 2683 1584  Q 2988 1356 2988 941  Q 2988 494 2630 215  Q 2272 -63 1681 -63  Q 1009 -63 653 281  Q 297 625 297 1044  L 878 1044  Q 897 684 1155 548  Q 1413 413 1681 413  Q 2034 413 2221 550  Q 2409 688 2409 897  z " transform="scale(0.015625)"/>
       <path id="STIXGeneral-Italic-78" d="M 1555 2272  L 1632 1907  Q 1971 2426 2179 2624  Q 2387 2822 2598 2822  Q 2714 2822 2787 2755  Q 2861 2688 2861 2585  Q 2861 2483 2800 2419  Q 2739 2355 2643 2355  Q 2586 2355 2490 2409  Q 2394 2464 2310 2464  Q 2125 2464 1683 1690  Q 1683 1606 1734 1402  L 1939 544  Q 2003 282 2131 282  Q 2234 282 2432 538  Q 2451 563 2476 598  Q 2502 634 2521 662  Q 2541 691 2566 717  L 2662 659  Q 2387 230 2227 80  Q 2067 -70 1882 -70  Q 1728 -70 1645 26  Q 1562 122 1504 365  L 1318 1126  L 755 365  Q 557 96 432 13  Q 307 -70 147 -70  Q 0 -70 -86 0  Q -173 70 -173 198  Q -173 294 -112 361  Q -51 429 45 429  Q 122 429 250 358  Q 346 301 416 301  Q 525 301 742 614  L 1267 1357  L 1088 2150  Q 1024 2432 969 2509  Q 915 2586 794 2586  Q 717 2586 544 2541  L 429 2509  L 410 2611  L 480 2637  Q 992 2822 1229 2822  Q 1350 2822 1420 2707  Q 1491 2592 1555 2272  z " transform="scale(0.015625)"/>
       <path id="STIXGeneral-Regular-66" d="M 134 2880  L 659 2880  Q 666 3264 710 3478  Q 755 3693 883 3910  Q 1152 4371 1786 4371  Q 2074 4371 2262 4259  Q 2451 4147 2451 3974  Q 2451 3866 2374 3789  Q 2298 3712 2182 3712  Q 2029 3712 1894 3942  Q 1741 4192 1555 4192  Q 1197 4192 1197 3622  L 1197 2880  L 1978 2880  L 1978 2675  L 1197 2675  L 1197 666  Q 1197 307 1299 208  Q 1402 109 1792 96  L 1792 0  L 128 0  L 128 96  Q 474 115 566 214  Q 659 314 659 666  L 659 2675  L 134 2675  L 134 2880  z " transform="scale(0.015625)"/>
       <path id="STIXGeneral-Italic-6c" d="M 1786 4339  L 806 595  Q 755 410 755 320  Q 755 205 864 205  Q 1037 205 1293 570  L 1453 794  L 1542 730  Q 1254 275 1046 102  Q 838 -70 576 -70  Q 262 -70 262 288  Q 262 397 288 480  L 1165 3834  Q 1184 3898 1184 3955  Q 1184 4096 870 4096  L 755 4096  L 755 4198  Q 1203 4250 1747 4371  L 1786 4339  z " transform="scale(0.015625)"/>
      </defs>
      <use xlink:href="#Roboto-Regular-46" transform="translate(0 0.921875)"/>
      <use xlink:href="#Roboto-Regular-72" transform="translate(55.273438 0.921875)"/>
      <use xlink:href="#Roboto-Regular-6f" transform="translate(89.160156 0.921875)"/>
      <use xlink:href="#Roboto-Regular-6e" transform="translate(146.191406 0.921875)"/>
      <use xlink:href="#Roboto-Regular-74" transform="translate(201.416016 0.921875)"/>
      <use xlink:href="#Roboto-Regular-20" transform="translate(234.130859 0.921875)"/>
      <use xlink:href="#Roboto-Regular-70" transform="translate(258.935547 0.921875)"/>
      <use xlink:href="#Roboto-Regular-6f" transform="translate(315.087891 0.921875)"/>
      <use xlink:href="#Roboto-Regular-73" transform="translate(372.119141 0.921875)"/>
      <use xlink:href="#Roboto-Regular-69" transform="translate(423.730469 0.921875)"/>
      <use xlink:href="#Roboto-Regular-74" transform="translate(448.046875 0.921875)"/>
      <use xlink:href="#Roboto-Regular-69" transform="translate(480.761719 0.921875)"/>
      <use xlink:href="#Roboto-Regular-6f" transform="translate(505.078125 0.921875)"/>
      <use xlink:href="#Roboto-Regular-6e" transform="translate(562.109375 0.921875)"/>
      <use xlink:href="#Roboto-Regular-2c" transform="translate(617.333984 0.921875)"/>
      <use xlink:href="#Roboto-Regular-20" transform="translate(637.011719 0.921875)"/>
      <use xlink:href="#STIXGeneral-Italic-78" transform="translate(661.816406 0.921875)"/>
      <use xlink:href="#STIXGeneral-Regular-66" transform="translate(706.2164 -12.30625) scale(0.7)"/>
      <use xlink:href="#STIXGeneral-Regular-2f" transform="translate(733.935767 0.921875)"/>
      <use xlink:href="#STIXGeneral-Italic-6c" transform="translate(761.735754 0.921875)"/>
      <use xlink:href="#STIXGeneral-Regular-30" transform="translate(789.535742 -12.30625) scale(0.7)"/>
     </g>
    </g>
   </g>
   <g id="line2d_15">
    <path d="M 49.536533 196.183102  L 52.372647 194.106533  L 53.885241 193.386754  L 55.397836 192.805697  L 58.044876 191.855754  L 60.502842 190.478598  L 65.040625 187.746441  L 67.498591 185.247461  L 71.658226 181.07683  L 74.116192 179.055915  L 80.355644 174.331316  L 83.002684 172.214386  L 90.376582 166.263705  L 95.859736 162.033607  L 97.561405 160.7812  L 106.826046 154.310684  L 110.418457 151.398771  L 113.821795 148.464487  L 116.468835 146.158679  L 121.195693 141.987339  L 122.141064 141.143456  L 129.136813 134.971637  L 145.019055 121.881459  L 145.775352 121.281354  L 146.1535 120.917642  L 146.531649 120.673465  L 148.422392 119.11478  L 149.934986 117.782364  L 150.124061 116.965934  L 151.069432 116.78053  L 151.636655 116.37423  L 154.47277 113.892206  L 173.569274 97.043217  L 174.892794 95.860913  L 175.081868 95.523156  L 176.216314 94.908722  L 176.972612 94.193551  L 177.728909 93.700744  L 178.485206 93.047499  L 179.619652 92.279801  L 183.401138 89.375253  L 183.590212 88.922228  L 185.670029 87.595788  L 187.371698 86.144285  L 190.585961 83.27155  L 195.501893 79.234727  L 209.87154 67.728518  L 215.921918 63.074681  L 221.972295 58.70916  L 225.942856 55.824815  L 240.123428 44.759221  L 242.014171 43.36732  L 249.198995 37.96631  L 250.711589 36.912016  L 253.736778 34.708325  L 254.682149 34.038485  L 254.871224 33.915582  L 254.871224 33.915582  " clip-path="url(#p380e4966db)" style="fill: none; stroke: #1f77b4; stroke-width: 1.5; stroke-linecap: square"/>
   </g>
   <g id="line2d_16">
    <path d="M 52.642302 193.034855  L 54.930154 191.636516  L 58.933895 189.401217  L 63.318944 186.864988  L 69.038574 182.494664  L 71.51708 180.708116  L 96.111488 163.663283  L 99.73392 161.374644  L 104.118969 158.902744  L 108.885327 156.316142  L 110.982525 154.872952  L 114.032994 152.521919  L 116.130191 150.759796  L 117.84608 149.07357  L 120.133932 146.780636  L 123.947018 142.999131  L 131.382537 135.747222  L 143.775068 124.513289  L 150.06666 119.562023  L 152.545167 117.609517  L 162.077883 109.226677  L 165.890969 105.865309  L 169.704055 102.800475  L 171.801253 101.049676  L 176.376957 97.41875  L 180.95266 94.140262  L 206.309685 76.94516  L 211.076043 73.649747  L 212.410623 72.741207  L 217.55829 69.428539  L 220.608759 67.669721  L 233.954562 60.403468  L 239.483537 57.26894  L 245.203167 54.404529  L 250.160179 51.811814  L 254.735883 49.385763  L 268.653648 42.561419  L 276.470475 39.08197  L 281.236833 36.96791  L 282.190105 36.565391  L 282.190105 36.565391  " clip-path="url(#p380e4966db)" style="fill: none; stroke: #ff7f0e; stroke-width: 1.5; stroke-linecap: square"/>
   </g>
   <g id="line2d_17">
    <path d="M 49.723341 196.995307  L 50.290375 196.747033  L 52.558511 194.656704  L 55.20467 192.59439  L 56.527749 191.304715  L 57.094783 190.750641  L 58.228851 189.721424  L 62.009078 186.852778  L 67.301396 182.419321  L 71.081623 179.778878  L 72.404703 178.793588  L 75.050861 176.551433  L 87.336599 166.755626  L 93.00694 162.966136  L 93.573974 162.617848  L 93.762985 162.173925  L 94.897053 161.766645  L 97.543212 160.131473  L 102.83553 156.859934  L 107.749825 153.615225  L 130.431187 137.445904  L 134.967459 134.432941  L 137.424607 132.88004  L 148.387265 125.761108  L 152.356504 122.790653  L 152.545515 121.650395  L 153.868594 121.437684  L 154.246617 121.279391  L 159.349923 117.395888  L 165.965321 112.675306  L 171.44665 109.416109  L 174.092809 107.80161  L 182.409308 102.459816  L 184.677444 101.057899  L 188.646683 98.681943  L 196.396148 94.272077  L 200.176375 92.312031  L 204.523636 90.258971  L 206.224738 89.498987  L 232.308305 78.720863  L 241.947883 74.576647  L 276.53696 62.216927  L 285.798517 59.415493  L 285.798517 59.415493  " clip-path="url(#p380e4966db)" style="fill: none; stroke: #2ca02c; stroke-width: 1.5; stroke-linecap: square"/>
   </g>
   <g id="line2d_18">
    <path d="M 51.044461 196.834451  L 52.178255 195.758143  L 56.146537 191.915577  L 58.414126 190.280814  L 69.185176 182.81883  L 70.885868 181.711021  L 73.342423 179.864292  L 74.85415 178.613026  L 77.310705 176.7281  L 81.656918 173.981687  L 83.924507 172.719494  L 85.6252 171.792326  L 86.570028 171.349454  L 88.837618 169.770474  L 98.852805 162.719244  L 104.89971 158.922835  L 110.001786 156.064381  L 113.592136 154.119414  L 125.874912 147.899155  L 126.819741 147.472285  L 129.08733 146.505314  L 139.669414 142.30651  L 142.125969 141.689629  L 143.826662 141.267414  L 145.527354 140.895485  L 149.306669 140.001801  L 149.873567 139.760079  L 150.818396 139.45414  L 153.085985 138.649348  L 165.746693 133.782262  L 167.069453 133.288617  L 171.793598 131.659996  L 174.81705 130.794316  L 178.974298 129.802239  L 184.643271 128.445258  L 188.611553 127.54724  L 194.658458 126.216195  L 195.414321 126.09487  L 200.705363 124.886444  L 205.807439 123.723427  L 206.941234 123.514703  L 207.697097 123.326645  L 208.45296 123.202205  L 217.712284 121.63803  L 219.035044 121.471479  L 219.412976 121.429789  L 220.924702 121.196427  L 221.302634 121.18808  L 222.058497 121.052092  L 222.436428 121.069467  L 223.948155 120.797826  L 224.13712 120.866283  L 224.515052 120.75052  L 225.270915 120.744263  L 225.648847 120.621708  L 228.483334 120.365965  L 228.861265 120.429637  L 229.050231 120.38675  L 229.239197 120.501141  L 229.617128 120.373587  L 229.99506 120.476484  L 230.750923 120.382366  L 238.49852 119.622831  L 238.687486 119.694795  L 239.254383 119.630446  L 240.199212 119.533389  L 240.388178 119.605155  L 240.577144 119.455672  L 241.521973 119.623667  L 241.899904 119.543139  L 242.655767 119.47671  L 243.033699 119.602967  L 243.411631 119.575262  L 243.789562 119.672036  L 244.167494 119.594937  L 244.35646 119.651907  L 244.545425 119.562024  L 245.112323 119.67619  L 245.490254 119.555982  L 245.868186 119.598511  L 246.057152 119.477513  L 246.246117 119.567878  L 247.190946 119.463007  L 247.568878 119.450503  L 248.324741 119.491726  L 248.513707 119.230231  L 248.702673 119.42672  L 249.080604 119.407009  L 249.26957 119.157067  L 249.458536 119.499284  L 250.59233 119.44372  L 250.970262 119.435842  L 251.915091 119.379041  L 252.85992 119.418445  L 253.048886 119.248225  L 253.804749 119.304225  L 253.993715 119.045304  L 254.18268 119.258387  L 254.749578 119.108377  L 254.938544 119.176605  L 254.938544 119.176605  " clip-path="url(#p380e4966db)" style="fill: none; stroke: #d62728; stroke-width: 1.5; stroke-linecap: square"/>
   </g>
   <g id="line2d_19">
    <path d="M 51.618809 195.204835  L 54.266598 192.85776  L 56.536131 190.510256  L 59.18392 187.953958  L 60.318686 186.948473  L 61.831709 185.597872  L 64.479497 183.570697  L 67.883797 181.124117  L 69.775075 179.775975  L 73.935886 176.638888  L 78.853208 173.197723  L 84.527041 169.078692  L 87.553085 167.170414  L 95.874707 159.467543  L 101.926795 153.835702  L 111.004928 145.761777  L 114.030972 142.975651  L 117.435272 139.605377  L 122.352594 135.092415  L 125.000383 132.487679  L 129.917704 127.30711  L 132.565493 124.652464  L 135.969793 121.199228  L 143.913159 113.42695  L 153.747803 104.273069  L 159.421636 99.021381  L 162.069425 96.65743  L 162.825936 95.93724  L 163.204191 95.434135  L 163.960702 95.016058  L 164.338958 94.45441  L 167.365002 91.554371  L 169.25628 89.563533  L 169.634535 88.960267  L 171.904069 86.896886  L 176.064879 82.696516  L 182.116968 77.054138  L 189.303823 70.24038  L 193.086378 66.508319  L 196.868934 62.969437  L 202.921022 57.04965  L 215.025199 45.239468  L 226.751121 34.742026  L 227.507632 34.099571  L 227.507632 34.099571  " clip-path="url(#p380e4966db)" style="fill: none; stroke: #9467bd; stroke-width: 1.5; stroke-linecap: square"/>
   </g>
   <g id="line2d_20">
    <path d="M 49.280615 192.024115  L 49.484623 191.434445  M 49.729431 190.930373  L 49.811034 190.692603  L 50.219049 189.741523  M 50.300652 189.646415  L 50.423056 189.265983  M 50.504659 189.199407  L 50.790269 188.495608  M 50.953475 188.210284  L 51.239085 187.554039  M 51.320688 187.363822  L 51.402291 187.173606  M 51.483894 187.078498  L 51.810306 186.355678  M 51.891909 186.222526  L 52.014313 185.927692  M 52.095916 185.842094  L 52.299923 185.271446  M 52.381526 185.261936  L 52.503931 184.871993  M 52.585534 184.700798  L 52.74874 184.36792  M 52.830342 184.225258  L 52.871144 184.035042  M 53.03435 183.835316  L 53.115953 183.645099  M 53.197556 183.464394  L 53.279159 183.359775  M 53.442364 183.074451  L 53.523967 182.893746  M 53.60557 182.760595  L 53.727975 182.503803  M 53.809578 182.408695  L 54.054386 181.847558  M 54.135989 181.838047  L 54.625607 180.80137  M 54.748011 180.658708  L 54.952018 180.230722  M 55.196827 179.840779  L 55.400835 179.37475  M 55.56404 179.184534  L 55.768048 178.670951  M 55.931254 178.42367  L 56.094459 178.128835  L 56.543275 177.187266  M 56.624878 177.063626  L 56.869687 176.616618  M 56.95129 176.52151  L 56.992092 176.331294  M 57.114496 176.198143  L 57.2369 175.950862  M 57.440908 175.656027  L 57.481709 175.465811  M 57.563312 175.4563  L 57.644915 175.189998  M 57.726518 175.180487  L 57.930525 174.714458  M 58.134532 174.429134  L 58.216135 174.14381  M 58.420143 173.858486  L 58.460944 173.763378  M 58.664951 173.382946  L 58.705753 173.287838  M 58.828157 173.19273  L 58.90976 172.907406  M 59.072966 172.71719  L 59.19537 172.336758  M 59.399378 172.146542  L 59.440179 172.051434  M 59.521782 171.861218  L 59.562584 171.76611  M 59.644187 171.756599  L 59.848194 171.29057  M 59.929797 171.195462  L 59.970598 171.100354  M 60.174606 170.81503  L 60.29701 170.529706  M 60.378613 170.434598  L 60.419414 170.33949  M 60.501017 170.244382  L 60.541819 170.149274  M 60.909032 169.474007  L 61.031436 169.198193  M 61.276245 168.817761  L 61.480252 168.247113  M 61.602657 168.152005  L 61.643458 168.056897  M 61.806664 167.866681  L 61.929068 167.486249  M 62.133076 167.200925  L 62.173877 167.105817  M 62.377884 166.820493  L 62.54109 166.440061  M 62.622693 166.344953  L 62.663495 166.249845  M 62.745098 166.154737  L 62.785899 165.964521  M 62.949105 165.774305  L 63.030708 165.679197  L 63.234715 165.203657  M 63.316318 165.108549  L 63.35712 165.013441  M 63.438722 164.918333  L 63.479524 164.728117  M 63.724333 164.442793  L 63.765134 164.252577  M 63.846737 164.157469  L 63.887539 164.062361  M 64.091546 163.681929  L 64.132347 163.586821  M 64.254752 163.491713  L 64.336355 163.206389  M 64.458759 163.111281  L 64.540362 163.016173  L 64.703568 162.635741  M 64.989178 162.350417  L 65.070781 162.160201  M 65.193185 162.065093  L 65.31559 161.779769  M 65.560398 161.484934  L 65.642001 161.399337  L 65.723604 161.209121  M 65.805207 161.114013  L 65.846009 161.018905  M 65.968413 160.923797  L 66.009215 160.828689  M 66.131619 160.72407  L 66.17242 160.543365  M 66.254023 160.467279  L 66.335626 160.353149  M 66.580435 159.972717  L 66.662038 159.868098  L 66.784442 159.497177  M 66.947648 159.354515  L 67.110854 158.926529  M 67.233258 158.859953  L 67.27406 158.831421  L 67.314861 158.641205  M 67.396464 158.546097  L 67.437266 158.450989  M 67.600472 158.260773  L 67.682074 158.070557  M 67.763677 157.975449  L 67.886082 157.690125  M 68.212493 157.309693  L 68.253295 157.214585  M 68.334898 157.119477  L 68.375699 157.109966  L 68.579707 156.643937  L 68.702111 156.453721  M 68.783714 156.387145  L 69.110126 155.978181  L 69.150927 155.883073  M 69.23253 155.778454  L 69.273331 155.597749  M 69.354934 155.521662  L 69.558942 155.122209  M 69.640545 155.027101  L 69.722148 154.836885  M 69.80375 154.741777  L 69.844552 154.732266  L 69.885353 154.551561  M 69.966956 154.456453  L 70.007758 154.361345  M 71.721419 151.679299  L 71.925427 151.317889  M 72.007029 151.21327  L 72.088632 151.118162  M 72.170235 151.032564  L 72.211037 150.937456  M 72.29264 150.927946  L 72.415044 150.652132  M 72.782257 150.195614  L 72.86386 150.081484  L 72.904662 149.976866  M 73.067867 149.79616  L 73.108669 149.701052  M 73.190272 149.691542  L 73.231073 149.596434  M 73.312676 149.577412  L 73.353478 149.406218  M 73.435081 149.330131  L 73.516684 149.206491  M 73.598286 148.95921  L 73.639088 148.940188  M 73.843095 148.83557  L 73.883897 148.654864  M 74.128705 148.464648  L 74.25111 148.36003  L 74.373514 148.084216  M 74.53672 147.989108  L 74.577522 147.798892  M 74.781529 147.608676  L 74.82233 147.504057  M 74.944735 147.41846  L 74.985536 147.313841  M 75.067139 147.123625  L 75.107941 146.182056  M 76.49519 145.421192  L 76.739999 144.850544  M 76.944006 144.56522  L 76.984808 144.555709  M 77.188815 144.279896  L 77.229617 144.270385  L 77.311219 143.994572  M 77.392822 143.899464  L 77.433624 143.889953  M 77.964043 143.233708  L 78.045646 143.043492  M 78.412859 142.66306  L 78.45366 142.567952  M 78.535263 142.558441  L 78.657668 142.18752  M 79.065682 141.892685  L 79.106484 141.71198  M 79.310491 141.521764  L 79.392094 141.426656  L 79.432895 141.23644  M 79.677704 140.665792  L 79.718506 140.570684  M 79.963314 140.095144  L 80.004116 140.000036  M 80.452932 139.619604  L 80.493733 139.429388  M 80.94255 139.144064  L 81.024152 138.953848  M 81.187358 138.849229  L 81.391366 138.373689  L 81.432167 138.278581  M 81.595373 138.097876  L 81.79938 137.688911  M 81.880983 137.622336  L 81.921785 137.517717  M 82.003388 137.441631  L 82.044189 137.327501  M 82.125792 137.31799  L 82.207395 137.137285  M 82.370601 136.851961  L 82.411402 136.766364  M 82.493005 136.756853  L 82.615409 136.471529  M 82.819417 136.328867  L 82.982623 136.072075  M 83.309034 135.615557  L 83.349836 135.520449  M 83.431439 135.453873  L 83.47224 135.434852  M 83.717049 135.05442  L 83.75785 134.949801  M 84.002659 134.664477  L 84.165865 134.198448  M 84.247468 134.10334  L 84.288269 134.093829  L 84.533078 133.437584  L 84.85949 132.676719  M 84.941093 132.581611  L 85.267504 131.915855  L 85.308306 131.345207  M 85.675519 131.059883  L 85.716321 130.964775  M 85.797923 130.869667  L 85.879526 130.679451  M 85.961129 130.584343  L 86.083534 130.299019  M 86.165137 130.203911  L 86.287541 129.918587  M 86.491548 129.633263  L 86.53235 129.538155  M 86.613953 129.528644  L 86.777159 129.157723  M 87.021967 128.777291  L 87.062769 128.682183  M 87.960401 127.540887  L 88.001202 127.445779  M 88.164408 127.34116  L 88.246011 127.160455  M 88.327614 127.065347  L 88.368416 126.970239  M 88.450018 126.875131  L 88.531621 126.780023  L 88.735629 126.399591  M 88.898835 126.209375  L 89.06204 125.924051  M 89.306849 125.638727  L 89.388452 125.534108  M 89.470055 125.448511  L 89.551658 125.258295  M 89.633261 125.182209  L 89.755665 125.058568  L 89.918871 124.782755  M 90.000474 124.687647  L 90.082077 124.583028  M 90.245283 124.402323  L 90.326886 124.212107  M 90.408489 124.193085  L 90.490092 124.021891  M 90.571694 123.926783  L 90.612496 123.831675  M 90.694099 123.736567  L 90.775702 123.546351  M 91.102113 123.165919  L 91.142915 122.975703  M 91.224518 122.966192  L 91.265319 122.880595  M 91.346922 122.785487  L 91.387724 122.69989  L 91.428525 121.834407  M 92.366959 121.358867  L 92.40776 121.263759  M 92.489363 121.168651  L 92.530165 121.073543  M 92.856576 120.693111  L 93.060584 120.217571  M 96.03909 115.462171  L 96.079892 115.367063  M 96.243098 115.176846  L 96.283899 115.081738  M 96.936722 114.320874  L 96.977524 114.225766  M 97.059127 114.159191  L 97.099928 114.130658  M 97.181531 114.03555  L 97.222333 113.940442  M 97.71195 113.464902  L 97.752752 113.369794  M 97.875156 113.274686  L 97.915958 113.179578  M 98.405575 112.789636  L 98.446377 112.704038  M 98.609582 112.59942  L 98.731987 112.418714  M 98.81359 112.409204  L 98.854391 112.323606  M 98.976796 112.228498  L 99.058398 112.13339  M 99.466413 111.800512  L 99.629619 111.65785  M 99.711222 111.64834  L 99.752023 111.562742  M 99.833626 111.553231  L 99.874428 111.458123  M 99.996832 111.372526  L 100.037634 111.277418  M 101.139273 110.136122  L 101.180074 110.041014  M 104.852206 106.90245  L 104.893007 106.807342  M 106.973882 104.810074  L 107.014683 104.714966  M 107.218691 104.52475  L 107.259492 104.429642  M 108.442735 103.193238  L 108.483536 103.09813  M 108.809948 102.812806  L 108.850749 102.717698  M 109.095558 102.432374  L 109.136359 102.337266  M 109.217962 102.242158  L 109.258764 102.14705  M 109.340367 102.051942  L 109.381168 101.956834  M 109.462771 101.861726  L 109.544374 101.67151  M 109.625977 101.576402  L 109.666778 101.481294  M 109.748381 101.386186  L 109.789183 101.291078  M 109.870786 101.19597  L 109.911587 101.100862  M 109.99319 101.005754  L 110.033992 100.910646  M 110.197197 100.72043  L 110.2788 100.530214  M 110.360403 100.435106  L 110.482808 100.149782  M 110.727616 99.864458  L 110.768418 99.76935  M 110.850021 99.674242  L 110.890822 99.579134  M 111.176433 99.29381  L 111.217234 99.198702  M 111.625249 98.723162  L 111.66605 98.628054  M 112.318873 97.86719  L 112.359675 97.772082  M 112.604484 97.486758  L 112.686087 97.296542  M 112.808491 97.201434  L 112.849292 97.106325  M 113.91013 96.060137  " clip-path="url(#p380e4966db)" style="fill: none; stroke: #8c564b; stroke-width: 1.5; stroke-linecap: square"/>
   </g>
   <g id="line2d_21">
    <path d="M 48.828819 189.074775  L 49.067624 188.230043  L 49.386029 187.068536  L 50.221844 184.566017  L 51.13726 181.778401  L 51.455666 180.933668  M 51.535267 180.828077  L 52.132277 179.550419  L 53.286498 176.509384  L 54.082512 174.524263  L 54.599921 173.44723  L 55.594938 171.388195  L 56.112347 170.268925  L 56.231749 170.057742  L 59.057599 162.254528  L 60.84863 157.291727  L 60.928232 157.175576  L 64.351092 147.78849  L 66.142123 142.857366  L 66.221724 142.709538  L 66.778934 140.766654  L 68.331161 136.690821  M 68.410763 136.585229  L 70.878406 130.313093  L 71.475417 129.193823  L 74.938077 120.218543  M 77.007714 116.005442  L 78.758944 111.66563  L 79.156951 110.831457  L 80.828581 106.702829  L 80.908182 106.576119  L 81.505193 105.330139  M 81.584794 105.224547  L 82.261406 103.862417  L 82.341007 103.746266  L 83.972836 100.103359  L 84.132039 99.744347  L 84.80865 98.255507  L 86.559881 94.35918  L 86.639483 94.253588  L 87.03749 93.503889  M 89.107126 88.446055  L 90.778755 84.317426  L 90.818556 84.222394  L 90.818556 84.222394  " clip-path="url(#p380e4966db)" style="fill: none; stroke: #e377c2; stroke-width: 1.5; stroke-linecap: square"/>
   </g>
   <g id="patch_3">
    <path d="M 36.849303 211.06851  L 36.849303 3.00024  " style="fill: none; stroke: #000000; stroke-width: 0.8; stroke-linejoin: miter; stroke-linecap: square"/>
   </g>
   <g id="patch_4">
    <path d="M 285.704111 211.06851  L 285.704111 3.00024  " style="fill: none; stroke: #000000; stroke-width: 0.8; stroke-linejoin: miter; stroke-linecap: square"/>
   </g>
   <g id="patch_5">
    <path d="M 36.849303 211.06851  L 285.704111 211.06851  " style="fill: none; stroke: #000000; stroke-width: 0.8; stroke-linejoin: miter; stroke-linecap: square"/>
   </g>
   <g id="patch_6">
    <path d="M 36.849303 3.00024  L 285.704111 3.00024  " style="fill: none; stroke: #000000; stroke-width: 0.8; stroke-linejoin: miter; stroke-linecap: square"/>
   </g>
   <g id="patch_7">
    <path d="M 98.663631 62.448317  Q 148.393177 62.448317 160.062781 82.660663  " style="fill: none; stroke: #000000; stroke-linecap: round"/>
    <path d="M 103.063631 64.648317  L 98.663631 62.448317  L 103.063631 60.248317  " style="fill: none; stroke: #000000; stroke-linecap: round"/>
   </g>
   <g id="text_17">
    <!-- global slope $\nearrow$ -->
    <g transform="translate(55.058191 50.558702) scale(0.11 -0.11)">
     <defs>
      <path id="Roboto-Regular-67" d="M 1725 -1334  Q 1463 -1334 1081 -1206  Q 700 -1078 472 -747  L 775 -403  Q 1150 -859 1681 -859  Q 2091 -859 2334 -629  Q 2578 -400 2578 44  L 2578 341  Q 2234 -63 1631 -63  Q 1022 -63 662 425  Q 303 913 303 1653  L 303 1719  Q 303 2494 661 2969  Q 1019 3444 1638 3444  Q 2259 3444 2603 3006  L 2631 3381  L 3156 3381  L 3156 72  Q 3156 -600 2756 -967  Q 2356 -1334 1725 -1334  z M 881 1653  Q 881 1150 1092 789  Q 1303 428 1772 428  Q 2322 428 2578 928  L 2578 2469  Q 2469 2678 2275 2817  Q 2081 2956 1778 2956  Q 1306 2956 1093 2589  Q 881 2222 881 1719  L 881 1653  z " transform="scale(0.015625)"/>
      <path id="Roboto-Regular-6c" d="M 1069 4800  L 1069 0  L 488 0  L 488 4800  L 1069 4800  z " transform="scale(0.015625)"/>
      <path id="Roboto-Regular-62" d="M 3303 1653  Q 3303 913 2959 425  Q 2616 -63 1988 -63  Q 1347 -63 1000 391  L 969 0  L 438 0  L 438 4800  L 1019 4800  L 1019 3016  Q 1363 3444 1981 3444  Q 2619 3444 2961 2969  Q 3303 2494 3303 1719  L 3303 1653  z M 1838 2956  Q 1522 2956 1325 2804  Q 1128 2653 1019 2431  L 1019 959  Q 1131 734 1331 581  Q 1531 428 1844 428  Q 2313 428 2517 789  Q 2722 1150 2722 1653  L 2722 1719  Q 2722 2222 2526 2589  Q 2331 2956 1838 2956  z " transform="scale(0.015625)"/>
      <path id="Roboto-Regular-61" d="M 2528 0  Q 2472 122 2447 356  Q 2284 184 2040 60  Q 1797 -63 1484 -63  Q 966 -63 653 228  Q 341 519 341 941  Q 341 1484 753 1767  Q 1166 2050 1863 2050  L 2434 2050  L 2434 2319  Q 2434 2619 2254 2798  Q 2075 2978 1722 2978  Q 1394 2978 1192 2817  Q 991 2656 991 2444  L 413 2444  Q 413 2806 778 3125  Q 1144 3444 1756 3444  Q 2306 3444 2659 3162  Q 3013 2881 3013 2313  L 3013 794  Q 3013 325 3131 50  L 3131 0  L 2528 0  z M 1569 444  Q 1881 444 2111 600  Q 2341 756 2434 947  L 2434 1644  L 1897 1644  Q 922 1625 922 1019  Q 922 778 1084 611  Q 1247 444 1569 444  z " transform="scale(0.015625)"/>
      <path id="STIXGeneral-Regular-2197" d="M 5434 4237  L 5478 4192  Q 5242 3629 5242 2797  Q 5242 2605 5267 2259  L 5088 2253  Q 5024 2566 5024 3059  Q 5024 3187 4973 3238  Q 4947 3264 4896 3264  Q 4800 3264 4755 3219  L 755 -998  L 448 -698  L 4416 3469  Q 4518 3571 4518 3635  Q 4518 3680 4480 3718  Q 4429 3782 4294 3782  Q 3846 3782 3488 3846  L 3488 4026  Q 3846 4000 4038 4000  Q 4838 4000 5434 4237  z " transform="scale(0.015625)"/>
     </defs>
     <use xlink:href="#Roboto-Regular-67"/>
     <use xlink:href="#Roboto-Regular-6c" transform="translate(56.152344 0)"/>
     <use xlink:href="#Roboto-Regular-6f" transform="translate(80.46875 0)"/>
     <use xlink:href="#Roboto-Regular-62" transform="translate(137.5 0)"/>
     <use xlink:href="#Roboto-Regular-61" transform="translate(193.652344 0)"/>
     <use xlink:href="#Roboto-Regular-6c" transform="translate(248.046875 0)"/>
     <use xlink:href="#Roboto-Regular-20" transform="translate(272.363281 0)"/>
     <use xlink:href="#Roboto-Regular-73" transform="translate(297.167969 0)"/>
     <use xlink:href="#Roboto-Regular-6c" transform="translate(348.779297 0)"/>
     <use xlink:href="#Roboto-Regular-6f" transform="translate(373.095703 0)"/>
     <use xlink:href="#Roboto-Regular-70" transform="translate(430.126953 0)"/>
     <use xlink:href="#Roboto-Regular-65" transform="translate(486.279297 0)"/>
     <use xlink:href="#Roboto-Regular-20" transform="translate(539.306641 0)"/>
     <use xlink:href="#STIXGeneral-Regular-2197" transform="translate(578.551324 0)"/>
    </g>
   </g>
   <g id="patch_8">
    <path d="M 265.067371 106.986406  Q 265.067371 60.009777 224.400853 45.208375  " style="fill: none; stroke: #000000; stroke-linecap: round"/>
    <path d="M 267.267371 102.586406  L 265.067371 106.986406  L 262.867371 102.586406  " style="fill: none; stroke: #000000; stroke-linecap: round"/>
   </g>
   <g id="text_18">
    <!-- settling $\nearrow$ -->
    <g transform="translate(204.099889 105.84301) scale(0.11 -0.11)">
     <use xlink:href="#Roboto-Regular-73"/>
     <use xlink:href="#Roboto-Regular-65" transform="translate(51.611328 0)"/>
     <use xlink:href="#Roboto-Regular-74" transform="translate(104.638672 0)"/>
     <use xlink:href="#Roboto-Regular-74" transform="translate(137.353516 0)"/>
     <use xlink:href="#Roboto-Regular-6c" transform="translate(170.068359 0)"/>
     <use xlink:href="#Roboto-Regular-69" transform="translate(194.384766 0)"/>
     <use xlink:href="#Roboto-Regular-6e" transform="translate(218.701172 0)"/>
     <use xlink:href="#Roboto-Regular-67" transform="translate(273.925781 0)"/>
     <use xlink:href="#Roboto-Regular-20" transform="translate(330.078125 0)"/>
     <use xlink:href="#STIXGeneral-Regular-2197" transform="translate(369.322809 0)"/>
    </g>
   </g>
  </g>
 </g>
 <defs>
  <clipPath id="p380e4966db">
   <rect x="36.849303" y="3.00024" width="248.854808" height="208.06827"/>
  </clipPath>
 </defs>
</svg>
