<?xml version='1.0' encoding='ASCII' standalone='yes'?>
<svg xmlns:xlink="http://www.w3.org/1999/xlink" xmlns="http://www.w3.org/2000/svg" width="393.18226pt" height="224.775pt" viewBox="0 0 196.59113 112.3875" version="1.1">
 <metadata>
  <rdf:RDF xmlns:dc="http://purl.org/dc/elements/1.1/" xmlns:cc="http://creativecommons.org/ns#" xmlns:rdf="http://www.w3.org/1999/02/22-rdf-syntax-ns#">
   <cc:Work>
    <dc:type rdf:resource="http://purl.org/dc/dcmitype/StillImage"/>
    <dc:date>2023-12-06T18:55:49.714072</dc:date>
    <dc:format>image/svg+xml</dc:format>
    <dc:creator>
     <cc:Agent>
      <dc:title>Matplotlib v3.8.0, https://matplotlib.org/</dc:title>
     </cc:Agent>
    </dc:creator>
   </cc:Work>
  </rdf:RDF>
 </metadata>
 <defs>
  <style type="text/css">*{stroke-linejoin: round; stroke-linecap: butt}</style>
 </defs>
 <g id="figure_1">
  <g id="patch_1">
   <path d="M 0 112.3875  L 196.59113 112.3875  L 196.59113 0  L 0 0  z " style="fill: #ffffff"/>
  </g>
  <g id="axes_1">
   <g id="patch_2">
    <path d="M 37.59524 103.027885  L 110.842825 103.027885  L 110.842825 33.03024  L 37.59524 33.03024  z " style="fill: #ffffff"/>
   </g>
   <g id="matplotlib.axis_1">
    <g id="xtick_1">
     <g id="line2d_1">
      <defs>
       <path id="md856e4dda3" d="M 0 0  L 0 -3.5  " style="stroke: #000000; stroke-width: 0.8"/>
      </defs>
      <g>
       <use xlink:href="#md856e4dda3" x="37.59524" y="33.03024" style="stroke: #000000; stroke-width: 0.8"/>
      </g>
     </g>
     <g id="text_1">
      <!-- 0 -->
      <g transform="translate(34.504068 23.795865) scale(0.11 -0.11)">
       <defs>
        <path id="Roboto-Regular-30" d="M 3234 1944  Q 3234 825 2848 381  Q 2463 -63 1800 -63  Q 1156 -63 764 368  Q 372 800 359 1872  L 359 2638  Q 359 3753 750 4183  Q 1141 4613 1794 4613  Q 2447 4613 2834 4195  Q 3222 3778 3234 2709  L 3234 1944  z M 2653 2734  Q 2653 3503 2434 3822  Q 2216 4141 1794 4141  Q 1388 4141 1167 3831  Q 947 3522 941 2778  L 941 1850  Q 941 1088 1164 750  Q 1388 413 1800 413  Q 2222 413 2436 745  Q 2650 1078 2653 1825  L 2653 2734  z " transform="scale(0.015625)"/>
       </defs>
       <use xlink:href="#Roboto-Regular-30"/>
      </g>
     </g>
    </g>
    <g id="xtick_2">
     <g id="line2d_2">
      <g>
       <use xlink:href="#md856e4dda3" x="89.790981" y="33.03024" style="stroke: #000000; stroke-width: 0.8"/>
      </g>
     </g>
     <g id="text_2">
      <!-- 10 -->
      <g transform="translate(83.608637 23.795865) scale(0.11 -0.11)">
       <defs>
        <path id="Roboto-Regular-31" d="M 2278 4575  L 2278 0  L 1700 0  L 1700 3853  L 534 3428  L 534 3950  L 2188 4575  L 2278 4575  z " transform="scale(0.015625)"/>
       </defs>
       <use xlink:href="#Roboto-Regular-31"/>
       <use xlink:href="#Roboto-Regular-30" x="56.201172"/>
      </g>
     </g>
    </g>
    <g id="text_3">
     <!-- $u$ [cm/s] -->
     <g transform="translate(54.364032 11.545865) scale(0.11 -0.11)">
      <defs>
       <path id="STIXGeneral-Italic-75" d="M 2950 762  L 3040 704  Q 2733 237 2560 89  Q 2387 -58 2157 -58  Q 1850 -58 1850 250  Q 1850 538 2138 1510  Q 1568 576 1257 253  Q 947 -70 608 -70  Q 269 -70 269 269  Q 269 384 442 1088  L 666 1978  Q 755 2349 755 2406  Q 755 2483 684 2521  Q 614 2560 365 2560  L 365 2650  Q 806 2701 1325 2822  L 1350 2803  L 781 531  Q 762 474 762 429  Q 762 269 890 269  Q 1178 269 1798 1210  Q 2010 1530 2128 1795  Q 2246 2061 2502 2765  L 2976 2765  L 2470 851  Q 2349 390 2349 352  Q 2349 243 2419 243  Q 2496 243 2605 345  Q 2714 448 2950 762  z " transform="scale(0.015625)"/>
       <path id="Roboto-Regular-20" transform="scale(0.015625)"/>
       <path id="Roboto-Regular-5b" d="M 1634 5200  L 1634 4725  L 1038 4725  L 1038 -500  L 1634 -500  L 1634 -975  L 459 -975  L 459 5200  L 1634 5200  z " transform="scale(0.015625)"/>
       <path id="Roboto-Regular-63" d="M 1794 413  Q 2103 413 2336 597  Q 2569 781 2591 1069  L 3141 1069  Q 3119 616 2725 276  Q 2331 -63 1794 -63  Q 1031 -63 661 440  Q 291 944 291 1625  L 291 1756  Q 291 2438 661 2941  Q 1031 3444 1794 3444  Q 2388 3444 2753 3092  Q 3119 2741 3141 2219  L 2591 2219  Q 2569 2531 2355 2750  Q 2141 2969 1794 2969  Q 1438 2969 1236 2787  Q 1034 2606 951 2328  Q 869 2050 869 1756  L 869 1625  Q 869 1328 950 1050  Q 1031 772 1232 592  Q 1434 413 1794 413  z " transform="scale(0.015625)"/>
       <path id="Roboto-Regular-6d" d="M 1794 2956  Q 1225 2956 1016 2478  L 1016 0  L 434 0  L 434 3381  L 984 3381  L 1000 3013  Q 1366 3444 2000 3444  Q 2325 3444 2579 3314  Q 2834 3184 2969 2900  Q 3138 3144 3408 3294  Q 3678 3444 4044 3444  Q 4588 3444 4883 3153  Q 5178 2863 5178 2222  L 5178 0  L 4597 0  L 4597 2228  Q 4597 2653 4401 2804  Q 4206 2956 3875 2956  Q 3525 2956 3325 2748  Q 3125 2541 3094 2244  L 3094 0  L 2516 0  L 2516 2225  Q 2516 2622 2319 2789  Q 2122 2956 1794 2956  z " transform="scale(0.015625)"/>
       <path id="Roboto-Regular-2f" d="M 2453 4550  L 556 -391  L 59 -391  L 1959 4550  L 2453 4550  z " transform="scale(0.015625)"/>
       <path id="Roboto-Regular-73" d="M 2409 897  Q 2409 1081 2273 1229  Q 2138 1378 1647 1478  Q 1081 1594 747 1814  Q 413 2034 413 2456  Q 413 2856 755 3150  Q 1097 3444 1666 3444  Q 2272 3444 2612 3134  Q 2953 2825 2953 2388  L 2375 2388  Q 2375 2597 2190 2783  Q 2006 2969 1666 2969  Q 1306 2969 1150 2812  Q 994 2656 994 2472  Q 994 2288 1139 2173  Q 1284 2059 1756 1953  Q 2378 1813 2683 1584  Q 2988 1356 2988 941  Q 2988 494 2630 215  Q 2272 -63 1681 -63  Q 1009 -63 653 281  Q 297 625 297 1044  L 878 1044  Q 897 684 1155 548  Q 1413 413 1681 413  Q 2034 413 2221 550  Q 2409 688 2409 897  z " transform="scale(0.015625)"/>
       <path id="Roboto-Regular-5d" d="M 31 4725  L 31 5200  L 1213 5200  L 1213 -975  L 31 -975  L 31 -500  L 631 -500  L 631 4725  L 31 4725  z " transform="scale(0.015625)"/>
      </defs>
      <use xlink:href="#STIXGeneral-Italic-75" transform="translate(0 0.75)"/>
      <use xlink:href="#Roboto-Regular-20" transform="translate(49.999985 0.75)"/>
      <use xlink:href="#Roboto-Regular-5b" transform="translate(74.804672 0.75)"/>
      <use xlink:href="#Roboto-Regular-63" transform="translate(101.318344 0.75)"/>
      <use xlink:href="#Roboto-Regular-6d" transform="translate(153.662094 0.75)"/>
      <use xlink:href="#Roboto-Regular-2f" transform="translate(241.357407 0.75)"/>
      <use xlink:href="#Roboto-Regular-73" transform="translate(282.617172 0.75)"/>
      <use xlink:href="#Roboto-Regular-5d" transform="translate(334.2285 0.75)"/>
     </g>
    </g>
   </g>
   <g id="matplotlib.axis_2">
    <g id="ytick_1">
     <g id="line2d_3">
      <defs>
       <path id="mb7dd16e7b6" d="M 0 0  L -3.5 0  " style="stroke: #000000; stroke-width: 0.8"/>
      </defs>
      <g>
       <use xlink:href="#mb7dd16e7b6" x="37.59524" y="103.027885" style="stroke: #000000; stroke-width: 0.8"/>
      </g>
     </g>
     <g id="text_4">
      <!-- 0 -->
      <g transform="translate(24.412896 107.152885) scale(0.11 -0.11)">
       <use xlink:href="#Roboto-Regular-30"/>
      </g>
     </g>
    </g>
    <g id="ytick_2">
     <g id="line2d_4">
      <g>
       <use xlink:href="#mb7dd16e7b6" x="37.59524" y="71.210774" style="stroke: #000000; stroke-width: 0.8"/>
      </g>
     </g>
     <g id="text_5">
      <!-- 5 -->
      <g transform="translate(24.412896 75.335774) scale(0.11 -0.11)">
       <defs>
        <path id="Roboto-Regular-35" d="M 1109 2166  L 647 2284  L 875 4550  L 3209 4550  L 3209 4016  L 1366 4016  L 1228 2778  Q 1572 2975 1988 2975  Q 2616 2975 2980 2561  Q 3344 2147 3344 1450  Q 3344 797 2987 367  Q 2631 -63 1903 -63  Q 1350 -63 947 248  Q 544 559 481 1197  L 1031 1197  Q 1141 413 1903 413  Q 2313 413 2538 691  Q 2763 969 2763 1444  Q 2763 1872 2527 2164  Q 2291 2456 1853 2456  Q 1563 2456 1413 2378  Q 1263 2300 1109 2166  z " transform="scale(0.015625)"/>
       </defs>
       <use xlink:href="#Roboto-Regular-35"/>
      </g>
     </g>
    </g>
    <g id="ytick_3">
     <g id="line2d_5">
      <g>
       <use xlink:href="#mb7dd16e7b6" x="37.59524" y="39.393662" style="stroke: #000000; stroke-width: 0.8"/>
      </g>
     </g>
     <g id="text_6">
      <!-- 10 -->
      <g transform="translate(18.230553 43.518662) scale(0.11 -0.11)">
       <use xlink:href="#Roboto-Regular-31"/>
       <use xlink:href="#Roboto-Regular-30" x="56.201172"/>
      </g>
     </g>
    </g>
    <g id="text_7">
     <!-- height [cm] -->
     <g transform="translate(11.93774 95.213672) rotate(-90) scale(0.11 -0.11)">
      <defs>
       <path id="Roboto-Regular-68" d="M 1844 2956  Q 1566 2956 1353 2806  Q 1141 2656 1019 2416  L 1019 0  L 441 0  L 441 4800  L 1019 4800  L 1019 2978  Q 1403 3444 2016 3444  Q 2513 3444 2805 3166  Q 3097 2888 3100 2231  L 3100 0  L 2519 0  L 2519 2222  Q 2519 2619 2345 2787  Q 2172 2956 1844 2956  z " transform="scale(0.015625)"/>
       <path id="Roboto-Regular-65" d="M 3116 591  Q 2950 341 2647 139  Q 2344 -63 1844 -63  Q 1138 -63 714 396  Q 291 856 291 1572  L 291 1703  Q 291 2256 502 2645  Q 713 3034 1050 3239  Q 1388 3444 1769 3444  Q 2494 3444 2826 2970  Q 3159 2497 3159 1788  L 3159 1528  L 872 1528  Q 884 1063 1148 736  Q 1413 409 1875 409  Q 2181 409 2393 534  Q 2606 659 2766 869  L 3116 591  z M 1769 2969  Q 1425 2969 1187 2719  Q 950 2469 891 2000  L 2581 2000  L 2581 2044  Q 2559 2381 2386 2675  Q 2213 2969 1769 2969  z " transform="scale(0.015625)"/>
       <path id="Roboto-Regular-69" d="M 444 4278  Q 444 4419 530 4516  Q 616 4613 784 4613  Q 950 4613 1039 4516  Q 1128 4419 1128 4278  Q 1128 4144 1039 4048  Q 950 3953 784 3953  Q 616 3953 530 4048  Q 444 4144 444 4278  z M 1069 3381  L 1069 0  L 488 0  L 488 3381  L 1069 3381  z " transform="scale(0.015625)"/>
       <path id="Roboto-Regular-67" d="M 1725 -1334  Q 1463 -1334 1081 -1206  Q 700 -1078 472 -747  L 775 -403  Q 1150 -859 1681 -859  Q 2091 -859 2334 -629  Q 2578 -400 2578 44  L 2578 341  Q 2234 -63 1631 -63  Q 1022 -63 662 425  Q 303 913 303 1653  L 303 1719  Q 303 2494 661 2969  Q 1019 3444 1638 3444  Q 2259 3444 2603 3006  L 2631 3381  L 3156 3381  L 3156 72  Q 3156 -600 2756 -967  Q 2356 -1334 1725 -1334  z M 881 1653  Q 881 1150 1092 789  Q 1303 428 1772 428  Q 2322 428 2578 928  L 2578 2469  Q 2469 2678 2275 2817  Q 2081 2956 1778 2956  Q 1306 2956 1093 2589  Q 881 2222 881 1719  L 881 1653  z " transform="scale(0.015625)"/>
       <path id="Roboto-Regular-74" d="M 1872 0  Q 1675 -63 1425 -63  Q 1103 -63 875 134  Q 647 331 647 841  L 647 2938  L 28 2938  L 28 3381  L 647 3381  L 647 4203  L 1225 4203  L 1225 3381  L 1856 3381  L 1856 2938  L 1225 2938  L 1225 838  Q 1225 578 1337 506  Q 1450 434 1597 434  Q 1706 434 1869 472  L 1872 0  z " transform="scale(0.015625)"/>
      </defs>
      <use xlink:href="#Roboto-Regular-68"/>
      <use xlink:href="#Roboto-Regular-65" x="55.078125"/>
      <use xlink:href="#Roboto-Regular-69" x="108.105469"/>
      <use xlink:href="#Roboto-Regular-67" x="132.421875"/>
      <use xlink:href="#Roboto-Regular-68" x="188.574219"/>
      <use xlink:href="#Roboto-Regular-74" x="243.652344"/>
      <use xlink:href="#Roboto-Regular-20" x="276.367188"/>
      <use xlink:href="#Roboto-Regular-5b" x="301.171875"/>
      <use xlink:href="#Roboto-Regular-63" x="327.685547"/>
      <use xlink:href="#Roboto-Regular-6d" x="380.029297"/>
      <use xlink:href="#Roboto-Regular-5d" x="467.724609"/>
     </g>
    </g>
   </g>
   <g id="line2d_6">
    <path d="M 88.462953 110.815495  L 86.930072 109.97951  L 86.426724 109.561518  L 86.254927 109.143525  L 85.900134 108.725533  L 84.372566 107.889548  L 81.966038 106.63557  L 79.867848 105.799585  L 77.187242 104.9636  L 76.178426 104.545608  L 74.802735 103.709623  L 73.935581 103.29163  L 73.889976 102.873638  L 74.286011 102.455645  L 74.912769 102.037653  L 75.873432 101.61966  L 77.233231 101.201668  L 80.77475 100.365683  L 82.022031 99.94769  L 86.890924 98.693713  L 88.719136 97.857728  L 92.963441 95.767766  L 96.788779 92.841818  L 97.485528 92.005833  L 97.663069 91.587841  L 98.266215 91.169848  L 99.161479 90.751856  L 101.063113 89.079886  L 102.222934 87.825908  L 102.530611 87.407916  L 103.118153 86.989923  L 103.942028 85.735946  L 105.482353 84.481968  L 106.174376 83.645983  L 106.31733 83.227991  L 106.622532 82.809998  L 106.573179 82.392006  L 107.321424 81.974013  L 107.529191 81.556021  L 106.798794 80.720036  L 107.877979 79.884051  L 107.636895 79.466058  L 107.572818 79.048066  L 107.288781 78.630073  L 107.271712 78.212081  L 107.368905 77.794088  L 107.148224 76.958103  L 104.48011 74.868141  L 103.631661 74.032156  L 99.66875 71.524201  L 95.218374 69.434238  L 91.805394 68.180261  L 90.84045 67.762268  L 87.985516 66.926283  L 78.94751 64.836321  L 62.689506 61.492381  L 51.723298 58.148441  L 50.297121 57.312456  L 49.533489 56.894463  L 48.631183 56.058478  L 48.581056 55.640486  L 48.581056 55.640486  " clip-path="url(#pb776762283)" style="fill: none; stroke: #1f77b4; stroke-width: 1.5; stroke-linecap: square"/>
   </g>
   <g id="patch_3">
    <path d="M 37.59524 103.027885  L 37.59524 33.03024  " style="fill: none; stroke: #000000; stroke-width: 0.8; stroke-linejoin: miter; stroke-linecap: square"/>
   </g>
   <g id="patch_4">
    <path d="M 110.842825 103.027885  L 110.842825 33.03024  " style="fill: none; stroke: #000000; stroke-width: 0.8; stroke-linejoin: miter; stroke-linecap: square"/>
   </g>
   <g id="patch_5">
    <path d="M 37.59524 103.027885  L 110.842825 103.027885  " style="fill: none; stroke: #000000; stroke-width: 0.8; stroke-linejoin: miter; stroke-linecap: square"/>
   </g>
   <g id="patch_6">
    <path d="M 37.59524 33.03024  L 110.842825 33.03024  " style="fill: none; stroke: #000000; stroke-width: 0.8; stroke-linejoin: miter; stroke-linecap: square"/>
   </g>
  </g>
  <g id="axes_2">
   <g id="patch_7">
    <path d="M 120.343305 103.027885  L 193.59089 103.027885  L 193.59089 33.03024  L 120.343305 33.03024  z " style="fill: #ffffff"/>
   </g>
   <g id="matplotlib.axis_3">
    <g id="xtick_3">
     <g id="line2d_7">
      <g>
       <use xlink:href="#md856e4dda3" x="120.343305" y="33.03024" style="stroke: #000000; stroke-width: 0.8"/>
      </g>
     </g>
     <g id="text_8">
      <!-- 0 -->
      <g transform="translate(117.252133 23.795865) scale(0.11 -0.11)">
       <use xlink:href="#Roboto-Regular-30"/>
      </g>
     </g>
    </g>
    <g id="xtick_4">
     <g id="line2d_8">
      <g>
       <use xlink:href="#md856e4dda3" x="169.175028" y="33.03024" style="stroke: #000000; stroke-width: 0.8"/>
      </g>
     </g>
     <g id="text_9">
      <!-- 2 -->
      <g transform="translate(166.083856 23.795865) scale(0.11 -0.11)">
       <defs>
        <path id="Roboto-Regular-32" d="M 3359 475  L 3359 0  L 381 0  L 381 416  L 1925 2134  Q 2306 2566 2439 2819  Q 2572 3072 2572 3328  Q 2572 3663 2364 3900  Q 2156 4138 1778 4138  Q 1322 4138 1097 3878  Q 872 3619 872 3213  L 294 3213  Q 294 3788 672 4200  Q 1050 4613 1778 4613  Q 2422 4613 2786 4278  Q 3150 3944 3150 3397  Q 3150 2997 2903 2592  Q 2656 2188 2297 1797  L 1078 475  L 3359 475  z " transform="scale(0.015625)"/>
       </defs>
       <use xlink:href="#Roboto-Regular-32"/>
      </g>
     </g>
    </g>
    <g id="text_10">
     <!-- $\phi~[\%]$ -->
     <g transform="translate(144.372097 11.545865) scale(0.11 -0.11)">
      <defs>
       <path id="STIXGeneral-Italic-3d5" d="M 3078 4371  L 2650 2822  Q 3098 2822 3296 2746  Q 3808 2547 3808 1939  Q 3808 1709 3728 1446  Q 3648 1184 3481 915  Q 3315 646 3088 425  Q 2861 205 2537 67  Q 2214 -70 1850 -70  L 1504 -1312  L 1005 -1312  L 1350 -70  Q 883 -70 666 0  Q 173 160 173 819  Q 173 1018 256 1274  Q 339 1530 502 1802  Q 666 2074 886 2301  Q 1107 2528 1417 2675  Q 1728 2822 2061 2822  L 2157 2822  L 2586 4371  L 3078 4371  z M 2611 2688  L 1888 64  Q 2125 64 2330 166  Q 2694 352 2982 998  Q 3270 1645 3270 2093  Q 3270 2464 2982 2643  Q 2906 2688 2611 2688  z M 1389 64  L 2118 2688  Q 1760 2688 1427 2365  Q 1094 2042 902 1568  Q 710 1094 710 646  Q 710 237 1018 115  Q 1152 64 1389 64  z " transform="scale(0.015625)"/>
       <path id="STIXGeneral-Regular-5b" d="M 1914 -998  L 563 -998  L 563 4237  L 1914 4237  L 1914 4077  L 1382 4077  Q 1216 4077 1133 4006  Q 1050 3936 1050 3770  L 1050 -493  Q 1050 -838 1382 -838  L 1914 -838  L 1914 -998  z " transform="scale(0.015625)"/>
       <path id="STIXGeneral-Regular-25" d="M 4390 1363  Q 4390 781 4070 329  Q 3750 -122 3341 -122  Q 3014 -122 2790 134  Q 2566 390 2566 762  Q 2566 1274 2940 1693  Q 3315 2112 3776 2112  Q 4070 2112 4230 1917  Q 4390 1722 4390 1363  z M 4243 1376  Q 4243 1626 4131 1779  Q 4019 1933 3840 1933  Q 3654 1933 3526 1786  Q 3315 1562 3171 1187  Q 3027 813 3027 486  Q 3027 301 3129 176  Q 3232 51 3386 51  Q 3718 51 3980 457  Q 4243 864 4243 1376  z M 3974 4518  L 1222 -115  L 922 -115  L 3443 4096  Q 3264 3891 3094 3811  Q 2925 3731 2669 3731  Q 2445 3731 2182 3821  Q 2208 3674 2208 3539  Q 2208 3206 2067 2873  Q 1926 2541 1696 2323  Q 1453 2086 1146 2086  Q 826 2086 608 2339  Q 390 2592 390 2963  Q 390 3507 761 3916  Q 1133 4326 1626 4326  Q 1792 4326 2010 4147  Q 2310 3898 2624 3898  Q 2918 3898 3084 3994  Q 3251 4090 3693 4518  L 3974 4518  z M 2054 3642  Q 2054 3782 2025 3833  Q 1997 3885 1894 3936  Q 1747 4006 1613 4154  Q 1414 4058 1331 3984  Q 1248 3910 1152 3750  Q 845 3264 845 2707  Q 845 2509 944 2384  Q 1043 2259 1210 2259  Q 1549 2259 1801 2675  Q 2054 3091 2054 3642  z " transform="scale(0.015625)"/>
       <path id="STIXGeneral-Regular-5d" d="M 1568 -998  L 218 -998  L 218 -838  L 781 -838  Q 947 -838 1014 -768  Q 1082 -698 1082 -544  L 1082 3731  Q 1082 4077 755 4077  L 218 4077  L 218 4237  L 1568 4237  L 1568 -998  z " transform="scale(0.015625)"/>
      </defs>
      <use xlink:href="#STIXGeneral-Italic-3d5" transform="translate(0 0.40625)"/>
      <use xlink:href="#STIXGeneral-Regular-5b" transform="translate(86.766417 0.40625)"/>
      <use xlink:href="#STIXGeneral-Regular-25" transform="translate(120.066405 0.40625)"/>
      <use xlink:href="#STIXGeneral-Regular-5d" transform="translate(194.766386 0.40625)"/>
     </g>
    </g>
   </g>
   <g id="matplotlib.axis_4">
    <g id="ytick_4">
     <g id="line2d_9">
      <g>
       <use xlink:href="#mb7dd16e7b6" x="120.343305" y="103.027885" style="stroke: #000000; stroke-width: 0.8"/>
      </g>
     </g>
    </g>
    <g id="ytick_5">
     <g id="line2d_10">
      <g>
       <use xlink:href="#mb7dd16e7b6" x="120.343305" y="71.210774" style="stroke: #000000; stroke-width: 0.8"/>
      </g>
     </g>
    </g>
    <g id="ytick_6">
     <g id="line2d_11">
      <g>
       <use xlink:href="#mb7dd16e7b6" x="120.343305" y="39.393662" style="stroke: #000000; stroke-width: 0.8"/>
      </g>
     </g>
    </g>
   </g>
   <g id="line2d_12">
    <path d="M 120.424322 58.880403  L 121.095254 58.95138  L 120.650106 59.022357  L 120.691288 59.093333  L 120.919096 59.37724  L 120.77141 59.519193  L 121.217692 59.661147  L 121.0665 59.732123  L 121.098687 59.945053  L 121.415028 60.087007  L 121.354547 60.157983  L 121.700638 60.370913  L 121.704996 60.44189  L 121.885065 60.512867  L 121.833033 60.583843  L 121.872896 60.65482  L 122.278162 60.86775  L 122.061277 60.938726  L 124.813931 62.216306  L 124.831572 62.287283  L 125.291547 62.57119  L 125.784035 62.99705  L 126.055766 63.20998  L 126.032018 63.351933  L 126.238917 63.564863  L 126.341869 63.706816  L 126.319024 63.777793  L 126.569569 63.990723  L 126.543893 64.061699  L 126.602175 64.203653  L 126.765688 64.984396  L 126.820916 65.126349  L 126.966377 65.694163  L 127.128761 65.907093  L 127.236063 66.190999  L 127.505259 66.545882  L 127.689279 66.829789  L 128.143197 67.255649  L 128.536463 67.823462  L 128.738837 68.036392  L 129.026634 68.391276  L 131.215081 70.165692  L 131.570907 70.449599  L 131.943061 70.733505  L 132.47232 71.017412  L 132.498283 71.088389  L 132.996244 71.372295  L 133.262602 71.585225  L 134.326105 72.224015  L 135.4992 73.146712  L 136.107778 73.501595  L 136.783481 73.856478  L 136.736209 73.927455  L 137.099225 73.998432  L 137.082783 74.069408  L 137.151375 74.140385  L 137.864418 74.424292  L 137.743432 74.495268  L 138.537342 74.779175  L 138.588063 74.921128  L 141.136622 76.340661  L 142.495517 77.192381  L 142.613832 77.334335  L 143.499421 77.760195  L 143.630471 77.902148  L 143.685461 77.973125  L 144.224424 78.257031  L 146.111892 79.392658  L 146.194971 79.463634  L 146.632568 79.676564  L 148.359361 80.741214  L 149.035349 81.025121  L 149.058203 81.096098  L 149.400333 81.309027  L 150.729186 82.018794  L 151.264702 82.444654  L 151.90744 82.799537  L 156.442758 85.354697  L 156.297026 85.425674  L 156.887168 85.638604  L 156.792349 85.70958  L 157.667008 86.064464  L 157.694217 86.277394  L 158.181735 86.490324  L 158.15426 86.5613  L 158.753474 86.77423  L 163.362017 89.54232  L 163.959356 89.75525  L 163.919712 89.826227  L 164.575866 90.110133  L 164.690911 90.252086  L 165.340608 90.39404  L 165.562029 90.60697  L 166.073487 90.748923  L 166.046354 90.8199  L 166.682674 91.03283  L 166.569098 91.103806  L 167.02521 91.316736  L 167.121705 91.45869  L 167.413042 91.600643  L 167.278509 91.67162  L 167.737588 91.742596  L 167.678307 91.813573  L 168.099904 92.026503  L 168.918977 92.452363  L 168.829209 92.52334  L 169.447591 92.73627  L 169.848006 92.949199  L 170.25758 93.020176  L 170.0765 93.091153  L 170.691531 93.304083  L 170.595965 93.375059  L 174.724187 95.291429  L 175.07677 95.504359  L 175.788678 95.788266  L 175.813036 95.930219  L 176.827578 96.214126  L 176.886364 96.427056  L 177.927464 96.710962  L 178.356523 97.065846  L 179.10961 97.278776  L 179.069829 97.349752  L 179.932757 97.633659  L 185.454459 99.621005  L 186.477193 99.762959  L 186.396848 99.833935  L 188.819801 100.543702  L 189.956605 100.685655  L 189.883313 100.756632  L 190.9786 100.898585  L 190.74291 100.969562  L 192.884288 101.253469  L 192.774541 101.324445  L 194.253612 101.537375  L 197.59113 102.049457  L 197.59113 102.049457  " clip-path="url(#pafda4dd83a)" style="fill: none; stroke: #1f77b4; stroke-width: 1.5; stroke-linecap: square"/>
   </g>
   <g id="patch_8">
    <path d="M 120.343305 103.027885  L 120.343305 33.03024  " style="fill: none; stroke: #000000; stroke-width: 0.8; stroke-linejoin: miter; stroke-linecap: square"/>
   </g>
   <g id="patch_9">
    <path d="M 193.59089 103.027885  L 193.59089 33.03024  " style="fill: none; stroke: #000000; stroke-width: 0.8; stroke-linejoin: miter; stroke-linecap: square"/>
   </g>
   <g id="patch_10">
    <path d="M 120.343305 103.027885  L 193.59089 103.027885  " style="fill: none; stroke: #000000; stroke-width: 0.8; stroke-linejoin: miter; stroke-linecap: square"/>
   </g>
   <g id="patch_11">
    <path d="M 120.343305 33.03024  L 193.59089 33.03024  " style="fill: none; stroke: #000000; stroke-width: 0.8; stroke-linejoin: miter; stroke-linecap: square"/>
   </g>
  </g>
 </g>
 <defs>
  <clipPath id="pb776762283">
   <rect x="37.59524" y="33.03024" width="73.247585" height="69.997645"/>
  </clipPath>
  <clipPath id="pafda4dd83a">
   <rect x="120.343305" y="33.03024" width="73.247585" height="69.997645"/>
  </clipPath>
 </defs>
</svg>
