<?xml version='1.0' encoding='ASCII' standalone='yes'?>
<svg xmlns:xlink="http://www.w3.org/1999/xlink" xmlns="http://www.w3.org/2000/svg" width="688.068954pt" height="607.5pt" viewBox="0 0 344.034477 303.75" version="1.1">
 <metadata>
  <rdf:RDF xmlns:dc="http://purl.org/dc/elements/1.1/" xmlns:cc="http://creativecommons.org/ns#" xmlns:rdf="http://www.w3.org/1999/02/22-rdf-syntax-ns#">
   <cc:Work>
    <dc:type rdf:resource="http://purl.org/dc/dcmitype/StillImage"/>
    <dc:date>2023-12-06T15:12:27.007136</dc:date>
    <dc:format>image/svg+xml</dc:format>
    <dc:creator>
     <cc:Agent>
      <dc:title>Matplotlib v3.8.0, https://matplotlib.org/</dc:title>
     </cc:Agent>
    </dc:creator>
   </cc:Work>
  </rdf:RDF>
 </metadata>
 <defs>
  <style type="text/css">*{stroke-linejoin: round; stroke-linecap: butt}</style>
 </defs>
 <g id="figure_1">
  <g id="patch_1">
   <path d="M 0 303.75  L 344.034477 303.75  L 344.034477 0  L 0 0  z " style="fill: #ffffff"/>
  </g>
  <g id="axes_1">
   <g id="patch_2">
    <path d="M 36.849303 268.78101  L 341.034237 268.78101  L 341.034237 3.00024  L 36.849303 3.00024  z " style="fill: #ffffff"/>
   </g>
   <g id="matplotlib.axis_1">
    <g id="xtick_1">
     <g id="line2d_1">
      <defs>
       <path id="m1542925af8" d="M 0 0  L 0 3.5  " style="stroke: #000000; stroke-width: 0.8"/>
      </defs>
      <g>
       <use xlink:href="#m1542925af8" x="59.477259" y="268.78101" style="stroke: #000000; stroke-width: 0.8"/>
      </g>
     </g>
     <g id="text_1">
      <!-- 0 -->
      <g transform="translate(56.386087 284.03101) scale(0.11 -0.11)">
       <defs>
        <path id="Roboto-Regular-30" d="M 3234 1944  Q 3234 825 2848 381  Q 2463 -63 1800 -63  Q 1156 -63 764 368  Q 372 800 359 1872  L 359 2638  Q 359 3753 750 4183  Q 1141 4613 1794 4613  Q 2447 4613 2834 4195  Q 3222 3778 3234 2709  L 3234 1944  z M 2653 2734  Q 2653 3503 2434 3822  Q 2216 4141 1794 4141  Q 1388 4141 1167 3831  Q 947 3522 941 2778  L 941 1850  Q 941 1088 1164 750  Q 1388 413 1800 413  Q 2222 413 2436 745  Q 2650 1078 2653 1825  L 2653 2734  z " transform="scale(0.015625)"/>
       </defs>
       <use xlink:href="#Roboto-Regular-30"/>
      </g>
     </g>
    </g>
    <g id="xtick_2">
     <g id="line2d_2">
      <g>
       <use xlink:href="#m1542925af8" x="106.601483" y="268.78101" style="stroke: #000000; stroke-width: 0.8"/>
      </g>
     </g>
     <g id="text_2">
      <!-- 5 -->
      <g transform="translate(103.510311 284.03101) scale(0.11 -0.11)">
       <defs>
        <path id="Roboto-Regular-35" d="M 1109 2166  L 647 2284  L 875 4550  L 3209 4550  L 3209 4016  L 1366 4016  L 1228 2778  Q 1572 2975 1988 2975  Q 2616 2975 2980 2561  Q 3344 2147 3344 1450  Q 3344 797 2987 367  Q 2631 -63 1903 -63  Q 1350 -63 947 248  Q 544 559 481 1197  L 1031 1197  Q 1141 413 1903 413  Q 2313 413 2538 691  Q 2763 969 2763 1444  Q 2763 1872 2527 2164  Q 2291 2456 1853 2456  Q 1563 2456 1413 2378  Q 1263 2300 1109 2166  z " transform="scale(0.015625)"/>
       </defs>
       <use xlink:href="#Roboto-Regular-35"/>
      </g>
     </g>
    </g>
    <g id="xtick_3">
     <g id="line2d_3">
      <g>
       <use xlink:href="#m1542925af8" x="153.725706" y="268.78101" style="stroke: #000000; stroke-width: 0.8"/>
      </g>
     </g>
     <g id="text_3">
      <!-- 10 -->
      <g transform="translate(147.543362 284.03101) scale(0.11 -0.11)">
       <defs>
        <path id="Roboto-Regular-31" d="M 2278 4575  L 2278 0  L 1700 0  L 1700 3853  L 534 3428  L 534 3950  L 2188 4575  L 2278 4575  z " transform="scale(0.015625)"/>
       </defs>
       <use xlink:href="#Roboto-Regular-31"/>
       <use xlink:href="#Roboto-Regular-30" x="56.201172"/>
      </g>
     </g>
    </g>
    <g id="xtick_4">
     <g id="line2d_4">
      <g>
       <use xlink:href="#m1542925af8" x="200.849929" y="268.78101" style="stroke: #000000; stroke-width: 0.8"/>
      </g>
     </g>
     <g id="text_4">
      <!-- 15 -->
      <g transform="translate(194.667586 284.03101) scale(0.11 -0.11)">
       <use xlink:href="#Roboto-Regular-31"/>
       <use xlink:href="#Roboto-Regular-35" x="56.201172"/>
      </g>
     </g>
    </g>
    <g id="xtick_5">
     <g id="line2d_5">
      <g>
       <use xlink:href="#m1542925af8" x="247.974153" y="268.78101" style="stroke: #000000; stroke-width: 0.8"/>
      </g>
     </g>
     <g id="text_5">
      <!-- 20 -->
      <g transform="translate(241.791809 284.03101) scale(0.11 -0.11)">
       <defs>
        <path id="Roboto-Regular-32" d="M 3359 475  L 3359 0  L 381 0  L 381 416  L 1925 2134  Q 2306 2566 2439 2819  Q 2572 3072 2572 3328  Q 2572 3663 2364 3900  Q 2156 4138 1778 4138  Q 1322 4138 1097 3878  Q 872 3619 872 3213  L 294 3213  Q 294 3788 672 4200  Q 1050 4613 1778 4613  Q 2422 4613 2786 4278  Q 3150 3944 3150 3397  Q 3150 2997 2903 2592  Q 2656 2188 2297 1797  L 1078 475  L 3359 475  z " transform="scale(0.015625)"/>
       </defs>
       <use xlink:href="#Roboto-Regular-32"/>
       <use xlink:href="#Roboto-Regular-30" x="56.201172"/>
      </g>
     </g>
    </g>
    <g id="xtick_6">
     <g id="line2d_6">
      <g>
       <use xlink:href="#m1542925af8" x="295.098376" y="268.78101" style="stroke: #000000; stroke-width: 0.8"/>
      </g>
     </g>
     <g id="text_6">
      <!-- 25 -->
      <g transform="translate(288.916033 284.03101) scale(0.11 -0.11)">
       <use xlink:href="#Roboto-Regular-32"/>
       <use xlink:href="#Roboto-Regular-35" x="56.201172"/>
      </g>
     </g>
    </g>
    <g id="text_7">
     <!-- Time, $t/t_{0}$ -->
     <g transform="translate(167.38177 298.515385) scale(0.11 -0.11)">
      <defs>
       <path id="Roboto-Regular-54" d="M 156 4056  L 156 4550  L 3672 4550  L 3672 4056  L 2209 4056  L 2209 0  L 1616 0  L 1616 4056  L 156 4056  z " transform="scale(0.015625)"/>
       <path id="Roboto-Regular-69" d="M 444 4278  Q 444 4419 530 4516  Q 616 4613 784 4613  Q 950 4613 1039 4516  Q 1128 4419 1128 4278  Q 1128 4144 1039 4048  Q 950 3953 784 3953  Q 616 3953 530 4048  Q 444 4144 444 4278  z M 1069 3381  L 1069 0  L 488 0  L 488 3381  L 1069 3381  z " transform="scale(0.015625)"/>
       <path id="Roboto-Regular-6d" d="M 1794 2956  Q 1225 2956 1016 2478  L 1016 0  L 434 0  L 434 3381  L 984 3381  L 1000 3013  Q 1366 3444 2000 3444  Q 2325 3444 2579 3314  Q 2834 3184 2969 2900  Q 3138 3144 3408 3294  Q 3678 3444 4044 3444  Q 4588 3444 4883 3153  Q 5178 2863 5178 2222  L 5178 0  L 4597 0  L 4597 2228  Q 4597 2653 4401 2804  Q 4206 2956 3875 2956  Q 3525 2956 3325 2748  Q 3125 2541 3094 2244  L 3094 0  L 2516 0  L 2516 2225  Q 2516 2622 2319 2789  Q 2122 2956 1794 2956  z " transform="scale(0.015625)"/>
       <path id="Roboto-Regular-65" d="M 3116 591  Q 2950 341 2647 139  Q 2344 -63 1844 -63  Q 1138 -63 714 396  Q 291 856 291 1572  L 291 1703  Q 291 2256 502 2645  Q 713 3034 1050 3239  Q 1388 3444 1769 3444  Q 2494 3444 2826 2970  Q 3159 2497 3159 1788  L 3159 1528  L 872 1528  Q 884 1063 1148 736  Q 1413 409 1875 409  Q 2181 409 2393 534  Q 2606 659 2766 869  L 3116 591  z M 1769 2969  Q 1425 2969 1187 2719  Q 950 2469 891 2000  L 2581 2000  L 2581 2044  Q 2559 2381 2386 2675  Q 2213 2969 1769 2969  z " transform="scale(0.015625)"/>
       <path id="Roboto-Regular-2c" d="M 966 688  L 966 222  Q 966 -63 822 -380  Q 678 -697 419 -909  L 91 -681  Q 391 -263 400 175  L 400 688  L 966 688  z " transform="scale(0.015625)"/>
       <path id="Roboto-Regular-20" transform="scale(0.015625)"/>
       <path id="STIXGeneral-Italic-74" d="M 1894 2739  L 1862 2534  L 1325 2534  L 768 435  Q 755 384 755 346  Q 755 243 851 243  Q 928 243 1030 342  Q 1133 442 1370 749  L 1453 704  Q 1158 256 969 93  Q 781 -70 538 -70  Q 243 -70 243 166  Q 243 230 346 640  L 845 2534  L 365 2534  L 358 2573  Q 358 2688 570 2733  Q 730 2771 992 2979  Q 1254 3187 1421 3437  Q 1459 3494 1510 3494  Q 1568 3494 1568 3443  Q 1568 3411 1562 3398  L 1382 2739  L 1894 2739  z " transform="scale(0.015625)"/>
       <path id="STIXGeneral-Regular-2f" d="M 1837 4326  L 378 -90  L -58 -90  L 1408 4326  L 1837 4326  z " transform="scale(0.015625)"/>
       <path id="STIXGeneral-Regular-30" d="M 3046 2112  Q 3046 1683 2963 1302  Q 2880 922 2717 602  Q 2554 282 2266 96  Q 1978 -90 1600 -90  Q 1210 -90 915 108  Q 621 307 461 640  Q 301 973 227 1350  Q 154 1728 154 2150  Q 154 2746 301 3222  Q 448 3699 790 4012  Q 1133 4326 1626 4326  Q 2253 4326 2649 3712  Q 3046 3098 3046 2112  z M 2432 2080  Q 2432 3091 2217 3625  Q 2003 4160 1587 4160  Q 1190 4160 979 3622  Q 768 3085 768 2106  Q 768 1120 979 598  Q 1190 77 1600 77  Q 2003 77 2217 598  Q 2432 1120 2432 2080  z " transform="scale(0.015625)"/>
      </defs>
      <use xlink:href="#Roboto-Regular-54" transform="translate(0 0.921875)"/>
      <use xlink:href="#Roboto-Regular-69" transform="translate(59.667969 0.921875)"/>
      <use xlink:href="#Roboto-Regular-6d" transform="translate(83.984375 0.921875)"/>
      <use xlink:href="#Roboto-Regular-65" transform="translate(171.679688 0.921875)"/>
      <use xlink:href="#Roboto-Regular-2c" transform="translate(224.707031 0.921875)"/>
      <use xlink:href="#Roboto-Regular-20" transform="translate(244.384766 0.921875)"/>
      <use xlink:href="#STIXGeneral-Italic-74" transform="translate(269.189453 0.921875)"/>
      <use xlink:href="#STIXGeneral-Regular-2f" transform="translate(296.989441 0.921875)"/>
      <use xlink:href="#STIXGeneral-Italic-74" transform="translate(324.789429 0.921875)"/>
      <use xlink:href="#STIXGeneral-Regular-30" transform="translate(352.589417 -12.30625) scale(0.7)"/>
     </g>
    </g>
   </g>
   <g id="matplotlib.axis_2">
    <g id="ytick_1">
     <g id="line2d_7">
      <defs>
       <path id="me9312dbcc8" d="M 0 0  L -3.5 0  " style="stroke: #000000; stroke-width: 0.8"/>
      </defs>
      <g>
       <use xlink:href="#me9312dbcc8" x="36.849303" y="257.49624" style="stroke: #000000; stroke-width: 0.8"/>
      </g>
     </g>
     <g id="text_8">
      <!-- 0 -->
      <g transform="translate(23.666959 261.62124) scale(0.11 -0.11)">
       <use xlink:href="#Roboto-Regular-30"/>
      </g>
     </g>
    </g>
    <g id="ytick_2">
     <g id="line2d_8">
      <g>
       <use xlink:href="#me9312dbcc8" x="36.849303" y="210.657511" style="stroke: #000000; stroke-width: 0.8"/>
      </g>
     </g>
     <g id="text_9">
      <!-- 2 -->
      <g transform="translate(23.666959 214.782511) scale(0.11 -0.11)">
       <use xlink:href="#Roboto-Regular-32"/>
      </g>
     </g>
    </g>
    <g id="ytick_3">
     <g id="line2d_9">
      <g>
       <use xlink:href="#me9312dbcc8" x="36.849303" y="163.818782" style="stroke: #000000; stroke-width: 0.8"/>
      </g>
     </g>
     <g id="text_10">
      <!-- 4 -->
      <g transform="translate(23.666959 167.943782) scale(0.11 -0.11)">
       <defs>
        <path id="Roboto-Regular-34" d="M 166 1397  L 2203 4550  L 2819 4550  L 2819 1531  L 3453 1531  L 3453 1056  L 2819 1056  L 2819 0  L 2241 0  L 2241 1056  L 166 1056  L 166 1397  z M 822 1531  L 2241 1531  L 2241 3766  L 2169 3638  L 822 1531  z " transform="scale(0.015625)"/>
       </defs>
       <use xlink:href="#Roboto-Regular-34"/>
      </g>
     </g>
    </g>
    <g id="ytick_4">
     <g id="line2d_10">
      <g>
       <use xlink:href="#me9312dbcc8" x="36.849303" y="116.980054" style="stroke: #000000; stroke-width: 0.8"/>
      </g>
     </g>
     <g id="text_11">
      <!-- 6 -->
      <g transform="translate(23.666959 121.105054) scale(0.11 -0.11)">
       <defs>
        <path id="Roboto-Regular-36" d="M 3291 1484  Q 3291 838 2930 387  Q 2569 -63 1878 -63  Q 1388 -63 1063 198  Q 738 459 577 861  Q 416 1263 416 1684  L 416 1956  Q 416 2597 595 3194  Q 775 3791 1247 4173  Q 1719 4556 2597 4556  L 2647 4556  L 2647 4066  Q 2041 4066 1705 3853  Q 1369 3641 1205 3302  Q 1041 2963 1006 2575  Q 1369 2984 1984 2984  Q 2438 2984 2727 2765  Q 3016 2547 3153 2201  Q 3291 1856 3291 1484  z M 997 1666  Q 997 1059 1267 737  Q 1538 416 1878 416  Q 2278 416 2498 708  Q 2719 1000 2719 1456  Q 2719 1863 2516 2184  Q 2313 2506 1891 2506  Q 1588 2506 1341 2325  Q 1094 2144 997 1884  L 997 1666  z " transform="scale(0.015625)"/>
       </defs>
       <use xlink:href="#Roboto-Regular-36"/>
      </g>
     </g>
    </g>
    <g id="ytick_5">
     <g id="line2d_11">
      <g>
       <use xlink:href="#me9312dbcc8" x="36.849303" y="70.141325" style="stroke: #000000; stroke-width: 0.8"/>
      </g>
     </g>
     <g id="text_12">
      <!-- 8 -->
      <g transform="translate(23.666959 74.266325) scale(0.11 -0.11)">
       <defs>
        <path id="Roboto-Regular-38" d="M 3244 1231  Q 3244 606 2826 271  Q 2409 -63 1796 -63  Q 1184 -63 767 271  Q 350 606 350 1231  Q 350 1613 554 1905  Q 759 2197 1109 2347  Q 806 2494 629 2762  Q 453 3031 453 3366  Q 453 3963 833 4288  Q 1213 4613 1794 4613  Q 2378 4613 2758 4288  Q 3138 3963 3138 3366  Q 3138 3028 2956 2761  Q 2775 2494 2472 2347  Q 2825 2197 3034 1903  Q 3244 1609 3244 1231  z M 2559 3356  Q 2559 3697 2346 3917  Q 2134 4138 1793 4138  Q 1453 4138 1243 3927  Q 1034 3716 1034 3356  Q 1034 3003 1243 2790  Q 1453 2578 1797 2578  Q 2138 2578 2348 2790  Q 2559 3003 2559 3356  z M 2663 1244  Q 2663 1625 2420 1865  Q 2178 2106 1791 2106  Q 1394 2106 1161 1865  Q 928 1625 928 1244  Q 928 850 1161 631  Q 1394 413 1797 413  Q 2200 413 2431 631  Q 2663 850 2663 1244  z " transform="scale(0.015625)"/>
       </defs>
       <use xlink:href="#Roboto-Regular-38"/>
      </g>
     </g>
    </g>
    <g id="ytick_6">
     <g id="line2d_12">
      <g>
       <use xlink:href="#me9312dbcc8" x="36.849303" y="23.302596" style="stroke: #000000; stroke-width: 0.8"/>
      </g>
     </g>
     <g id="text_13">
      <!-- 10 -->
      <g transform="translate(17.484615 27.427596) scale(0.11 -0.11)">
       <use xlink:href="#Roboto-Regular-31"/>
       <use xlink:href="#Roboto-Regular-30" x="56.201172"/>
      </g>
     </g>
    </g>
    <g id="text_14">
     <!-- Front position, $x_{\rm f}/l_{0}$ -->
     <g transform="translate(11.174615 181.485625) rotate(-90) scale(0.11 -0.11)">
      <defs>
       <path id="Roboto-Regular-46" d="M 528 0  L 528 4550  L 3347 4550  L 3347 4056  L 1131 4056  L 1131 2503  L 3038 2503  L 3038 2009  L 1131 2009  L 1131 0  L 528 0  z " transform="scale(0.015625)"/>
       <path id="Roboto-Regular-72" d="M 1791 2888  Q 1225 2888 1019 2400  L 1019 0  L 441 0  L 441 3381  L 1003 3381  L 1016 2994  Q 1294 3444 1819 3444  Q 1981 3444 2075 3400  L 2072 2863  Q 1944 2888 1791 2888  z " transform="scale(0.015625)"/>
       <path id="Roboto-Regular-6f" d="M 288 1725  Q 288 2459 700 2951  Q 1113 3444 1822 3444  Q 2531 3444 2943 2961  Q 3356 2478 3366 1756  L 3366 1653  Q 3366 919 2952 428  Q 2538 -63 1828 -63  Q 1116 -63 702 428  Q 288 919 288 1653  L 288 1725  z M 866 1653  Q 866 1150 1105 781  Q 1344 413 1828 413  Q 2300 413 2540 777  Q 2781 1141 2784 1644  L 2784 1725  Q 2784 2222 2543 2595  Q 2303 2969 1822 2969  Q 1344 2969 1105 2595  Q 866 2222 866 1725  L 866 1653  z " transform="scale(0.015625)"/>
       <path id="Roboto-Regular-6e" d="M 1844 2956  Q 1566 2956 1353 2806  Q 1141 2656 1019 2416  L 1019 0  L 441 0  L 441 3381  L 988 3381  L 1006 2959  Q 1391 3444 2016 3444  Q 2513 3444 2805 3166  Q 3097 2888 3100 2231  L 3100 0  L 2519 0  L 2519 2222  Q 2519 2619 2345 2787  Q 2172 2956 1844 2956  z " transform="scale(0.015625)"/>
       <path id="Roboto-Regular-74" d="M 1872 0  Q 1675 -63 1425 -63  Q 1103 -63 875 134  Q 647 331 647 841  L 647 2938  L 28 2938  L 28 3381  L 647 3381  L 647 4203  L 1225 4203  L 1225 3381  L 1856 3381  L 1856 2938  L 1225 2938  L 1225 838  Q 1225 578 1337 506  Q 1450 434 1597 434  Q 1706 434 1869 472  L 1872 0  z " transform="scale(0.015625)"/>
       <path id="Roboto-Regular-70" d="M 1984 -63  Q 1375 -63 1019 328  L 1019 -1300  L 438 -1300  L 438 3381  L 969 3381  L 997 3009  Q 1353 3444 1975 3444  Q 2616 3444 2956 2969  Q 3297 2494 3297 1719  L 3297 1653  Q 3297 913 2955 425  Q 2613 -63 1984 -63  z M 1806 2956  Q 1281 2956 1019 2491  L 1019 872  Q 1284 413 1813 413  Q 2281 413 2498 781  Q 2716 1150 2716 1653  L 2716 1719  Q 2716 2222 2498 2589  Q 2281 2956 1806 2956  z " transform="scale(0.015625)"/>
       <path id="Roboto-Regular-73" d="M 2409 897  Q 2409 1081 2273 1229  Q 2138 1378 1647 1478  Q 1081 1594 747 1814  Q 413 2034 413 2456  Q 413 2856 755 3150  Q 1097 3444 1666 3444  Q 2272 3444 2612 3134  Q 2953 2825 2953 2388  L 2375 2388  Q 2375 2597 2190 2783  Q 2006 2969 1666 2969  Q 1306 2969 1150 2812  Q 994 2656 994 2472  Q 994 2288 1139 2173  Q 1284 2059 1756 1953  Q 2378 1813 2683 1584  Q 2988 1356 2988 941  Q 2988 494 2630 215  Q 2272 -63 1681 -63  Q 1009 -63 653 281  Q 297 625 297 1044  L 878 1044  Q 897 684 1155 548  Q 1413 413 1681 413  Q 2034 413 2221 550  Q 2409 688 2409 897  z " transform="scale(0.015625)"/>
       <path id="STIXGeneral-Italic-78" d="M 1555 2272  L 1632 1907  Q 1971 2426 2179 2624  Q 2387 2822 2598 2822  Q 2714 2822 2787 2755  Q 2861 2688 2861 2585  Q 2861 2483 2800 2419  Q 2739 2355 2643 2355  Q 2586 2355 2490 2409  Q 2394 2464 2310 2464  Q 2125 2464 1683 1690  Q 1683 1606 1734 1402  L 1939 544  Q 2003 282 2131 282  Q 2234 282 2432 538  Q 2451 563 2476 598  Q 2502 634 2521 662  Q 2541 691 2566 717  L 2662 659  Q 2387 230 2227 80  Q 2067 -70 1882 -70  Q 1728 -70 1645 26  Q 1562 122 1504 365  L 1318 1126  L 755 365  Q 557 96 432 13  Q 307 -70 147 -70  Q 0 -70 -86 0  Q -173 70 -173 198  Q -173 294 -112 361  Q -51 429 45 429  Q 122 429 250 358  Q 346 301 416 301  Q 525 301 742 614  L 1267 1357  L 1088 2150  Q 1024 2432 969 2509  Q 915 2586 794 2586  Q 717 2586 544 2541  L 429 2509  L 410 2611  L 480 2637  Q 992 2822 1229 2822  Q 1350 2822 1420 2707  Q 1491 2592 1555 2272  z " transform="scale(0.015625)"/>
       <path id="STIXGeneral-Regular-66" d="M 134 2880  L 659 2880  Q 666 3264 710 3478  Q 755 3693 883 3910  Q 1152 4371 1786 4371  Q 2074 4371 2262 4259  Q 2451 4147 2451 3974  Q 2451 3866 2374 3789  Q 2298 3712 2182 3712  Q 2029 3712 1894 3942  Q 1741 4192 1555 4192  Q 1197 4192 1197 3622  L 1197 2880  L 1978 2880  L 1978 2675  L 1197 2675  L 1197 666  Q 1197 307 1299 208  Q 1402 109 1792 96  L 1792 0  L 128 0  L 128 96  Q 474 115 566 214  Q 659 314 659 666  L 659 2675  L 134 2675  L 134 2880  z " transform="scale(0.015625)"/>
       <path id="STIXGeneral-Italic-6c" d="M 1786 4339  L 806 595  Q 755 410 755 320  Q 755 205 864 205  Q 1037 205 1293 570  L 1453 794  L 1542 730  Q 1254 275 1046 102  Q 838 -70 576 -70  Q 262 -70 262 288  Q 262 397 288 480  L 1165 3834  Q 1184 3898 1184 3955  Q 1184 4096 870 4096  L 755 4096  L 755 4198  Q 1203 4250 1747 4371  L 1786 4339  z " transform="scale(0.015625)"/>
      </defs>
      <use xlink:href="#Roboto-Regular-46" transform="translate(0 0.921875)"/>
      <use xlink:href="#Roboto-Regular-72" transform="translate(55.273438 0.921875)"/>
      <use xlink:href="#Roboto-Regular-6f" transform="translate(89.160156 0.921875)"/>
      <use xlink:href="#Roboto-Regular-6e" transform="translate(146.191406 0.921875)"/>
      <use xlink:href="#Roboto-Regular-74" transform="translate(201.416016 0.921875)"/>
      <use xlink:href="#Roboto-Regular-20" transform="translate(234.130859 0.921875)"/>
      <use xlink:href="#Roboto-Regular-70" transform="translate(258.935547 0.921875)"/>
      <use xlink:href="#Roboto-Regular-6f" transform="translate(315.087891 0.921875)"/>
      <use xlink:href="#Roboto-Regular-73" transform="translate(372.119141 0.921875)"/>
      <use xlink:href="#Roboto-Regular-69" transform="translate(423.730469 0.921875)"/>
      <use xlink:href="#Roboto-Regular-74" transform="translate(448.046875 0.921875)"/>
      <use xlink:href="#Roboto-Regular-69" transform="translate(480.761719 0.921875)"/>
      <use xlink:href="#Roboto-Regular-6f" transform="translate(505.078125 0.921875)"/>
      <use xlink:href="#Roboto-Regular-6e" transform="translate(562.109375 0.921875)"/>
      <use xlink:href="#Roboto-Regular-2c" transform="translate(617.333984 0.921875)"/>
      <use xlink:href="#Roboto-Regular-20" transform="translate(637.011719 0.921875)"/>
      <use xlink:href="#STIXGeneral-Italic-78" transform="translate(661.816406 0.921875)"/>
      <use xlink:href="#STIXGeneral-Regular-66" transform="translate(706.2164 -12.30625) scale(0.7)"/>
      <use xlink:href="#STIXGeneral-Regular-2f" transform="translate(733.935767 0.921875)"/>
      <use xlink:href="#STIXGeneral-Italic-6c" transform="translate(761.735754 0.921875)"/>
      <use xlink:href="#STIXGeneral-Regular-30" transform="translate(789.535742 -12.30625) scale(0.7)"/>
     </g>
    </g>
   </g>
   <g id="line2d_13">
    <path d="M 87.388841 227.23255  L 87.464209 227.049172  M 87.916413 226.499039  L 87.99178 226.315662  M 88.896188 225.215396  L 88.971555 225.032019  M 90.705003 223.014865  L 90.780371 222.831488  M 93.34286 220.080824  L 93.418227 219.714069  M 95.30241 217.880293  L 95.377777 217.696916  M 96.056083 216.963405  L 96.13145 216.780028  M 109.245364 203.943597  L 109.320731 203.76022  M 109.848302 203.393465  L 109.92367 203.210087  M 112.260057 201.009556  L 112.335424 200.826179  M 113.164464 200.092668  L 113.239832 199.909291  M 113.541301 199.725913  L 113.692036 199.359158  M 114.97328 198.44227  L 115.048647 198.258893  M 118.06334 195.874984  L 118.214075 195.508229  M 119.419952 194.774719  L 119.495319 194.591341  M 120.776564 193.674453  L 120.851931 193.491076  M 217.925037 143.24562  L 218.000404 143.062242  M 230.360645 140.128201  L 230.436012 139.944823  M 241.288906 137.560915  L 241.364273 137.377537  M 327.207649 123.257464  " clip-path="url(#pe1876197e5)" style="fill: none; stroke: #1f77b4; stroke-width: 1.5; stroke-linecap: square"/>
   </g>
   <g id="line2d_14">
    <path d="M 61.449667 255.684944  L 61.74085 255.247048  M 61.886441 255.107718  L 61.959237 254.908675  M 62.396012 254.331448  L 62.468808 252.341014  M 63.924723 251.942927  L 63.997519 251.743883  M 64.798273 251.146753  L 64.871069 250.947709  M 66.39978 248.957274  L 66.472576 248.758231  M 66.763759 248.360144  L 66.836555 248.161101  M 69.16602 244.578318  L 69.238816 244.379274  M 69.602795 243.981187  L 69.67559 243.782144  M 70.330752 242.98597  L 70.403548 242.786927  M 70.54914 242.587883  L 70.621936 242.38884  M 71.05871 241.990753  L 71.204302 241.592666  M 72.005056 240.597448  L 72.150647 240.398405  M 76.08162 234.626144  L 76.300007 234.228057  M 76.59119 233.82997  L 76.663986 233.630926  M 77.755923 232.237622  L 77.828718 232.038579  M 78.047106 231.839535  L 78.265493 231.441448  M 78.48388 231.242405  L 78.556676 231.043361  M 78.847859 230.62537  L 78.920655 230.247187  M 79.575817 229.25197  L 79.648613 229.192257  M 79.939796 228.853883  L 80.085388 228.455796  M 80.230979 228.256752  L 80.303775 228.057709  M 80.594958 227.659622  L 80.667754 227.639718  L 80.74055 227.261535  M 80.958937 227.062492  L 81.031733 226.943065  M 81.322916 226.6445  L 81.395712 226.445457  M 81.541303 226.266318  L 81.686895 225.868231  M 82.196466 225.251196  L 82.342057 224.873013  M 82.851628 224.076839  L 83.142811 223.479709  M 83.288402 223.459805  L 83.50679 222.882578  M 84.380339 221.668413  L 84.671522 221.091187  M 84.817114 220.892144  L 84.962705 220.494057  M 85.253888 220.09597  L 85.39948 219.697883  M 85.617867 219.498839  L 85.909051 218.901709  M 86.054642 218.8619  L 86.273029 218.284674  M 86.418621 218.105535  L 86.491417 218.085631  L 86.7826 217.508404  M 86.928192 217.309361  L 87.000987 217.110318  M 87.437762 216.513187  L 87.510558 216.174813  M 87.801741 215.916057  L 88.092924 215.318926  M 88.238516 215.119883  L 88.311311 215.099978  L 88.384107 214.920839  M 88.529699 214.721796  L 88.602495 214.701891  L 88.820882 214.323709  L 88.893678 214.303804  L 89.257657 213.527535  M 89.403248 213.328491  L 89.476044 213.308587  M 89.621636 213.129448  L 89.840023 212.731361  M 89.985615 212.532317  L 90.05841 212.31337  M 90.349593 211.935187  L 90.422389 211.716239  M 90.713572 211.517196  L 90.786368 211.318152  M 90.93196 211.139013  L 91.004756 211.119109  L 91.077551 210.920065  M 91.223143 210.740926  L 91.295939 210.342839  M 91.587122 210.143796  L 91.659918 210.123891  L 91.805509 209.745709  M 91.951101 209.546665  L 92.023897 209.526761  L 92.169488 209.148578  M 92.31508 208.949535  L 92.387875 208.750491  M 92.82465 208.153361  L 92.970242 207.755274  M 93.115833 207.635848  L 93.261425 207.357187  M 93.407016 207.158143  L 93.479812 207.138239  L 93.6982 206.561013  M 93.989383 206.162926  L 94.062179 205.963883  M 94.353362 205.565796  L 94.426157 205.366752  M 94.571749 205.167709  L 94.644545 204.968665  M 94.790136 204.769622  L 94.862932 204.570578  M 95.445298 203.774404  L 95.518094 203.575361  M 95.809277 203.177274  L 95.954869 202.580143  M 96.391644 202.182056  L 96.537235 201.783969  M 96.755623 201.584926  L 96.828418 201.385882  M 96.97401 201.346074  L 97.192397 200.788752  M 97.48358 200.450378  L 97.556376 200.390665  L 97.629172 200.012482  M 97.774764 199.972674  L 97.920355 199.594491  M 98.138743 199.395448  L 98.211538 199.375543  L 98.502721 198.599274  M 98.648313 198.579369  L 98.721109 198.201187  M 99.230679 197.604056  L 99.303475 197.405013  M 99.594658 197.006926  L 99.667454 196.807882  M 100.395412 195.613622  L 100.541003 195.215535  M 100.832187 194.817448  L 100.904982 194.618404  M 101.050574 194.419361  L 101.12337 194.220317  M 101.341757 193.82223  L 101.414553 193.623187  M 101.63294 193.264908  L 101.705736 193.2251  M 101.851328 193.026056  L 101.924123 192.827013  M 102.069715 192.627969  L 102.142511 192.428926  M 102.579285 191.632752  L 102.724877 191.234665  M 103.088856 190.836578  L 103.161652 190.637535  M 103.598426 189.841361  L 103.744018 189.622413  M 103.88961 189.443274  L 104.180793 188.846143  L 104.253588 188.78643  M 104.39918 188.6471  L 104.690363 187.651882  M 104.981546 187.452839  L 105.054342 187.432934  L 105.199934 186.975134  M 105.491117 186.656665  L 105.563913 186.258578  M 105.7823 186.079439  L 105.855096 186.059534  M 106.146279 185.641543  L 106.510258 184.865274  M 107.311011 183.830247  L 107.383807 183.471969  M 107.602195 183.272926  L 107.67499 183.053978  M 107.820582 182.934552  L 107.893378 182.675795  M 108.038969 182.655891  L 108.111765 182.476752  M 108.330152 182.078665  L 108.402948 181.879621  M 108.621336 181.680578  L 108.694131 181.660673  L 108.766927 181.481534  M 108.912519 181.282491  L 109.05811 180.884404  M 109.422089 180.486317  L 109.567681 179.889187  M 109.858864 179.670239  L 110.004456 179.292056  M 111.678759 176.505447  L 111.751554 176.306404  M 112.188329 175.888413  L 112.261125 175.689369  M 112.479512 175.51023  L 112.552308 175.490326  L 112.770695 174.853386  M 113.20747 174.296065  L 113.280266 174.097021  M 113.717041 173.698934  L 113.789836 173.519795  M 114.08102 173.121708  L 114.299407 172.504673  M 114.59059 172.325534  L 114.808977 171.907543  M 114.954569 171.728404  L 115.245752 170.93223  M 115.391344 170.912326  L 115.755323 170.335099  L 115.900914 169.937012  M 116.410485 169.459308  L 116.701668 168.941795  L 116.774464 168.344665  M 118.448767 166.155186  L 118.521562 165.956143  M 119.031133 165.359012  L 119.176724 164.941021  M 119.540703 164.761882  L 119.686295 164.343891  M 120.195865 163.74676  L 120.414253 163.348673  M 120.851028 162.731638  L 121.142211 161.975273  M 121.433394 161.378143  L 121.50619 161.358238  M 121.942964 160.581969  L 122.01576 160.562064  M 122.234147 160.382925  L 122.306943 160.163978  M 122.452535 159.984838  L 122.525331 159.964934  L 122.598126 159.586751  M 122.816514 159.387708  L 122.88931 159.367804  M 123.034901 159.188664  L 123.180493 158.790578  M 123.471676 158.392491  L 123.544472 158.372586  L 123.617267 158.193447  M 123.835655 157.79536  L 124.054042 157.178325  M 124.418021 156.800143  L 124.490817 156.780238  M 124.927592 156.003969  L 125.000387 155.804925  M 125.29157 155.585977  L 125.364366 155.406838  M 125.509958 155.207795  L 125.655549 154.809708  M 125.801141 154.610664  L 125.873937 154.59076  M 126.019528 154.411621  L 126.092324 154.212577  M 126.383507 153.81449  L 126.456303 153.615447  M 126.67469 153.416404  L 126.747486 153.21736  M 126.893078 153.018317  L 126.965874 152.998412  L 127.038669 152.62023  M 127.329852 152.421186  L 127.402648 152.222143  M 127.54824 152.202238  L 127.693831 151.824056  M 127.839423 151.625012  L 127.912219 151.605108  L 127.985015 151.207021  M 128.203402 151.047786  L 128.276198 151.027882  M 128.567381 150.410847  L 128.640177 150.231708  M 129.004156 149.714195  L 129.076951 149.614673  M 129.295339 149.41563  L 129.44093 149.037447  M 129.804909 148.63936  L 130.023297 148.04223  M 130.532867 147.465003  L 130.605663 147.246056  M 130.82405 147.047012  L 130.896846 146.828064  M 131.188029 146.429977  L 131.479212 145.852751  M 131.624804 145.673612  L 131.6976 145.633803  M 131.843191 145.454664  L 131.915987 145.255621  M 132.134374 145.056577  L 132.20717 145.036673  L 132.279966 144.857534  M 132.425557 144.65849  L 132.643945 144.240499  M 133.08072 143.643369  L 133.226311 143.265186  M 134.027065 142.269969  L 134.099861 142.250064  L 134.318248 141.672838  M 134.463839 141.473795  L 134.536635 141.45389  M 135.919755 139.48336  L 135.992551 139.284316  M 136.35653 138.866325  L 136.647713 138.289099  M 136.793305 138.269195  L 137.011692 137.691969  M 137.230079 137.293882  L 137.302875 137.134647  M 137.521262 137.094838  L 137.812446 136.497708  M 138.322016 135.900577  L 138.467608 135.50249  M 138.685995 135.482586  L 138.904382 135.104403  M 139.049974 134.90536  L 139.12277 134.885455  M 139.268361 134.507273  L 139.341157 134.44756  M 139.486749 134.308229  L 139.559544 134.288325  L 139.63234 134.109186  M 139.777932 133.910142  L 139.996319 133.492151  M 140.287502 133.113968  L 140.360298 133.094064  M 140.724277 132.656168  L 140.942664 132.118751  M 141.161052 131.919708  L 141.233847 131.740568  M 141.743418 131.123534  L 141.88901 130.725447  M 142.034601 130.705542  L 142.107397 130.526403  M 142.325784 130.32736  L 142.544172 129.949177  M 142.689763 129.929273  L 142.908151 129.511281  M 143.053742 129.332142  L 143.126538 129.133099  M 143.272129 129.053481  L 143.417721 128.735012  M 143.563313 128.535968  L 143.708904 128.317021  M 143.854496 128.137881  L 143.927292 128.117977  L 144.218475 127.540751  M 144.364066 127.520847  L 144.582454 127.142664  M 145.965574 125.152229  L 146.038369 125.012899  M 146.183961 124.754142  L 146.256757 124.555099  M 146.54794 124.336151  L 146.620736 124.157012  M 146.839123 123.957968  L 146.911919 123.758925  M 147.130306 123.659403  L 147.203102 123.539977  M 147.348693 123.161794  L 147.421489 122.962751  M 148.222243 122.146673  L 148.295039 121.967533  M 149.022997 120.972316  L 149.168588 120.574229  M 149.678159 120.176142  L 149.82375 119.579012  M 150.551708 118.782838  L 150.624504 118.762933  L 150.6973 118.583794  M 150.842891 118.384751  L 150.915687 118.185707  M 151.425257 117.588577  L 151.498053 117.389533  M 152.153215 116.772499  L 152.298807 116.394316  M 152.517194 116.195273  L 152.58999 115.996229  M 152.953969 115.598142  L 153.026765 115.399099  M 153.390744 115.001012  L 153.463539 114.981107  L 153.609131 114.682542  M 153.900314 114.403881  L 153.97311 114.204838  M 154.191497 114.005794  L 154.264293 113.806751  M 154.919455 113.010577  L 155.137842 112.61249  M 155.429026 112.413446  L 155.574617 112.015359  M 155.793005 111.995455  L 155.8658 111.816316  M 156.011392 111.796412  L 156.229779 111.219186  M 156.957737 110.423012  L 157.030533 110.223968  M 157.394512 110.00502  L 157.540103 109.626838  M 157.904082 109.288464  L 158.049674 109.029707  M 158.195265 109.009803  L 158.340857 108.63162  M 158.850428 108.03449  L 158.923223 107.835446  M 159.287202 107.616498  L 159.432794 107.417455  M 159.578385 107.238316  L 159.651181 107.039272  M 159.796773 106.840229  L 159.869569 106.641185  M 160.087956 106.601377  L 160.160752 106.442142  M 160.306343 106.243098  L 160.379139 106.044055  M 160.743118 105.705681  L 160.815914 105.645968  M 161.034301 105.626064  L 161.252688 105.227977  M 162.053442 104.252664  L 162.126238 104.033716  M 162.635808 103.635629  L 162.708604 103.45649  M 162.999787 103.237542  L 163.072583 102.859359  M 163.436562 102.640411  L 163.582154 102.262229  M 164.018928 101.864142  L 164.091724 101.665098  M 165.038069 100.669881  L 165.110865 100.470838  M 165.474844 100.072751  L 165.54764 100.052846  M 165.911619 99.674664  L 165.984415 99.47562  M 166.566781 98.87849  L 166.639577 98.858585  M 174.283134 90.31962  L 174.428726 89.981246  M 174.647113 89.921533  L 174.792705 89.54335  M 175.447867 89.08555  L 175.520662 88.926316  M 175.666254 88.727272  L 175.73905 88.707368  M 176.758191 87.71215  L 176.830987 87.533011  M 176.976578 87.333968  L 177.049374 87.134924  M 177.486149 86.836359  L 177.63174 86.537794  M 177.922923 86.33875  L 177.995719 86.318846  L 178.068515 86.139707  M 178.869269 85.343533  L 178.942064 85.144489  M 179.378839 84.925542  L 179.597226 84.547359  M 180.325184 83.930324  L 180.470776 83.552142  M 180.761959 83.333194  L 180.907551 83.154055  M 181.271529 82.795776  L 181.344325 82.755968  M 181.853896 82.337976  L 181.926692 82.158837  M 182.217875 81.939889  L 182.29067 81.76075  M 183.018628 81.004385  L 183.091424 80.964576  M 183.237016 80.944672  L 183.382607 80.745629  M 183.67379 80.546585  L 183.746586 80.367446  M 184.037769 80.108689  L 184.256157 79.750411  M 184.474544 79.650889  L 184.692931 79.372229  M 184.838523 79.352324  L 184.911319 79.173185  M 185.202502 78.974142  L 185.275298 78.954237  L 185.348093 78.775098  M 185.857664 78.357107  L 186.003256 78.177968  M 186.294439 77.95902  L 186.512826 77.580837  M 187.531967 76.764759  L 187.604763 76.58562  M 188.551108 75.769542  L 188.623904 75.590402  M 188.842291 75.391359  L 188.915087 75.371455  L 188.987883 75.192315  M 190.371003 73.818915  L 190.443798 73.799011  M 190.734982 73.580063  L 190.807777 73.400924  M 191.171756 73.181976  L 191.244552 73.002837  M 191.899714 72.405707  L 191.97251 72.385802  L 192.118101 72.027524  M 192.627672 71.788672  L 192.700468 71.609533  M 193.210038 71.191541  L 193.282834 71.012402  M 193.428426 70.992498  L 193.646813 70.674028  L 193.792405 70.415272  M 194.010792 70.236133  L 194.083588 70.216228  M 194.229179 70.196324  L 194.301975 70.017185  M 194.665954 69.778333  L 194.73875 69.619098  M 195.102729 69.320533  L 195.175524 69.221011  M 195.466708 69.002063  L 195.612299 68.822924  M 195.757891 68.80302  L 195.976278 68.424837  M 196.63144 67.986941  L 196.849828 67.628663  M 196.995419 67.608759  L 197.141011 67.42962  M 197.286602 67.409715  L 197.50499 67.091246  M 197.650581 67.031533  L 197.723377 67.011628  L 197.796173 66.832489  M 198.669722 66.19555  L 198.88811 65.837272  M 199.033701 65.817367  L 199.106497 65.638228  M 199.543272 65.41928  L 199.616067 65.240141  M 199.761659 65.220237  L 199.907251 65.021194  M 200.198434 64.82215  L 200.271229 64.643011  M 200.708004 64.384254  L 200.999187 64.025976  M 201.144779 63.946359  L 201.29037 63.647794  M 201.581554 63.627889  L 201.654349 63.44875  M 201.799941 63.428846  L 201.872737 63.249707  M 202.309511 63.030759  L 202.382307 62.85162  M 202.746286 62.632672  L 202.891878 62.433628  M 203.183061 62.234585  L 203.255857 62.055446  M 203.474244 62.035541  L 203.54704 61.856402  M 203.838223 61.657359  L 203.911019 61.637454  L 204.05661 61.438411  M 204.493385 61.060228  L 204.566181 61.040324  M 204.711772 60.861185  L 204.784568 60.801472  M 205.075751 60.642237  L 205.221343 60.443193  M 205.366934 60.343672  L 205.585322 60.065011  M 205.949301 59.865967  L 206.022096 59.846063  M 206.167688 59.666924  L 206.240484 59.64702  M 206.531667 59.447976  L 206.750054 59.069793  M 207.259625 58.850846  L 207.332421 58.671706  M 207.623604 58.472663  L 207.6964 58.452759  M 207.841991 58.27362  L 207.914787 58.253715  L 207.987583 58.09448  M 208.278766 58.054672  L 208.424357 57.855628  M 208.715541 57.656585  L 208.861132 57.457541  M 209.297907 57.198785  L 209.443498 56.880315  M 209.661886 56.860411  L 209.734682 56.760889  M 210.025865 56.661367  L 210.244252 56.303089  M 210.389844 56.283185  L 210.462639 56.26328  L 210.535435 56.084141  M 210.97221 55.865193  L 211.045006 55.686054  M 211.190597 55.66615  L 211.263393 55.487011  M 211.408985 55.467106  L 211.48178 55.407393  M 211.700168 55.268063  L 211.845759 55.069019  M 212.209738 54.869976  L 212.282534 54.690837  M 212.428126 54.670932  L 212.500921 54.491793  M 212.8649 54.29275  L 212.937696 54.272846  M 213.447267 53.874759  L 213.520062 53.695619  M 213.956837 53.496576  L 214.029633 53.476672  L 214.175224 53.277628  M 214.466408 53.098489  L 214.611999 52.879541  M 214.830387 52.720306  L 214.975978 52.680498  M 215.12157 52.501359  L 215.194365 52.481454  M 215.776732 52.083367  L 215.849528 51.884324  M 216.067915 51.824611  L 216.140711 51.705185  M 216.431894 51.486237  L 216.50469 51.366811  M 216.795873 51.287193  L 216.868669 51.108054  M 217.159852 50.909011  L 217.232647 50.889106  M 217.451035 50.709967  L 217.523831 50.690063  M 217.669422 50.510924  L 217.742218 50.471115  M 218.834155 49.694845  L 218.906951 49.575419  M 219.343725 49.296759  L 219.416521 49.117619  M 219.707704 49.097715  L 219.7805 48.918576  M 219.926092 48.898672  L 219.998887 48.719532  M 220.362866 48.500585  L 220.435662 48.321445  M 220.654049 48.301541  L 220.799641 48.122402  M 221.018028 48.102498  L 221.236416 47.784028  M 221.382007 47.724315  L 221.454803 47.704411  M 221.600395 47.525272  L 221.67319 47.505367  M 222.328352 47.10728  L 222.401148 46.928141  M 222.692331 46.729098  L 222.765127 46.709193  M 223.274698 46.331011  L 223.347493 46.311106  L 223.420289 46.112063  M 224.075451 45.73388  L 224.148247 45.713976  M 224.366634 45.534837  L 224.43943 45.514932  L 224.512226 45.335793  M 225.31298 44.917802  L 225.385775 44.738663  M 225.531367 44.718758  L 225.604163 44.639141  M 225.749754 44.539619  L 225.82255 44.519715  M 262.657218 23.520628  L 262.730013 23.44101  M 269.500021 20.833541  L 269.645613 20.455358  M 270.664754 20.375741  L 270.73755 20.256315  M 273.649381 19.241193  L 273.722177 19.062054  M 277.361966 17.847888  L 277.434762 17.668749  M 285.151115 15.081184  " clip-path="url(#pe1876197e5)" style="fill: none; stroke: #ff7f0e; stroke-width: 1.5; stroke-linecap: square"/>
   </g>
   <g id="line2d_15">
    <path d="M 77.726337 213.515121  L 77.800774 213.356789  M 77.949648 213.339197  L 78.024085 213.304012  L 78.247396 212.653091  L 78.321833 212.635499  L 78.694019 211.949393  M 78.842893 211.773469  L 79.587264 210.014224  L 79.736138 208.430904  M 80.331634 207.727206  L 80.554945 207.199433  M 80.703819 206.847584  L 80.852694 206.31981  M 81.001568 206.143886  L 81.44819 204.912414  M 81.597064 204.560566  L 82.043687 203.487426  M 82.192561 203.311502  L 82.415872 202.783728  M 82.564746 202.607804  L 82.788057 201.939291  L 82.862494 201.921698  L 83.457991 200.338378  M 83.606865 200.162454  L 83.755739 199.810605  M 83.904613 199.63468  L 84.202362 198.755058  M 84.351236 198.579133  L 84.648984 197.699511  L 84.723421 197.523587  M 84.872295 197.171738  L 85.542229 195.412493  L 85.691103 194.884719  M 85.839977 194.53287  L 86.063288 193.829173  M 86.212162 193.477324  L 86.733222 192.069928  M 86.882096 191.894003  L 87.105407 191.190305  M 87.254281 191.014381  L 87.403155 190.486608  M 87.552029 190.275498  L 87.924215 189.255136  L 88.519711 187.84774  L 88.594148 187.302375  M 88.891897 186.968118  L 89.189645 186.088496  L 89.264082 185.736647  M 89.56183 185.208873  L 89.636267 185.032949  M 90.157327 183.801478  L 90.231764 183.625553  M 90.455075 183.273704  L 90.529512 182.921855  M 90.678386 182.745931  L 90.976134 181.866308  M 91.571631 180.634837  L 91.646068 180.458913  M 91.869379 180.107064  L 91.943816 179.931139  M 92.09269 179.755215  L 92.61375 178.347819  M 93.060372 177.644121  L 93.209246 177.292272  M 93.35812 177.116348  L 93.655869 176.41265  L 93.730306 175.884876  M 94.102491 175.708952  L 94.251365 175.181178  M 94.400239 175.005254  L 94.474676 174.653405  M 95.14461 173.773783  L 95.293484 173.580266  L 95.367921 172.89416  M 95.665669 172.718236  L 95.814544 172.190462  M 97.303285 169.72752  L 97.377722 169.375671  M 97.601033 169.023822  L 97.824344 168.320124  M 98.270967 167.968275  L 98.419841 167.440501  M 98.866463 167.088653  L 98.9409 166.736804  M 99.759708 165.329408  L 99.834145 165.153483  M 99.983019 164.801634  L 100.057456 164.62571  M 100.355205 164.449785  L 100.578516 163.922012  M 100.876264 163.394239  L 100.950701 163.218314  M 101.174012 163.04239  L 101.397323 162.514616  M 102.513879 160.755371  L 102.588316 160.579447  M 103.034939 160.051674  L 103.109376 159.875749  M 103.407124 159.5239  L 103.630435 158.996127  M 103.853747 158.820202  L 103.928184 158.644278  M 104.672554 157.588731  L 104.746991 157.236882  M 104.970303 157.060957  L 105.119177 156.709109  M 105.640236 156.005411  L 105.714673 155.653562  M 106.607918 154.932271  L 106.756792 154.42209  M 107.05454 154.175796  L 107.203414 153.894317  L 107.277852 153.542468  M 107.5756 153.366544  L 107.650037 153.190619  M 108.096659 152.662846  L 108.171096 152.486921  M 108.394408 152.310997  L 108.543282 151.959148  M 108.692156 151.90637  L 108.989904 151.413782  M 109.138778 151.25545  L 109.213215 151.237857  L 109.510963 150.551752  M 110.404208 149.496205  L 110.478645 149.320281  M 110.850831 149.056394  L 111.074142 148.616583  L 111.148579 148.493436  M 111.297453 148.440658  L 111.446327 148.088809  M 111.744075 147.73696  L 111.89295 147.385111  M 112.116261 147.209187  L 112.190698 147.01567  M 112.488446 146.786968  L 112.562883 146.681414  M 112.711757 146.505489  L 112.935068 146.136048  M 113.15838 145.977716  L 113.232817 145.801791  M 114.051624 144.904576  L 114.274936 144.57032  L 114.349373 144.552727  L 114.498247 144.218471  M 114.795995 144.024954  L 115.019306 143.655513  M 115.465929 143.162924  L 115.614803 142.811075  M 115.986988 142.617558  L 116.135862 142.283302  M 117.177981 141.210162  L 117.252418 141.034238  M 117.550166 140.823129  L 117.773478 140.33054  M 118.592285 139.450918  L 118.741159 139.292586  M 118.964471 139.274993  L 119.113345 138.923144  M 119.336656 138.764812  L 119.48553 138.395371  M 119.857715 138.061114  L 119.932153 138.043522  M 120.602086 137.410194  L 120.75096 137.181492  L 120.899834 137.005567  M 121.048708 136.987975  L 121.420894 136.30187  M 121.569768 136.266685  L 121.644205 136.125945  M 121.793079 136.108353  L 121.941953 135.774096  M 122.165264 135.756504  L 122.314139 135.422247  M 122.53745 135.246323  L 122.611887 135.070398  M 122.760761 135.052806  L 122.909635 134.718549  M 123.207383 134.542625  L 123.28182 134.3667  M 123.877317 133.838927  L 123.951754 133.821334  L 124.100628 133.64541  M 124.249502 133.416708  L 124.398376 133.135229  M 125.514932 132.238014  L 125.663807 131.903758  M 126.035992 131.710241  L 126.110429 131.375984  M 126.408177 131.20006  L 126.557051 131.147282  L 126.705925 130.848211  M 126.929237 130.672286  L 127.003674 130.654694  L 127.078111 130.496362  M 127.226985 130.478769  L 127.301422 130.320437  M 127.450296 130.302845  L 127.524733 130.12692  M 127.673607 130.021366  L 127.896918 129.775072  L 127.971356 129.616739  M 128.12023 129.599147  L 128.269104 129.423223  M 128.417978 129.264891  L 128.566852 129.159336  L 128.715726 128.913042  M 128.8646 128.877857  L 129.087911 128.596378  L 129.236786 128.5436  L 129.311223 128.209344  M 129.757845 127.857495  L 129.906719 127.734348  M 130.055593 127.663978  L 130.204467 127.488053  M 130.353342 127.329721  L 130.427779 127.153797  M 130.576653 127.136204  L 130.65109 126.88991  M 131.097712 126.626023  L 131.172149 126.608431  L 131.321023 126.432507  M 131.618772 126.09825  L 131.767646 126.02788  L 131.842083 125.904733  M 132.139831 125.570477  L 132.214268 125.552884  M 132.363142 125.464922  L 132.437579 125.218628  M 132.735328 125.042703  L 132.884202 124.901964  L 133.18195 124.620484  L 133.256387 124.497337  M 133.554135 124.321413  L 133.777447 124.039934  M 134.075195 123.793639  L 134.149632 123.635307  M 134.298506 123.617715  L 134.372943 123.459383  M 134.670691 123.265866  L 134.819565 122.931609  M 135.340625 122.579761  L 135.415062 122.562168  L 135.563936 122.386244  M 135.71281 122.333466  L 135.861684 122.051987  M 136.159433 121.85847  L 136.308307 121.700138  M 136.457181 121.682546  L 136.680492 121.348289  M 136.829366 121.330697  L 136.903803 121.20755  M 137.052677 121.154772  L 137.127114 120.978848  M 137.424863 120.802923  L 137.4993 120.644591  M 138.169233 120.099225  L 138.392545 119.923301  L 138.466982 119.782561  M 138.615856 119.764969  L 138.690293 119.747376  L 138.913604 119.501082  M 139.062478 119.395528  L 139.211352 119.219603  M 139.360226 119.061271  L 139.434663 119.043679  L 139.509101 118.867754  M 139.732412 118.709422  L 139.881286 118.639052  M 140.03016 118.515905  L 140.104597 118.357573  M 140.402345 118.164056  L 140.476782 118.076094  M 140.625656 118.005724  L 140.700094 117.988132  L 140.848968 117.794615  M 141.444464 117.284434  L 141.518901 117.214064  M 141.667775 117.108509  L 141.742212 116.950177  M 141.891087 116.932585  L 141.965524 116.75666  M 142.337709 116.580736  L 142.412146 116.404811  M 142.56102 116.369627  L 142.635457 116.228887  M 142.933205 116.052963  L 143.007643 115.877038  M 143.156517 115.806668  L 143.230954 115.701114  M 143.528702 115.507597  L 143.603139 115.349265  M 144.124199 114.944638  L 144.198636 114.821491  M 144.34751 114.663159  L 144.421947 114.645567  M 144.570821 114.469642  L 144.645258 114.38168  M 145.240754 113.959461  L 145.315192 113.818722  M 145.836251 113.431688  L 145.910688 113.255763  M 146.208436 113.079839  L 146.282873 113.062246  L 146.35731 112.903914  M 146.803933 112.552065  L 146.87837 112.534473  M 147.027244 112.393733  L 147.176118 112.358549  L 147.250555 112.182624  M 147.399429 112.112254  L 147.473866 112.0067  M 147.920489 111.654851  L 147.994926 111.531704  M 148.1438 111.478926  L 148.367111 111.250224  M 148.813734 110.951153  L 149.037045 110.687266  L 149.40923 110.405787  M 149.706978 110.106715  L 149.781415 110.07153  L 149.855852 109.913198  M 150.153601 109.737274  L 150.228038 109.719681  L 150.302475 109.561349  M 150.451349 109.543757  L 150.525786 109.367833  M 150.823534 109.191908  L 150.972408 109.015984  L 151.19572 108.840059  M 151.344594 108.69932  L 151.419031 108.664135  M 151.567905 108.48821  L 151.642342 108.41784  M 152.088964 108.118769  L 152.312276 107.83729  M 152.46115 107.784512  L 152.535587 107.608588  M 152.833335 107.432663  L 152.907772 107.274331  M 153.354395 106.992852  L 153.503269 106.728965  M 153.652143 106.711373  L 153.72658 106.553041  M 154.024328 106.377116  L 154.098765 106.201192  M 154.694262 105.673419  L 154.768699 105.567864  M 155.066447 105.339162  L 155.140884 105.286385  M 155.364195 105.145645  L 155.438632 105.004906  M 155.587506 104.969721  L 155.736381 104.793796  M 156.034129 104.617872  L 156.108566 104.45954  M 156.406314 104.266023  L 156.480751 104.142876  M 156.704062 104.090098  L 156.7785 103.914174  M 157.225122 103.579917  L 157.299559 103.562325  M 157.597307 103.298438  L 157.671744 103.210476  M 158.267241 102.717887  L 158.341678 102.682702  M 159.086049 102.154929  L 159.160486 101.979005  M 159.755982 101.591971  L 159.904856 101.310492  M 160.425916 101.01142  L 160.500353 100.923458  M 160.798101 100.729941  L 161.021412 100.448462  M 161.170286 100.395684  L 161.244723 100.21976  M 161.691346 99.885503  L 161.765783 99.867911  M 162.063531 99.604024  L 162.137968 99.516062  M 162.435716 99.304953  L 162.510153 99.164213  M 163.10565 98.741994  L 163.180087 98.63644  M 164.073332 97.756817  L 164.147769 97.616078  M 164.743265 97.246636  L 164.817702 97.229044  L 164.89214 97.070712  M 165.041014 97.035527  L 165.115451 96.894787  M 165.264325 96.877195  L 165.338762 96.754048  M 165.63651 96.525346  L 165.710947 96.472569  M 166.15757 96.173497  L 166.380881 95.90961  M 166.678629 95.645724  L 166.753066 95.610539  M 167.050814 95.329059  L 167.199689 95.293875  L 167.274126 95.11795  M 167.720748 94.783694  L 167.795185 94.766101  M 167.944059 94.607769  L 168.092933 94.484622  M 168.390682 94.238328  L 168.613993 94.062403  M 169.209489 93.622592  L 169.283926 93.53463  M 169.879423 93.059634  L 170.028297 92.830932  M 171.665912 91.634646  L 171.740349 91.599461  L 171.814787 91.423536  M 172.48472 91.071687  L 172.559157 90.895763  M 173.303528 90.508729  L 173.377965 90.367989  M 174.643395 89.646699  L 174.792269 89.488367  M 175.01558 89.36522  L 175.164454 89.136518  M 175.462203 89.083741  L 175.53664 88.960593  M 175.759951 88.802261  L 175.834388 88.784669  M 176.206573 88.50319  L 176.28101 88.43282  M 177.025381 87.940232  L 177.099818 87.905047  L 177.174255 87.729122  M 177.397566 87.658752  L 177.472003 87.553198  M 177.844189 87.394866  L 177.918626 87.377273  L 177.993063 87.201349  M 178.365248 87.025424  L 178.439685 86.8495  M 178.737434 86.796722  L 178.811871 86.673575  M 179.184056 86.497651  L 179.258493 86.321726  M 180.002864 85.952285  L 180.077301 85.793953  M 181.566042 84.808776  L 181.640479 84.738406  M 182.012664 84.527297  L 182.087101 84.386557  M 182.310413 84.245818  L 182.38485 84.210633  M 182.980346 83.858784  L 183.054783 83.700452  M 183.426969 83.524527  L 183.501406 83.40138  M 184.320213 82.979161  L 184.39465 82.820829  M 184.692399 82.644905  L 184.766836 82.627312  M 185.139021 82.451388  L 185.213458 82.293056  M 185.957829 81.923615  L 186.032266 81.74769  M 187.893193 80.551404  L 187.96763 80.340294  M 188.786437 79.988445  L 188.860874 79.812521  M 190.424053 78.844936  L 190.49849 78.756974  M 191.615046 78.053276  L 191.689483 78.000499  M 192.284979 77.701427  L 192.359416 77.525503  M 192.657165 77.419948  L 192.731602 77.349578  M 193.475972 76.85699  L 193.550409 76.821805  M 193.922595 76.575511  L 193.997032 76.469956  M 197.495574 74.376455  L 197.570011 74.358862  M 198.314382 74.007013  L 198.463256 73.831089  M 199.207626 73.444055  L 199.282063 73.303315  M 199.803123 73.127391  L 199.87756 72.969059  M 200.026434 72.951466  L 200.175308 72.775542  M 202.185109 71.719995  L 202.259546 71.544071  M 202.557294 71.456108  L 202.631731 71.368146  M 204.492658 70.330192  L 204.567095 70.312599  M 205.832525 69.608901  L 205.906962 69.468162  M 206.72577 69.186683  L 206.800207 69.081128  M 207.097955 68.905203  L 207.172392 68.729279  M 208.065637 68.324653  L 208.140074 68.201506  M 208.735571 68.025581  L 208.884445 67.849657  M 209.331067 67.673732  L 209.405504 67.497808  M 209.852127 67.480215  L 209.926564 67.321883  M 210.298749 67.145959  L 210.373186 66.970034  M 211.340868 66.618185  L 211.415305 66.442261  M 214.169476 65.052457  L 214.243913 65.034865  M 214.690536 64.858941  L 214.764973 64.700609  M 215.211595 64.524684  L 215.286032 64.507092  M 216.551462 63.785801  L 216.625899 63.627469  M 217.668018 63.117288  L 217.742455 63.099696  M 219.826693 62.079334  L 219.90113 62.044149  M 220.198879 61.885817  L 220.273316 61.868224  M 222.134242 60.935825  L 222.208679 60.812678  M 223.176361 60.372866  L 223.250798 60.284904  M 224.21848 59.792316  L 224.292917 59.757131  M 224.962851 59.510837  L 225.037288 59.405282  M 226.377155 58.877508  L 226.526029 58.701584  M 226.898214 58.666399  L 226.972651 58.525659  M 228.312519 57.804369  L 228.386956 57.646037  M 229.80126 57.118264  L 229.875697 56.959932  M 230.620068 56.678452  L 230.694505 56.59049  M 232.480994 55.816423  L 232.555431 55.710868  M 233.820861 55.183094  L 233.895298 55.00717  M 234.714106 54.690506  L 234.788543 54.655321  L 234.86298 54.479397  M 235.38404 54.391434  L 235.458477 54.303472  M 243.795428 50.274802  L 243.869865 50.257209  M 244.390925 50.098877  L 244.465362 49.922953  M 244.76311 49.852583  L 244.837547 49.729436  M 246.177414 49.289625  L 246.251851 49.025738  M 247.517281 48.497964  L 247.591718 48.427595  M 248.484963 47.987783  L 248.5594 47.970191  M 249.973704 47.266493  L 250.048141 47.090569  M 255.035425 44.80355  L 255.109862 44.469294  M 263.074628 41.038767  L 263.223502 40.77488  M 268.285222 38.663786  L 268.359659 38.487862  M 268.806282 38.470269  L 268.880719 38.311937  M 271.039394 37.432315  L 271.113831 37.414723  M 275.505618 35.497146  L 275.580055 35.479553  M 275.803366 35.356406  L 275.877803 35.303629  M 276.101114 35.145297  L 276.175551 35.127704  M 276.473299 35.074927  L 276.547736 34.969372  M 276.771048 34.95178  L 276.845485 34.793448  M 277.813167 34.494376  L 277.887604 34.424006  M 278.110915 34.265674  L 278.185352 34.212897  M 279.897404 33.544384  L 279.971841 33.386052  M 286.224555 30.905517  L 286.373429 30.729593  M 286.968926 30.553668  L 287.043363 30.518483  M 287.341111 30.395336  L 287.415548 30.377744  M 287.787733 30.219412  L 287.86217 30.201819  M 288.085481 30.043487  L 288.159919 30.025895  M 288.680978 29.867563  L 288.755415 29.84997  M 289.1276 29.691638  L 289.202037 29.674046  M 289.871971 29.392567  L 289.946408 29.339789  M 291.062964 28.970348  L 291.137401 28.812016  M 292.849454 28.249057  L 292.923891 28.108318  M 294.338195 27.580544  L 294.412632 27.562952  M 295.97581 27.035179  L 296.050247 26.859254  M 297.613426 26.507405  L 297.687863 26.331481  M 299.02773 25.8213  L 299.102167 25.803707  M 302.600709 24.572236  L 302.675146 24.554643  M 303.121769 24.396311  L 303.196206 24.273164  M 304.536073 23.88613  L 304.61051 23.868538  M 305.35488 23.534282  L 305.429318 23.516689  M 307.811304 22.654659  L 307.885741 22.637067  M 309.523356 21.986146  L 309.597793 21.775037  M 310.491038 21.704667  L 310.565475 21.58152  M 312.72415 20.86023  " clip-path="url(#pe1876197e5)" style="fill: none; stroke: #2ca02c; stroke-width: 1.5; stroke-linecap: square"/>
   </g>
   <g id="line2d_16">
    <path d="M 71.147719 227.214517  L 71.479848 226.201438  M 71.679126 225.99038  L 71.944829 225.336099  M 72.077681 224.935089  L 72.144107 224.724031  M 72.40981 224.090856  L 72.476236 224.06975  L 73.007643 222.613448  M 73.273346 221.980274  L 73.339772 221.769216  M 73.605475 220.924983  L 73.804753 220.692819  M 73.937604 220.48176  L 74.136882 219.848586  M 74.269734 219.700845  L 74.33616 219.236517  M 74.469011 219.215411  L 74.601863 218.793295  M 74.734715 218.392284  L 74.867566 217.970168  M 75.066844 217.548051  L 75.13327 217.336993  M 75.266121 216.914877  L 75.332547 216.893771  L 75.465399 216.49276  M 75.731102 215.859586  L 76.063231 215.226411  L 76.262509 214.593236  L 76.328935 214.57213  L 76.528212 213.960062  L 76.594638 213.938956  L 76.793916 213.305781  M 77.059619 212.693712  L 77.458174 211.216305  M 77.591026 211.005247  L 77.723878 210.372072  M 77.856729 210.161014  L 77.923155 209.949956  M 78.056007 209.738897  L 78.122433 209.316781  M 78.255284 209.105723  L 78.653839 207.839373  M 78.786691 207.628315  L 79.185246 206.361966  M 79.318098 206.150908  L 79.650227 205.306675  M 79.783079 205.074511  L 79.849505 204.863453  M 79.982356 204.6735  L 80.24806 203.829267  M 80.380911 203.428257  L 80.447337 203.386045  L 80.646615 202.773976  M 80.779466 202.584024  L 80.845892 202.541812  L 80.912318 202.35186  M 81.04517 201.929744  L 81.178021 201.507627  M 81.310873 201.296569  L 81.576577 200.304595  M 81.709428 200.241278  L 82.373687 198.341754  M 82.506538 198.130696  L 82.572964 197.919637  M 82.838668 197.497521  L 82.905093 197.286463  M 83.104371 197.075405  L 83.237223 196.44223  M 83.502926 196.125643  L 83.635778 195.914584  L 83.702204 195.597997  M 83.835055 195.576891  L 83.901481 195.175881  M 84.034333 194.964822  L 84.23361 194.12059  M 84.432888 193.825108  L 84.964295 192.432124  L 85.163572 191.798949  M 85.429275 191.313515  L 85.495701 191.144669  M 85.628553 190.954716  L 85.894256 189.87832  M 86.093534 189.857214  L 86.15996 189.456203  M 86.425663 189.034087  L 87.023496 187.155669  M 87.156347 186.94461  L 87.953458 184.221959  M 88.086309 184.179748  L 88.152735 183.989795  L 88.219161 183.187774  M 88.55129 182.70234  L 88.750568 181.879213  M 89.149123 181.246039  L 89.746955 179.768631  L 89.946233 179.325409  L 90.079085 179.114351  L 90.278362 178.291224  L 90.344788 178.270118  L 92.204712 172.80371  L 92.271137 172.381594  M 92.470415 171.959477  L 92.536841 171.938371  L 92.935396 170.861974  M 93.068248 170.672022  L 93.333951 169.848895  M 93.732506 168.983556  L 93.931784 168.139324  M 94.064635 167.949371  L 94.131061 167.928265  L 94.330339 167.084032  L 94.596042 165.838789  L 94.662468 165.817683  L 94.994597 164.614651  L 95.061023 163.939265  M 95.193875 163.728207  L 95.725281 162.229694  L 95.990985 161.174402  L 96.588817 159.084926  M 96.721669 158.852762  L 97.053798 157.713048  L 97.18665 157.375355  L 97.253076 156.678863  M 97.385927 156.531122  L 97.585205 155.707995  L 97.718057 154.800444  M 97.98376 154.019529  L 98.050186 153.956212  L 98.315889 152.542122  L 98.382315 152.521016  L 99.777258 147.708888  M 99.910109 147.075714  L 100.042961 146.611386  M 100.175813 146.231481  L 100.507942 144.732968  L 100.574368 144.711862  L 100.773645 143.740994  L 100.906497 143.529936  L 101.105775 142.474645  L 101.1722 142.263587  M 101.305052 141.862576  L 101.371478 141.44046  M 101.50433 141.018343  L 101.570756 140.701756  M 101.770033 140.300745  L 101.969311 139.435406  M 102.235014 138.612279  L 102.500717 137.535883  L 102.633569 136.83939  M 102.832847 136.501697  L 103.032124 135.847417  M 103.297828 134.813232  L 103.364253 134.581068  M 103.497105 134.370009  L 103.563531 134.137845  M 103.696383 133.757941  L 103.762808 133.736835  L 103.962086 132.871496  M 104.094938 132.681544  L 104.294215 131.858417  M 104.559919 131.204136  L 104.626344 131.014184  L 104.69277 130.381009  M 104.825622 130.148845  L 104.892048 129.958893  M 105.024899 129.937787  L 105.290603 129.11466  L 105.357029 128.502591  M 105.48988 128.249321  L 105.689158 127.4473  M 106.087713 126.349797  L 106.685546 124.534697  L 106.951249 123.394982  M 107.216952 122.761808  L 107.283378 122.339691  M 107.41623 121.938681  L 107.482656 121.706517  M 107.615507 121.600987  L 107.681933 120.862284  M 108.014062 120.250215  L 108.279766 119.110501  M 108.412617 118.96276  L 108.678321 117.696411  M 108.944024 117.063236  L 109.01045 117.021024  L 109.076876 116.598908  M 109.342579 116.029051  L 109.475431 115.37477  M 109.608283 115.353664  L 109.674709 114.931548  M 109.80756 114.530537  L 110.006838 113.876257  M 110.139689 113.496352  L 110.272541 113.05313  M 110.471819 112.652119  L 110.737522 111.596828  M 111.003225 110.731489  L 111.268929 109.676198  L 111.534632 108.241003  M 111.667484 108.05105  L 111.866761 106.995759  M 111.999613 106.742489  L 112.796723 103.998732  L 113.062427 102.816806  L 113.128852 102.732383  L 113.195278 102.415796  M 113.32813 101.993679  L 113.394556 101.655986  M 113.527407 101.360505  L 113.726685 100.811753  M 113.859537 100.600695  L 113.925963 100.389637  M 114.058814 99.988626  L 114.12524 99.693145  M 114.258092 99.482087  L 114.590221 98.701171  L 114.656647 98.279055  M 114.789499 98.089102  L 114.855924 97.856938  M 114.988776 97.666986  L 115.055202 97.223764  M 115.985164 95.303134  L 116.118015 95.092076  L 116.184441 94.268949  M 116.450145 94.057891  L 116.715848 93.0026  L 116.782274 92.812647  M 120.967102 80.360213  L 121.033528 80.128049  M 121.232805 79.66372  L 121.63136 78.460689  M 121.96349 77.616456  L 122.029916 77.405398  M 122.295619 76.772223  L 122.428471 76.117942  M 122.561322 75.92799  L 123.026303 74.429477  L 123.092729 73.796302  M 123.358432 73.163127  L 123.823413 71.68572  L 123.956265 70.883699  M 124.089117 70.672641  L 124.554098 69.174127  L 124.620523 69.153021  L 124.753375 68.540953  M 124.886227 68.393212  L 124.952653 67.886672  M 125.085504 67.69672  L 125.417634 66.725852  M 125.550485 66.303736  L 125.683337 66.092677  L 125.749763 65.797196  M 125.882614 65.459503  L 126.015466 65.164021  L 126.081892 64.931857  M 126.214744 64.530847  L 126.28117 64.509741  L 126.679725 63.243391  M 126.945428 62.610217  L 127.07828 61.765984  M 127.410409 61.132809  L 127.543261 60.668481  M 127.676112 60.309682  L 127.808964 60.035307  L 128.074667 59.043333  M 128.207519 58.811169  L 128.406797 58.156888  M 128.539648 57.966936  L 128.805352 56.932751  M 128.938203 56.721693  L 129.137481 55.87746  M 129.336758 55.434238  L 129.536036 54.822169  M 129.668888 54.61111  L 129.801739 53.977936  M 130.333146 52.690481  L 130.532424 52.099518  M 130.798127 51.424131  L 130.930979 51.023121  M 131.595237 49.186914  L 131.661663 49.102491  L 131.728089 48.764798  M 132.126644 47.625084  L 132.325921 47.013015  M 132.458773 46.464263  L 132.525199 46.253205  M 132.658051 45.936618  L 133.056606 44.691374  M 133.189457 44.374787  L 133.255883 44.037094  M 133.388735 43.762718  L 133.588012 43.002909  M 133.853716 42.348628  L 134.052993 41.736559  M 134.185845 41.103385  L 134.252271 40.892327  M 134.517974 40.47021  L 135.049381 38.570686  M 135.182233 38.359628  L 135.315084 37.937512  M 135.447936 37.494289  L 135.514362 37.304337  M 137.042156 33.9063  L 137.108582 33.716347  M 137.706415 33.294231  L 137.839266 31.394707  L 138.569951 29.284125  M 138.835654 28.65095  L 138.90208 28.439892  M 139.034932 28.102199  L 139.101357 27.806717  M 139.234209 27.680082  L 139.300635 27.574553  L 139.433487 27.152437  M 139.566338 26.962485  L 139.832042 26.118252  M 140.097745 25.801664  L 140.363448 25.041855  L 140.562726 24.218728  M 140.695578 23.796611  L 140.961281 23.353389  L 141.027707 22.74132  M 141.226984 22.530262  L 142.09052 19.976458  M 142.223372 19.575447  L 142.356224 19.153331  M 142.489075 18.731214  L 142.555501 18.520156  L 142.555501 18.520156  " clip-path="url(#pe1876197e5)" style="fill: none; stroke: #d62728; stroke-width: 1.5; stroke-linecap: square"/>
   </g>
   <g id="patch_3">
    <path d="M 36.849303 268.78101  L 36.849303 3.00024  " style="fill: none; stroke: #000000; stroke-width: 0.8; stroke-linejoin: miter; stroke-linecap: square"/>
   </g>
   <g id="patch_4">
    <path d="M 341.034237 268.78101  L 341.034237 3.00024  " style="fill: none; stroke: #000000; stroke-width: 0.8; stroke-linejoin: miter; stroke-linecap: square"/>
   </g>
   <g id="patch_5">
    <path d="M 36.849303 268.78101  L 341.034237 268.78101  " style="fill: none; stroke: #000000; stroke-width: 0.8; stroke-linejoin: miter; stroke-linecap: square"/>
   </g>
   <g id="patch_6">
    <path d="M 36.849303 3.00024  L 341.034237 3.00024  " style="fill: none; stroke: #000000; stroke-width: 0.8; stroke-linejoin: miter; stroke-linecap: square"/>
   </g>
   <g id="legend_1">
    <g id="patch_7">
     <path d="M 44.549303 91.722115  L 92.11399 91.722115  Q 94.31399 91.722115 94.31399 89.522115  L 94.31399 10.70024  Q 94.31399 8.50024 92.11399 8.50024  L 44.549303 8.50024  Q 42.349303 8.50024 42.349303 10.70024  L 42.349303 89.522115  Q 42.349303 91.722115 44.549303 91.722115  z " style="fill: #ffffff; opacity: 0.8; stroke: #cccccc; stroke-linejoin: miter"/>
    </g>
    <g id="text_15">
     <!-- $\alpha [^\circ]$ -->
     <g transform="translate(58.816646 21.15024) scale(0.11 -0.11)">
      <defs>
       <path id="STIXGeneral-Italic-3b1" d="M 3514 2739  L 2605 1069  L 2605 954  Q 2605 704 2662 512  Q 2720 320 2822 320  Q 2970 320 3149 794  L 3251 749  Q 3014 -58 2605 -58  Q 2291 -58 2272 614  Q 1709 -70 1030 -70  Q 589 -70 381 198  Q 173 467 173 902  Q 173 1293 329 1673  Q 486 2054 755 2330  Q 973 2547 1270 2684  Q 1568 2822 1862 2822  Q 2246 2822 2457 2595  Q 2669 2368 2669 2061  L 2963 2739  L 3514 2739  z M 2298 1741  Q 2298 2688 1805 2688  Q 1472 2688 1085 2099  Q 698 1510 698 800  Q 698 493 806 278  Q 915 64 1139 64  Q 1606 64 2195 1286  Q 2202 1325 2230 1411  Q 2259 1498 2278 1581  Q 2298 1664 2298 1741  z " transform="scale(0.015625)"/>
       <path id="STIXGeneral-Regular-5b" d="M 1914 -998  L 563 -998  L 563 4237  L 1914 4237  L 1914 4077  L 1382 4077  Q 1216 4077 1133 4006  Q 1050 3936 1050 3770  L 1050 -493  Q 1050 -838 1382 -838  L 1914 -838  L 1914 -998  z " transform="scale(0.015625)"/>
       <path id="STIXGeneral-Regular-2218" d="M 1734 2224  Q 1984 1971 1984 1612  Q 1984 1254 1731 1001  Q 1478 749 1120 749  Q 755 749 505 1001  Q 256 1254 256 1626  Q 256 1984 509 2230  Q 762 2477 1133 2477  Q 1485 2477 1734 2224  z M 1434 1299  Q 1562 1427 1562 1612  Q 1562 1798 1434 1926  Q 1306 2054 1133 2054  Q 934 2054 806 1929  Q 678 1805 678 1626  Q 678 1427 803 1299  Q 928 1171 1120 1171  Q 1306 1171 1434 1299  z " transform="scale(0.015625)"/>
       <path id="STIXGeneral-Regular-5d" d="M 1568 -998  L 218 -998  L 218 -838  L 781 -838  Q 947 -838 1014 -768  Q 1082 -698 1082 -544  L 1082 3731  Q 1082 4077 755 4077  L 218 4077  L 218 4237  L 1568 4237  L 1568 -998  z " transform="scale(0.015625)"/>
      </defs>
      <use xlink:href="#STIXGeneral-Italic-3b1" transform="translate(0 0.796875)"/>
      <use xlink:href="#STIXGeneral-Regular-5b" transform="translate(55.199997 0.796875)"/>
      <use xlink:href="#STIXGeneral-Regular-2218" transform="translate(100.151263 36.071875) scale(0.7)"/>
      <use xlink:href="#STIXGeneral-Regular-5d" transform="translate(139.168625 0.796875)"/>
     </g>
    </g>
    <g id="line2d_17">
     <path d="M 46.749302 33.284615  L 57.749302 33.284615  L 68.749302 33.284615  " style="fill: none; stroke: #1f77b4; stroke-width: 1.5; stroke-linecap: square"/>
    </g>
    <g id="text_16">
     <!-- 0 -->
     <g transform="translate(77.549302 37.134615) scale(0.11 -0.11)">
      <use xlink:href="#Roboto-Regular-30"/>
     </g>
    </g>
    <g id="line2d_18">
     <path d="M 46.749302 49.26899  L 57.749302 49.26899  L 68.749302 49.26899  " style="fill: none; stroke: #ff7f0e; stroke-width: 1.5; stroke-linecap: square"/>
    </g>
    <g id="text_17">
     <!-- 24 -->
     <g transform="translate(77.549302 53.11899) scale(0.11 -0.11)">
      <use xlink:href="#Roboto-Regular-32"/>
      <use xlink:href="#Roboto-Regular-34" x="56.201172"/>
     </g>
    </g>
    <g id="line2d_19">
     <path d="M 46.749302 65.253365  L 57.749302 65.253365  L 68.749302 65.253365  " style="fill: none; stroke: #2ca02c; stroke-width: 1.5; stroke-linecap: square"/>
    </g>
    <g id="text_18">
     <!-- 32 -->
     <g transform="translate(77.549302 69.103365) scale(0.11 -0.11)">
      <defs>
       <path id="Roboto-Regular-33" d="M 1222 2084  L 1222 2559  L 1647 2559  Q 2094 2563 2312 2784  Q 2531 3006 2531 3338  Q 2531 4138 1738 4138  Q 1369 4138 1141 3927  Q 913 3716 913 3359  L 334 3359  Q 334 3881 720 4247  Q 1106 4613 1738 4613  Q 2353 4613 2733 4286  Q 3113 3959 3113 3325  Q 3113 3072 2942 2784  Q 2772 2497 2397 2338  Q 2850 2191 3015 1884  Q 3181 1578 3181 1269  Q 3181 631 2768 284  Q 2356 -63 1741 -63  Q 1147 -63 722 267  Q 297 597 297 1203  L 875 1203  Q 875 844 1108 628  Q 1341 413 1741 413  Q 2138 413 2369 622  Q 2600 831 2600 1256  Q 2600 1681 2337 1882  Q 2075 2084 1634 2084  L 1222 2084  z " transform="scale(0.015625)"/>
      </defs>
      <use xlink:href="#Roboto-Regular-33"/>
      <use xlink:href="#Roboto-Regular-32" x="56.201172"/>
     </g>
    </g>
    <g id="line2d_20">
     <path d="M 46.749302 81.23774  L 57.749302 81.23774  L 68.749302 81.23774  " style="fill: none; stroke: #d62728; stroke-width: 1.5; stroke-linecap: square"/>
    </g>
    <g id="text_19">
     <!-- 45 -->
     <g transform="translate(77.549302 85.08774) scale(0.11 -0.11)">
      <use xlink:href="#Roboto-Regular-34"/>
      <use xlink:href="#Roboto-Regular-35" x="56.201172"/>
     </g>
    </g>
   </g>
  </g>
 </g>
 <defs>
  <clipPath id="pe1876197e5">
   <rect x="36.849303" y="3.00024" width="304.184934" height="265.78077"/>
  </clipPath>
 </defs>
</svg>
