<?xml version='1.0' encoding='ASCII' standalone='yes'?>
<svg xmlns:xlink="http://www.w3.org/1999/xlink" xmlns="http://www.w3.org/2000/svg" width="786.364518pt" height="334.125pt" viewBox="0 0 393.182259 167.0625" version="1.1">
 <metadata>
  <rdf:RDF xmlns:dc="http://purl.org/dc/elements/1.1/" xmlns:cc="http://creativecommons.org/ns#" xmlns:rdf="http://www.w3.org/1999/02/22-rdf-syntax-ns#">
   <cc:Work>
    <dc:type rdf:resource="http://purl.org/dc/dcmitype/StillImage"/>
    <dc:date>2023-12-05T18:21:14.280960</dc:date>
    <dc:format>image/svg+xml</dc:format>
    <dc:creator>
     <cc:Agent>
      <dc:title>Matplotlib v3.8.0, https://matplotlib.org/</dc:title>
     </cc:Agent>
    </dc:creator>
   </cc:Work>
  </rdf:RDF>
 </metadata>
 <defs>
  <style type="text/css">*{stroke-linejoin: round; stroke-linecap: butt}</style>
 </defs>
 <g id="figure_1">
  <g id="patch_1">
   <path d="M 0 167.0625  L 393.182259 167.0625  L 393.182259 0  L 0 0  z " style="fill: #ffffff"/>
  </g>
  <g id="axes_1">
   <g id="patch_2">
    <path d="M 81.927693 117.32428  L 86.300096 81.713909  L 336.94756 81.713909  L 328.852506 147.642834  z " clip-path="url(#p1063bc52e3)" style="fill: #e0ffff"/>
   </g>
   <g id="patch_3">
    <path d="M 57.235211 114.292424  L 61.23535 81.713909  L 86.300096 81.713909  L 81.927693 117.32428  z " clip-path="url(#p1063bc52e3)" style="fill: #f3f7d4"/>
   </g>
   <g id="PathCollection_1">
    <defs>
     <path id="m657ab8fff6" d="M 0 0.41833  C 0.110942 0.41833 0.217356 0.374252 0.295804 0.295804  C 0.374252 0.217356 0.41833 0.110942 0.41833 0  C 0.41833 -0.110942 0.374252 -0.217356 0.295804 -0.295804  C 0.217356 -0.374252 0.110942 -0.41833 0 -0.41833  C -0.110942 -0.41833 -0.217356 -0.374252 -0.295804 -0.295804  C -0.374252 -0.217356 -0.41833 -0.110942 -0.41833 0  C -0.41833 0.110942 -0.374252 0.217356 -0.295804 0.295804  C -0.217356 0.374252 -0.110942 0.41833 0 0.41833  z " style="stroke: #cd853f"/>
    </defs>
    <g clip-path="url(#p1063bc52e3)">
     <use xlink:href="#m657ab8fff6" x="77.667864" y="94.82093" style="fill: #cd853f; stroke: #cd853f"/>
     <use xlink:href="#m657ab8fff6" x="75.854684" y="95.949486" style="fill: #cd853f; stroke: #cd853f"/>
     <use xlink:href="#m657ab8fff6" x="77.052987" y="87.170617" style="fill: #cd853f; stroke: #cd853f"/>
     <use xlink:href="#m657ab8fff6" x="63.018759" y="108.336499" style="fill: #cd853f; stroke: #cd853f"/>
     <use xlink:href="#m657ab8fff6" x="63.398547" y="100.040408" style="fill: #cd853f; stroke: #cd853f"/>
     <use xlink:href="#m657ab8fff6" x="63.274529" y="89.374807" style="fill: #cd853f; stroke: #cd853f"/>
     <use xlink:href="#m657ab8fff6" x="68.132263" y="103.375442" style="fill: #cd853f; stroke: #cd853f"/>
     <use xlink:href="#m657ab8fff6" x="66.611616" y="104.757773" style="fill: #cd853f; stroke: #cd853f"/>
     <use xlink:href="#m657ab8fff6" x="81.50184" y="96.419447" style="fill: #cd853f; stroke: #cd853f"/>
     <use xlink:href="#m657ab8fff6" x="76.78795" y="96.246812" style="fill: #cd853f; stroke: #cd853f"/>
     <use xlink:href="#m657ab8fff6" x="73.742019" y="97.679332" style="fill: #cd853f; stroke: #cd853f"/>
     <use xlink:href="#m657ab8fff6" x="63.65418" y="93.689381" style="fill: #cd853f; stroke: #cd853f"/>
     <use xlink:href="#m657ab8fff6" x="75.20841" y="95.49976" style="fill: #cd853f; stroke: #cd853f"/>
     <use xlink:href="#m657ab8fff6" x="68.973639" y="88.541077" style="fill: #cd853f; stroke: #cd853f"/>
     <use xlink:href="#m657ab8fff6" x="78.445117" y="90.43622" style="fill: #cd853f; stroke: #cd853f"/>
     <use xlink:href="#m657ab8fff6" x="74.01195" y="110.860054" style="fill: #cd853f; stroke: #cd853f"/>
     <use xlink:href="#m657ab8fff6" x="67.610756" y="99.828566" style="fill: #cd853f; stroke: #cd853f"/>
     <use xlink:href="#m657ab8fff6" x="64.527601" y="108.057763" style="fill: #cd853f; stroke: #cd853f"/>
     <use xlink:href="#m657ab8fff6" x="67.523423" y="86.193213" style="fill: #cd853f; stroke: #cd853f"/>
     <use xlink:href="#m657ab8fff6" x="68.925275" y="97.63229" style="fill: #cd853f; stroke: #cd853f"/>
     <use xlink:href="#m657ab8fff6" x="63.439038" y="108.482424" style="fill: #cd853f; stroke: #cd853f"/>
     <use xlink:href="#m657ab8fff6" x="63.837337" y="97.782787" style="fill: #cd853f; stroke: #cd853f"/>
     <use xlink:href="#m657ab8fff6" x="75.645309" y="94.559193" style="fill: #cd853f; stroke: #cd853f"/>
     <use xlink:href="#m657ab8fff6" x="70.534498" y="106.965925" style="fill: #cd853f; stroke: #cd853f"/>
     <use xlink:href="#m657ab8fff6" x="65.113761" y="95.979173" style="fill: #cd853f; stroke: #cd853f"/>
     <use xlink:href="#m657ab8fff6" x="73.570731" y="94.386546" style="fill: #cd853f; stroke: #cd853f"/>
    </g>
   </g>
   <g id="line2d_1">
    <path d="M 57.235211 114.292424  L 328.852506 147.642834  " clip-path="url(#p1063bc52e3)" style="fill: none; stroke: #000000; stroke-width: 1.5; stroke-linecap: square"/>
   </g>
   <g id="line2d_2">
    <path d="M 57.235211 114.292424  L 66.330778 40.21498  " clip-path="url(#p1063bc52e3)" style="fill: none; stroke: #000000; stroke-width: 1.5; stroke-linecap: square"/>
   </g>
   <g id="line2d_3">
    <path d="M 328.852506 147.642834  L 337.948073 73.56539  " clip-path="url(#p1063bc52e3)" style="fill: none; stroke: #000000; stroke-width: 1.5; stroke-linecap: square"/>
   </g>
   <g id="line2d_4">
    <path d="M 81.927693 117.32428  L 91.932816 35.839091  " clip-path="url(#p1063bc52e3)" style="fill: none; stroke: #000000; stroke-width: 1.5; stroke-linecap: square"/>
   </g>
   <g id="line2d_5">
    <path d="M 328.852506 147.642834  L 219.389669 147.642834  " clip-path="url(#p1063bc52e3)" style="fill: none; stroke-dasharray: 5.55,2.4; stroke-dashoffset: 0; stroke: #000000; stroke-width: 1.5"/>
   </g>
   <g id="line2d_6">
    <path d="M 233.072523 147.642834  L 233.072596 147.524635  L 233.072815 147.406436  L 233.07318 147.288237  L 233.07369 147.170039  L 233.074347 147.051842  L 233.075149 146.933645  L 233.076097 146.815449  L 233.077191 146.697255  L 233.078431 146.579062  L 233.079817 146.460871  L 233.081348 146.342682  L 233.083026 146.224494  L 233.084849 146.106309  L 233.086818 145.988126  L 233.088933 145.869946  L 233.091194 145.751768  L 233.0936 145.633593  L 233.096153 145.515422  L 233.098851 145.397253  L 233.101695 145.279088  L 233.104685 145.160927  L 233.107821 145.042769  L 233.111103 144.924615  L 233.11453 144.806466  L 233.118103 144.68832  L 233.121822 144.570179  L 233.125687 144.452043  L 233.129697 144.333912  L 233.133854 144.215786  L 233.138156 144.097665  L 233.142604 143.979549  L 233.147197 143.861439  L 233.151937 143.743335  L 233.156822 143.625237  L 233.161853 143.507145  L 233.167029 143.389059  L 233.172352 143.270979  L 233.17782 143.152906  L 233.183433 143.034841  L 233.189193 142.916782  L 233.195098 142.79873  L 233.201149 142.680686  L 233.207345 142.562649  L 233.213687 142.44462  L 233.220175 142.326599  L 233.226809 142.208586  L 233.233588 142.090581  L 233.240512 141.972585  L 233.247583 141.854597  L 233.254799 141.736618  L 233.26216 141.618648  L 233.269667 141.500688  L 233.27732 141.382736  L 233.285118 141.264794  L 233.293062 141.146862  L 233.301151 141.02894  L 233.309386 140.911028  L 233.317766 140.793126  L 233.326292 140.675235  L 233.334963 140.557354  L 233.34378 140.439484  L 233.352742 140.321625  L 233.36185 140.203777  L 233.371103 140.08594  L 233.380501 139.968115  L 233.390045 139.850302  L 233.399734 139.7325  L 233.409569 139.614711  L 233.419549 139.496934  L 233.429674 139.379169  L 233.439945 139.261417  L 233.45036 139.143677  L 233.460922 139.025951  L 233.471628 138.908237  L 233.48248 138.790537  L 233.493477 138.67285  L 233.504619 138.555178  L 233.515906 138.437518  L 233.527339 138.319873  L 233.538917 138.202242  L 233.55064 138.084626  L 233.562508 137.967024  L 233.574521 137.849437  L 233.586679 137.731864  L 233.598983 137.614307  L 233.611431 137.496765  L 233.624025 137.379239  L 233.636763 137.261728  L 233.649647 137.144233  L 233.662675 137.026754  L 233.675849 136.909291  L 233.689167 136.791844  L 233.70263 136.674414  L 233.716239 136.557001  L 233.729992 136.439604  L 233.74389 136.322225  L 233.757933 136.204863  L 233.77212 136.087518  L 233.786453 135.970191  " clip-path="url(#p1063bc52e3)" style="fill: none; stroke: #000000; stroke-width: 1.5; stroke-linecap: square"/>
   </g>
   <g id="text_1">
    <!-- $\alpha$ -->
    <g transform="translate(213.229669 146.268008) scale(0.11 -0.11)">
     <defs>
      <path id="STIXGeneral-Italic-3b1" d="M 3514 2739  L 2605 1069  L 2605 954  Q 2605 704 2662 512  Q 2720 320 2822 320  Q 2970 320 3149 794  L 3251 749  Q 3014 -58 2605 -58  Q 2291 -58 2272 614  Q 1709 -70 1030 -70  Q 589 -70 381 198  Q 173 467 173 902  Q 173 1293 329 1673  Q 486 2054 755 2330  Q 973 2547 1270 2684  Q 1568 2822 1862 2822  Q 2246 2822 2457 2595  Q 2669 2368 2669 2061  L 2963 2739  L 3514 2739  z M 2298 1741  Q 2298 2688 1805 2688  Q 1472 2688 1085 2099  Q 698 1510 698 800  Q 698 493 806 278  Q 915 64 1139 64  Q 1606 64 2195 1286  Q 2202 1325 2230 1411  Q 2259 1498 2278 1581  Q 2298 1664 2298 1741  z " transform="scale(0.015625)"/>
     </defs>
     <use xlink:href="#STIXGeneral-Italic-3b1" transform="translate(0 0.90625)"/>
    </g>
   </g>
   <g id="patch_4">
    <path d="M 92.419882 31.872259  Q 94.177373 17.558637 95.798611 4.354716  " style="fill: none; stroke: #000000; stroke-linecap: round"/>
    <path d="M 93.078784 8.453807  L 95.798611 4.354716  L 97.445987 8.990032  z " style="stroke: #000000; stroke-linecap: round"/>
   </g>
   <g id="patch_5">
    <path d="M 79.81748 125.336544  Q 68.58094 123.956871 57.344399 122.577197  " style="fill: none; stroke: #000000; stroke-linecap: round"/>
    <path d="M 75.71839 122.616718  L 79.81748 125.336544  L 75.182164 126.983921  " style="fill: none; stroke: #000000; stroke-linecap: round"/>
    <path d="M 61.44349 125.297024  L 57.344399 122.577197  L 61.979715 120.929821  " style="fill: none; stroke: #000000; stroke-linecap: round"/>
   </g>
   <g id="text_2">
    <!-- $l_{0}$ -->
    <g transform="translate(64.84094 137.132698) scale(0.11 -0.11)">
     <defs>
      <path id="STIXGeneral-Italic-6c" d="M 1786 4339  L 806 595  Q 755 410 755 320  Q 755 205 864 205  Q 1037 205 1293 570  L 1453 794  L 1542 730  Q 1254 275 1046 102  Q 838 -70 576 -70  Q 262 -70 262 288  Q 262 397 288 480  L 1165 3834  Q 1184 3898 1184 3955  Q 1184 4096 870 4096  L 755 4096  L 755 4198  Q 1203 4250 1747 4371  L 1786 4339  z " transform="scale(0.015625)"/>
      <path id="STIXGeneral-Regular-30" d="M 3046 2112  Q 3046 1683 2963 1302  Q 2880 922 2717 602  Q 2554 282 2266 96  Q 1978 -90 1600 -90  Q 1210 -90 915 108  Q 621 307 461 640  Q 301 973 227 1350  Q 154 1728 154 2150  Q 154 2746 301 3222  Q 448 3699 790 4012  Q 1133 4326 1626 4326  Q 2253 4326 2649 3712  Q 3046 3098 3046 2112  z M 2432 2080  Q 2432 3091 2217 3625  Q 2003 4160 1587 4160  Q 1190 4160 979 3622  Q 768 3085 768 2106  Q 768 1120 979 598  Q 1190 77 1600 77  Q 2003 77 2217 598  Q 2432 1120 2432 2080  z " transform="scale(0.015625)"/>
     </defs>
     <use xlink:href="#STIXGeneral-Italic-6c" transform="translate(0 0.703125)"/>
     <use xlink:href="#STIXGeneral-Regular-30" transform="translate(27.799988 -12.525) scale(0.7)"/>
    </g>
   </g>
   <g id="patch_6">
    <path d="M 94.312361 83.824122  Q 92.262413 100.519607 90.212466 117.215092  " style="fill: none; stroke: #000000; stroke-linecap: round"/>
    <path d="M 91.592535 87.923212  L 94.312361 83.824122  L 95.959738 88.459437  " style="fill: none; stroke: #000000; stroke-linecap: round"/>
    <path d="M 92.932292 113.116001  L 90.212466 117.215092  L 88.565089 112.579776  " style="fill: none; stroke: #000000; stroke-linecap: round"/>
   </g>
   <g id="text_3">
    <!-- $h_{0}$ -->
    <g transform="translate(95.460932 104.527932) scale(0.11 -0.11)">
     <defs>
      <path id="STIXGeneral-Italic-68" d="M 2976 755  L 3059 672  Q 2765 256 2566 99  Q 2368 -58 2125 -58  Q 1997 -58 1920 16  Q 1843 90 1843 211  Q 1843 320 1971 800  L 2323 2125  Q 2368 2304 2368 2336  Q 2368 2496 2189 2496  Q 2016 2496 1744 2240  Q 1472 1984 1216 1600  Q 1018 1293 902 1001  Q 787 710 602 0  L 122 0  L 1056 3546  Q 1139 3866 1139 3942  Q 1139 4019 1056 4060  Q 973 4102 877 4102  L 704 4102  L 704 4198  Q 1190 4256 1709 4371  L 1754 4333  L 979 1472  Q 1811 2822 2451 2822  Q 2662 2822 2764 2704  Q 2867 2586 2867 2394  Q 2867 2118 2560 1158  Q 2349 512 2349 358  Q 2349 243 2451 243  Q 2528 243 2621 336  Q 2714 429 2976 755  z " transform="scale(0.015625)"/>
     </defs>
     <use xlink:href="#STIXGeneral-Italic-68" transform="translate(0 0.703125)"/>
     <use xlink:href="#STIXGeneral-Regular-30" transform="translate(49.999985 -12.525) scale(0.7)"/>
    </g>
   </g>
   <g id="text_4">
    <!-- $\rho_{\rm a}$ -->
    <g transform="translate(253.900147 113.433654) scale(0.11 -0.11)">
     <defs>
      <path id="STIXGeneral-Italic-3c1" d="M -58 -864  L 422 966  Q 640 1811 1081 2316  Q 1523 2822 2042 2822  Q 2189 2822 2278 2816  Q 2368 2810 2525 2765  Q 2682 2720 2774 2633  Q 2867 2547 2940 2371  Q 3014 2195 3014 1946  Q 3014 1210 2403 570  Q 1792 -70 1107 -70  Q 864 -70 672 38  L 442 -864  Q 378 -1126 243 -1312  L -256 -1312  Q -128 -1114 -58 -864  z M 2445 1997  Q 2445 2291 2333 2489  Q 2221 2688 2022 2688  Q 1747 2688 1472 2361  Q 1197 2035 1056 1530  Q 762 467 762 288  Q 762 186 851 118  Q 941 51 1075 51  Q 1472 58 1798 390  Q 2125 723 2285 1161  Q 2445 1600 2445 1997  z " transform="scale(0.015625)"/>
      <path id="STIXGeneral-Regular-61" d="M 2829 422  L 2829 243  Q 2586 -64 2253 -64  Q 1888 -64 1843 403  L 1837 403  Q 1427 -64 909 -64  Q 608 -64 422 112  Q 237 288 237 602  Q 237 1050 685 1350  Q 992 1555 1837 1869  L 1837 2214  Q 1837 2502 1699 2646  Q 1562 2790 1338 2790  Q 1146 2790 1018 2697  Q 890 2605 890 2477  Q 890 2419 909 2348  Q 928 2278 928 2208  Q 928 2112 841 2029  Q 755 1946 634 1946  Q 525 1946 441 2029  Q 358 2112 358 2240  Q 358 2547 685 2752  Q 986 2944 1421 2944  Q 1939 2944 2176 2656  Q 2291 2522 2323 2384  Q 2355 2246 2355 1946  L 2355 723  Q 2355 301 2554 301  Q 2682 301 2829 422  z M 1837 813  L 1837 1715  Q 1248 1510 1018 1293  Q 800 1094 800 800  Q 800 557 921 432  Q 1043 307 1242 307  Q 1453 307 1613 410  Q 1747 506 1792 589  Q 1837 672 1837 813  z " transform="scale(0.015625)"/>
     </defs>
     <use xlink:href="#STIXGeneral-Italic-3c1" transform="translate(0 0.90625)"/>
     <use xlink:href="#STIXGeneral-Regular-61" transform="translate(50.399994 -12.321875) scale(0.7)"/>
    </g>
   </g>
   <g id="text_5">
    <!-- $\rho_{\rm f}$ -->
    <g transform="translate(44.628587 93.300901) scale(0.11 -0.11)">
     <defs>
      <path id="STIXGeneral-Regular-66" d="M 134 2880  L 659 2880  Q 666 3264 710 3478  Q 755 3693 883 3910  Q 1152 4371 1786 4371  Q 2074 4371 2262 4259  Q 2451 4147 2451 3974  Q 2451 3866 2374 3789  Q 2298 3712 2182 3712  Q 2029 3712 1894 3942  Q 1741 4192 1555 4192  Q 1197 4192 1197 3622  L 1197 2880  L 1978 2880  L 1978 2675  L 1197 2675  L 1197 666  Q 1197 307 1299 208  Q 1402 109 1792 96  L 1792 0  L 128 0  L 128 96  Q 474 115 566 214  Q 659 314 659 666  L 659 2675  L 134 2675  L 134 2880  z " transform="scale(0.015625)"/>
     </defs>
     <use xlink:href="#STIXGeneral-Italic-3c1" transform="translate(0 0.90625)"/>
     <use xlink:href="#STIXGeneral-Regular-66" transform="translate(50.399994 -12.321875) scale(0.7)"/>
    </g>
   </g>
   <g id="text_6">
    <!-- $\rho_{\rm s}$, $d$, $\phi$ -->
    <g transform="translate(22.078587 109.407103) scale(0.11 -0.11)">
     <defs>
      <path id="STIXGeneral-Regular-73" d="M 998 1926  L 1664 1523  Q 1984 1331 2105 1164  Q 2227 998 2227 736  Q 2227 416 1961 176  Q 1696 -64 1331 -64  Q 1030 -64 864 -6  Q 691 51 570 51  Q 461 51 416 -26  L 333 -26  L 333 979  L 435 979  Q 538 512 730 294  Q 922 77 1248 77  Q 1485 77 1632 211  Q 1779 346 1779 550  Q 1779 845 1440 1030  L 1094 1222  Q 326 1651 326 2150  Q 326 2522 566 2730  Q 806 2938 1210 2938  Q 1491 2938 1638 2867  Q 1754 2816 1818 2816  Q 1862 2816 1920 2880  L 1990 2880  L 2022 2010  L 1926 2010  Q 1818 2445 1654 2621  Q 1491 2797 1203 2797  Q 986 2797 854 2688  Q 723 2579 723 2362  Q 723 2253 796 2128  Q 870 2003 998 1926  z " transform="scale(0.015625)"/>
      <path id="Roboto-Regular-2c" d="M 966 688  L 966 222  Q 966 -63 822 -380  Q 678 -697 419 -909  L 91 -681  Q 391 -263 400 175  L 400 688  L 966 688  z " transform="scale(0.015625)"/>
      <path id="Roboto-Regular-20" transform="scale(0.015625)"/>
      <path id="STIXGeneral-Italic-64" d="M 3334 4371  L 3373 4333  L 3123 3360  L 2739 1958  Q 2323 429 2323 384  Q 2323 256 2438 256  Q 2522 256 2614 336  Q 2707 416 2963 710  L 3040 646  Q 2547 -83 2099 -83  Q 1978 -83 1907 -6  Q 1837 70 1837 205  Q 1837 397 1920 774  Q 1645 307 1379 118  Q 1114 -70 781 -70  Q 461 -70 278 125  Q 96 320 96 678  Q 96 1440 713 2131  Q 1331 2822 1965 2822  Q 2163 2822 2256 2732  Q 2349 2643 2381 2451  L 2387 2451  L 2675 3494  Q 2765 3808 2765 3949  Q 2765 4051 2694 4076  Q 2624 4102 2355 4115  L 2355 4224  Q 2848 4269 3334 4371  z M 2278 2310  Q 2278 2477 2185 2576  Q 2093 2675 1978 2675  Q 1677 2675 1395 2381  Q 1075 2042 864 1571  Q 653 1101 653 704  Q 653 486 752 361  Q 851 237 1024 237  Q 1312 237 1606 550  Q 1901 864 2089 1350  Q 2278 1837 2278 2310  z " transform="scale(0.015625)"/>
      <path id="STIXGeneral-Italic-3d5" d="M 3078 4371  L 2650 2822  Q 3098 2822 3296 2746  Q 3808 2547 3808 1939  Q 3808 1709 3728 1446  Q 3648 1184 3481 915  Q 3315 646 3088 425  Q 2861 205 2537 67  Q 2214 -70 1850 -70  L 1504 -1312  L 1005 -1312  L 1350 -70  Q 883 -70 666 0  Q 173 160 173 819  Q 173 1018 256 1274  Q 339 1530 502 1802  Q 666 2074 886 2301  Q 1107 2528 1417 2675  Q 1728 2822 2061 2822  L 2157 2822  L 2586 4371  L 3078 4371  z M 2611 2688  L 1888 64  Q 2125 64 2330 166  Q 2694 352 2982 998  Q 3270 1645 3270 2093  Q 3270 2464 2982 2643  Q 2906 2688 2611 2688  z M 1389 64  L 2118 2688  Q 1760 2688 1427 2365  Q 1094 2042 902 1568  Q 710 1094 710 646  Q 710 237 1018 115  Q 1152 64 1389 64  z " transform="scale(0.015625)"/>
     </defs>
     <use xlink:href="#STIXGeneral-Italic-3c1" transform="translate(0 0.703125)"/>
     <use xlink:href="#STIXGeneral-Regular-73" transform="translate(50.399994 -12.525) scale(0.7)"/>
     <use xlink:href="#Roboto-Regular-2c" transform="translate(82.039365 0.703125)"/>
     <use xlink:href="#Roboto-Regular-20" transform="translate(101.717099 0.703125)"/>
     <use xlink:href="#STIXGeneral-Italic-64" transform="translate(126.521786 0.703125)"/>
     <use xlink:href="#Roboto-Regular-2c" transform="translate(176.521771 0.703125)"/>
     <use xlink:href="#Roboto-Regular-20" transform="translate(196.199506 0.703125)"/>
     <use xlink:href="#STIXGeneral-Italic-3d5" transform="translate(221.004193 0.703125)"/>
    </g>
   </g>
  </g>
 </g>
 <defs>
  <clipPath id="p1063bc52e3">
   <rect x="53.318587" y="3.00024" width="286.545085" height="161.06202"/>
  </clipPath>
 </defs>
</svg>
