<?xml version='1.0' encoding='ASCII' standalone='yes'?>
<svg xmlns:xlink="http://www.w3.org/1999/xlink" xmlns="http://www.w3.org/2000/svg" width="393.18226pt" height="243.0pt" viewBox="0 0 196.59113 121.5" version="1.1">
 <metadata>
  <rdf:RDF xmlns:dc="http://purl.org/dc/elements/1.1/" xmlns:cc="http://creativecommons.org/ns#" xmlns:rdf="http://www.w3.org/1999/02/22-rdf-syntax-ns#">
   <cc:Work>
    <dc:type rdf:resource="http://purl.org/dc/dcmitype/StillImage"/>
    <dc:date>2023-12-09T21:04:06.754467</dc:date>
    <dc:format>image/svg+xml</dc:format>
    <dc:creator>
     <cc:Agent>
      <dc:title>Matplotlib v3.8.0, https://matplotlib.org/</dc:title>
     </cc:Agent>
    </dc:creator>
   </cc:Work>
  </rdf:RDF>
 </metadata>
 <defs>
  <style type="text/css">*{stroke-linejoin: round; stroke-linecap: butt}</style>
 </defs>
 <g id="figure_1">
  <g id="patch_1">
   <path d="M 0 121.5  L 196.59113 121.5  L 196.59113 0  L 0 0  z " style="fill: #ffffff"/>
  </g>
  <g id="axes_1">
   <g id="patch_2">
    <path d="M 98.231473 6.100178  L 98.231473 6.100178  C 98.231473 6.100178 98.231473 6.100178 98.231473 6.100178  L 110.631227 6.100178  C 119.671461 6.100178 128.350678 9.695228 134.743089 16.087639  C 141.1355 22.48005 144.730549 31.159267 144.730549 40.199501  L 144.730549 44.849409  L 149.380457 44.849409  L 129.230857 61.756931  L 109.081257 44.849409  L 113.731165 44.849409  L 113.731165 40.199501  C 113.731165 39.377662 113.404342 38.588642 112.823214 38.007514  C 112.242086 37.426386 111.453066 37.099563 110.631227 37.099563  L 98.231473 37.099563  L 98.231473 37.099563  L 98.231473 37.099563  C 98.231473 37.099563 98.231473 37.099563 98.231473 37.099563  L 98.231473 37.099563  L 85.831719 37.099563  C 85.009879 37.099563 84.22086 37.426386 83.639731 38.007514  C 83.058603 38.588642 82.73178 39.377662 82.73178 40.199501  L 82.73178 52.599255  L 67.232088 39.593469  L 51.732396 52.599255  L 51.732396 40.199501  C 51.732396 31.159267 55.327445 22.48005 61.719856 16.087639  C 68.112267 9.695228 76.791485 6.100178 85.831719 6.100178  z " clip-path="url(#pe0632901e2)" style="fill: #d2691e; stroke: #000000; stroke-linejoin: miter"/>
   </g>
   <g id="patch_3">
    <path d="M 144.730549 64.250837  L 144.730549 64.250837  C 144.730549 64.250837 144.730549 64.250837 144.730549 64.250837  L 144.730549 76.650591  C 144.730549 85.690825 141.1355 94.370042 134.743089 100.762453  C 128.350678 107.154864 119.671461 110.749914 110.631227 110.749914  L 105.981319 110.749914  L 105.981319 115.399822  L 89.073797 95.250222  L 105.981319 75.100622  L 105.981319 79.750529  L 110.631227 79.750529  C 111.453066 79.750529 112.242086 79.423707 112.823214 78.842578  C 113.404342 78.26145 113.731165 77.47243 113.731165 76.650591  L 113.731165 64.250837  L 113.731165 64.250837  L 113.731165 64.250837  C 113.731165 64.250837 113.731165 64.250837 113.731165 64.250837  L 113.731165 64.250837  L 113.731165 48.751145  L 129.230857 61.756931  L 144.730549 48.751145  L 144.730549 64.250837  L 144.730549 64.250837  z " clip-path="url(#pe0632901e2)" style="fill: #b0e0e6; stroke: #000000; stroke-linejoin: miter"/>
   </g>
   <g id="patch_4">
    <path d="M 98.359657 110.749914  L 98.359657 110.749914  C 98.359657 110.749914 98.359657 110.749914 98.359657 110.749914  L 85.959903 110.749914  C 76.919669 110.749914 68.240452 107.154864 61.848041 100.762453  C 55.45563 94.370042 51.86058 85.690825 51.86058 76.650591  L 51.86058 56.500991  L 47.210672 56.500991  L 67.360272 39.593469  L 87.509872 56.500991  L 82.859965 56.500991  L 82.859965 76.650591  C 82.859965 77.47243 83.186787 78.26145 83.767916 78.842578  C 84.349044 79.423707 85.138064 79.750529 85.959903 79.750529  L 98.359657 79.750529  L 98.359657 79.750529  L 98.359657 79.750529  C 98.359657 79.750529 98.359657 79.750529 98.359657 79.750529  L 98.359657 79.750529  L 102.079583 79.750529  L 89.073797 95.250222  L 102.079583 110.749914  L 86.579891 110.749914  L 98.359657 110.749914  z " clip-path="url(#pe0632901e2)" style="fill: #ffebcd; fill-opacity: 0.3; stroke: #000000; stroke-opacity: 0.3; stroke-linejoin: miter"/>
   </g>
   <g id="text_1">
    <!-- Flux -->
    <g style="opacity: 0.3" transform="translate(56.877479 74.298824) scale(0.11 -0.11)">
     <defs>
      <path id="Roboto-Bold-46" d="M 406 0  L 406 4550  L 3372 4550  L 3372 3791  L 1347 3791  L 1347 2616  L 3147 2616  L 3147 1859  L 1347 1859  L 1347 0  L 406 0  z " transform="scale(0.015625)"/>
      <path id="Roboto-Bold-6c" d="M 1303 4800  L 1303 0  L 397 0  L 397 4800  L 1303 4800  z " transform="scale(0.015625)"/>
      <path id="Roboto-Bold-75" d="M 2400 0  L 2375 347  Q 2044 -63 1450 -63  Q 953 -63 642 228  Q 331 519 328 1181  L 328 3381  L 1231 3381  L 1231 1188  Q 1231 906 1365 789  Q 1500 672 1709 672  Q 2169 672 2344 994  L 2344 3381  L 3250 3381  L 3250 0  L 2400 0  z " transform="scale(0.015625)"/>
      <path id="Roboto-Bold-78" d="M 1081 3381  L 1634 2375  L 2203 3381  L 3169 3381  L 2206 1728  L 3209 0  L 2244 0  L 1638 1066  L 1041 0  L 69 0  L 1072 1728  L 109 3381  L 1081 3381  z " transform="scale(0.015625)"/>
     </defs>
     <use xlink:href="#Roboto-Bold-46"/>
     <use xlink:href="#Roboto-Bold-6c" x="54.833984"/>
     <use xlink:href="#Roboto-Bold-75" x="81.347656"/>
     <use xlink:href="#Roboto-Bold-78" x="137.353516"/>
    </g>
   </g>
   <g id="text_2">
    <!-- $Q$ -->
    <g style="opacity: 0.3" transform="translate(63.217088 85.148609) scale(0.11 -0.11)">
     <defs>
      <path id="STIXGeneral-Italic-51" d="M 442 -1082  L 378 -979  Q 749 -717 912 -589  Q 1075 -461 1510 -77  Q 966 32 675 425  Q 384 819 384 1440  Q 384 2035 678 2624  Q 973 3213 1491 3661  Q 2202 4262 3034 4262  Q 3680 4262 4077 3833  Q 4474 3405 4474 2746  Q 4474 1997 4019 1277  Q 3565 557 2835 173  Q 2400 -64 1786 -102  L 1440 -467  L 1600 -467  Q 1824 -467 2387 -595  Q 2938 -730 3098 -730  Q 3443 -730 3673 -624  Q 3904 -518 4173 -237  L 4275 -307  Q 4122 -525 3942 -685  Q 3411 -1165 2720 -1165  Q 2298 -1165 1773 -998  Q 1421 -883 1178 -883  Q 800 -883 442 -1082  z M 3802 3072  Q 3802 3526 3581 3788  Q 3360 4051 2976 4051  Q 2272 4051 1734 3251  Q 1446 2822 1251 2230  Q 1056 1638 1056 1171  Q 1056 691 1273 400  Q 1491 109 1850 109  Q 2579 109 3117 902  Q 3411 1350 3606 1964  Q 3802 2579 3802 3072  z " transform="scale(0.015625)"/>
     </defs>
     <use xlink:href="#STIXGeneral-Italic-51" transform="translate(0 0.40625)"/>
    </g>
   </g>
   <g id="text_3">
    <!-- Wind -->
    <g transform="translate(116.778513 74.298824) scale(0.11 -0.11)">
     <defs>
      <path id="Roboto-Bold-57" d="M 5497 4550  L 4491 0  L 3547 0  L 2806 3044  L 2066 0  L 1122 0  L 109 4550  L 1044 4550  L 1659 1322  L 2409 4550  L 3203 4550  L 3953 1322  L 4566 4550  L 5497 4550  z " transform="scale(0.015625)"/>
      <path id="Roboto-Bold-69" d="M 341 4256  Q 341 4459 478 4592  Q 616 4725 847 4725  Q 1078 4725 1215 4592  Q 1353 4459 1353 4256  Q 1353 4056 1215 3923  Q 1078 3791 847 3791  Q 616 3791 478 3923  Q 341 4056 341 4256  z M 1303 3381  L 1303 0  L 397 0  L 397 3381  L 1303 3381  z " transform="scale(0.015625)"/>
      <path id="Roboto-Bold-6e" d="M 1806 2713  Q 1422 2713 1234 2388  L 1234 0  L 331 0  L 331 3381  L 1178 3381  L 1209 2994  Q 1572 3444 2181 3444  Q 2659 3444 2953 3159  Q 3247 2875 3250 2169  L 3250 0  L 2344 0  L 2344 2156  Q 2344 2481 2205 2597  Q 2066 2713 1806 2713  z " transform="scale(0.015625)"/>
      <path id="Roboto-Bold-64" d="M 2438 0  L 2394 359  Q 2059 -63 1528 -63  Q 900 -63 553 425  Q 206 913 206 1650  L 206 1716  Q 206 2488 553 2966  Q 900 3444 1534 3444  Q 2028 3444 2347 3078  L 2347 4800  L 3253 4800  L 3253 0  L 2438 0  z M 1113 1650  Q 1113 1244 1256 958  Q 1400 672 1756 672  Q 2169 672 2347 1022  L 2347 2363  Q 2175 2713 1763 2713  Q 1409 2713 1261 2425  Q 1113 2138 1113 1650  z " transform="scale(0.015625)"/>
     </defs>
     <use xlink:href="#Roboto-Bold-57"/>
     <use xlink:href="#Roboto-Bold-69" x="87.5"/>
     <use xlink:href="#Roboto-Bold-6e" x="114.013672"/>
     <use xlink:href="#Roboto-Bold-64" x="170.019531"/>
    </g>
   </g>
   <g id="text_4">
    <!-- $\tau$ -->
    <g transform="translate(126.975857 85.148609) scale(0.11 -0.11)">
     <defs>
      <path id="STIXGeneral-Italic-3c4" d="M 2726 2739  L 2592 2266  L 1741 2266  Q 1293 1248 1293 742  Q 1293 416 1523 416  Q 1638 416 1779 547  Q 1920 678 2003 858  L 2106 858  Q 1990 467 1731 198  Q 1472 -70 1178 -70  Q 768 -70 768 384  Q 768 890 1395 2266  L 1005 2266  Q 493 2266 179 1702  L 77 1702  Q 237 2093 569 2416  Q 902 2739 1331 2739  L 2726 2739  z " transform="scale(0.015625)"/>
     </defs>
     <use xlink:href="#STIXGeneral-Italic-3c4" transform="translate(0 0.203125)"/>
    </g>
   </g>
   <g id="text_5">
    <!-- Topography -->
    <g transform="translate(68.473035 21.599871) scale(0.11 -0.11)">
     <defs>
      <path id="Roboto-Bold-54" d="M 128 3791  L 128 4550  L 3831 4550  L 3831 3791  L 2441 3791  L 2441 0  L 1503 0  L 1503 3791  L 128 3791  z " transform="scale(0.015625)"/>
      <path id="Roboto-Bold-6f" d="M 206 1722  Q 206 2459 625 2951  Q 1044 3444 1806 3444  Q 2578 3444 2993 2951  Q 3409 2459 3409 1722  L 3409 1656  Q 3409 919 2993 428  Q 2578 -63 1813 -63  Q 1053 -63 636 415  Q 219 894 206 1616  L 206 1722  z M 1113 1656  Q 1113 1244 1270 955  Q 1428 666 1813 666  Q 2191 666 2348 953  Q 2506 1241 2506 1722  Q 2506 2125 2348 2420  Q 2191 2716 1806 2716  Q 1425 2716 1269 2422  Q 1113 2128 1113 1656  z " transform="scale(0.015625)"/>
      <path id="Roboto-Bold-70" d="M 2081 -63  Q 1575 -63 1253 297  L 1253 -1300  L 347 -1300  L 347 3381  L 1188 3381  L 1222 3053  Q 1544 3444 2072 3444  Q 2716 3444 3055 2972  Q 3394 2500 3394 1728  L 3394 1663  Q 3394 925 3055 431  Q 2716 -63 2081 -63  z M 1838 2713  Q 1416 2713 1253 2384  L 1253 1000  Q 1422 666 1844 666  Q 2197 666 2344 958  Q 2491 1250 2491 1728  Q 2491 2147 2339 2430  Q 2188 2713 1838 2713  z " transform="scale(0.015625)"/>
      <path id="Roboto-Bold-67" d="M 1681 -1331  Q 1375 -1331 1008 -1203  Q 641 -1075 422 -803  L 822 -253  Q 1156 -628 1644 -628  Q 2003 -628 2203 -436  Q 2403 -244 2403 113  L 2403 294  Q 2084 -63 1581 -63  Q 953 -63 587 418  Q 222 900 216 1625  L 216 1716  Q 216 2488 583 2966  Q 950 3444 1588 3444  Q 2147 3444 2456 3063  L 2491 3381  L 3309 3381  L 3309 116  Q 3309 -581 2857 -956  Q 2406 -1331 1681 -1331  z M 1119 1650  Q 1119 1244 1286 958  Q 1453 672 1809 672  Q 2222 672 2403 984  L 2403 2403  Q 2225 2713 1816 2713  Q 1463 2713 1291 2423  Q 1119 2134 1119 1716  L 1119 1650  z " transform="scale(0.015625)"/>
      <path id="Roboto-Bold-72" d="M 1922 2563  Q 1413 2563 1253 2216  L 1253 0  L 347 0  L 347 3381  L 1200 3381  L 1228 2978  Q 1494 3444 1981 3444  Q 2153 3444 2259 3403  L 2250 2538  L 1922 2563  z " transform="scale(0.015625)"/>
      <path id="Roboto-Bold-61" d="M 2306 0  Q 2250 119 2216 303  Q 1888 -63 1363 -63  Q 878 -63 547 223  Q 216 509 216 950  Q 216 1481 609 1773  Q 1003 2066 1775 2066  L 2178 2066  L 2178 2263  Q 2178 2497 2058 2636  Q 1938 2775 1678 2775  Q 1194 2775 1194 2369  L 291 2369  Q 291 2809 681 3126  Q 1072 3444 1728 3444  Q 2313 3444 2698 3147  Q 3084 2850 3084 2256  L 3084 750  Q 3091 300 3219 53  L 3219 0  L 2306 0  z M 1559 628  Q 1788 628 1948 729  Q 2109 831 2178 953  L 2178 1541  L 1809 1541  Q 1450 1541 1284 1389  Q 1119 1238 1119 1016  Q 1119 847 1236 737  Q 1353 628 1559 628  z " transform="scale(0.015625)"/>
      <path id="Roboto-Bold-68" d="M 1803 2713  Q 1409 2713 1231 2409  L 1231 0  L 328 0  L 328 4800  L 1231 4800  L 1231 3016  Q 1584 3444 2134 3444  Q 2631 3444 2939 3150  Q 3247 2856 3250 2147  L 3250 0  L 2344 0  L 2344 2138  Q 2344 2466 2203 2589  Q 2063 2713 1803 2713  z " transform="scale(0.015625)"/>
      <path id="Roboto-Bold-79" d="M 769 -1366  Q 594 -1366 369 -1306  L 369 -622  L 509 -625  Q 775 -625 903 -539  Q 1031 -453 1097 -266  L 1197 -6  L 13 3381  L 984 3381  L 1613 1275  L 2238 3381  L 3203 3381  L 1850 -506  Q 1791 -675 1675 -876  Q 1559 -1078 1342 -1222  Q 1125 -1366 769 -1366  z " transform="scale(0.015625)"/>
     </defs>
     <use xlink:href="#Roboto-Bold-54"/>
     <use xlink:href="#Roboto-Bold-6f" x="61.865234"/>
     <use xlink:href="#Roboto-Bold-70" x="118.408203"/>
     <use xlink:href="#Roboto-Bold-6f" x="174.707031"/>
     <use xlink:href="#Roboto-Bold-67" x="231.25"/>
     <use xlink:href="#Roboto-Bold-72" x="288.378906"/>
     <use xlink:href="#Roboto-Bold-61" x="324.902344"/>
     <use xlink:href="#Roboto-Bold-70" x="378.515625"/>
     <use xlink:href="#Roboto-Bold-68" x="434.814453"/>
     <use xlink:href="#Roboto-Bold-79" x="490.820312"/>
    </g>
   </g>
   <g id="text_6">
    <!-- $h$ -->
    <g transform="translate(95.481473 32.449655) scale(0.11 -0.11)">
     <defs>
      <path id="STIXGeneral-Italic-68" d="M 2976 755  L 3059 672  Q 2765 256 2566 99  Q 2368 -58 2125 -58  Q 1997 -58 1920 16  Q 1843 90 1843 211  Q 1843 320 1971 800  L 2323 2125  Q 2368 2304 2368 2336  Q 2368 2496 2189 2496  Q 2016 2496 1744 2240  Q 1472 1984 1216 1600  Q 1018 1293 902 1001  Q 787 710 602 0  L 122 0  L 1056 3546  Q 1139 3866 1139 3942  Q 1139 4019 1056 4060  Q 973 4102 877 4102  L 704 4102  L 704 4198  Q 1190 4256 1709 4371  L 1754 4333  L 979 1472  Q 1811 2822 2451 2822  Q 2662 2822 2764 2704  Q 2867 2586 2867 2394  Q 2867 2118 2560 1158  Q 2349 512 2349 358  Q 2349 243 2451 243  Q 2528 243 2621 336  Q 2714 429 2976 755  z " transform="scale(0.015625)"/>
     </defs>
     <use xlink:href="#STIXGeneral-Italic-68" transform="translate(0 0.703125)"/>
    </g>
   </g>
  </g>
 </g>
 <defs>
  <clipPath id="pe0632901e2">
   <rect x="3.00024" y="3.00024" width="190.59065" height="115.49952"/>
  </clipPath>
 </defs>
</svg>
