<?xml version='1.0' encoding='ASCII' standalone='yes'?>
<svg xmlns:xlink="http://www.w3.org/1999/xlink" xmlns="http://www.w3.org/2000/svg" width="589.773388pt" height="303.75pt" viewBox="0 0 294.886694 151.875" version="1.1">
 <metadata>
  <rdf:RDF xmlns:dc="http://purl.org/dc/elements/1.1/" xmlns:cc="http://creativecommons.org/ns#" xmlns:rdf="http://www.w3.org/1999/02/22-rdf-syntax-ns#">
   <cc:Work>
    <dc:type rdf:resource="http://purl.org/dc/dcmitype/StillImage"/>
    <dc:date>2023-12-11T18:33:18.524171</dc:date>
    <dc:format>image/svg+xml</dc:format>
    <dc:creator>
     <cc:Agent>
      <dc:title>Matplotlib v3.8.0, https://matplotlib.org/</dc:title>
     </cc:Agent>
    </dc:creator>
   </cc:Work>
  </rdf:RDF>
 </metadata>
 <defs>
  <style type="text/css">*{stroke-linejoin: round; stroke-linecap: butt}</style>
 </defs>
 <g id="figure_1">
  <g id="patch_1">
   <path d="M 0 151.875  L 294.886694 151.875  L 294.886694 0  L 0 0  z " style="fill: #ffffff"/>
  </g>
  <g id="axes_1">
   <g id="patch_2">
    <path d="M 37.144928 116.90601  L 284.253486 116.90601  L 284.253486 3.00024  L 37.144928 3.00024  z " style="fill: #ffffff"/>
   </g>
   <g id="matplotlib.axis_1">
    <g id="xtick_1">
     <g id="line2d_1">
      <defs>
       <path id="md2ccde5a4b" d="M 0 0  L 0 3.5  " style="stroke: #000000; stroke-width: 0.8"/>
      </defs>
      <g>
       <use xlink:href="#md2ccde5a4b" x="37.144928" y="116.90601" style="stroke: #000000; stroke-width: 0.8"/>
      </g>
     </g>
     <g id="text_1">
      <!-- 1.0 -->
      <g transform="translate(29.511959 132.15601) scale(0.11 -0.11)">
       <defs>
        <path id="Roboto-Regular-31" d="M 2278 4575  L 2278 0  L 1700 0  L 1700 3853  L 534 3428  L 534 3950  L 2188 4575  L 2278 4575  z " transform="scale(0.015625)"/>
        <path id="Roboto-Regular-2e" d="M 450 306  Q 450 453 542 554  Q 634 656 809 656  Q 984 656 1076 554  Q 1169 453 1169 306  Q 1169 163 1076 62  Q 984 -38 809 -38  Q 634 -38 542 62  Q 450 163 450 306  z " transform="scale(0.015625)"/>
        <path id="Roboto-Regular-30" d="M 3234 1944  Q 3234 825 2848 381  Q 2463 -63 1800 -63  Q 1156 -63 764 368  Q 372 800 359 1872  L 359 2638  Q 359 3753 750 4183  Q 1141 4613 1794 4613  Q 2447 4613 2834 4195  Q 3222 3778 3234 2709  L 3234 1944  z M 2653 2734  Q 2653 3503 2434 3822  Q 2216 4141 1794 4141  Q 1388 4141 1167 3831  Q 947 3522 941 2778  L 941 1850  Q 941 1088 1164 750  Q 1388 413 1800 413  Q 2222 413 2436 745  Q 2650 1078 2653 1825  L 2653 2734  z " transform="scale(0.015625)"/>
       </defs>
       <use xlink:href="#Roboto-Regular-31"/>
       <use xlink:href="#Roboto-Regular-2e" x="56.201172"/>
       <use xlink:href="#Roboto-Regular-30" x="82.568359"/>
      </g>
     </g>
    </g>
    <g id="xtick_2">
     <g id="line2d_2">
      <g>
       <use xlink:href="#md2ccde5a4b" x="86.566639" y="116.90601" style="stroke: #000000; stroke-width: 0.8"/>
      </g>
     </g>
     <g id="text_2">
      <!-- 1.5 -->
      <g transform="translate(78.93367 132.15601) scale(0.11 -0.11)">
       <defs>
        <path id="Roboto-Regular-35" d="M 1109 2166  L 647 2284  L 875 4550  L 3209 4550  L 3209 4016  L 1366 4016  L 1228 2778  Q 1572 2975 1988 2975  Q 2616 2975 2980 2561  Q 3344 2147 3344 1450  Q 3344 797 2987 367  Q 2631 -63 1903 -63  Q 1350 -63 947 248  Q 544 559 481 1197  L 1031 1197  Q 1141 413 1903 413  Q 2313 413 2538 691  Q 2763 969 2763 1444  Q 2763 1872 2527 2164  Q 2291 2456 1853 2456  Q 1563 2456 1413 2378  Q 1263 2300 1109 2166  z " transform="scale(0.015625)"/>
       </defs>
       <use xlink:href="#Roboto-Regular-31"/>
       <use xlink:href="#Roboto-Regular-2e" x="56.201172"/>
       <use xlink:href="#Roboto-Regular-35" x="82.568359"/>
      </g>
     </g>
    </g>
    <g id="xtick_3">
     <g id="line2d_3">
      <g>
       <use xlink:href="#md2ccde5a4b" x="135.988351" y="116.90601" style="stroke: #000000; stroke-width: 0.8"/>
      </g>
     </g>
     <g id="text_3">
      <!-- 2.0 -->
      <g transform="translate(128.355382 132.15601) scale(0.11 -0.11)">
       <defs>
        <path id="Roboto-Regular-32" d="M 3359 475  L 3359 0  L 381 0  L 381 416  L 1925 2134  Q 2306 2566 2439 2819  Q 2572 3072 2572 3328  Q 2572 3663 2364 3900  Q 2156 4138 1778 4138  Q 1322 4138 1097 3878  Q 872 3619 872 3213  L 294 3213  Q 294 3788 672 4200  Q 1050 4613 1778 4613  Q 2422 4613 2786 4278  Q 3150 3944 3150 3397  Q 3150 2997 2903 2592  Q 2656 2188 2297 1797  L 1078 475  L 3359 475  z " transform="scale(0.015625)"/>
       </defs>
       <use xlink:href="#Roboto-Regular-32"/>
       <use xlink:href="#Roboto-Regular-2e" x="56.201172"/>
       <use xlink:href="#Roboto-Regular-30" x="82.568359"/>
      </g>
     </g>
    </g>
    <g id="xtick_4">
     <g id="line2d_4">
      <g>
       <use xlink:href="#md2ccde5a4b" x="185.410062" y="116.90601" style="stroke: #000000; stroke-width: 0.8"/>
      </g>
     </g>
     <g id="text_4">
      <!-- 2.5 -->
      <g transform="translate(177.777094 132.15601) scale(0.11 -0.11)">
       <use xlink:href="#Roboto-Regular-32"/>
       <use xlink:href="#Roboto-Regular-2e" x="56.201172"/>
       <use xlink:href="#Roboto-Regular-35" x="82.568359"/>
      </g>
     </g>
    </g>
    <g id="xtick_5">
     <g id="line2d_5">
      <g>
       <use xlink:href="#md2ccde5a4b" x="234.831774" y="116.90601" style="stroke: #000000; stroke-width: 0.8"/>
      </g>
     </g>
     <g id="text_5">
      <!-- 3.0 -->
      <g transform="translate(227.198805 132.15601) scale(0.11 -0.11)">
       <defs>
        <path id="Roboto-Regular-33" d="M 1222 2084  L 1222 2559  L 1647 2559  Q 2094 2563 2312 2784  Q 2531 3006 2531 3338  Q 2531 4138 1738 4138  Q 1369 4138 1141 3927  Q 913 3716 913 3359  L 334 3359  Q 334 3881 720 4247  Q 1106 4613 1738 4613  Q 2353 4613 2733 4286  Q 3113 3959 3113 3325  Q 3113 3072 2942 2784  Q 2772 2497 2397 2338  Q 2850 2191 3015 1884  Q 3181 1578 3181 1269  Q 3181 631 2768 284  Q 2356 -63 1741 -63  Q 1147 -63 722 267  Q 297 597 297 1203  L 875 1203  Q 875 844 1108 628  Q 1341 413 1741 413  Q 2138 413 2369 622  Q 2600 831 2600 1256  Q 2600 1681 2337 1882  Q 2075 2084 1634 2084  L 1222 2084  z " transform="scale(0.015625)"/>
       </defs>
       <use xlink:href="#Roboto-Regular-33"/>
       <use xlink:href="#Roboto-Regular-2e" x="56.201172"/>
       <use xlink:href="#Roboto-Regular-30" x="82.568359"/>
      </g>
     </g>
    </g>
    <g id="xtick_6">
     <g id="line2d_6">
      <g>
       <use xlink:href="#md2ccde5a4b" x="284.253486" y="116.90601" style="stroke: #000000; stroke-width: 0.8"/>
      </g>
     </g>
     <g id="text_6">
      <!-- 3.5 -->
      <g transform="translate(276.620517 132.15601) scale(0.11 -0.11)">
       <use xlink:href="#Roboto-Regular-33"/>
       <use xlink:href="#Roboto-Regular-2e" x="56.201172"/>
       <use xlink:href="#Roboto-Regular-35" x="82.568359"/>
      </g>
     </g>
    </g>
    <g id="text_7">
     <!-- $u_{*}/u_{\rm th}$ -->
     <g transform="translate(148.214207 146.640385) scale(0.11 -0.11)">
      <defs>
       <path id="STIXGeneral-Italic-75" d="M 2950 762  L 3040 704  Q 2733 237 2560 89  Q 2387 -58 2157 -58  Q 1850 -58 1850 250  Q 1850 538 2138 1510  Q 1568 576 1257 253  Q 947 -70 608 -70  Q 269 -70 269 269  Q 269 384 442 1088  L 666 1978  Q 755 2349 755 2406  Q 755 2483 684 2521  Q 614 2560 365 2560  L 365 2650  Q 806 2701 1325 2822  L 1350 2803  L 781 531  Q 762 474 762 429  Q 762 269 890 269  Q 1178 269 1798 1210  Q 2010 1530 2128 1795  Q 2246 2061 2502 2765  L 2976 2765  L 2470 851  Q 2349 390 2349 352  Q 2349 243 2419 243  Q 2496 243 2605 345  Q 2714 448 2950 762  z " transform="scale(0.015625)"/>
       <path id="STIXGeneral-Regular-2a" d="M 1715 3014  L 1773 2976  Q 2010 2822 2387 2758  Q 2605 2726 2688 2665  Q 2771 2605 2771 2483  Q 2771 2374 2707 2304  Q 2643 2234 2541 2234  Q 2381 2234 2157 2515  Q 2010 2694 1715 2886  L 1664 2918  L 1664 2861  Q 1664 2502 1792 2157  Q 1850 1997 1850 1946  Q 1850 1850 1770 1773  Q 1690 1696 1594 1696  Q 1504 1696 1433 1766  Q 1363 1837 1363 1926  Q 1363 2016 1440 2227  Q 1542 2502 1542 2861  L 1542 2918  Q 1286 2758 1210 2688  Q 1133 2611 947 2400  Q 806 2240 672 2240  Q 563 2240 499 2304  Q 435 2368 435 2470  Q 435 2592 528 2656  Q 621 2720 838 2758  Q 1062 2803 1180 2848  Q 1299 2893 1498 3014  Q 1222 3181 877 3251  Q 640 3302 544 3366  Q 448 3430 448 3546  Q 448 3648 505 3715  Q 563 3782 659 3782  Q 787 3782 973 3578  Q 1242 3277 1542 3110  L 1542 3194  Q 1542 3456 1446 3776  Q 1376 3987 1376 4109  Q 1376 4198 1443 4262  Q 1510 4326 1606 4326  Q 1702 4326 1772 4259  Q 1843 4192 1843 4096  Q 1843 3994 1773 3795  Q 1664 3507 1664 3264  L 1664 3110  Q 1882 3238 2035 3379  Q 2067 3411 2153 3504  Q 2240 3597 2291 3648  Q 2342 3699 2409 3747  Q 2477 3795 2528 3795  Q 2637 3795 2701 3728  Q 2765 3661 2765 3552  Q 2765 3424 2691 3363  Q 2618 3302 2432 3277  Q 2074 3219 1715 3014  z " transform="scale(0.015625)"/>
       <path id="STIXGeneral-Regular-2f" d="M 1837 4326  L 378 -90  L -58 -90  L 1408 4326  L 1837 4326  z " transform="scale(0.015625)"/>
       <path id="STIXGeneral-Regular-74" d="M 1702 493  L 1786 422  Q 1478 -64 1011 -64  Q 448 -64 448 749  L 448 2675  L 109 2675  Q 83 2694 83 2720  Q 83 2771 192 2842  Q 435 2982 813 3526  Q 826 3546 874 3606  Q 922 3667 941 3706  Q 986 3706 986 3622  L 986 2880  L 1632 2880  L 1632 2675  L 986 2675  L 986 845  Q 986 538 1062 403  Q 1139 269 1318 269  Q 1510 269 1702 493  z " transform="scale(0.015625)"/>
       <path id="STIXGeneral-Regular-68" d="M 3117 0  L 1760 0  L 1760 96  Q 2042 128 2118 224  Q 2195 320 2195 653  L 2195 1920  Q 2195 2598 1722 2598  Q 1530 2598 1370 2508  Q 1210 2419 1005 2195  L 1005 653  Q 1005 320 1081 224  Q 1158 128 1440 96  L 1440 0  L 58 0  L 58 96  Q 333 134 400 224  Q 467 314 467 653  L 467 3667  Q 467 3872 406 3933  Q 346 3994 141 3994  Q 83 3994 64 3987  L 64 4090  L 237 4141  Q 730 4288 973 4371  L 1005 4352  L 1005 2406  Q 1229 2694 1446 2819  Q 1664 2944 1946 2944  Q 2733 2944 2733 1926  L 2733 653  Q 2733 320 2793 233  Q 2854 147 3117 96  L 3117 0  z " transform="scale(0.015625)"/>
      </defs>
      <use xlink:href="#STIXGeneral-Italic-75" transform="translate(0 0.40625)"/>
      <use xlink:href="#STIXGeneral-Regular-2a" transform="translate(49.999985 -12.821875) scale(0.7)"/>
      <use xlink:href="#STIXGeneral-Regular-2f" transform="translate(89.409349 0.40625)"/>
      <use xlink:href="#STIXGeneral-Italic-75" transform="translate(117.209337 0.40625)"/>
      <use xlink:href="#STIXGeneral-Regular-74" transform="translate(167.209322 -12.821875) scale(0.7)"/>
      <use xlink:href="#STIXGeneral-Regular-68" transform="translate(186.669313 -12.821875) scale(0.7)"/>
     </g>
    </g>
   </g>
   <g id="matplotlib.axis_2">
    <g id="ytick_1">
     <g id="line2d_7">
      <defs>
       <path id="m036a87a6f2" d="M 0 0  L -3.5 0  " style="stroke: #000000; stroke-width: 0.8"/>
      </defs>
      <g>
       <use xlink:href="#m036a87a6f2" x="37.144928" y="110.577912" style="stroke: #000000; stroke-width: 0.8"/>
      </g>
     </g>
     <g id="text_8">
      <!-- 8 -->
      <g transform="translate(23.962584 114.702912) scale(0.11 -0.11)">
       <defs>
        <path id="Roboto-Regular-38" d="M 3244 1231  Q 3244 606 2826 271  Q 2409 -63 1796 -63  Q 1184 -63 767 271  Q 350 606 350 1231  Q 350 1613 554 1905  Q 759 2197 1109 2347  Q 806 2494 629 2762  Q 453 3031 453 3366  Q 453 3963 833 4288  Q 1213 4613 1794 4613  Q 2378 4613 2758 4288  Q 3138 3963 3138 3366  Q 3138 3028 2956 2761  Q 2775 2494 2472 2347  Q 2825 2197 3034 1903  Q 3244 1609 3244 1231  z M 2559 3356  Q 2559 3697 2346 3917  Q 2134 4138 1793 4138  Q 1453 4138 1243 3927  Q 1034 3716 1034 3356  Q 1034 3003 1243 2790  Q 1453 2578 1797 2578  Q 2138 2578 2348 2790  Q 2559 3003 2559 3356  z M 2663 1244  Q 2663 1625 2420 1865  Q 2178 2106 1791 2106  Q 1394 2106 1161 1865  Q 928 1625 928 1244  Q 928 850 1161 631  Q 1394 413 1797 413  Q 2200 413 2431 631  Q 2663 850 2663 1244  z " transform="scale(0.015625)"/>
       </defs>
       <use xlink:href="#Roboto-Regular-38"/>
      </g>
     </g>
    </g>
    <g id="ytick_2">
     <g id="line2d_8">
      <g>
       <use xlink:href="#m036a87a6f2" x="37.144928" y="59.953125" style="stroke: #000000; stroke-width: 0.8"/>
      </g>
     </g>
     <g id="text_9">
      <!-- 16 -->
      <g transform="translate(17.78024 64.078125) scale(0.11 -0.11)">
       <defs>
        <path id="Roboto-Regular-36" d="M 3291 1484  Q 3291 838 2930 387  Q 2569 -63 1878 -63  Q 1388 -63 1063 198  Q 738 459 577 861  Q 416 1263 416 1684  L 416 1956  Q 416 2597 595 3194  Q 775 3791 1247 4173  Q 1719 4556 2597 4556  L 2647 4556  L 2647 4066  Q 2041 4066 1705 3853  Q 1369 3641 1205 3302  Q 1041 2963 1006 2575  Q 1369 2984 1984 2984  Q 2438 2984 2727 2765  Q 3016 2547 3153 2201  Q 3291 1856 3291 1484  z M 997 1666  Q 997 1059 1267 737  Q 1538 416 1878 416  Q 2278 416 2498 708  Q 2719 1000 2719 1456  Q 2719 1863 2516 2184  Q 2313 2506 1891 2506  Q 1588 2506 1341 2325  Q 1094 2144 997 1884  L 997 1666  z " transform="scale(0.015625)"/>
       </defs>
       <use xlink:href="#Roboto-Regular-31"/>
       <use xlink:href="#Roboto-Regular-36" x="56.201172"/>
      </g>
     </g>
    </g>
    <g id="ytick_3">
     <g id="line2d_9">
      <g>
       <use xlink:href="#m036a87a6f2" x="37.144928" y="9.328338" style="stroke: #000000; stroke-width: 0.8"/>
      </g>
     </g>
     <g id="text_10">
      <!-- 24 -->
      <g transform="translate(17.78024 13.453338) scale(0.11 -0.11)">
       <defs>
        <path id="Roboto-Regular-34" d="M 166 1397  L 2203 4550  L 2819 4550  L 2819 1531  L 3453 1531  L 3453 1056  L 2819 1056  L 2819 0  L 2241 0  L 2241 1056  L 166 1056  L 166 1397  z M 822 1531  L 2241 1531  L 2241 3766  L 2169 3638  L 822 1531  z " transform="scale(0.015625)"/>
       </defs>
       <use xlink:href="#Roboto-Regular-32"/>
       <use xlink:href="#Roboto-Regular-34" x="56.201172"/>
      </g>
     </g>
    </g>
    <g id="text_11">
     <!-- $\lambda_{\rm max}$ [mm] -->
     <g transform="translate(11.545865 83.273125) rotate(-90) scale(0.11 -0.11)">
      <defs>
       <path id="STIXGeneral-Italic-3bb" d="M 2656 787  L 2758 787  Q 2560 -102 2112 -102  Q 1965 -102 1869 48  Q 1773 198 1773 499  Q 1773 672 1789 889  Q 1805 1107 1833 1446  Q 1862 1786 1875 2016  L 538 0  L -77 0  L 1907 2739  Q 1933 2970 1933 3245  Q 1933 3936 1619 3936  Q 1530 3936 1408 3821  Q 1286 3706 1203 3462  L 1101 3462  Q 1312 4339 1747 4339  Q 1926 4339 2041 4115  Q 2157 3891 2157 3475  Q 2157 3040 2093 2192  Q 2029 1344 2029 941  Q 2029 602 2089 451  Q 2150 301 2291 301  Q 2483 301 2656 787  z " transform="scale(0.015625)"/>
       <path id="STIXGeneral-Regular-6d" d="M 4960 0  L 3565 0  L 3565 96  Q 3834 122 3907 208  Q 3981 294 3981 576  L 3981 1894  Q 3981 2278 3869 2444  Q 3757 2611 3488 2611  Q 3264 2611 3107 2521  Q 2950 2432 2803 2221  L 2803 608  Q 2803 301 2896 201  Q 2989 102 3264 96  L 3264 0  L 1830 0  L 1830 96  Q 2112 115 2189 188  Q 2266 262 2266 550  L 2266 1901  Q 2266 2611 1850 2611  Q 1670 2611 1468 2531  Q 1267 2451 1171 2336  Q 1088 2240 1088 2227  L 1088 448  Q 1088 243 1177 176  Q 1267 109 1523 96  L 1523 0  L 102 0  L 102 96  Q 371 102 460 195  Q 550 288 550 563  L 550 2150  Q 550 2387 499 2480  Q 448 2573 326 2573  Q 230 2573 122 2547  L 122 2656  Q 557 2778 1011 2944  L 1062 2925  L 1062 2451  L 1075 2451  Q 1363 2752 1584 2848  Q 1805 2944 2054 2944  Q 2560 2944 2733 2406  Q 3232 2944 3776 2944  Q 4518 2944 4518 1792  L 4518 493  Q 4518 282 4582 202  Q 4646 122 4794 109  L 4960 96  L 4960 0  z " transform="scale(0.015625)"/>
       <path id="STIXGeneral-Regular-61" d="M 2829 422  L 2829 243  Q 2586 -64 2253 -64  Q 1888 -64 1843 403  L 1837 403  Q 1427 -64 909 -64  Q 608 -64 422 112  Q 237 288 237 602  Q 237 1050 685 1350  Q 992 1555 1837 1869  L 1837 2214  Q 1837 2502 1699 2646  Q 1562 2790 1338 2790  Q 1146 2790 1018 2697  Q 890 2605 890 2477  Q 890 2419 909 2348  Q 928 2278 928 2208  Q 928 2112 841 2029  Q 755 1946 634 1946  Q 525 1946 441 2029  Q 358 2112 358 2240  Q 358 2547 685 2752  Q 986 2944 1421 2944  Q 1939 2944 2176 2656  Q 2291 2522 2323 2384  Q 2355 2246 2355 1946  L 2355 723  Q 2355 301 2554 301  Q 2682 301 2829 422  z M 1837 813  L 1837 1715  Q 1248 1510 1018 1293  Q 800 1094 800 800  Q 800 557 921 432  Q 1043 307 1242 307  Q 1453 307 1613 410  Q 1747 506 1792 589  Q 1837 672 1837 813  z " transform="scale(0.015625)"/>
       <path id="STIXGeneral-Regular-78" d="M 3066 0  L 1779 0  L 1779 96  Q 1939 109 1987 137  Q 2035 166 2035 250  Q 2035 307 1997 365  L 1414 1261  L 909 474  Q 781 275 781 211  Q 781 96 1037 96  L 1037 0  L 109 0  L 109 96  Q 269 109 355 169  Q 442 230 576 422  L 1306 1478  L 704 2400  Q 557 2624 454 2704  Q 352 2784 211 2784  L 154 2784  L 154 2880  L 1478 2880  L 1478 2784  Q 1203 2778 1203 2643  Q 1203 2509 1498 2074  Q 1581 1958 1587 1946  Q 1619 1990 1779 2227  Q 1811 2285 1856 2349  Q 1901 2413 1923 2451  Q 1946 2490 1971 2528  Q 1997 2566 2006 2595  Q 2016 2624 2016 2643  Q 2016 2765 1760 2784  L 1760 2880  L 2771 2880  L 2771 2784  Q 2445 2771 2253 2502  L 1722 1734  L 2541 480  Q 2790 96 3066 96  L 3066 0  z " transform="scale(0.015625)"/>
       <path id="Roboto-Regular-20" transform="scale(0.015625)"/>
       <path id="Roboto-Regular-5b" d="M 1634 5200  L 1634 4725  L 1038 4725  L 1038 -500  L 1634 -500  L 1634 -975  L 459 -975  L 459 5200  L 1634 5200  z " transform="scale(0.015625)"/>
       <path id="Roboto-Regular-6d" d="M 1794 2956  Q 1225 2956 1016 2478  L 1016 0  L 434 0  L 434 3381  L 984 3381  L 1000 3013  Q 1366 3444 2000 3444  Q 2325 3444 2579 3314  Q 2834 3184 2969 2900  Q 3138 3144 3408 3294  Q 3678 3444 4044 3444  Q 4588 3444 4883 3153  Q 5178 2863 5178 2222  L 5178 0  L 4597 0  L 4597 2228  Q 4597 2653 4401 2804  Q 4206 2956 3875 2956  Q 3525 2956 3325 2748  Q 3125 2541 3094 2244  L 3094 0  L 2516 0  L 2516 2225  Q 2516 2622 2319 2789  Q 2122 2956 1794 2956  z " transform="scale(0.015625)"/>
       <path id="Roboto-Regular-5d" d="M 31 4725  L 31 5200  L 1213 5200  L 1213 -975  L 31 -975  L 31 -500  L 631 -500  L 631 4725  L 31 4725  z " transform="scale(0.015625)"/>
      </defs>
      <use xlink:href="#STIXGeneral-Italic-3bb" transform="translate(0 0.75)"/>
      <use xlink:href="#STIXGeneral-Regular-6d" transform="translate(45.799988 -12.478125) scale(0.7)"/>
      <use xlink:href="#STIXGeneral-Regular-61" transform="translate(100.259979 -12.478125) scale(0.7)"/>
      <use xlink:href="#STIXGeneral-Regular-78" transform="translate(131.339975 -12.478125) scale(0.7)"/>
      <use xlink:href="#Roboto-Regular-20" transform="translate(170.749339 0.75)"/>
      <use xlink:href="#Roboto-Regular-5b" transform="translate(195.554027 0.75)"/>
      <use xlink:href="#Roboto-Regular-6d" transform="translate(222.067699 0.75)"/>
      <use xlink:href="#Roboto-Regular-6d" transform="translate(309.763011 0.75)"/>
      <use xlink:href="#Roboto-Regular-5d" transform="translate(397.458324 0.75)"/>
     </g>
    </g>
   </g>
   <g id="LineCollection_1">
    <path d="M 56.731537 55.136342  L 56.731537 32.355188  " clip-path="url(#p820f9795f5)" style="fill: none; stroke: #1f77b4; stroke-width: 1.5"/>
    <path d="M 101.129376 79.117202  L 101.129376 69.300771  " clip-path="url(#p820f9795f5)" style="fill: none; stroke: #1f77b4; stroke-width: 1.5"/>
    <path d="M 173.96263 90.829655  L 173.96263 77.803351  " clip-path="url(#p820f9795f5)" style="fill: none; stroke: #1f77b4; stroke-width: 1.5"/>
    <path d="M 194.094937 88.661232  L 194.094937 81.429833  " clip-path="url(#p820f9795f5)" style="fill: none; stroke: #1f77b4; stroke-width: 1.5"/>
    <path d="M 228.693983 92.966534  L 228.693983 78.263027  " clip-path="url(#p820f9795f5)" style="fill: none; stroke: #1f77b4; stroke-width: 1.5"/>
    <path d="M 244.067011 86.012384  L 244.067011 76.027779  " clip-path="url(#p820f9795f5)" style="fill: none; stroke: #1f77b4; stroke-width: 1.5"/>
   </g>
   <g id="line2d_10">
    <path d="M 56.731537 43.745765  L 101.129376 74.208986  L 173.96263 84.316503  L 194.094937 85.045532  L 228.693983 85.61478  L 244.067011 81.020082  " clip-path="url(#p820f9795f5)" style="fill: none; stroke-dasharray: 5.55,2.4; stroke-dashoffset: 0; stroke: #1f77b4; stroke-opacity: 0.4; stroke-width: 1.5"/>
   </g>
   <g id="line2d_11">
    <path d="M 37.144928 26.814316  L 39.626428 32.554524  L 42.107928 37.226975  L 44.589428 41.010272  L 47.070928 44.569501  L 49.552428 47.672823  L 52.033928 50.615282  L 54.515428 52.953283  L 56.996928 55.194471  L 59.478428 57.133646  L 61.959928 58.798751  L 64.441428 60.411412  L 66.922928 61.974067  L 69.404428 63.302175  L 71.885928 64.595201  L 74.367428 65.676628  L 76.848928 66.734112  L 79.330428 67.76844  L 81.811928 68.613234  L 84.293428 69.442889  L 86.774928 70.257807  L 89.256428 71.058379  L 91.737928 71.688759  L 94.219428 72.310383  L 96.700928 72.923434  L 99.182428 73.528086  L 101.663928 73.976168  L 104.145428 74.566533  L 106.626928 75.00409  L 109.108428 75.437248  L 111.589928 75.866076  L 114.071428 76.290636  L 116.552928 76.710993  L 119.034428 76.988926  L 121.515928 77.402414  L 123.997428 77.675825  L 126.478928 77.947457  L 128.960428 78.351608  L 131.441928 78.61887  L 133.923428 78.884413  L 136.404928 79.148254  L 138.886428 79.410408  L 141.367928 79.670893  L 143.849428 79.800515  L 146.330928 80.058525  L 148.812428 80.314904  L 151.293928 80.442488  L 153.775428 80.696451  L 156.256928 80.822834  L 158.738428 81.074414  L 161.219928 81.199615  L 163.701429 81.324424  L 166.182929 81.572879  L 168.664429 81.696528  L 171.145929 81.819794  L 173.627429 81.942677  L 176.108929 82.065181  L 178.590429 82.187307  L 181.071929 82.309056  L 183.553429 82.430431  L 186.034929 82.551433  L 188.516429 82.672064  L 190.997929 82.792325  L 193.479429 82.912219  L 195.960929 83.031746  L 198.442429 83.150909  L 200.923929 83.26971  L 203.405429 83.388149  L 205.886929 83.388149  L 208.368429 83.506229  L 210.849929 83.623951  L 213.331429 83.741316  L 215.812929 83.741316  L 218.294429 83.858327  L 220.775929 83.974986  L 223.257429 83.974986  L 225.738929 84.091292  L 228.220429 84.207249  L 230.701929 84.207249  L 233.183429 84.322858  L 235.664929 84.322858  L 238.146429 84.43812  L 240.627929 84.43812  L 243.109429 84.553037  L 245.590929 84.553037  L 248.072429 84.667611  L 250.553929 84.667611  L 253.035429 84.781842  L 255.516929 84.781842  L 257.998429 84.895733  L 260.479929 84.895733  L 262.961429 85.009285  L 265.442929 85.009285  L 267.924429 85.1225  L 270.405929 85.1225  L 272.887429 85.1225  L 275.368929 85.235379  L 277.850429 85.235379  L 280.331929 85.235379  L 282.813429 85.347923  " clip-path="url(#p820f9795f5)" style="fill: none; stroke: #000000; stroke-width: 1.5; stroke-linecap: square"/>
   </g>
   <g id="line2d_12">
    <defs>
     <path id="mf0b2738a05" d="M 0 1.5  C 0.397805 1.5 0.77937 1.341951 1.06066 1.06066  C 1.341951 0.77937 1.5 0.397805 1.5 0  C 1.5 -0.397805 1.341951 -0.77937 1.06066 -1.06066  C 0.77937 -1.341951 0.397805 -1.5 0 -1.5  C -0.397805 -1.5 -0.77937 -1.341951 -1.06066 -1.06066  C -1.341951 -0.77937 -1.5 -0.397805 -1.5 0  C -1.5 0.397805 -1.341951 0.77937 -1.06066 1.06066  C -0.77937 1.341951 -0.397805 1.5 0 1.5  z " style="stroke: #1f77b4"/>
    </defs>
    <g clip-path="url(#p820f9795f5)">
     <use xlink:href="#mf0b2738a05" x="56.731537" y="43.745765" style="fill: #1f77b4; stroke: #1f77b4"/>
     <use xlink:href="#mf0b2738a05" x="101.129376" y="74.208986" style="fill: #1f77b4; stroke: #1f77b4"/>
     <use xlink:href="#mf0b2738a05" x="173.96263" y="84.316503" style="fill: #1f77b4; stroke: #1f77b4"/>
     <use xlink:href="#mf0b2738a05" x="194.094937" y="85.045532" style="fill: #1f77b4; stroke: #1f77b4"/>
     <use xlink:href="#mf0b2738a05" x="228.693983" y="85.61478" style="fill: #1f77b4; stroke: #1f77b4"/>
     <use xlink:href="#mf0b2738a05" x="244.067011" y="81.020082" style="fill: #1f77b4; stroke: #1f77b4"/>
    </g>
   </g>
   <g id="patch_3">
    <path d="M 37.144928 116.90601  L 37.144928 3.00024  " style="fill: none; stroke: #000000; stroke-width: 0.8; stroke-linejoin: miter; stroke-linecap: square"/>
   </g>
   <g id="patch_4">
    <path d="M 284.253486 116.90601  L 284.253486 3.00024  " style="fill: none; stroke: #000000; stroke-width: 0.8; stroke-linejoin: miter; stroke-linecap: square"/>
   </g>
   <g id="patch_5">
    <path d="M 37.144928 116.90601  L 284.253486 116.90601  " style="fill: none; stroke: #000000; stroke-width: 0.8; stroke-linejoin: miter; stroke-linecap: square"/>
   </g>
   <g id="patch_6">
    <path d="M 37.144928 3.00024  L 284.253486 3.00024  " style="fill: none; stroke: #000000; stroke-width: 0.8; stroke-linejoin: miter; stroke-linecap: square"/>
   </g>
  </g>
 </g>
 <defs>
  <clipPath id="p820f9795f5">
   <rect x="37.144928" y="3.00024" width="247.108558" height="113.90577"/>
  </clipPath>
 </defs>
</svg>
