<?xml version='1.0' encoding='ASCII' standalone='yes'?>
<svg xmlns:xlink="http://www.w3.org/1999/xlink" xmlns="http://www.w3.org/2000/svg" width="737.216736pt" height="243.0pt" viewBox="0 0 368.608368 121.5" version="1.1">
 <metadata>
  <rdf:RDF xmlns:dc="http://purl.org/dc/elements/1.1/" xmlns:cc="http://creativecommons.org/ns#" xmlns:rdf="http://www.w3.org/1999/02/22-rdf-syntax-ns#">
   <cc:Work>
    <dc:type rdf:resource="http://purl.org/dc/dcmitype/StillImage"/>
    <dc:date>2023-12-09T20:55:42.110038</dc:date>
    <dc:format>image/svg+xml</dc:format>
    <dc:creator>
     <cc:Agent>
      <dc:title>Matplotlib v3.8.0, https://matplotlib.org/</dc:title>
     </cc:Agent>
    </dc:creator>
   </cc:Work>
  </rdf:RDF>
 </metadata>
 <defs>
  <style type="text/css">*{stroke-linejoin: round; stroke-linecap: butt}</style>
 </defs>
 <g id="figure_1">
  <g id="patch_1">
   <path d="M 0 121.5  L 368.608368 121.5  L 368.608368 0  L 0 0  z " style="fill: #ffffff"/>
  </g>
  <g id="axes_1">
   <g id="patch_2">
    <path d="M 3.00024 118.49976  L 365.608128 118.49976  L 365.608128 3.00024  L 3.00024 3.00024  z " style="fill: #ffffff"/>
   </g>
   <g id="PolyCollection_1">
    <defs>
     <path id="m2d4b894c8a" d="M 3.00024 -14.550192  L 3.00024 -3.00024  L 4.82239 -3.00024  L 6.64454 -3.00024  L 8.466691 -3.00024  L 10.288841 -3.00024  L 12.110991 -3.00024  L 13.933141 -3.00024  L 15.755291 -3.00024  L 17.577442 -3.00024  L 19.399592 -3.00024  L 21.221742 -3.00024  L 23.043892 -3.00024  L 24.866042 -3.00024  L 26.688192 -3.00024  L 28.510343 -3.00024  L 30.332493 -3.00024  L 32.154643 -3.00024  L 33.976793 -3.00024  L 35.798943 -3.00024  L 37.621094 -3.00024  L 39.443244 -3.00024  L 41.265394 -3.00024  L 43.087544 -3.00024  L 44.909694 -3.00024  L 46.731845 -3.00024  L 48.553995 -3.00024  L 50.376145 -3.00024  L 52.198295 -3.00024  L 54.020445 -3.00024  L 55.842596 -3.00024  L 57.664746 -3.00024  L 59.486896 -3.00024  L 61.309046 -3.00024  L 63.131196 -3.00024  L 64.953347 -3.00024  L 66.775497 -3.00024  L 68.597647 -3.00024  L 70.419797 -3.00024  L 72.241947 -3.00024  L 74.064097 -3.00024  L 75.886248 -3.00024  L 77.708398 -3.00024  L 79.530548 -3.00024  L 81.352698 -3.00024  L 83.174848 -3.00024  L 84.996999 -3.00024  L 86.819149 -3.00024  L 88.641299 -3.00024  L 90.463449 -3.00024  L 92.285599 -3.00024  L 94.10775 -3.00024  L 95.9299 -3.00024  L 97.75205 -3.00024  L 99.5742 -3.00024  L 101.39635 -3.00024  L 103.218501 -3.00024  L 105.040651 -3.00024  L 106.862801 -3.00024  L 108.684951 -3.00024  L 110.507101 -3.00024  L 112.329251 -3.00024  L 114.151402 -3.00024  L 115.973552 -3.00024  L 117.795702 -3.00024  L 119.617852 -3.00024  L 121.440002 -3.00024  L 123.262153 -3.00024  L 125.084303 -3.00024  L 126.906453 -3.00024  L 128.728603 -3.00024  L 130.550753 -3.00024  L 132.372904 -3.00024  L 134.195054 -3.00024  L 136.017204 -3.00024  L 137.839354 -3.00024  L 139.661504 -3.00024  L 141.483655 -3.00024  L 143.305805 -3.00024  L 145.127955 -3.00024  L 146.950105 -3.00024  L 148.772255 -3.00024  L 150.594405 -3.00024  L 152.416556 -3.00024  L 154.238706 -3.00024  L 156.060856 -3.00024  L 157.883006 -3.00024  L 159.705156 -3.00024  L 161.527307 -3.00024  L 163.349457 -3.00024  L 165.171607 -3.00024  L 166.993757 -3.00024  L 168.815907 -3.00024  L 170.638058 -3.00024  L 172.460208 -3.00024  L 174.282358 -3.00024  L 176.104508 -3.00024  L 177.926658 -3.00024  L 179.748809 -3.00024  L 181.570959 -3.00024  L 183.393109 -3.00024  L 185.215259 -3.00024  L 187.037409 -3.00024  L 188.85956 -3.00024  L 190.68171 -3.00024  L 192.50386 -3.00024  L 194.32601 -3.00024  L 196.14816 -3.00024  L 197.97031 -3.00024  L 199.792461 -3.00024  L 201.614611 -3.00024  L 203.436761 -3.00024  L 205.258911 -3.00024  L 207.081061 -3.00024  L 208.903212 -3.00024  L 210.725362 -3.00024  L 212.547512 -3.00024  L 214.369662 -3.00024  L 216.191812 -3.00024  L 218.013963 -3.00024  L 219.836113 -3.00024  L 221.658263 -3.00024  L 223.480413 -3.00024  L 225.302563 -3.00024  L 227.124714 -3.00024  L 228.946864 -3.00024  L 230.769014 -3.00024  L 232.591164 -3.00024  L 234.413314 -3.00024  L 236.235464 -3.00024  L 238.057615 -3.00024  L 239.879765 -3.00024  L 241.701915 -3.00024  L 243.524065 -3.00024  L 245.346215 -3.00024  L 247.168366 -3.00024  L 248.990516 -3.00024  L 250.812666 -3.00024  L 252.634816 -3.00024  L 254.456966 -3.00024  L 256.279117 -3.00024  L 258.101267 -3.00024  L 259.923417 -3.00024  L 261.745567 -3.00024  L 263.567717 -3.00024  L 265.389868 -3.00024  L 267.212018 -3.00024  L 269.034168 -3.00024  L 270.856318 -3.00024  L 272.678468 -3.00024  L 274.500618 -3.00024  L 276.322769 -3.00024  L 278.144919 -3.00024  L 279.967069 -3.00024  L 281.789219 -3.00024  L 283.611369 -3.00024  L 285.43352 -3.00024  L 287.25567 -3.00024  L 289.07782 -3.00024  L 290.89997 -3.00024  L 292.72212 -3.00024  L 294.544271 -3.00024  L 296.366421 -3.00024  L 298.188571 -3.00024  L 300.010721 -3.00024  L 301.832871 -3.00024  L 303.655022 -3.00024  L 305.477172 -3.00024  L 307.299322 -3.00024  L 309.121472 -3.00024  L 310.943622 -3.00024  L 312.765773 -3.00024  L 314.587923 -3.00024  L 316.410073 -3.00024  L 318.232223 -3.00024  L 320.054373 -3.00024  L 321.876523 -3.00024  L 323.698674 -3.00024  L 325.520824 -3.00024  L 327.342974 -3.00024  L 329.165124 -3.00024  L 330.987274 -3.00024  L 332.809425 -3.00024  L 334.631575 -3.00024  L 336.453725 -3.00024  L 338.275875 -3.00024  L 340.098025 -3.00024  L 341.920176 -3.00024  L 343.742326 -3.00024  L 345.564476 -3.00024  L 347.386626 -3.00024  L 349.208776 -3.00024  L 351.030927 -3.00024  L 352.853077 -3.00024  L 354.675227 -3.00024  L 356.497377 -3.00024  L 358.319527 -3.00024  L 360.141677 -3.00024  L 361.963828 -3.00024  L 363.785978 -3.00024  L 365.608128 -3.00024  L 365.608128 -14.550192  L 365.608128 -14.550192  L 363.785978 -14.561705  L 361.963828 -14.596233  L 360.141677 -14.653742  L 358.319527 -14.734174  L 356.497377 -14.83745  L 354.675227 -14.963465  L 352.853077 -15.112095  L 351.030927 -15.283191  L 349.208776 -15.476583  L 347.386626 -15.692078  L 345.564476 -15.929462  L 343.742326 -16.188497  L 341.920176 -16.468925  L 340.098025 -16.770467  L 338.275875 -17.092822  L 336.453725 -17.43567  L 334.631575 -17.798667  L 332.809425 -18.181453  L 330.987274 -18.583646  L 329.165124 -19.004844  L 327.342974 -19.444629  L 325.520824 -19.902561  L 323.698674 -20.378184  L 321.876523 -20.871024  L 320.054373 -21.38059  L 318.232223 -21.906374  L 316.410073 -22.447852  L 314.587923 -23.004483  L 312.765773 -23.575714  L 310.943622 -24.160974  L 309.121472 -24.75968  L 307.299322 -25.371236  L 305.477172 -25.995032  L 303.655022 -26.630445  L 301.832871 -27.276844  L 300.010721 -27.933582  L 298.188571 -28.600006  L 296.366421 -29.275452  L 294.544271 -29.959245  L 292.72212 -30.650705  L 290.89997 -31.349143  L 289.07782 -32.053861  L 287.25567 -32.764157  L 285.43352 -33.479324  L 283.611369 -34.198648  L 281.789219 -34.921413  L 279.967069 -35.646898  L 278.144919 -36.37438  L 276.322769 -37.103133  L 274.500618 -37.832432  L 272.678468 -38.561549  L 270.856318 -39.289757  L 269.034168 -40.016331  L 267.212018 -40.740546  L 265.389868 -41.461681  L 263.567717 -42.179016  L 261.745567 -42.891836  L 259.923417 -43.599432  L 258.101267 -44.301097  L 256.279117 -44.996132  L 254.456966 -45.683844  L 252.634816 -46.363549  L 250.812666 -47.034567  L 248.990516 -47.696231  L 247.168366 -48.347881  L 245.346215 -48.988867  L 243.524065 -49.61855  L 241.701915 -50.236302  L 239.879765 -50.841509  L 238.057615 -51.433566  L 236.235464 -52.011883  L 234.413314 -52.575884  L 232.591164 -53.125007  L 230.769014 -53.658704  L 228.946864 -54.176444  L 227.124714 -54.677709  L 225.302563 -55.162002  L 223.480413 -55.628837  L 221.658263 -56.077752  L 219.836113 -56.508297  L 218.013963 -56.920044  L 216.191812 -57.312582  L 214.369662 -57.68552  L 212.547512 -58.038487  L 210.725362 -58.371129  L 208.903212 -58.683117  L 207.081061 -58.974139  L 205.258911 -59.243904  L 203.436761 -59.492144  L 201.614611 -59.718611  L 199.792461 -59.92308  L 197.97031 -60.105347  L 196.14816 -60.26523  L 194.32601 -60.40257  L 192.50386 -60.517229  L 190.68171 -60.609095  L 188.85956 -60.678074  L 187.037409 -60.724098  L 185.215259 -60.747122  L 183.393109 -60.747122  L 181.570959 -60.724098  L 179.748809 -60.678074  L 177.926658 -60.609095  L 176.104508 -60.517229  L 174.282358 -60.40257  L 172.460208 -60.26523  L 170.638058 -60.105347  L 168.815907 -59.92308  L 166.993757 -59.718611  L 165.171607 -59.492144  L 163.349457 -59.243904  L 161.527307 -58.974139  L 159.705156 -58.683117  L 157.883006 -58.371129  L 156.060856 -58.038487  L 154.238706 -57.68552  L 152.416556 -57.312582  L 150.594405 -56.920044  L 148.772255 -56.508297  L 146.950105 -56.077752  L 145.127955 -55.628837  L 143.305805 -55.162002  L 141.483655 -54.677709  L 139.661504 -54.176444  L 137.839354 -53.658704  L 136.017204 -53.125007  L 134.195054 -52.575884  L 132.372904 -52.011883  L 130.550753 -51.433566  L 128.728603 -50.841509  L 126.906453 -50.236302  L 125.084303 -49.61855  L 123.262153 -48.988867  L 121.440002 -48.347881  L 119.617852 -47.696231  L 117.795702 -47.034567  L 115.973552 -46.363549  L 114.151402 -45.683844  L 112.329251 -44.996132  L 110.507101 -44.301097  L 108.684951 -43.599432  L 106.862801 -42.891836  L 105.040651 -42.179016  L 103.218501 -41.461681  L 101.39635 -40.740546  L 99.5742 -40.016331  L 97.75205 -39.289757  L 95.9299 -38.561549  L 94.10775 -37.832432  L 92.285599 -37.103133  L 90.463449 -36.37438  L 88.641299 -35.646898  L 86.819149 -34.921413  L 84.996999 -34.198648  L 83.174848 -33.479324  L 81.352698 -32.764157  L 79.530548 -32.053861  L 77.708398 -31.349143  L 75.886248 -30.650705  L 74.064097 -29.959245  L 72.241947 -29.275452  L 70.419797 -28.600006  L 68.597647 -27.933582  L 66.775497 -27.276844  L 64.953347 -26.630445  L 63.131196 -25.995032  L 61.309046 -25.371236  L 59.486896 -24.75968  L 57.664746 -24.160974  L 55.842596 -23.575714  L 54.020445 -23.004483  L 52.198295 -22.447852  L 50.376145 -21.906374  L 48.553995 -21.38059  L 46.731845 -20.871024  L 44.909694 -20.378184  L 43.087544 -19.902561  L 41.265394 -19.444629  L 39.443244 -19.004844  L 37.621094 -18.583646  L 35.798943 -18.181453  L 33.976793 -17.798667  L 32.154643 -17.43567  L 30.332493 -17.092822  L 28.510343 -16.770467  L 26.688192 -16.468925  L 24.866042 -16.188497  L 23.043892 -15.929462  L 21.221742 -15.692078  L 19.399592 -15.476583  L 17.577442 -15.283191  L 15.755291 -15.112095  L 13.933141 -14.963465  L 12.110991 -14.83745  L 10.288841 -14.734174  L 8.466691 -14.653742  L 6.64454 -14.596233  L 4.82239 -14.561705  L 3.00024 -14.550192  z " style="stroke: #d2691e; stroke-opacity: 0.2"/>
    </defs>
    <g clip-path="url(#p8e06d44af8)">
     <use xlink:href="#m2d4b894c8a" x="0" y="121.5" style="fill: #d2691e; fill-opacity: 0.2; stroke: #d2691e; stroke-opacity: 0.2"/>
    </g>
   </g>
   <g id="patch_3">
    <path d="M 8.626151 47.200048  Q 23.383599 47.200048 38.141048 47.200048  L 38.141048 44.200048  Q 43.140588 46.700048 48.140129 49.200048  Q 43.140588 51.700048 38.141048 54.200048  L 38.141048 51.200048  Q 23.383599 51.200048 8.626151 51.200048  L 8.626151 47.200048  z " clip-path="url(#p8e06d44af8)" style="fill: #b0e0e6; stroke: #000000; stroke-linecap: round"/>
   </g>
   <g id="matplotlib.axis_1"/>
   <g id="matplotlib.axis_2"/>
   <g id="line2d_1">
    <path d="M 3.00024 106.949808  L 8.466691 106.846258  L 13.933141 106.536535  L 19.399592 106.023417  L 24.866042 105.311503  L 30.332493 104.407178  L 35.798943 103.318547  L 43.087544 101.597439  L 50.376145 99.593626  L 57.664746 97.339026  L 64.953347 94.869555  L 74.064097 91.540755  L 84.996999 87.301352  L 114.151402 75.816156  L 123.262153 72.511133  L 130.550753 70.066434  L 137.839354 67.841296  L 145.127955 65.871163  L 152.416556 64.187418  L 157.883006 63.128871  L 163.349457 62.256096  L 168.815907 61.57692  L 174.282358 61.09743  L 179.748809 60.821926  L 185.215259 60.752878  L 190.68171 60.890905  L 196.14816 61.23477  L 201.614611 61.781389  L 207.081061 62.525861  L 212.547512 63.461513  L 218.013963 64.579956  L 225.302563 66.337998  L 232.591164 68.374993  L 239.879765 70.658491  L 247.168366 73.152119  L 256.279117 76.503868  L 269.034168 81.483669  L 294.544271 91.540755  L 303.655022 94.869555  L 310.943622 97.339026  L 318.232223 99.593626  L 325.520824 101.597439  L 332.809425 103.318547  L 338.275875 104.407178  L 343.742326 105.311503  L 349.208776 106.023417  L 354.675227 106.536535  L 360.141677 106.846258  L 365.608128 106.949808  L 365.608128 106.949808  " clip-path="url(#p8e06d44af8)" style="fill: none; stroke: #d2691e; stroke-width: 1.5; stroke-linecap: square"/>
   </g>
   <g id="LineCollection_1">
    <path d="M 184.304184 118.49976  L 184.304184 50.355043  " clip-path="url(#p8e06d44af8)" style="fill: none; stroke-dasharray: 2.22,0.96; stroke-dashoffset: 0; stroke: #000000; stroke-width: 0.6"/>
   </g>
   <g id="LineCollection_2">
    <path d="M 184.304184 39.960086  L 184.304184 3.00024  " clip-path="url(#p8e06d44af8)" style="fill: none; stroke-dasharray: 2.22,0.96; stroke-dashoffset: 0; stroke: #000000; stroke-width: 0.6"/>
   </g>
   <g id="LineCollection_3">
    <path d="M 93.652212 95.399856  L 93.652212 50.355043  " clip-path="url(#p8e06d44af8)" style="fill: none; stroke-dasharray: 0.6,0.99; stroke-dashoffset: 0; stroke: #000000; stroke-width: 0.6"/>
   </g>
   <g id="LineCollection_4">
    <path d="M 93.652212 39.960086  L 93.652212 3.00024  " clip-path="url(#p8e06d44af8)" style="fill: none; stroke-dasharray: 0.6,0.99; stroke-dashoffset: 0; stroke: #000000; stroke-width: 0.6"/>
   </g>
   <g id="LineCollection_5">
    <path d="M 148.043395 65.161689  L 148.043395 35.917603  " clip-path="url(#p8e06d44af8)" style="fill: none; stroke: #000000; stroke-width: 0.6"/>
   </g>
   <g id="LineCollection_6">
    <path d="M 148.043395 28.410134  L 148.043395 3.00024  " clip-path="url(#p8e06d44af8)" style="fill: none; stroke: #000000; stroke-width: 0.6"/>
   </g>
   <g id="patch_4">
    <path d="M 3.00024 118.49976  L 3.00024 3.00024  " style="fill: none; stroke: #000000; stroke-width: 0.8; stroke-linejoin: miter; stroke-linecap: square"/>
   </g>
   <g id="patch_5">
    <path d="M 365.608128 118.49976  L 365.608128 3.00024  " style="fill: none; stroke: #000000; stroke-width: 0.8; stroke-linejoin: miter; stroke-linecap: square"/>
   </g>
   <g id="patch_6">
    <path d="M 3.00024 118.49976  L 365.608128 118.49976  " style="fill: none; stroke: #000000; stroke-width: 0.8; stroke-linejoin: miter; stroke-linecap: square"/>
   </g>
   <g id="patch_7">
    <path d="M 3.00024 3.00024  L 365.608128 3.00024  " style="fill: none; stroke: #000000; stroke-width: 0.8; stroke-linejoin: miter; stroke-linecap: square"/>
   </g>
   <g id="text_1">
    <!-- $h_{\text{max}}$ -->
    <g transform="translate(173.425947 46.31256) scale(0.11 -0.11)">
     <defs>
      <path id="STIXGeneral-Italic-68" d="M 2976 755  L 3059 672  Q 2765 256 2566 99  Q 2368 -58 2125 -58  Q 1997 -58 1920 16  Q 1843 90 1843 211  Q 1843 320 1971 800  L 2323 2125  Q 2368 2304 2368 2336  Q 2368 2496 2189 2496  Q 2016 2496 1744 2240  Q 1472 1984 1216 1600  Q 1018 1293 902 1001  Q 787 710 602 0  L 122 0  L 1056 3546  Q 1139 3866 1139 3942  Q 1139 4019 1056 4060  Q 973 4102 877 4102  L 704 4102  L 704 4198  Q 1190 4256 1709 4371  L 1754 4333  L 979 1472  Q 1811 2822 2451 2822  Q 2662 2822 2764 2704  Q 2867 2586 2867 2394  Q 2867 2118 2560 1158  Q 2349 512 2349 358  Q 2349 243 2451 243  Q 2528 243 2621 336  Q 2714 429 2976 755  z " transform="scale(0.015625)"/>
      <path id="STIXGeneral-Regular-6d" d="M 4960 0  L 3565 0  L 3565 96  Q 3834 122 3907 208  Q 3981 294 3981 576  L 3981 1894  Q 3981 2278 3869 2444  Q 3757 2611 3488 2611  Q 3264 2611 3107 2521  Q 2950 2432 2803 2221  L 2803 608  Q 2803 301 2896 201  Q 2989 102 3264 96  L 3264 0  L 1830 0  L 1830 96  Q 2112 115 2189 188  Q 2266 262 2266 550  L 2266 1901  Q 2266 2611 1850 2611  Q 1670 2611 1468 2531  Q 1267 2451 1171 2336  Q 1088 2240 1088 2227  L 1088 448  Q 1088 243 1177 176  Q 1267 109 1523 96  L 1523 0  L 102 0  L 102 96  Q 371 102 460 195  Q 550 288 550 563  L 550 2150  Q 550 2387 499 2480  Q 448 2573 326 2573  Q 230 2573 122 2547  L 122 2656  Q 557 2778 1011 2944  L 1062 2925  L 1062 2451  L 1075 2451  Q 1363 2752 1584 2848  Q 1805 2944 2054 2944  Q 2560 2944 2733 2406  Q 3232 2944 3776 2944  Q 4518 2944 4518 1792  L 4518 493  Q 4518 282 4582 202  Q 4646 122 4794 109  L 4960 96  L 4960 0  z " transform="scale(0.015625)"/>
      <path id="STIXGeneral-Regular-61" d="M 2829 422  L 2829 243  Q 2586 -64 2253 -64  Q 1888 -64 1843 403  L 1837 403  Q 1427 -64 909 -64  Q 608 -64 422 112  Q 237 288 237 602  Q 237 1050 685 1350  Q 992 1555 1837 1869  L 1837 2214  Q 1837 2502 1699 2646  Q 1562 2790 1338 2790  Q 1146 2790 1018 2697  Q 890 2605 890 2477  Q 890 2419 909 2348  Q 928 2278 928 2208  Q 928 2112 841 2029  Q 755 1946 634 1946  Q 525 1946 441 2029  Q 358 2112 358 2240  Q 358 2547 685 2752  Q 986 2944 1421 2944  Q 1939 2944 2176 2656  Q 2291 2522 2323 2384  Q 2355 2246 2355 1946  L 2355 723  Q 2355 301 2554 301  Q 2682 301 2829 422  z M 1837 813  L 1837 1715  Q 1248 1510 1018 1293  Q 800 1094 800 800  Q 800 557 921 432  Q 1043 307 1242 307  Q 1453 307 1613 410  Q 1747 506 1792 589  Q 1837 672 1837 813  z " transform="scale(0.015625)"/>
      <path id="STIXGeneral-Regular-78" d="M 3066 0  L 1779 0  L 1779 96  Q 1939 109 1987 137  Q 2035 166 2035 250  Q 2035 307 1997 365  L 1414 1261  L 909 474  Q 781 275 781 211  Q 781 96 1037 96  L 1037 0  L 109 0  L 109 96  Q 269 109 355 169  Q 442 230 576 422  L 1306 1478  L 704 2400  Q 557 2624 454 2704  Q 352 2784 211 2784  L 154 2784  L 154 2880  L 1478 2880  L 1478 2784  Q 1203 2778 1203 2643  Q 1203 2509 1498 2074  Q 1581 1958 1587 1946  Q 1619 1990 1779 2227  Q 1811 2285 1856 2349  Q 1901 2413 1923 2451  Q 1946 2490 1971 2528  Q 1997 2566 2006 2595  Q 2016 2624 2016 2643  Q 2016 2765 1760 2784  L 1760 2880  L 2771 2880  L 2771 2784  Q 2445 2771 2253 2502  L 1722 1734  L 2541 480  Q 2790 96 3066 96  L 3066 0  z " transform="scale(0.015625)"/>
     </defs>
     <use xlink:href="#STIXGeneral-Italic-68" transform="translate(0 0.703125)"/>
     <use xlink:href="#STIXGeneral-Regular-6d" transform="translate(49.999985 -12.525) scale(0.7)"/>
     <use xlink:href="#STIXGeneral-Regular-61" transform="translate(104.459976 -12.525) scale(0.7)"/>
     <use xlink:href="#STIXGeneral-Regular-78" transform="translate(135.539972 -12.525) scale(0.7)"/>
    </g>
   </g>
   <g id="patch_8">
    <path d="M 231.443209 112.724784  Q 117.221725 112.724784 4.118274 112.724784  " style="fill: none; stroke: #000000; stroke-linecap: round"/>
    <path d="M 8.518274 114.924784  L 4.118274 112.724784  L 8.518274 110.524784  z " style="stroke: #000000; stroke-linecap: round"/>
   </g>
   <g id="patch_9">
    <path d="M 364.490094 112.724784  Q 305.777827 112.724784 245.947525 112.724784  " style="fill: none; stroke: #000000; stroke-linecap: round"/>
    <path d="M 360.090094 110.524784  L 364.490094 112.724784  L 360.090094 114.924784  z " style="stroke: #000000; stroke-linecap: round"/>
   </g>
   <g id="text_2">
    <!-- $\lambda$ -->
    <g transform="translate(236.165367 114.457277) scale(0.11 -0.11)">
     <defs>
      <path id="STIXGeneral-Italic-3bb" d="M 2656 787  L 2758 787  Q 2560 -102 2112 -102  Q 1965 -102 1869 48  Q 1773 198 1773 499  Q 1773 672 1789 889  Q 1805 1107 1833 1446  Q 1862 1786 1875 2016  L 538 0  L -77 0  L 1907 2739  Q 1933 2970 1933 3245  Q 1933 3936 1619 3936  Q 1530 3936 1408 3821  Q 1286 3706 1203 3462  L 1101 3462  Q 1312 4339 1747 4339  Q 1926 4339 2041 4115  Q 2157 3891 2157 3475  Q 2157 3040 2093 2192  Q 2029 1344 2029 941  Q 2029 602 2089 451  Q 2150 301 2291 301  Q 2483 301 2656 787  z " transform="scale(0.015625)"/>
     </defs>
     <use xlink:href="#STIXGeneral-Italic-3bb" transform="translate(0 0.203125)"/>
    </g>
   </g>
   <g id="text_3">
    <!-- $\tau_{\text{max}}$ -->
    <g transform="translate(79.147896 46.31256) scale(0.11 -0.11)">
     <defs>
      <path id="STIXGeneral-Italic-3c4" d="M 2726 2739  L 2592 2266  L 1741 2266  Q 1293 1248 1293 742  Q 1293 416 1523 416  Q 1638 416 1779 547  Q 1920 678 2003 858  L 2106 858  Q 1990 467 1731 198  Q 1472 -70 1178 -70  Q 768 -70 768 384  Q 768 890 1395 2266  L 1005 2266  Q 493 2266 179 1702  L 77 1702  Q 237 2093 569 2416  Q 902 2739 1331 2739  L 2726 2739  z " transform="scale(0.015625)"/>
     </defs>
     <use xlink:href="#STIXGeneral-Italic-3c4" transform="translate(0 0.203125)"/>
     <use xlink:href="#STIXGeneral-Regular-6d" transform="translate(40.999985 -13.025) scale(0.7)"/>
     <use xlink:href="#STIXGeneral-Regular-61" transform="translate(95.459976 -13.025) scale(0.7)"/>
     <use xlink:href="#STIXGeneral-Regular-78" transform="translate(126.539972 -13.025) scale(0.7)"/>
    </g>
   </g>
   <g id="patch_10">
    <path d="M 94.770246 95.399856  Q 138.978198 95.399856 184.304184 95.399856  " style="fill: none; stroke: #000000; stroke-linecap: round"/>
    <path d="M 99.170246 97.599856  L 94.770246 95.399856  L 99.170246 93.199856  z " style="stroke: #000000; stroke-linecap: round"/>
   </g>
   <g id="text_4">
    <!-- $\propto \lambda$ -->
    <g transform="translate(129.913001 91.357373) scale(0.11 -0.11)">
     <defs>
      <path id="STIXGeneral-Regular-221d" d="M 4115 538  L 4115 0  Q 3674 0 3360 224  Q 3046 448 2726 928  Q 2266 0 1389 0  Q 934 0 598 329  Q 262 659 262 1280  Q 262 1613 355 1881  Q 448 2150 585 2307  Q 723 2464 896 2569  Q 1069 2675 1213 2713  Q 1357 2752 1485 2752  Q 1869 2752 2160 2569  Q 2451 2387 2880 1811  Q 3142 2285 3408 2518  Q 3674 2752 4115 2752  L 4115 2214  Q 3725 2214 3443 2025  Q 3162 1837 3008 1568  L 3008 1549  Q 3328 1018 3581 778  Q 3834 538 4115 538  z M 2586 1158  L 2586 1178  Q 2221 1779 1910 2076  Q 1600 2374 1286 2374  Q 1018 2374 832 2147  Q 646 1920 646 1613  Q 646 1178 889 858  Q 1133 538 1536 538  Q 1734 538 1907 595  Q 2080 653 2214 765  Q 2349 877 2422 957  Q 2496 1037 2586 1158  z " transform="scale(0.015625)"/>
     </defs>
     <use xlink:href="#STIXGeneral-Regular-221d" transform="translate(14.439996 0.203125)"/>
     <use xlink:href="#STIXGeneral-Italic-3bb" transform="translate(97.379977 0.203125)"/>
    </g>
   </g>
   <g id="text_5">
    <!-- $Q_{\text{max}}$ -->
    <g transform="translate(133.53908 33.030115) scale(0.11 -0.11)">
     <defs>
      <path id="STIXGeneral-Italic-51" d="M 442 -1082  L 378 -979  Q 749 -717 912 -589  Q 1075 -461 1510 -77  Q 966 32 675 425  Q 384 819 384 1440  Q 384 2035 678 2624  Q 973 3213 1491 3661  Q 2202 4262 3034 4262  Q 3680 4262 4077 3833  Q 4474 3405 4474 2746  Q 4474 1997 4019 1277  Q 3565 557 2835 173  Q 2400 -64 1786 -102  L 1440 -467  L 1600 -467  Q 1824 -467 2387 -595  Q 2938 -730 3098 -730  Q 3443 -730 3673 -624  Q 3904 -518 4173 -237  L 4275 -307  Q 4122 -525 3942 -685  Q 3411 -1165 2720 -1165  Q 2298 -1165 1773 -998  Q 1421 -883 1178 -883  Q 800 -883 442 -1082  z M 3802 3072  Q 3802 3526 3581 3788  Q 3360 4051 2976 4051  Q 2272 4051 1734 3251  Q 1446 2822 1251 2230  Q 1056 1638 1056 1171  Q 1056 691 1273 400  Q 1491 109 1850 109  Q 2579 109 3117 902  Q 3411 1350 3606 1964  Q 3802 2579 3802 3072  z " transform="scale(0.015625)"/>
     </defs>
     <use xlink:href="#STIXGeneral-Italic-51" transform="translate(0 0.40625)"/>
     <use xlink:href="#STIXGeneral-Regular-6d" transform="translate(72.199982 -12.821875) scale(0.7)"/>
     <use xlink:href="#STIXGeneral-Regular-61" transform="translate(126.659973 -12.821875) scale(0.7)"/>
     <use xlink:href="#STIXGeneral-Regular-78" transform="translate(157.739969 -12.821875) scale(0.7)"/>
    </g>
   </g>
   <g id="patch_11">
    <path d="M 146.925361 65.161689  Q 120.847804 65.161689 93.652212 65.161689  " style="fill: none; stroke: #000000; stroke-linecap: round"/>
    <path d="M 142.525361 62.961689  L 146.925361 65.161689  L 142.525361 67.361689  z " style="stroke: #000000; stroke-linecap: round"/>
   </g>
   <g id="text_6">
    <!-- $L_{\text{sat}}$ -->
    <g transform="translate(111.601302 59.595005) scale(0.11 -0.11)">
     <defs>
      <path id="STIXGeneral-Italic-4c" d="M 3578 1152  L 3206 0  L -51 0  L -51 102  Q 218 128 301 211  Q 384 294 474 602  L 1254 3405  Q 1325 3642 1325 3802  Q 1325 3942 1225 4000  Q 1126 4058 832 4077  L 832 4179  L 2579 4179  L 2579 4077  Q 2285 4058 2147 3955  Q 2010 3853 1933 3584  L 1165 838  Q 1101 595 1101 493  Q 1101 346 1241 288  Q 1382 230 1773 230  Q 2266 230 2480 275  Q 2694 320 2925 474  Q 3187 646 3450 1190  L 3578 1152  z " transform="scale(0.015625)"/>
      <path id="STIXGeneral-Regular-73" d="M 998 1926  L 1664 1523  Q 1984 1331 2105 1164  Q 2227 998 2227 736  Q 2227 416 1961 176  Q 1696 -64 1331 -64  Q 1030 -64 864 -6  Q 691 51 570 51  Q 461 51 416 -26  L 333 -26  L 333 979  L 435 979  Q 538 512 730 294  Q 922 77 1248 77  Q 1485 77 1632 211  Q 1779 346 1779 550  Q 1779 845 1440 1030  L 1094 1222  Q 326 1651 326 2150  Q 326 2522 566 2730  Q 806 2938 1210 2938  Q 1491 2938 1638 2867  Q 1754 2816 1818 2816  Q 1862 2816 1920 2880  L 1990 2880  L 2022 2010  L 1926 2010  Q 1818 2445 1654 2621  Q 1491 2797 1203 2797  Q 986 2797 854 2688  Q 723 2579 723 2362  Q 723 2253 796 2128  Q 870 2003 998 1926  z " transform="scale(0.015625)"/>
      <path id="STIXGeneral-Regular-74" d="M 1702 493  L 1786 422  Q 1478 -64 1011 -64  Q 448 -64 448 749  L 448 2675  L 109 2675  Q 83 2694 83 2720  Q 83 2771 192 2842  Q 435 2982 813 3526  Q 826 3546 874 3606  Q 922 3667 941 3706  Q 986 3706 986 3622  L 986 2880  L 1632 2880  L 1632 2675  L 986 2675  L 986 845  Q 986 538 1062 403  Q 1139 269 1318 269  Q 1510 269 1702 493  z " transform="scale(0.015625)"/>
     </defs>
     <use xlink:href="#STIXGeneral-Italic-4c" transform="translate(0 0.703125)"/>
     <use xlink:href="#STIXGeneral-Regular-73" transform="translate(55.599991 -12.525) scale(0.7)"/>
     <use xlink:href="#STIXGeneral-Regular-61" transform="translate(82.829987 -12.525) scale(0.7)"/>
     <use xlink:href="#STIXGeneral-Regular-74" transform="translate(113.909982 -12.525) scale(0.7)"/>
    </g>
   </g>
   <g id="text_7">
    <!-- Wind -->
    <g transform="translate(7.714143 41.115082) scale(0.11 -0.11)">
     <defs>
      <path id="Roboto-Regular-57" d="M 5541 4550  L 4441 0  L 3894 0  L 2956 3316  L 2884 3663  L 2813 3316  L 1841 0  L 1294 0  L 191 4550  L 791 4550  L 1509 1438  L 1600 834  L 1725 1375  L 2628 4550  L 3131 4550  L 4009 1375  L 4138 822  L 4234 1441  L 4938 4550  L 5541 4550  z " transform="scale(0.015625)"/>
      <path id="Roboto-Regular-69" d="M 444 4278  Q 444 4419 530 4516  Q 616 4613 784 4613  Q 950 4613 1039 4516  Q 1128 4419 1128 4278  Q 1128 4144 1039 4048  Q 950 3953 784 3953  Q 616 3953 530 4048  Q 444 4144 444 4278  z M 1069 3381  L 1069 0  L 488 0  L 488 3381  L 1069 3381  z " transform="scale(0.015625)"/>
      <path id="Roboto-Regular-6e" d="M 1844 2956  Q 1566 2956 1353 2806  Q 1141 2656 1019 2416  L 1019 0  L 441 0  L 441 3381  L 988 3381  L 1006 2959  Q 1391 3444 2016 3444  Q 2513 3444 2805 3166  Q 3097 2888 3100 2231  L 3100 0  L 2519 0  L 2519 2222  Q 2519 2619 2345 2787  Q 2172 2956 1844 2956  z " transform="scale(0.015625)"/>
      <path id="Roboto-Regular-64" d="M 2622 0  L 2594 363  Q 2247 -63 1628 -63  Q 1034 -63 668 418  Q 303 900 297 1628  L 297 1719  Q 297 2494 664 2969  Q 1031 3444 1634 3444  Q 2231 3444 2572 3044  L 2572 4800  L 3153 4800  L 3153 0  L 2622 0  z M 878 1653  Q 878 1150 1090 789  Q 1303 428 1772 428  Q 2309 428 2572 919  L 2572 2475  Q 2313 2956 1778 2956  Q 1306 2956 1092 2589  Q 878 2222 878 1719  L 878 1653  z " transform="scale(0.015625)"/>
     </defs>
     <use xlink:href="#Roboto-Regular-57"/>
     <use xlink:href="#Roboto-Regular-69" x="88.720703"/>
     <use xlink:href="#Roboto-Regular-6e" x="113.037109"/>
     <use xlink:href="#Roboto-Regular-64" x="168.261719"/>
    </g>
   </g>
  </g>
 </g>
 <defs>
  <clipPath id="p8e06d44af8">
   <rect x="3.00024" y="3.00024" width="362.607888" height="115.49952"/>
  </clipPath>
 </defs>
</svg>
