<?xml version='1.0' encoding='ASCII' standalone='yes'?>
<svg xmlns:xlink="http://www.w3.org/1999/xlink" xmlns="http://www.w3.org/2000/svg" width="737.216736pt" height="243.0pt" viewBox="0 0 368.608368 121.5" version="1.1">
 <metadata>
  <rdf:RDF xmlns:dc="http://purl.org/dc/elements/1.1/" xmlns:cc="http://creativecommons.org/ns#" xmlns:rdf="http://www.w3.org/1999/02/22-rdf-syntax-ns#">
   <cc:Work>
    <dc:type rdf:resource="http://purl.org/dc/dcmitype/StillImage"/>
    <dc:date>2023-12-09T20:55:41.516222</dc:date>
    <dc:format>image/svg+xml</dc:format>
    <dc:creator>
     <cc:Agent>
      <dc:title>Matplotlib v3.8.0, https://matplotlib.org/</dc:title>
     </cc:Agent>
    </dc:creator>
   </cc:Work>
  </rdf:RDF>
 </metadata>
 <defs>
  <style type="text/css">*{stroke-linejoin: round; stroke-linecap: butt}</style>
 </defs>
 <g id="figure_1">
  <g id="patch_1">
   <path d="M 0 121.5  L 368.608368 121.5  L 368.608368 0  L 0 0  z " style="fill: #ffffff"/>
  </g>
  <g id="axes_1">
   <g id="patch_2">
    <path d="M 3.00024 118.49976  L 365.608128 118.49976  L 365.608128 3.00024  L 3.00024 3.00024  z " style="fill: #ffffff"/>
   </g>
   <g id="PolyCollection_1">
    <defs>
     <path id="ma1df84c74e" d="M 3.00024 -14.550192  L 3.00024 -3.00024  L 4.82239 -3.00024  L 6.64454 -3.00024  L 8.466691 -3.00024  L 10.288841 -3.00024  L 12.110991 -3.00024  L 13.933141 -3.00024  L 15.755291 -3.00024  L 17.577442 -3.00024  L 19.399592 -3.00024  L 21.221742 -3.00024  L 23.043892 -3.00024  L 24.866042 -3.00024  L 26.688192 -3.00024  L 28.510343 -3.00024  L 30.332493 -3.00024  L 32.154643 -3.00024  L 33.976793 -3.00024  L 35.798943 -3.00024  L 37.621094 -3.00024  L 39.443244 -3.00024  L 41.265394 -3.00024  L 43.087544 -3.00024  L 44.909694 -3.00024  L 46.731845 -3.00024  L 48.553995 -3.00024  L 50.376145 -3.00024  L 52.198295 -3.00024  L 54.020445 -3.00024  L 55.842596 -3.00024  L 57.664746 -3.00024  L 59.486896 -3.00024  L 61.309046 -3.00024  L 63.131196 -3.00024  L 64.953347 -3.00024  L 66.775497 -3.00024  L 68.597647 -3.00024  L 70.419797 -3.00024  L 72.241947 -3.00024  L 74.064097 -3.00024  L 75.886248 -3.00024  L 77.708398 -3.00024  L 79.530548 -3.00024  L 81.352698 -3.00024  L 83.174848 -3.00024  L 84.996999 -3.00024  L 86.819149 -3.00024  L 88.641299 -3.00024  L 90.463449 -3.00024  L 92.285599 -3.00024  L 94.10775 -3.00024  L 95.9299 -3.00024  L 97.75205 -3.00024  L 99.5742 -3.00024  L 101.39635 -3.00024  L 103.218501 -3.00024  L 105.040651 -3.00024  L 106.862801 -3.00024  L 108.684951 -3.00024  L 110.507101 -3.00024  L 112.329251 -3.00024  L 114.151402 -3.00024  L 115.973552 -3.00024  L 117.795702 -3.00024  L 119.617852 -3.00024  L 121.440002 -3.00024  L 123.262153 -3.00024  L 125.084303 -3.00024  L 126.906453 -3.00024  L 128.728603 -3.00024  L 130.550753 -3.00024  L 132.372904 -3.00024  L 134.195054 -3.00024  L 136.017204 -3.00024  L 137.839354 -3.00024  L 139.661504 -3.00024  L 141.483655 -3.00024  L 143.305805 -3.00024  L 145.127955 -3.00024  L 146.950105 -3.00024  L 148.772255 -3.00024  L 150.594405 -3.00024  L 152.416556 -3.00024  L 154.238706 -3.00024  L 156.060856 -3.00024  L 157.883006 -3.00024  L 159.705156 -3.00024  L 161.527307 -3.00024  L 163.349457 -3.00024  L 165.171607 -3.00024  L 166.993757 -3.00024  L 168.815907 -3.00024  L 170.638058 -3.00024  L 172.460208 -3.00024  L 174.282358 -3.00024  L 176.104508 -3.00024  L 177.926658 -3.00024  L 179.748809 -3.00024  L 181.570959 -3.00024  L 183.393109 -3.00024  L 185.215259 -3.00024  L 187.037409 -3.00024  L 188.85956 -3.00024  L 190.68171 -3.00024  L 192.50386 -3.00024  L 194.32601 -3.00024  L 196.14816 -3.00024  L 197.97031 -3.00024  L 199.792461 -3.00024  L 201.614611 -3.00024  L 203.436761 -3.00024  L 205.258911 -3.00024  L 207.081061 -3.00024  L 208.903212 -3.00024  L 210.725362 -3.00024  L 212.547512 -3.00024  L 214.369662 -3.00024  L 216.191812 -3.00024  L 218.013963 -3.00024  L 219.836113 -3.00024  L 221.658263 -3.00024  L 223.480413 -3.00024  L 225.302563 -3.00024  L 227.124714 -3.00024  L 228.946864 -3.00024  L 230.769014 -3.00024  L 232.591164 -3.00024  L 234.413314 -3.00024  L 236.235464 -3.00024  L 238.057615 -3.00024  L 239.879765 -3.00024  L 241.701915 -3.00024  L 243.524065 -3.00024  L 245.346215 -3.00024  L 247.168366 -3.00024  L 248.990516 -3.00024  L 250.812666 -3.00024  L 252.634816 -3.00024  L 254.456966 -3.00024  L 256.279117 -3.00024  L 258.101267 -3.00024  L 259.923417 -3.00024  L 261.745567 -3.00024  L 263.567717 -3.00024  L 265.389868 -3.00024  L 267.212018 -3.00024  L 269.034168 -3.00024  L 270.856318 -3.00024  L 272.678468 -3.00024  L 274.500618 -3.00024  L 276.322769 -3.00024  L 278.144919 -3.00024  L 279.967069 -3.00024  L 281.789219 -3.00024  L 283.611369 -3.00024  L 285.43352 -3.00024  L 287.25567 -3.00024  L 289.07782 -3.00024  L 290.89997 -3.00024  L 292.72212 -3.00024  L 294.544271 -3.00024  L 296.366421 -3.00024  L 298.188571 -3.00024  L 300.010721 -3.00024  L 301.832871 -3.00024  L 303.655022 -3.00024  L 305.477172 -3.00024  L 307.299322 -3.00024  L 309.121472 -3.00024  L 310.943622 -3.00024  L 312.765773 -3.00024  L 314.587923 -3.00024  L 316.410073 -3.00024  L 318.232223 -3.00024  L 320.054373 -3.00024  L 321.876523 -3.00024  L 323.698674 -3.00024  L 325.520824 -3.00024  L 327.342974 -3.00024  L 329.165124 -3.00024  L 330.987274 -3.00024  L 332.809425 -3.00024  L 334.631575 -3.00024  L 336.453725 -3.00024  L 338.275875 -3.00024  L 340.098025 -3.00024  L 341.920176 -3.00024  L 343.742326 -3.00024  L 345.564476 -3.00024  L 347.386626 -3.00024  L 349.208776 -3.00024  L 351.030927 -3.00024  L 352.853077 -3.00024  L 354.675227 -3.00024  L 356.497377 -3.00024  L 358.319527 -3.00024  L 360.141677 -3.00024  L 361.963828 -3.00024  L 363.785978 -3.00024  L 365.608128 -3.00024  L 365.608128 -14.550192  L 365.608128 -14.550192  L 363.785978 -14.550192  L 361.963828 -14.550192  L 360.141677 -14.550192  L 358.319527 -14.550192  L 356.497377 -14.550192  L 354.675227 -14.550192  L 352.853077 -14.550192  L 351.030927 -14.550192  L 349.208776 -14.550192  L 347.386626 -14.550192  L 345.564476 -14.550192  L 343.742326 -14.550192  L 341.920176 -14.550192  L 340.098025 -14.550192  L 338.275875 -14.550192  L 336.453725 -14.550192  L 334.631575 -14.550192  L 332.809425 -14.550192  L 330.987274 -14.550192  L 329.165124 -14.550192  L 327.342974 -14.550192  L 325.520824 -14.550192  L 323.698674 -14.550192  L 321.876523 -14.550192  L 320.054373 -14.550192  L 318.232223 -14.550192  L 316.410073 -14.550192  L 314.587923 -14.550192  L 312.765773 -14.550192  L 310.943622 -14.550192  L 309.121472 -14.550192  L 307.299322 -14.550192  L 305.477172 -14.550192  L 303.655022 -14.550192  L 301.832871 -14.550192  L 300.010721 -14.550192  L 298.188571 -14.550192  L 296.366421 -14.550192  L 294.544271 -14.550192  L 292.72212 -14.550192  L 290.89997 -14.550192  L 289.07782 -14.550192  L 287.25567 -14.550192  L 285.43352 -14.550192  L 283.611369 -14.550192  L 281.789219 -14.550192  L 279.967069 -14.550192  L 278.144919 -14.550192  L 276.322769 -14.550192  L 274.500618 -14.550192  L 272.678468 -14.550192  L 270.856318 -14.550192  L 269.034168 -14.550192  L 267.212018 -14.550192  L 265.389868 -14.550192  L 263.567717 -14.550192  L 261.745567 -14.550192  L 259.923417 -14.550192  L 258.101267 -14.550192  L 256.279117 -14.550192  L 254.456966 -14.550192  L 252.634816 -14.550192  L 250.812666 -14.550192  L 248.990516 -14.550192  L 247.168366 -14.550192  L 245.346215 -14.550192  L 243.524065 -14.550192  L 241.701915 -14.550192  L 239.879765 -14.550192  L 238.057615 -14.550192  L 236.235464 -14.550192  L 234.413314 -14.550192  L 232.591164 -14.550192  L 230.769014 -14.550192  L 228.946864 -14.550192  L 227.124714 -14.550192  L 225.302563 -14.550192  L 223.480413 -14.550192  L 221.658263 -14.550192  L 219.836113 -14.550192  L 218.013963 -14.550192  L 216.191812 -14.550192  L 214.369662 -14.550192  L 212.547512 -14.550192  L 210.725362 -14.550192  L 208.903212 -14.550192  L 207.081061 -14.550192  L 205.258911 -14.550192  L 203.436761 -14.550192  L 201.614611 -14.550192  L 199.792461 -14.550192  L 197.97031 -14.550192  L 196.14816 -14.550192  L 194.32601 -14.550192  L 192.50386 -14.550192  L 190.68171 -14.550192  L 188.85956 -14.550192  L 187.037409 -14.550192  L 185.215259 -14.550192  L 183.393109 -14.550192  L 181.570959 -14.550192  L 179.748809 -14.550192  L 177.926658 -14.550192  L 176.104508 -14.550192  L 174.282358 -14.550192  L 172.460208 -14.550192  L 170.638058 -14.550192  L 168.815907 -14.550192  L 166.993757 -14.550192  L 165.171607 -14.550192  L 163.349457 -14.550192  L 161.527307 -14.550192  L 159.705156 -14.550192  L 157.883006 -14.550192  L 156.060856 -14.550192  L 154.238706 -14.550192  L 152.416556 -14.550192  L 150.594405 -14.550192  L 148.772255 -14.550192  L 146.950105 -14.550192  L 145.127955 -14.550192  L 143.305805 -14.550192  L 141.483655 -14.550192  L 139.661504 -14.550192  L 137.839354 -14.550192  L 136.017204 -14.550192  L 134.195054 -14.550192  L 132.372904 -14.550192  L 130.550753 -14.550192  L 128.728603 -14.550192  L 126.906453 -14.550192  L 125.084303 -14.550192  L 123.262153 -14.550192  L 121.440002 -14.550192  L 119.617852 -14.550192  L 117.795702 -14.550192  L 115.973552 -14.550192  L 114.151402 -14.550192  L 112.329251 -14.550192  L 110.507101 -14.550192  L 108.684951 -14.550192  L 106.862801 -14.550192  L 105.040651 -14.550192  L 103.218501 -14.550192  L 101.39635 -14.550192  L 99.5742 -14.550192  L 97.75205 -14.550192  L 95.9299 -14.550192  L 94.10775 -14.550192  L 92.285599 -14.550192  L 90.463449 -14.550192  L 88.641299 -14.550192  L 86.819149 -14.550192  L 84.996999 -14.550192  L 83.174848 -14.550192  L 81.352698 -14.550192  L 79.530548 -14.550192  L 77.708398 -14.550192  L 75.886248 -14.550192  L 74.064097 -14.550192  L 72.241947 -14.550192  L 70.419797 -14.550192  L 68.597647 -14.550192  L 66.775497 -14.550192  L 64.953347 -14.550192  L 63.131196 -14.550192  L 61.309046 -14.550192  L 59.486896 -14.550192  L 57.664746 -14.550192  L 55.842596 -14.550192  L 54.020445 -14.550192  L 52.198295 -14.550192  L 50.376145 -14.550192  L 48.553995 -14.550192  L 46.731845 -14.550192  L 44.909694 -14.550192  L 43.087544 -14.550192  L 41.265394 -14.550192  L 39.443244 -14.550192  L 37.621094 -14.550192  L 35.798943 -14.550192  L 33.976793 -14.550192  L 32.154643 -14.550192  L 30.332493 -14.550192  L 28.510343 -14.550192  L 26.688192 -14.550192  L 24.866042 -14.550192  L 23.043892 -14.550192  L 21.221742 -14.550192  L 19.399592 -14.550192  L 17.577442 -14.550192  L 15.755291 -14.550192  L 13.933141 -14.550192  L 12.110991 -14.550192  L 10.288841 -14.550192  L 8.466691 -14.550192  L 6.64454 -14.550192  L 4.82239 -14.550192  L 3.00024 -14.550192  z " style="stroke: #d2691e; stroke-opacity: 0.2"/>
    </defs>
    <g clip-path="url(#p189a6d32fe)">
     <use xlink:href="#ma1df84c74e" x="0" y="121.5" style="fill: #d2691e; fill-opacity: 0.2; stroke: #d2691e; stroke-opacity: 0.2"/>
    </g>
   </g>
   <g id="patch_3">
    <path d="M 8.626151 47.200048  Q 23.383599 47.200048 38.141048 47.200048  L 38.141048 44.200048  Q 43.140588 46.700048 48.140129 49.200048  Q 43.140588 51.700048 38.141048 54.200048  L 38.141048 51.200048  Q 23.383599 51.200048 8.626151 51.200048  L 8.626151 47.200048  z " clip-path="url(#p189a6d32fe)" style="fill: #b0e0e6; stroke: #000000; stroke-linecap: round"/>
   </g>
   <g id="matplotlib.axis_1"/>
   <g id="matplotlib.axis_2"/>
   <g id="line2d_1">
    <path d="M 3.00024 106.949808  L 365.608128 106.949808  L 365.608128 106.949808  " clip-path="url(#p189a6d32fe)" style="fill: none; stroke: #d2691e; stroke-width: 1.5; stroke-linecap: square"/>
   </g>
   <g id="patch_4">
    <path d="M 3.00024 118.49976  L 3.00024 3.00024  " style="fill: none; stroke: #000000; stroke-width: 0.8; stroke-linejoin: miter; stroke-linecap: square"/>
   </g>
   <g id="patch_5">
    <path d="M 365.608128 118.49976  L 365.608128 3.00024  " style="fill: none; stroke: #000000; stroke-width: 0.8; stroke-linejoin: miter; stroke-linecap: square"/>
   </g>
   <g id="patch_6">
    <path d="M 3.00024 118.49976  L 365.608128 118.49976  " style="fill: none; stroke: #000000; stroke-width: 0.8; stroke-linejoin: miter; stroke-linecap: square"/>
   </g>
   <g id="patch_7">
    <path d="M 3.00024 3.00024  L 365.608128 3.00024  " style="fill: none; stroke: #000000; stroke-width: 0.8; stroke-linejoin: miter; stroke-linecap: square"/>
   </g>
   <g id="text_1">
    <!-- Wind -->
    <g transform="translate(7.714143 41.115082) scale(0.11 -0.11)">
     <defs>
      <path id="Roboto-Regular-57" d="M 5541 4550  L 4441 0  L 3894 0  L 2956 3316  L 2884 3663  L 2813 3316  L 1841 0  L 1294 0  L 191 4550  L 791 4550  L 1509 1438  L 1600 834  L 1725 1375  L 2628 4550  L 3131 4550  L 4009 1375  L 4138 822  L 4234 1441  L 4938 4550  L 5541 4550  z " transform="scale(0.015625)"/>
      <path id="Roboto-Regular-69" d="M 444 4278  Q 444 4419 530 4516  Q 616 4613 784 4613  Q 950 4613 1039 4516  Q 1128 4419 1128 4278  Q 1128 4144 1039 4048  Q 950 3953 784 3953  Q 616 3953 530 4048  Q 444 4144 444 4278  z M 1069 3381  L 1069 0  L 488 0  L 488 3381  L 1069 3381  z " transform="scale(0.015625)"/>
      <path id="Roboto-Regular-6e" d="M 1844 2956  Q 1566 2956 1353 2806  Q 1141 2656 1019 2416  L 1019 0  L 441 0  L 441 3381  L 988 3381  L 1006 2959  Q 1391 3444 2016 3444  Q 2513 3444 2805 3166  Q 3097 2888 3100 2231  L 3100 0  L 2519 0  L 2519 2222  Q 2519 2619 2345 2787  Q 2172 2956 1844 2956  z " transform="scale(0.015625)"/>
      <path id="Roboto-Regular-64" d="M 2622 0  L 2594 363  Q 2247 -63 1628 -63  Q 1034 -63 668 418  Q 303 900 297 1628  L 297 1719  Q 297 2494 664 2969  Q 1031 3444 1634 3444  Q 2231 3444 2572 3044  L 2572 4800  L 3153 4800  L 3153 0  L 2622 0  z M 878 1653  Q 878 1150 1090 789  Q 1303 428 1772 428  Q 2309 428 2572 919  L 2572 2475  Q 2313 2956 1778 2956  Q 1306 2956 1092 2589  Q 878 2222 878 1719  L 878 1653  z " transform="scale(0.015625)"/>
     </defs>
     <use xlink:href="#Roboto-Regular-57"/>
     <use xlink:href="#Roboto-Regular-69" x="88.720703"/>
     <use xlink:href="#Roboto-Regular-6e" x="113.037109"/>
     <use xlink:href="#Roboto-Regular-64" x="168.261719"/>
    </g>
   </g>
  </g>
 </g>
 <defs>
  <clipPath id="p189a6d32fe">
   <rect x="3.00024" y="3.00024" width="362.607888" height="115.49952"/>
  </clipPath>
 </defs>
</svg>
