<?xml version='1.0' encoding='ASCII' standalone='yes'?>
<svg xmlns:xlink="http://www.w3.org/1999/xlink" xmlns="http://www.w3.org/2000/svg" width="688.068954pt" height="273.375pt" viewBox="0 0 344.034477 136.6875" version="1.1">
 <metadata>
  <rdf:RDF xmlns:dc="http://purl.org/dc/elements/1.1/" xmlns:cc="http://creativecommons.org/ns#" xmlns:rdf="http://www.w3.org/1999/02/22-rdf-syntax-ns#">
   <cc:Work>
    <dc:type rdf:resource="http://purl.org/dc/dcmitype/StillImage"/>
    <dc:date>2023-12-10T15:37:05.958886</dc:date>
    <dc:format>image/svg+xml</dc:format>
    <dc:creator>
     <cc:Agent>
      <dc:title>Matplotlib v3.8.0, https://matplotlib.org/</dc:title>
     </cc:Agent>
    </dc:creator>
   </cc:Work>
  </rdf:RDF>
 </metadata>
 <defs>
  <style type="text/css">*{stroke-linejoin: round; stroke-linecap: butt}</style>
 </defs>
 <g id="figure_1">
  <g id="patch_1">
   <path d="M 0 136.6875  L 344.034477 136.6875  L 344.034477 0  L 0 0  z " style="fill: #ffffff"/>
  </g>
  <g id="axes_1">
   <g id="patch_2">
    <path d="M 30.78899 106.89476  L 341.034237 106.89476  L 341.034237 3.00024  L 30.78899 3.00024  z " style="fill: #ffffff"/>
   </g>
   <g id="matplotlib.axis_1">
    <g id="xtick_1">
     <g id="line2d_1">
      <defs>
       <path id="m8a4d328be7" d="M 0 0  L 0 3.5  " style="stroke: #000000; stroke-width: 0.8"/>
      </defs>
      <g>
       <use xlink:href="#m8a4d328be7" x="46.577552" y="106.89476" style="stroke: #000000; stroke-width: 0.8"/>
      </g>
     </g>
     <g id="text_1">
      <!-- 200 -->
      <g transform="translate(39.833177 119.89476) scale(0.08 -0.08)">
       <defs>
        <path id="Roboto-Regular-32" d="M 3359 475  L 3359 0  L 381 0  L 381 416  L 1925 2134  Q 2306 2566 2439 2819  Q 2572 3072 2572 3328  Q 2572 3663 2364 3900  Q 2156 4138 1778 4138  Q 1322 4138 1097 3878  Q 872 3619 872 3213  L 294 3213  Q 294 3788 672 4200  Q 1050 4613 1778 4613  Q 2422 4613 2786 4278  Q 3150 3944 3150 3397  Q 3150 2997 2903 2592  Q 2656 2188 2297 1797  L 1078 475  L 3359 475  z " transform="scale(0.015625)"/>
        <path id="Roboto-Regular-30" d="M 3234 1944  Q 3234 825 2848 381  Q 2463 -63 1800 -63  Q 1156 -63 764 368  Q 372 800 359 1872  L 359 2638  Q 359 3753 750 4183  Q 1141 4613 1794 4613  Q 2447 4613 2834 4195  Q 3222 3778 3234 2709  L 3234 1944  z M 2653 2734  Q 2653 3503 2434 3822  Q 2216 4141 1794 4141  Q 1388 4141 1167 3831  Q 947 3522 941 2778  L 941 1850  Q 941 1088 1164 750  Q 1388 413 1800 413  Q 2222 413 2436 745  Q 2650 1078 2653 1825  L 2653 2734  z " transform="scale(0.015625)"/>
       </defs>
       <use xlink:href="#Roboto-Regular-32"/>
       <use xlink:href="#Roboto-Regular-30" x="56.201172"/>
       <use xlink:href="#Roboto-Regular-30" x="112.402344"/>
      </g>
     </g>
    </g>
    <g id="xtick_2">
     <g id="line2d_2">
      <g>
       <use xlink:href="#m8a4d328be7" x="86.048958" y="106.89476" style="stroke: #000000; stroke-width: 0.8"/>
      </g>
     </g>
     <g id="text_2">
      <!-- 300 -->
      <g transform="translate(79.304583 119.89476) scale(0.08 -0.08)">
       <defs>
        <path id="Roboto-Regular-33" d="M 1222 2084  L 1222 2559  L 1647 2559  Q 2094 2563 2312 2784  Q 2531 3006 2531 3338  Q 2531 4138 1738 4138  Q 1369 4138 1141 3927  Q 913 3716 913 3359  L 334 3359  Q 334 3881 720 4247  Q 1106 4613 1738 4613  Q 2353 4613 2733 4286  Q 3113 3959 3113 3325  Q 3113 3072 2942 2784  Q 2772 2497 2397 2338  Q 2850 2191 3015 1884  Q 3181 1578 3181 1269  Q 3181 631 2768 284  Q 2356 -63 1741 -63  Q 1147 -63 722 267  Q 297 597 297 1203  L 875 1203  Q 875 844 1108 628  Q 1341 413 1741 413  Q 2138 413 2369 622  Q 2600 831 2600 1256  Q 2600 1681 2337 1882  Q 2075 2084 1634 2084  L 1222 2084  z " transform="scale(0.015625)"/>
       </defs>
       <use xlink:href="#Roboto-Regular-33"/>
       <use xlink:href="#Roboto-Regular-30" x="56.201172"/>
       <use xlink:href="#Roboto-Regular-30" x="112.402344"/>
      </g>
     </g>
    </g>
    <g id="xtick_3">
     <g id="line2d_3">
      <g>
       <use xlink:href="#m8a4d328be7" x="125.520363" y="106.89476" style="stroke: #000000; stroke-width: 0.8"/>
      </g>
     </g>
     <g id="text_3">
      <!-- 400 -->
      <g transform="translate(118.775988 119.89476) scale(0.08 -0.08)">
       <defs>
        <path id="Roboto-Regular-34" d="M 166 1397  L 2203 4550  L 2819 4550  L 2819 1531  L 3453 1531  L 3453 1056  L 2819 1056  L 2819 0  L 2241 0  L 2241 1056  L 166 1056  L 166 1397  z M 822 1531  L 2241 1531  L 2241 3766  L 2169 3638  L 822 1531  z " transform="scale(0.015625)"/>
       </defs>
       <use xlink:href="#Roboto-Regular-34"/>
       <use xlink:href="#Roboto-Regular-30" x="56.201172"/>
       <use xlink:href="#Roboto-Regular-30" x="112.402344"/>
      </g>
     </g>
    </g>
    <g id="xtick_4">
     <g id="line2d_4">
      <g>
       <use xlink:href="#m8a4d328be7" x="164.991769" y="106.89476" style="stroke: #000000; stroke-width: 0.8"/>
      </g>
     </g>
     <g id="text_4">
      <!-- 500 -->
      <g transform="translate(158.247394 119.89476) scale(0.08 -0.08)">
       <defs>
        <path id="Roboto-Regular-35" d="M 1109 2166  L 647 2284  L 875 4550  L 3209 4550  L 3209 4016  L 1366 4016  L 1228 2778  Q 1572 2975 1988 2975  Q 2616 2975 2980 2561  Q 3344 2147 3344 1450  Q 3344 797 2987 367  Q 2631 -63 1903 -63  Q 1350 -63 947 248  Q 544 559 481 1197  L 1031 1197  Q 1141 413 1903 413  Q 2313 413 2538 691  Q 2763 969 2763 1444  Q 2763 1872 2527 2164  Q 2291 2456 1853 2456  Q 1563 2456 1413 2378  Q 1263 2300 1109 2166  z " transform="scale(0.015625)"/>
       </defs>
       <use xlink:href="#Roboto-Regular-35"/>
       <use xlink:href="#Roboto-Regular-30" x="56.201172"/>
       <use xlink:href="#Roboto-Regular-30" x="112.402344"/>
      </g>
     </g>
    </g>
    <g id="xtick_5">
     <g id="line2d_5">
      <g>
       <use xlink:href="#m8a4d328be7" x="204.463174" y="106.89476" style="stroke: #000000; stroke-width: 0.8"/>
      </g>
     </g>
     <g id="text_5">
      <!-- 600 -->
      <g transform="translate(197.718799 119.89476) scale(0.08 -0.08)">
       <defs>
        <path id="Roboto-Regular-36" d="M 3291 1484  Q 3291 838 2930 387  Q 2569 -63 1878 -63  Q 1388 -63 1063 198  Q 738 459 577 861  Q 416 1263 416 1684  L 416 1956  Q 416 2597 595 3194  Q 775 3791 1247 4173  Q 1719 4556 2597 4556  L 2647 4556  L 2647 4066  Q 2041 4066 1705 3853  Q 1369 3641 1205 3302  Q 1041 2963 1006 2575  Q 1369 2984 1984 2984  Q 2438 2984 2727 2765  Q 3016 2547 3153 2201  Q 3291 1856 3291 1484  z M 997 1666  Q 997 1059 1267 737  Q 1538 416 1878 416  Q 2278 416 2498 708  Q 2719 1000 2719 1456  Q 2719 1863 2516 2184  Q 2313 2506 1891 2506  Q 1588 2506 1341 2325  Q 1094 2144 997 1884  L 997 1666  z " transform="scale(0.015625)"/>
       </defs>
       <use xlink:href="#Roboto-Regular-36"/>
       <use xlink:href="#Roboto-Regular-30" x="56.201172"/>
       <use xlink:href="#Roboto-Regular-30" x="112.402344"/>
      </g>
     </g>
    </g>
    <g id="xtick_6">
     <g id="line2d_6">
      <g>
       <use xlink:href="#m8a4d328be7" x="243.934579" y="106.89476" style="stroke: #000000; stroke-width: 0.8"/>
      </g>
     </g>
     <g id="text_6">
      <!-- 700 -->
      <g transform="translate(237.190204 119.89476) scale(0.08 -0.08)">
       <defs>
        <path id="Roboto-Regular-37" d="M 3319 4550  L 3319 4225  L 1434 0  L 825 0  L 2706 4075  L 244 4075  L 244 4550  L 3319 4550  z " transform="scale(0.015625)"/>
       </defs>
       <use xlink:href="#Roboto-Regular-37"/>
       <use xlink:href="#Roboto-Regular-30" x="56.201172"/>
       <use xlink:href="#Roboto-Regular-30" x="112.402344"/>
      </g>
     </g>
    </g>
    <g id="xtick_7">
     <g id="line2d_7">
      <g>
       <use xlink:href="#m8a4d328be7" x="283.405985" y="106.89476" style="stroke: #000000; stroke-width: 0.8"/>
      </g>
     </g>
     <g id="text_7">
      <!-- 800 -->
      <g transform="translate(276.66161 119.89476) scale(0.08 -0.08)">
       <defs>
        <path id="Roboto-Regular-38" d="M 3244 1231  Q 3244 606 2826 271  Q 2409 -63 1796 -63  Q 1184 -63 767 271  Q 350 606 350 1231  Q 350 1613 554 1905  Q 759 2197 1109 2347  Q 806 2494 629 2762  Q 453 3031 453 3366  Q 453 3963 833 4288  Q 1213 4613 1794 4613  Q 2378 4613 2758 4288  Q 3138 3963 3138 3366  Q 3138 3028 2956 2761  Q 2775 2494 2472 2347  Q 2825 2197 3034 1903  Q 3244 1609 3244 1231  z M 2559 3356  Q 2559 3697 2346 3917  Q 2134 4138 1793 4138  Q 1453 4138 1243 3927  Q 1034 3716 1034 3356  Q 1034 3003 1243 2790  Q 1453 2578 1797 2578  Q 2138 2578 2348 2790  Q 2559 3003 2559 3356  z M 2663 1244  Q 2663 1625 2420 1865  Q 2178 2106 1791 2106  Q 1394 2106 1161 1865  Q 928 1625 928 1244  Q 928 850 1161 631  Q 1394 413 1797 413  Q 2200 413 2431 631  Q 2663 850 2663 1244  z " transform="scale(0.015625)"/>
       </defs>
       <use xlink:href="#Roboto-Regular-38"/>
       <use xlink:href="#Roboto-Regular-30" x="56.201172"/>
       <use xlink:href="#Roboto-Regular-30" x="112.402344"/>
      </g>
     </g>
    </g>
    <g id="xtick_8">
     <g id="line2d_8">
      <g>
       <use xlink:href="#m8a4d328be7" x="322.87739" y="106.89476" style="stroke: #000000; stroke-width: 0.8"/>
      </g>
     </g>
     <g id="text_8">
      <!-- 900 -->
      <g transform="translate(316.133015 119.89476) scale(0.08 -0.08)">
       <defs>
        <path id="Roboto-Regular-39" d="M 3175 2563  Q 3175 2119 3098 1667  Q 3022 1216 2801 836  Q 2581 456 2151 225  Q 1722 -6 953 -6  L 953 484  Q 1644 484 1980 700  Q 2316 916 2448 1264  Q 2581 1613 2597 2006  Q 2416 1791 2162 1656  Q 1909 1522 1613 1522  Q 1163 1522 875 1747  Q 588 1972 450 2320  Q 313 2669 313 3041  Q 313 3691 670 4152  Q 1028 4613 1725 4613  Q 2244 4613 2564 4344  Q 2884 4075 3029 3653  Q 3175 3231 3175 2772  L 3175 2563  z M 881 3072  Q 881 2666 1086 2334  Q 1291 2003 1706 2003  Q 2003 2003 2245 2181  Q 2488 2359 2600 2622  L 2600 2850  Q 2600 3472 2336 3803  Q 2072 4134 1725 4134  Q 1322 4134 1101 3829  Q 881 3525 881 3072  z " transform="scale(0.015625)"/>
       </defs>
       <use xlink:href="#Roboto-Regular-39"/>
       <use xlink:href="#Roboto-Regular-30" x="56.201172"/>
       <use xlink:href="#Roboto-Regular-30" x="112.402344"/>
      </g>
     </g>
    </g>
    <g id="text_9">
     <!-- Distance along profile [m] -->
     <g transform="translate(140.510363 132.01976) scale(0.08 -0.08)">
      <defs>
       <path id="Roboto-Regular-44" d="M 528 0  L 528 4550  L 1816 4550  Q 2713 4550 3267 3973  Q 3822 3397 3822 2409  L 3822 2138  Q 3822 1150 3264 575  Q 2706 0 1759 0  L 528 0  z M 1131 4056  L 1131 491  L 1759 491  Q 2488 491 2856 941  Q 3225 1391 3225 2138  L 3225 2416  Q 3225 3200 2856 3628  Q 2488 4056 1816 4056  L 1131 4056  z " transform="scale(0.015625)"/>
       <path id="Roboto-Regular-69" d="M 444 4278  Q 444 4419 530 4516  Q 616 4613 784 4613  Q 950 4613 1039 4516  Q 1128 4419 1128 4278  Q 1128 4144 1039 4048  Q 950 3953 784 3953  Q 616 3953 530 4048  Q 444 4144 444 4278  z M 1069 3381  L 1069 0  L 488 0  L 488 3381  L 1069 3381  z " transform="scale(0.015625)"/>
       <path id="Roboto-Regular-73" d="M 2409 897  Q 2409 1081 2273 1229  Q 2138 1378 1647 1478  Q 1081 1594 747 1814  Q 413 2034 413 2456  Q 413 2856 755 3150  Q 1097 3444 1666 3444  Q 2272 3444 2612 3134  Q 2953 2825 2953 2388  L 2375 2388  Q 2375 2597 2190 2783  Q 2006 2969 1666 2969  Q 1306 2969 1150 2812  Q 994 2656 994 2472  Q 994 2288 1139 2173  Q 1284 2059 1756 1953  Q 2378 1813 2683 1584  Q 2988 1356 2988 941  Q 2988 494 2630 215  Q 2272 -63 1681 -63  Q 1009 -63 653 281  Q 297 625 297 1044  L 878 1044  Q 897 684 1155 548  Q 1413 413 1681 413  Q 2034 413 2221 550  Q 2409 688 2409 897  z " transform="scale(0.015625)"/>
       <path id="Roboto-Regular-74" d="M 1872 0  Q 1675 -63 1425 -63  Q 1103 -63 875 134  Q 647 331 647 841  L 647 2938  L 28 2938  L 28 3381  L 647 3381  L 647 4203  L 1225 4203  L 1225 3381  L 1856 3381  L 1856 2938  L 1225 2938  L 1225 838  Q 1225 578 1337 506  Q 1450 434 1597 434  Q 1706 434 1869 472  L 1872 0  z " transform="scale(0.015625)"/>
       <path id="Roboto-Regular-61" d="M 2528 0  Q 2472 122 2447 356  Q 2284 184 2040 60  Q 1797 -63 1484 -63  Q 966 -63 653 228  Q 341 519 341 941  Q 341 1484 753 1767  Q 1166 2050 1863 2050  L 2434 2050  L 2434 2319  Q 2434 2619 2254 2798  Q 2075 2978 1722 2978  Q 1394 2978 1192 2817  Q 991 2656 991 2444  L 413 2444  Q 413 2806 778 3125  Q 1144 3444 1756 3444  Q 2306 3444 2659 3162  Q 3013 2881 3013 2313  L 3013 794  Q 3013 325 3131 50  L 3131 0  L 2528 0  z M 1569 444  Q 1881 444 2111 600  Q 2341 756 2434 947  L 2434 1644  L 1897 1644  Q 922 1625 922 1019  Q 922 778 1084 611  Q 1247 444 1569 444  z " transform="scale(0.015625)"/>
       <path id="Roboto-Regular-6e" d="M 1844 2956  Q 1566 2956 1353 2806  Q 1141 2656 1019 2416  L 1019 0  L 441 0  L 441 3381  L 988 3381  L 1006 2959  Q 1391 3444 2016 3444  Q 2513 3444 2805 3166  Q 3097 2888 3100 2231  L 3100 0  L 2519 0  L 2519 2222  Q 2519 2619 2345 2787  Q 2172 2956 1844 2956  z " transform="scale(0.015625)"/>
       <path id="Roboto-Regular-63" d="M 1794 413  Q 2103 413 2336 597  Q 2569 781 2591 1069  L 3141 1069  Q 3119 616 2725 276  Q 2331 -63 1794 -63  Q 1031 -63 661 440  Q 291 944 291 1625  L 291 1756  Q 291 2438 661 2941  Q 1031 3444 1794 3444  Q 2388 3444 2753 3092  Q 3119 2741 3141 2219  L 2591 2219  Q 2569 2531 2355 2750  Q 2141 2969 1794 2969  Q 1438 2969 1236 2787  Q 1034 2606 951 2328  Q 869 2050 869 1756  L 869 1625  Q 869 1328 950 1050  Q 1031 772 1232 592  Q 1434 413 1794 413  z " transform="scale(0.015625)"/>
       <path id="Roboto-Regular-65" d="M 3116 591  Q 2950 341 2647 139  Q 2344 -63 1844 -63  Q 1138 -63 714 396  Q 291 856 291 1572  L 291 1703  Q 291 2256 502 2645  Q 713 3034 1050 3239  Q 1388 3444 1769 3444  Q 2494 3444 2826 2970  Q 3159 2497 3159 1788  L 3159 1528  L 872 1528  Q 884 1063 1148 736  Q 1413 409 1875 409  Q 2181 409 2393 534  Q 2606 659 2766 869  L 3116 591  z M 1769 2969  Q 1425 2969 1187 2719  Q 950 2469 891 2000  L 2581 2000  L 2581 2044  Q 2559 2381 2386 2675  Q 2213 2969 1769 2969  z " transform="scale(0.015625)"/>
       <path id="Roboto-Regular-20" transform="scale(0.015625)"/>
       <path id="Roboto-Regular-6c" d="M 1069 4800  L 1069 0  L 488 0  L 488 4800  L 1069 4800  z " transform="scale(0.015625)"/>
       <path id="Roboto-Regular-6f" d="M 288 1725  Q 288 2459 700 2951  Q 1113 3444 1822 3444  Q 2531 3444 2943 2961  Q 3356 2478 3366 1756  L 3366 1653  Q 3366 919 2952 428  Q 2538 -63 1828 -63  Q 1116 -63 702 428  Q 288 919 288 1653  L 288 1725  z M 866 1653  Q 866 1150 1105 781  Q 1344 413 1828 413  Q 2300 413 2540 777  Q 2781 1141 2784 1644  L 2784 1725  Q 2784 2222 2543 2595  Q 2303 2969 1822 2969  Q 1344 2969 1105 2595  Q 866 2222 866 1725  L 866 1653  z " transform="scale(0.015625)"/>
       <path id="Roboto-Regular-67" d="M 1725 -1334  Q 1463 -1334 1081 -1206  Q 700 -1078 472 -747  L 775 -403  Q 1150 -859 1681 -859  Q 2091 -859 2334 -629  Q 2578 -400 2578 44  L 2578 341  Q 2234 -63 1631 -63  Q 1022 -63 662 425  Q 303 913 303 1653  L 303 1719  Q 303 2494 661 2969  Q 1019 3444 1638 3444  Q 2259 3444 2603 3006  L 2631 3381  L 3156 3381  L 3156 72  Q 3156 -600 2756 -967  Q 2356 -1334 1725 -1334  z M 881 1653  Q 881 1150 1092 789  Q 1303 428 1772 428  Q 2322 428 2578 928  L 2578 2469  Q 2469 2678 2275 2817  Q 2081 2956 1778 2956  Q 1306 2956 1093 2589  Q 881 2222 881 1719  L 881 1653  z " transform="scale(0.015625)"/>
       <path id="Roboto-Regular-70" d="M 1984 -63  Q 1375 -63 1019 328  L 1019 -1300  L 438 -1300  L 438 3381  L 969 3381  L 997 3009  Q 1353 3444 1975 3444  Q 2616 3444 2956 2969  Q 3297 2494 3297 1719  L 3297 1653  Q 3297 913 2955 425  Q 2613 -63 1984 -63  z M 1806 2956  Q 1281 2956 1019 2491  L 1019 872  Q 1284 413 1813 413  Q 2281 413 2498 781  Q 2716 1150 2716 1653  L 2716 1719  Q 2716 2222 2498 2589  Q 2281 2956 1806 2956  z " transform="scale(0.015625)"/>
       <path id="Roboto-Regular-72" d="M 1791 2888  Q 1225 2888 1019 2400  L 1019 0  L 441 0  L 441 3381  L 1003 3381  L 1016 2994  Q 1294 3444 1819 3444  Q 1981 3444 2075 3400  L 2072 2863  Q 1944 2888 1791 2888  z " transform="scale(0.015625)"/>
       <path id="Roboto-Regular-66" d="M 2022 2938  L 1303 2938  L 1303 0  L 725 0  L 725 2938  L 191 2938  L 191 3381  L 725 3381  L 725 3759  Q 731 4297 1026 4581  Q 1322 4866 1834 4866  Q 2025 4866 2234 4816  L 2203 4344  Q 2072 4372 1891 4372  Q 1313 4372 1303 3756  L 1303 3381  L 2022 3381  L 2022 2938  z " transform="scale(0.015625)"/>
       <path id="Roboto-Regular-5b" d="M 1634 5200  L 1634 4725  L 1038 4725  L 1038 -500  L 1634 -500  L 1634 -975  L 459 -975  L 459 5200  L 1634 5200  z " transform="scale(0.015625)"/>
       <path id="Roboto-Regular-6d" d="M 1794 2956  Q 1225 2956 1016 2478  L 1016 0  L 434 0  L 434 3381  L 984 3381  L 1000 3013  Q 1366 3444 2000 3444  Q 2325 3444 2579 3314  Q 2834 3184 2969 2900  Q 3138 3144 3408 3294  Q 3678 3444 4044 3444  Q 4588 3444 4883 3153  Q 5178 2863 5178 2222  L 5178 0  L 4597 0  L 4597 2228  Q 4597 2653 4401 2804  Q 4206 2956 3875 2956  Q 3525 2956 3325 2748  Q 3125 2541 3094 2244  L 3094 0  L 2516 0  L 2516 2225  Q 2516 2622 2319 2789  Q 2122 2956 1794 2956  z " transform="scale(0.015625)"/>
       <path id="Roboto-Regular-5d" d="M 31 4725  L 31 5200  L 1213 5200  L 1213 -975  L 31 -975  L 31 -500  L 631 -500  L 631 4725  L 31 4725  z " transform="scale(0.015625)"/>
      </defs>
      <use xlink:href="#Roboto-Regular-44"/>
      <use xlink:href="#Roboto-Regular-69" x="65.625"/>
      <use xlink:href="#Roboto-Regular-73" x="89.941406"/>
      <use xlink:href="#Roboto-Regular-74" x="141.552734"/>
      <use xlink:href="#Roboto-Regular-61" x="174.267578"/>
      <use xlink:href="#Roboto-Regular-6e" x="228.662109"/>
      <use xlink:href="#Roboto-Regular-63" x="283.886719"/>
      <use xlink:href="#Roboto-Regular-65" x="336.230469"/>
      <use xlink:href="#Roboto-Regular-20" x="389.257812"/>
      <use xlink:href="#Roboto-Regular-61" x="414.0625"/>
      <use xlink:href="#Roboto-Regular-6c" x="468.457031"/>
      <use xlink:href="#Roboto-Regular-6f" x="492.773438"/>
      <use xlink:href="#Roboto-Regular-6e" x="549.804688"/>
      <use xlink:href="#Roboto-Regular-67" x="605.029297"/>
      <use xlink:href="#Roboto-Regular-20" x="661.181641"/>
      <use xlink:href="#Roboto-Regular-70" x="685.986328"/>
      <use xlink:href="#Roboto-Regular-72" x="742.138672"/>
      <use xlink:href="#Roboto-Regular-6f" x="776.025391"/>
      <use xlink:href="#Roboto-Regular-66" x="833.056641"/>
      <use xlink:href="#Roboto-Regular-69" x="867.822266"/>
      <use xlink:href="#Roboto-Regular-6c" x="892.138672"/>
      <use xlink:href="#Roboto-Regular-65" x="916.455078"/>
      <use xlink:href="#Roboto-Regular-20" x="969.482422"/>
      <use xlink:href="#Roboto-Regular-5b" x="994.287109"/>
      <use xlink:href="#Roboto-Regular-6d" x="1020.800781"/>
      <use xlink:href="#Roboto-Regular-5d" x="1108.496094"/>
     </g>
    </g>
   </g>
   <g id="matplotlib.axis_2">
    <g id="ytick_1">
     <g id="line2d_9">
      <defs>
       <path id="m0bc5b5df43" d="M 0 0  L -3.5 0  " style="stroke: #000000; stroke-width: 0.8"/>
      </defs>
      <g>
       <use xlink:href="#m0bc5b5df43" x="30.78899" y="86.26193" style="stroke: #000000; stroke-width: 0.8"/>
      </g>
     </g>
     <g id="text_10">
      <!-- &#8722;4 -->
      <g transform="translate(14.71899 89.26193) scale(0.08 -0.08)">
       <defs>
        <path id="Roboto-Regular-2212" d="M 3134 2509  L 3134 2034  L 525 2034  L 525 2509  L 3134 2509  z " transform="scale(0.015625)"/>
       </defs>
       <use xlink:href="#Roboto-Regular-2212"/>
       <use xlink:href="#Roboto-Regular-34" x="57.177734"/>
      </g>
     </g>
    </g>
    <g id="ytick_2">
     <g id="line2d_10">
      <g>
       <use xlink:href="#m0bc5b5df43" x="30.78899" y="46.699161" style="stroke: #000000; stroke-width: 0.8"/>
      </g>
     </g>
     <g id="text_11">
      <!-- 0 -->
      <g transform="translate(19.29274 49.699161) scale(0.08 -0.08)">
       <use xlink:href="#Roboto-Regular-30"/>
      </g>
     </g>
    </g>
    <g id="ytick_3">
     <g id="line2d_11">
      <g>
       <use xlink:href="#m0bc5b5df43" x="30.78899" y="7.136392" style="stroke: #000000; stroke-width: 0.8"/>
      </g>
     </g>
     <g id="text_12">
      <!-- 4 -->
      <g transform="translate(19.29274 10.136392) scale(0.08 -0.08)">
       <use xlink:href="#Roboto-Regular-34"/>
      </g>
     </g>
    </g>
    <g id="text_13">
     <!-- Bed elevation [m] -->
     <g transform="translate(9.09399 85.530625) rotate(-90) scale(0.08 -0.08)">
      <defs>
       <path id="Roboto-Regular-42" d="M 3625 1313  Q 3625 675 3214 337  Q 2803 0 2122 0  L 528 0  L 528 4550  L 2019 4550  Q 2719 4550 3111 4261  Q 3503 3972 3503 3338  Q 3503 3022 3323 2776  Q 3144 2531 2831 2397  Q 3216 2291 3420 1994  Q 3625 1697 3625 1313  z M 1131 4056  L 1131 2613  L 2038 2613  Q 2425 2613 2662 2806  Q 2900 3000 2900 3344  Q 2900 4041 2056 4056  L 1131 4056  z M 3025 1306  Q 3025 1688 2817 1908  Q 2609 2128 2150 2128  L 1131 2128  L 1131 491  L 2122 491  Q 2550 491 2787 711  Q 3025 931 3025 1306  z " transform="scale(0.015625)"/>
       <path id="Roboto-Regular-64" d="M 2622 0  L 2594 363  Q 2247 -63 1628 -63  Q 1034 -63 668 418  Q 303 900 297 1628  L 297 1719  Q 297 2494 664 2969  Q 1031 3444 1634 3444  Q 2231 3444 2572 3044  L 2572 4800  L 3153 4800  L 3153 0  L 2622 0  z M 878 1653  Q 878 1150 1090 789  Q 1303 428 1772 428  Q 2309 428 2572 919  L 2572 2475  Q 2313 2956 1778 2956  Q 1306 2956 1092 2589  Q 878 2222 878 1719  L 878 1653  z " transform="scale(0.015625)"/>
       <path id="Roboto-Regular-76" d="M 2984 3381  L 1769 0  L 1328 0  L 103 3381  L 697 3381  L 1556 791  L 2394 3381  L 2984 3381  z " transform="scale(0.015625)"/>
      </defs>
      <use xlink:href="#Roboto-Regular-42"/>
      <use xlink:href="#Roboto-Regular-65" x="62.304688"/>
      <use xlink:href="#Roboto-Regular-64" x="115.332031"/>
      <use xlink:href="#Roboto-Regular-20" x="171.728516"/>
      <use xlink:href="#Roboto-Regular-65" x="196.533203"/>
      <use xlink:href="#Roboto-Regular-6c" x="249.560547"/>
      <use xlink:href="#Roboto-Regular-65" x="273.876953"/>
      <use xlink:href="#Roboto-Regular-76" x="326.904297"/>
      <use xlink:href="#Roboto-Regular-61" x="375.341797"/>
      <use xlink:href="#Roboto-Regular-74" x="429.736328"/>
      <use xlink:href="#Roboto-Regular-69" x="462.451172"/>
      <use xlink:href="#Roboto-Regular-6f" x="486.767578"/>
      <use xlink:href="#Roboto-Regular-6e" x="543.798828"/>
      <use xlink:href="#Roboto-Regular-20" x="599.023438"/>
      <use xlink:href="#Roboto-Regular-5b" x="623.828125"/>
      <use xlink:href="#Roboto-Regular-6d" x="650.341797"/>
      <use xlink:href="#Roboto-Regular-5d" x="738.037109"/>
     </g>
    </g>
   </g>
   <g id="line2d_12">
    <path d="M 30.78899 46.138482  L 35.525559 46.212387  L 40.656841 46.531057  L 53.287691 47.473533  L 57.234832 47.475459  L 61.181972 47.254164  L 65.918541 46.748692  L 74.996964 45.709316  L 78.549391 45.558298  L 81.707103 45.632202  L 85.25953 45.957035  L 89.20667 46.559189  L 98.285093 48.065139  L 101.442806 48.3039  L 104.205804 48.291696  L 106.968803 48.055187  L 109.731801 47.608275  L 113.284227 46.799493  L 121.178508 44.890633  L 123.941507 44.501195  L 126.309791 44.384118  L 128.678076 44.49622  L 131.04636 44.84275  L 133.414644 45.405267  L 136.572357 46.41563  L 144.861352 49.273144  L 147.229636 49.770205  L 149.203206 49.973439  L 151.176777 49.956274  L 153.150347 49.706573  L 155.123917 49.227997  L 157.097487 48.540692  L 159.465772 47.492422  L 163.412912 45.448711  L 166.965339 43.68226  L 169.333623 42.761077  L 171.307193 42.246888  L 172.88605 42.039052  L 174.464906 42.032361  L 176.043762 42.236811  L 177.622618 42.65331  L 179.201475 43.273205  L 181.175045 44.305343  L 183.543329 45.844675  L 187.49047 48.77526  L 190.648182 50.992956  L 192.621752 52.114933  L 194.200609 52.788284  L 195.779465 53.218168  L 197.358321 53.373375  L 198.542463 53.296877  L 199.726605 53.050189  L 201.305462 52.457406  L 202.884318 51.575143  L 204.463174 50.429428  L 206.436744 48.687724  L 209.199743 45.862286  L 213.541597 41.323904  L 215.515168 39.582792  L 217.094024 38.472006  L 218.278166 37.84541  L 219.462308 37.421  L 220.64645 37.216811  L 221.830592 37.245936  L 223.014735 37.516018  L 224.198877 38.028858  L 225.383019 38.780163  L 226.567161 39.759431  L 228.146017 41.390067  L 229.724873 43.33984  L 232.093158 46.699161  L 238.013869 55.396816  L 239.592725 57.260701  L 240.776867 58.408437  L 241.961009 59.300239  L 243.145151 59.904279  L 244.329293 60.19489  L 245.118722 60.204989  L 245.90815 60.063713  L 247.092292 59.564014  L 248.276434 58.71987  L 249.460576 57.540331  L 250.644718 56.043283  L 252.223575 53.600481  L 253.802431 50.727262  L 256.170715 45.855375  L 260.907284 35.810861  L 262.48614 32.933105  L 264.064996 30.540457  L 265.249138 29.144357  L 266.433281 28.143621  L 267.222709 27.716048  L 268.012137 27.491398  L 268.801565 27.477025  L 269.590993 27.678095  L 270.380421 28.097482  L 271.169849 28.735674  L 271.959277 29.590717  L 273.143419 31.269493  L 274.327562 33.400162  L 275.511704 35.944885  L 277.09056 39.89441  L 279.06413 45.51229  L 285.379555 64.31742  L 286.958411 68.092968  L 288.142554 70.41786  L 289.326696 72.224323  L 290.116124 73.108285  L 290.905552 73.716827  L 291.69498 74.036559  L 292.484408 74.057016  L 293.273836 73.770843  L 294.063264 73.173952  L 294.852692 72.265647  L 295.642121 71.048709  L 296.826263 68.659396  L 298.010405 65.626926  L 299.194547 62.005156  L 300.773403 56.384004  L 302.746974 48.388371  L 309.062398 21.624019  L 310.641255 16.250479  L 311.825397 12.941583  L 313.009539 10.37054  L 313.798967 9.112442  L 314.588395 8.246337  L 315.377823 7.791279  L 316.167251 7.762164  L 316.95668 8.169459  L 317.746108 9.018982  L 318.535536 10.311725  L 319.324964 12.043729  L 320.114392 14.206008  L 321.298534 18.224132  L 322.482676 23.109263  L 324.061533 30.807651  L 326.035103 41.925584  L 329.192815 61.491236  L 331.955814 78.08988  L 333.53467 86.386387  L 334.718812 91.712663  L 335.902954 96.087899  L 336.692382 98.403777  L 337.48181 100.19436  L 338.271238 101.427042  L 339.060667 102.074702  L 339.455381 102.172282  L 339.850095 102.11614  L 340.244809 101.904616  L 340.639523 101.536459  L 340.639523 101.536459  " clip-path="url(#p662760c4cf)" style="fill: none; stroke: #1f77b4; stroke-width: 1.5; stroke-linecap: square"/>
   </g>
   <g id="line2d_13">
    <path d="M 30.78899 46.540455  L 33.555508 46.64782  L 35.531592 46.612905  L 39.088544 46.836667  L 42.645496 46.802425  L 46.202448 46.322498  L 49.364183 45.822555  L 51.735484 45.658921  L 53.316352 45.854855  L 55.292436 46.079048  L 56.873304 46.262189  L 63.196774 47.658395  L 64.777641 48.002074  L 68.72981 48.263558  L 70.310677 48.075151  L 74.658063 47.147449  L 77.029364 46.549441  L 79.400666 46.23452  L 80.586316 46.301949  L 82.957617 46.541859  L 84.933702 46.695981  L 89.281087 47.365262  L 91.257172 47.539674  L 95.999774 47.548026  L 98.371076 47.24042  L 99.556726 46.897572  L 104.299329 45.098366  L 106.67063 44.72905  L 108.646714 44.545495  L 112.203666 44.40703  L 114.179751 44.339479  L 116.946269 44.567596  L 118.922353 44.888642  L 130.383642 47.584199  L 135.521462 48.957332  L 140.659281 49.954312  L 142.240149 50.445018  L 143.030582 50.47386  L 144.216233 50.192317  L 145.401884 49.878363  L 146.587534 49.810571  L 148.958836 49.793938  L 150.539703 49.523054  L 152.120571 49.055833  L 155.282306 47.851189  L 160.815342 46.425353  L 163.58186 44.946156  L 165.162727 44.295753  L 166.743595 43.611108  L 168.324462 43.240304  L 170.695764 42.73931  L 172.276631 42.335402  L 174.252716 42.158299  L 176.2288 42.09335  L 177.414451 42.262136  L 181.366619 43.146702  L 182.55227 43.50816  L 184.528354 44.438512  L 190.456607 47.527077  L 192.827909 48.860479  L 196.780077 50.910444  L 200.732246 52.148558  L 201.917897 52.269167  L 202.708331 52.165822  L 203.498764 51.841379  L 204.684415 51.037657  L 206.265282 49.931098  L 209.031801 48.374889  L 211.007885 46.478148  L 213.774403 43.869109  L 216.540921 41.766539  L 217.726572 41.187229  L 219.307439 40.676511  L 220.49309 40.474601  L 221.283524 40.512655  L 222.469174 40.852542  L 224.050042 41.636919  L 225.235692 42.488738  L 226.421343 43.658334  L 229.583078 47.273366  L 231.954379 50.498519  L 236.301765 56.486767  L 238.277849 58.516975  L 239.4635 59.495833  L 240.253934 59.987643  L 241.044367 60.269184  L 241.834801 60.301872  L 243.020452 60.020953  L 244.206102 59.508611  L 244.996536 58.972782  L 245.78697 58.22591  L 246.577404 57.255483  L 247.763054 55.385499  L 249.343922 52.370875  L 251.715223 47.40004  L 252.900874 44.536984  L 255.667392 37.263326  L 257.643476 33.141778  L 259.224344 30.343725  L 260.409994 28.639258  L 261.990862 26.856745  L 264.362163 24.557609  L 265.943031 23.429329  L 267.128681 22.825528  L 268.314332 22.518324  L 269.104766 22.510408  L 269.895199 22.698671  L 270.685633 23.131577  L 271.476067 23.808433  L 272.661717 25.161915  L 273.847368 26.930018  L 275.033019 29.323984  L 276.613886 33.296281  L 277.40432 35.713429  L 278.194754 39.014065  L 278.985187 43.877582  L 279.775621 50.528881  L 281.751706 68.929342  L 282.542139 74.062081  L 283.332573 77.57789  L 284.123007 79.922977  L 284.913441 81.462755  L 285.703874 82.385718  L 286.494308 82.806886  L 287.284742 82.832608  L 288.075176 82.549388  L 288.865609 82.014446  L 289.656043 81.26286  L 290.841694 79.734097  L 292.027344 77.721686  L 295.979513 70.102719  L 297.560381 66.414007  L 299.536465 61.811875  L 302.302983 56.092304  L 303.488634 53.494817  L 304.674284 50.286019  L 307.440802 42.277768  L 310.997754 33.730677  L 312.183405 30.902825  L 313.369056 28.73763  L 314.949923 26.505236  L 316.926007 23.906005  L 317.716441 22.554668  L 318.506875 20.832978  L 319.692526 17.641143  L 321.273393 13.389979  L 322.063827 11.781321  L 322.854261 10.69129  L 323.644694 10.143699  L 324.435128 10.09058  L 325.225562 10.444406  L 326.015996 11.123091  L 327.201646 12.597034  L 328.782514 14.760022  L 329.572947 15.541688  L 330.363381 15.908497  L 331.153815 15.878962  L 331.549032 15.84668  L 331.944249 15.952577  L 332.339466 16.348256  L 332.734682 17.190562  L 333.129899 18.611743  L 333.525116 20.69232  L 334.31555 26.815659  L 335.501201 39.397312  L 337.082068 56.280712  L 337.872502 62.578086  L 338.662936 67.227243  L 339.453369 70.765429  L 340.63902 74.837145  L 341.034237 75.927732  L 341.034237 75.927732  " clip-path="url(#p662760c4cf)" style="fill: none; stroke: #ff7f0e; stroke-width: 1.5; stroke-linecap: square"/>
   </g>
   <g id="patch_3">
    <path d="M 30.78899 106.89476  L 30.78899 3.00024  " style="fill: none; stroke: #000000; stroke-width: 0.8; stroke-linejoin: miter; stroke-linecap: square"/>
   </g>
   <g id="patch_4">
    <path d="M 341.034237 106.89476  L 341.034237 3.00024  " style="fill: none; stroke: #000000; stroke-width: 0.8; stroke-linejoin: miter; stroke-linecap: square"/>
   </g>
   <g id="patch_5">
    <path d="M 30.78899 106.89476  L 341.034237 106.89476  " style="fill: none; stroke: #000000; stroke-width: 0.8; stroke-linejoin: miter; stroke-linecap: square"/>
   </g>
   <g id="patch_6">
    <path d="M 30.78899 3.00024  L 341.034237 3.00024  " style="fill: none; stroke: #000000; stroke-width: 0.8; stroke-linejoin: miter; stroke-linecap: square"/>
   </g>
   <g id="legend_1">
    <g id="patch_7">
     <path d="M 36.38899 102.89476  L 84.31399 102.89476  Q 85.91399 102.89476 85.91399 101.29476  L 85.91399 78.76226  Q 85.91399 77.16226 84.31399 77.16226  L 36.38899 77.16226  Q 34.78899 77.16226 34.78899 78.76226  L 34.78899 101.29476  Q 34.78899 102.89476 36.38899 102.89476  z " style="fill: #ffffff; opacity: 0.8; stroke: #cccccc; stroke-linejoin: miter"/>
    </g>
    <g id="line2d_14">
     <path d="M 37.98899 83.56226  L 45.98899 83.56226  L 53.98899 83.56226  " style="fill: none; stroke: #1f77b4; stroke-width: 1.5; stroke-linecap: square"/>
    </g>
    <g id="text_14">
     <!-- theory -->
     <g transform="translate(60.38899 86.36226) scale(0.08 -0.08)">
      <defs>
       <path id="Roboto-Regular-68" d="M 1844 2956  Q 1566 2956 1353 2806  Q 1141 2656 1019 2416  L 1019 0  L 441 0  L 441 4800  L 1019 4800  L 1019 2978  Q 1403 3444 2016 3444  Q 2513 3444 2805 3166  Q 3097 2888 3100 2231  L 3100 0  L 2519 0  L 2519 2222  Q 2519 2619 2345 2787  Q 2172 2956 1844 2956  z " transform="scale(0.015625)"/>
       <path id="Roboto-Regular-79" d="M 1594 -522  Q 1294 -1316 688 -1363  L 591 -1366  Q 406 -1366 266 -1316  L 263 -847  L 419 -859  Q 713 -859 878 -739  Q 1044 -619 1150 -306  L 1275 38  L 69 3381  L 700 3381  L 1547 850  L 2331 3381  L 2950 3381  L 1594 -522  z " transform="scale(0.015625)"/>
      </defs>
      <use xlink:href="#Roboto-Regular-74"/>
      <use xlink:href="#Roboto-Regular-68" x="32.714844"/>
      <use xlink:href="#Roboto-Regular-65" x="87.792969"/>
      <use xlink:href="#Roboto-Regular-6f" x="140.820312"/>
      <use xlink:href="#Roboto-Regular-72" x="197.851562"/>
      <use xlink:href="#Roboto-Regular-79" x="231.738281"/>
     </g>
    </g>
    <g id="line2d_15">
     <path d="M 37.98899 95.26976  L 45.98899 95.26976  L 53.98899 95.26976  " style="fill: none; stroke: #ff7f0e; stroke-width: 1.5; stroke-linecap: square"/>
    </g>
    <g id="text_15">
     <!-- data -->
     <g transform="translate(60.38899 98.06976) scale(0.08 -0.08)">
      <use xlink:href="#Roboto-Regular-64"/>
      <use xlink:href="#Roboto-Regular-61" x="56.396484"/>
      <use xlink:href="#Roboto-Regular-74" x="110.791016"/>
      <use xlink:href="#Roboto-Regular-61" x="143.505859"/>
     </g>
    </g>
   </g>
  </g>
 </g>
 <defs>
  <clipPath id="p662760c4cf">
   <rect x="30.78899" y="3.00024" width="310.245247" height="103.89452"/>
  </clipPath>
 </defs>
</svg>
