<?xml version='1.0' encoding='ASCII' standalone='yes'?>
<svg xmlns:xlink="http://www.w3.org/1999/xlink" xmlns="http://www.w3.org/2000/svg" width="688.068954pt" height="364.5pt" viewBox="0 0 344.034477 182.25" version="1.1">
 <metadata>
  <rdf:RDF xmlns:dc="http://purl.org/dc/elements/1.1/" xmlns:cc="http://creativecommons.org/ns#" xmlns:rdf="http://www.w3.org/1999/02/22-rdf-syntax-ns#">
   <cc:Work>
    <dc:type rdf:resource="http://purl.org/dc/dcmitype/StillImage"/>
    <dc:date>2023-12-10T18:02:47.381732</dc:date>
    <dc:format>image/svg+xml</dc:format>
    <dc:creator>
     <cc:Agent>
      <dc:title>Matplotlib v3.8.0, https://matplotlib.org/</dc:title>
     </cc:Agent>
    </dc:creator>
   </cc:Work>
  </rdf:RDF>
 </metadata>
 <defs>
  <style type="text/css">*{stroke-linejoin: round; stroke-linecap: butt}</style>
 </defs>
 <g id="figure_1">
  <g id="patch_1">
   <path d="M 0 182.25  L 344.034477 182.25  L 344.034477 0  L 0 0  z " style="fill: #ffffff"/>
  </g>
  <g id="axes_1">
   <g id="patch_2">
    <path d="M 38.15649 152.62476  L 335.482987 152.62476  L 335.482987 19.761947  L 38.15649 19.761947  z " style="fill: #ffffff"/>
   </g>
   <g id="matplotlib.axis_1">
    <g id="xtick_1">
     <g id="line2d_1">
      <defs>
       <path id="mc173ce4b96" d="M 0 0  L 0 3.5  " style="stroke: #000000; stroke-width: 0.8"/>
      </defs>
      <g>
       <use xlink:href="#mc173ce4b96" x="38.15649" y="152.62476" style="stroke: #000000; stroke-width: 0.8"/>
      </g>
     </g>
     <g id="text_1">
      <!-- 0.0 -->
      <g transform="translate(32.60524 165.62476) scale(0.08 -0.08)">
       <defs>
        <path id="Roboto-Regular-30" d="M 3234 1944  Q 3234 825 2848 381  Q 2463 -63 1800 -63  Q 1156 -63 764 368  Q 372 800 359 1872  L 359 2638  Q 359 3753 750 4183  Q 1141 4613 1794 4613  Q 2447 4613 2834 4195  Q 3222 3778 3234 2709  L 3234 1944  z M 2653 2734  Q 2653 3503 2434 3822  Q 2216 4141 1794 4141  Q 1388 4141 1167 3831  Q 947 3522 941 2778  L 941 1850  Q 941 1088 1164 750  Q 1388 413 1800 413  Q 2222 413 2436 745  Q 2650 1078 2653 1825  L 2653 2734  z " transform="scale(0.015625)"/>
        <path id="Roboto-Regular-2e" d="M 450 306  Q 450 453 542 554  Q 634 656 809 656  Q 984 656 1076 554  Q 1169 453 1169 306  Q 1169 163 1076 62  Q 984 -38 809 -38  Q 634 -38 542 62  Q 450 163 450 306  z " transform="scale(0.015625)"/>
       </defs>
       <use xlink:href="#Roboto-Regular-30"/>
       <use xlink:href="#Roboto-Regular-2e" x="56.201172"/>
       <use xlink:href="#Roboto-Regular-30" x="82.568359"/>
      </g>
     </g>
    </g>
    <g id="xtick_2">
     <g id="line2d_2">
      <g>
       <use xlink:href="#mc173ce4b96" x="71.192767" y="152.62476" style="stroke: #000000; stroke-width: 0.8"/>
      </g>
     </g>
     <g id="text_2">
      <!-- 0.1 -->
      <g transform="translate(65.641517 165.62476) scale(0.08 -0.08)">
       <defs>
        <path id="Roboto-Regular-31" d="M 2278 4575  L 2278 0  L 1700 0  L 1700 3853  L 534 3428  L 534 3950  L 2188 4575  L 2278 4575  z " transform="scale(0.015625)"/>
       </defs>
       <use xlink:href="#Roboto-Regular-30"/>
       <use xlink:href="#Roboto-Regular-2e" x="56.201172"/>
       <use xlink:href="#Roboto-Regular-31" x="82.568359"/>
      </g>
     </g>
    </g>
    <g id="xtick_3">
     <g id="line2d_3">
      <g>
       <use xlink:href="#mc173ce4b96" x="104.229045" y="152.62476" style="stroke: #000000; stroke-width: 0.8"/>
      </g>
     </g>
     <g id="text_3">
      <!-- 0.2 -->
      <g transform="translate(98.677795 165.62476) scale(0.08 -0.08)">
       <defs>
        <path id="Roboto-Regular-32" d="M 3359 475  L 3359 0  L 381 0  L 381 416  L 1925 2134  Q 2306 2566 2439 2819  Q 2572 3072 2572 3328  Q 2572 3663 2364 3900  Q 2156 4138 1778 4138  Q 1322 4138 1097 3878  Q 872 3619 872 3213  L 294 3213  Q 294 3788 672 4200  Q 1050 4613 1778 4613  Q 2422 4613 2786 4278  Q 3150 3944 3150 3397  Q 3150 2997 2903 2592  Q 2656 2188 2297 1797  L 1078 475  L 3359 475  z " transform="scale(0.015625)"/>
       </defs>
       <use xlink:href="#Roboto-Regular-30"/>
       <use xlink:href="#Roboto-Regular-2e" x="56.201172"/>
       <use xlink:href="#Roboto-Regular-32" x="82.568359"/>
      </g>
     </g>
    </g>
    <g id="xtick_4">
     <g id="line2d_4">
      <g>
       <use xlink:href="#mc173ce4b96" x="137.265322" y="152.62476" style="stroke: #000000; stroke-width: 0.8"/>
      </g>
     </g>
     <g id="text_4">
      <!-- 0.3 -->
      <g transform="translate(131.714072 165.62476) scale(0.08 -0.08)">
       <defs>
        <path id="Roboto-Regular-33" d="M 1222 2084  L 1222 2559  L 1647 2559  Q 2094 2563 2312 2784  Q 2531 3006 2531 3338  Q 2531 4138 1738 4138  Q 1369 4138 1141 3927  Q 913 3716 913 3359  L 334 3359  Q 334 3881 720 4247  Q 1106 4613 1738 4613  Q 2353 4613 2733 4286  Q 3113 3959 3113 3325  Q 3113 3072 2942 2784  Q 2772 2497 2397 2338  Q 2850 2191 3015 1884  Q 3181 1578 3181 1269  Q 3181 631 2768 284  Q 2356 -63 1741 -63  Q 1147 -63 722 267  Q 297 597 297 1203  L 875 1203  Q 875 844 1108 628  Q 1341 413 1741 413  Q 2138 413 2369 622  Q 2600 831 2600 1256  Q 2600 1681 2337 1882  Q 2075 2084 1634 2084  L 1222 2084  z " transform="scale(0.015625)"/>
       </defs>
       <use xlink:href="#Roboto-Regular-30"/>
       <use xlink:href="#Roboto-Regular-2e" x="56.201172"/>
       <use xlink:href="#Roboto-Regular-33" x="82.568359"/>
      </g>
     </g>
    </g>
    <g id="xtick_5">
     <g id="line2d_5">
      <g>
       <use xlink:href="#mc173ce4b96" x="170.3016" y="152.62476" style="stroke: #000000; stroke-width: 0.8"/>
      </g>
     </g>
     <g id="text_5">
      <!-- 0.4 -->
      <g transform="translate(164.75035 165.62476) scale(0.08 -0.08)">
       <defs>
        <path id="Roboto-Regular-34" d="M 166 1397  L 2203 4550  L 2819 4550  L 2819 1531  L 3453 1531  L 3453 1056  L 2819 1056  L 2819 0  L 2241 0  L 2241 1056  L 166 1056  L 166 1397  z M 822 1531  L 2241 1531  L 2241 3766  L 2169 3638  L 822 1531  z " transform="scale(0.015625)"/>
       </defs>
       <use xlink:href="#Roboto-Regular-30"/>
       <use xlink:href="#Roboto-Regular-2e" x="56.201172"/>
       <use xlink:href="#Roboto-Regular-34" x="82.568359"/>
      </g>
     </g>
    </g>
    <g id="xtick_6">
     <g id="line2d_6">
      <g>
       <use xlink:href="#mc173ce4b96" x="203.337877" y="152.62476" style="stroke: #000000; stroke-width: 0.8"/>
      </g>
     </g>
     <g id="text_6">
      <!-- 0.5 -->
      <g transform="translate(197.786627 165.62476) scale(0.08 -0.08)">
       <defs>
        <path id="Roboto-Regular-35" d="M 1109 2166  L 647 2284  L 875 4550  L 3209 4550  L 3209 4016  L 1366 4016  L 1228 2778  Q 1572 2975 1988 2975  Q 2616 2975 2980 2561  Q 3344 2147 3344 1450  Q 3344 797 2987 367  Q 2631 -63 1903 -63  Q 1350 -63 947 248  Q 544 559 481 1197  L 1031 1197  Q 1141 413 1903 413  Q 2313 413 2538 691  Q 2763 969 2763 1444  Q 2763 1872 2527 2164  Q 2291 2456 1853 2456  Q 1563 2456 1413 2378  Q 1263 2300 1109 2166  z " transform="scale(0.015625)"/>
       </defs>
       <use xlink:href="#Roboto-Regular-30"/>
       <use xlink:href="#Roboto-Regular-2e" x="56.201172"/>
       <use xlink:href="#Roboto-Regular-35" x="82.568359"/>
      </g>
     </g>
    </g>
    <g id="xtick_7">
     <g id="line2d_7">
      <g>
       <use xlink:href="#mc173ce4b96" x="236.374155" y="152.62476" style="stroke: #000000; stroke-width: 0.8"/>
      </g>
     </g>
     <g id="text_7">
      <!-- 0.6 -->
      <g transform="translate(230.822905 165.62476) scale(0.08 -0.08)">
       <defs>
        <path id="Roboto-Regular-36" d="M 3291 1484  Q 3291 838 2930 387  Q 2569 -63 1878 -63  Q 1388 -63 1063 198  Q 738 459 577 861  Q 416 1263 416 1684  L 416 1956  Q 416 2597 595 3194  Q 775 3791 1247 4173  Q 1719 4556 2597 4556  L 2647 4556  L 2647 4066  Q 2041 4066 1705 3853  Q 1369 3641 1205 3302  Q 1041 2963 1006 2575  Q 1369 2984 1984 2984  Q 2438 2984 2727 2765  Q 3016 2547 3153 2201  Q 3291 1856 3291 1484  z M 997 1666  Q 997 1059 1267 737  Q 1538 416 1878 416  Q 2278 416 2498 708  Q 2719 1000 2719 1456  Q 2719 1863 2516 2184  Q 2313 2506 1891 2506  Q 1588 2506 1341 2325  Q 1094 2144 997 1884  L 997 1666  z " transform="scale(0.015625)"/>
       </defs>
       <use xlink:href="#Roboto-Regular-30"/>
       <use xlink:href="#Roboto-Regular-2e" x="56.201172"/>
       <use xlink:href="#Roboto-Regular-36" x="82.568359"/>
      </g>
     </g>
    </g>
    <g id="xtick_8">
     <g id="line2d_8">
      <g>
       <use xlink:href="#mc173ce4b96" x="269.410432" y="152.62476" style="stroke: #000000; stroke-width: 0.8"/>
      </g>
     </g>
     <g id="text_8">
      <!-- 0.7 -->
      <g transform="translate(263.859182 165.62476) scale(0.08 -0.08)">
       <defs>
        <path id="Roboto-Regular-37" d="M 3319 4550  L 3319 4225  L 1434 0  L 825 0  L 2706 4075  L 244 4075  L 244 4550  L 3319 4550  z " transform="scale(0.015625)"/>
       </defs>
       <use xlink:href="#Roboto-Regular-30"/>
       <use xlink:href="#Roboto-Regular-2e" x="56.201172"/>
       <use xlink:href="#Roboto-Regular-37" x="82.568359"/>
      </g>
     </g>
    </g>
    <g id="xtick_9">
     <g id="line2d_9">
      <g>
       <use xlink:href="#mc173ce4b96" x="302.446709" y="152.62476" style="stroke: #000000; stroke-width: 0.8"/>
      </g>
     </g>
     <g id="text_9">
      <!-- 0.8 -->
      <g transform="translate(296.895459 165.62476) scale(0.08 -0.08)">
       <defs>
        <path id="Roboto-Regular-38" d="M 3244 1231  Q 3244 606 2826 271  Q 2409 -63 1796 -63  Q 1184 -63 767 271  Q 350 606 350 1231  Q 350 1613 554 1905  Q 759 2197 1109 2347  Q 806 2494 629 2762  Q 453 3031 453 3366  Q 453 3963 833 4288  Q 1213 4613 1794 4613  Q 2378 4613 2758 4288  Q 3138 3963 3138 3366  Q 3138 3028 2956 2761  Q 2775 2494 2472 2347  Q 2825 2197 3034 1903  Q 3244 1609 3244 1231  z M 2559 3356  Q 2559 3697 2346 3917  Q 2134 4138 1793 4138  Q 1453 4138 1243 3927  Q 1034 3716 1034 3356  Q 1034 3003 1243 2790  Q 1453 2578 1797 2578  Q 2138 2578 2348 2790  Q 2559 3003 2559 3356  z M 2663 1244  Q 2663 1625 2420 1865  Q 2178 2106 1791 2106  Q 1394 2106 1161 1865  Q 928 1625 928 1244  Q 928 850 1161 631  Q 1394 413 1797 413  Q 2200 413 2431 631  Q 2663 850 2663 1244  z " transform="scale(0.015625)"/>
       </defs>
       <use xlink:href="#Roboto-Regular-30"/>
       <use xlink:href="#Roboto-Regular-2e" x="56.201172"/>
       <use xlink:href="#Roboto-Regular-38" x="82.568359"/>
      </g>
     </g>
    </g>
    <g id="xtick_10">
     <g id="line2d_10">
      <g>
       <use xlink:href="#mc173ce4b96" x="335.482987" y="152.62476" style="stroke: #000000; stroke-width: 0.8"/>
      </g>
     </g>
     <g id="text_10">
      <!-- 0.9 -->
      <g transform="translate(329.931737 165.62476) scale(0.08 -0.08)">
       <defs>
        <path id="Roboto-Regular-39" d="M 3175 2563  Q 3175 2119 3098 1667  Q 3022 1216 2801 836  Q 2581 456 2151 225  Q 1722 -6 953 -6  L 953 484  Q 1644 484 1980 700  Q 2316 916 2448 1264  Q 2581 1613 2597 2006  Q 2416 1791 2162 1656  Q 1909 1522 1613 1522  Q 1163 1522 875 1747  Q 588 1972 450 2320  Q 313 2669 313 3041  Q 313 3691 670 4152  Q 1028 4613 1725 4613  Q 2244 4613 2564 4344  Q 2884 4075 3029 3653  Q 3175 3231 3175 2772  L 3175 2563  z M 881 3072  Q 881 2666 1086 2334  Q 1291 2003 1706 2003  Q 2003 2003 2245 2181  Q 2488 2359 2600 2622  L 2600 2850  Q 2600 3472 2336 3803  Q 2072 4134 1725 4134  Q 1322 4134 1101 3829  Q 881 3525 881 3072  z " transform="scale(0.015625)"/>
       </defs>
       <use xlink:href="#Roboto-Regular-30"/>
       <use xlink:href="#Roboto-Regular-2e" x="56.201172"/>
       <use xlink:href="#Roboto-Regular-39" x="82.568359"/>
      </g>
     </g>
    </g>
    <g id="text_11">
     <!-- Wavenumber, $k~[\rm m^{-1}]$ -->
     <g transform="translate(149.499738 177.62476) scale(0.08 -0.08)">
      <defs>
       <path id="Roboto-Regular-57" d="M 5541 4550  L 4441 0  L 3894 0  L 2956 3316  L 2884 3663  L 2813 3316  L 1841 0  L 1294 0  L 191 4550  L 791 4550  L 1509 1438  L 1600 834  L 1725 1375  L 2628 4550  L 3131 4550  L 4009 1375  L 4138 822  L 4234 1441  L 4938 4550  L 5541 4550  z " transform="scale(0.015625)"/>
       <path id="Roboto-Regular-61" d="M 2528 0  Q 2472 122 2447 356  Q 2284 184 2040 60  Q 1797 -63 1484 -63  Q 966 -63 653 228  Q 341 519 341 941  Q 341 1484 753 1767  Q 1166 2050 1863 2050  L 2434 2050  L 2434 2319  Q 2434 2619 2254 2798  Q 2075 2978 1722 2978  Q 1394 2978 1192 2817  Q 991 2656 991 2444  L 413 2444  Q 413 2806 778 3125  Q 1144 3444 1756 3444  Q 2306 3444 2659 3162  Q 3013 2881 3013 2313  L 3013 794  Q 3013 325 3131 50  L 3131 0  L 2528 0  z M 1569 444  Q 1881 444 2111 600  Q 2341 756 2434 947  L 2434 1644  L 1897 1644  Q 922 1625 922 1019  Q 922 778 1084 611  Q 1247 444 1569 444  z " transform="scale(0.015625)"/>
       <path id="Roboto-Regular-76" d="M 2984 3381  L 1769 0  L 1328 0  L 103 3381  L 697 3381  L 1556 791  L 2394 3381  L 2984 3381  z " transform="scale(0.015625)"/>
       <path id="Roboto-Regular-65" d="M 3116 591  Q 2950 341 2647 139  Q 2344 -63 1844 -63  Q 1138 -63 714 396  Q 291 856 291 1572  L 291 1703  Q 291 2256 502 2645  Q 713 3034 1050 3239  Q 1388 3444 1769 3444  Q 2494 3444 2826 2970  Q 3159 2497 3159 1788  L 3159 1528  L 872 1528  Q 884 1063 1148 736  Q 1413 409 1875 409  Q 2181 409 2393 534  Q 2606 659 2766 869  L 3116 591  z M 1769 2969  Q 1425 2969 1187 2719  Q 950 2469 891 2000  L 2581 2000  L 2581 2044  Q 2559 2381 2386 2675  Q 2213 2969 1769 2969  z " transform="scale(0.015625)"/>
       <path id="Roboto-Regular-6e" d="M 1844 2956  Q 1566 2956 1353 2806  Q 1141 2656 1019 2416  L 1019 0  L 441 0  L 441 3381  L 988 3381  L 1006 2959  Q 1391 3444 2016 3444  Q 2513 3444 2805 3166  Q 3097 2888 3100 2231  L 3100 0  L 2519 0  L 2519 2222  Q 2519 2619 2345 2787  Q 2172 2956 1844 2956  z " transform="scale(0.015625)"/>
       <path id="Roboto-Regular-75" d="M 2538 0  L 2525 334  Q 2194 -63 1538 -63  Q 1041 -63 734 231  Q 428 525 428 1200  L 428 3381  L 1006 3381  L 1006 1194  Q 1006 738 1198 583  Q 1391 428 1628 428  Q 2281 428 2509 919  L 2509 3381  L 3091 3381  L 3091 0  L 2538 0  z " transform="scale(0.015625)"/>
       <path id="Roboto-Regular-6d" d="M 1794 2956  Q 1225 2956 1016 2478  L 1016 0  L 434 0  L 434 3381  L 984 3381  L 1000 3013  Q 1366 3444 2000 3444  Q 2325 3444 2579 3314  Q 2834 3184 2969 2900  Q 3138 3144 3408 3294  Q 3678 3444 4044 3444  Q 4588 3444 4883 3153  Q 5178 2863 5178 2222  L 5178 0  L 4597 0  L 4597 2228  Q 4597 2653 4401 2804  Q 4206 2956 3875 2956  Q 3525 2956 3325 2748  Q 3125 2541 3094 2244  L 3094 0  L 2516 0  L 2516 2225  Q 2516 2622 2319 2789  Q 2122 2956 1794 2956  z " transform="scale(0.015625)"/>
       <path id="Roboto-Regular-62" d="M 3303 1653  Q 3303 913 2959 425  Q 2616 -63 1988 -63  Q 1347 -63 1000 391  L 969 0  L 438 0  L 438 4800  L 1019 4800  L 1019 3016  Q 1363 3444 1981 3444  Q 2619 3444 2961 2969  Q 3303 2494 3303 1719  L 3303 1653  z M 1838 2956  Q 1522 2956 1325 2804  Q 1128 2653 1019 2431  L 1019 959  Q 1131 734 1331 581  Q 1531 428 1844 428  Q 2313 428 2517 789  Q 2722 1150 2722 1653  L 2722 1719  Q 2722 2222 2526 2589  Q 2331 2956 1838 2956  z " transform="scale(0.015625)"/>
       <path id="Roboto-Regular-72" d="M 1791 2888  Q 1225 2888 1019 2400  L 1019 0  L 441 0  L 441 3381  L 1003 3381  L 1016 2994  Q 1294 3444 1819 3444  Q 1981 3444 2075 3400  L 2072 2863  Q 1944 2888 1791 2888  z " transform="scale(0.015625)"/>
       <path id="Roboto-Regular-2c" d="M 966 688  L 966 222  Q 966 -63 822 -380  Q 678 -697 419 -909  L 91 -681  Q 391 -263 400 175  L 400 688  L 966 688  z " transform="scale(0.015625)"/>
       <path id="Roboto-Regular-20" transform="scale(0.015625)"/>
       <path id="STIXGeneral-Italic-6b" d="M 2950 2739  L 2950 2637  Q 2720 2624 2464 2448  Q 2208 2272 1510 1651  L 1747 1088  Q 2099 262 2266 262  Q 2400 262 2554 531  Q 2586 582 2650 698  L 2746 627  Q 2522 224 2374 77  Q 2227 -70 2035 -70  Q 1894 -70 1782 42  Q 1670 154 1517 454  Q 1325 826 1133 1357  L 877 1152  L 570 0  L 90 0  L 992 3379  Q 1082 3699 1107 3942  Q 1088 4096 781 4096  L 666 4096  L 666 4198  Q 1146 4256 1670 4371  L 1709 4333  L 941 1414  L 1216 1626  Q 2131 2330 2131 2522  Q 2131 2637 1894 2637  L 1805 2637  L 1805 2739  L 2950 2739  z " transform="scale(0.015625)"/>
       <path id="STIXGeneral-Regular-5b" d="M 1914 -998  L 563 -998  L 563 4237  L 1914 4237  L 1914 4077  L 1382 4077  Q 1216 4077 1133 4006  Q 1050 3936 1050 3770  L 1050 -493  Q 1050 -838 1382 -838  L 1914 -838  L 1914 -998  z " transform="scale(0.015625)"/>
       <path id="STIXGeneral-Regular-6d" d="M 4960 0  L 3565 0  L 3565 96  Q 3834 122 3907 208  Q 3981 294 3981 576  L 3981 1894  Q 3981 2278 3869 2444  Q 3757 2611 3488 2611  Q 3264 2611 3107 2521  Q 2950 2432 2803 2221  L 2803 608  Q 2803 301 2896 201  Q 2989 102 3264 96  L 3264 0  L 1830 0  L 1830 96  Q 2112 115 2189 188  Q 2266 262 2266 550  L 2266 1901  Q 2266 2611 1850 2611  Q 1670 2611 1468 2531  Q 1267 2451 1171 2336  Q 1088 2240 1088 2227  L 1088 448  Q 1088 243 1177 176  Q 1267 109 1523 96  L 1523 0  L 102 0  L 102 96  Q 371 102 460 195  Q 550 288 550 563  L 550 2150  Q 550 2387 499 2480  Q 448 2573 326 2573  Q 230 2573 122 2547  L 122 2656  Q 557 2778 1011 2944  L 1062 2925  L 1062 2451  L 1075 2451  Q 1363 2752 1584 2848  Q 1805 2944 2054 2944  Q 2560 2944 2733 2406  Q 3232 2944 3776 2944  Q 4518 2944 4518 1792  L 4518 493  Q 4518 282 4582 202  Q 4646 122 4794 109  L 4960 96  L 4960 0  z " transform="scale(0.015625)"/>
       <path id="STIXGeneral-Regular-2212" d="M 3974 1408  L 410 1408  L 410 1830  L 3974 1830  L 3974 1408  z " transform="scale(0.015625)"/>
       <path id="STIXGeneral-Regular-31" d="M 2522 0  L 755 0  L 755 96  Q 1107 115 1235 227  Q 1363 339 1363 608  L 1363 3482  Q 1363 3795 1171 3795  Q 1082 3795 883 3718  L 710 3654  L 710 3744  L 1856 4326  L 1914 4307  L 1914 486  Q 1914 275 2042 185  Q 2170 96 2522 96  L 2522 0  z " transform="scale(0.015625)"/>
       <path id="STIXGeneral-Regular-5d" d="M 1568 -998  L 218 -998  L 218 -838  L 781 -838  Q 947 -838 1014 -768  Q 1082 -698 1082 -544  L 1082 3731  Q 1082 4077 755 4077  L 218 4077  L 218 4237  L 1568 4237  L 1568 -998  z " transform="scale(0.015625)"/>
      </defs>
      <use xlink:href="#Roboto-Regular-57" transform="translate(0 0.684375)"/>
      <use xlink:href="#Roboto-Regular-61" transform="translate(88.720703 0.684375)"/>
      <use xlink:href="#Roboto-Regular-76" transform="translate(143.115234 0.684375)"/>
      <use xlink:href="#Roboto-Regular-65" transform="translate(191.552734 0.684375)"/>
      <use xlink:href="#Roboto-Regular-6e" transform="translate(244.580078 0.684375)"/>
      <use xlink:href="#Roboto-Regular-75" transform="translate(299.804688 0.684375)"/>
      <use xlink:href="#Roboto-Regular-6d" transform="translate(354.931641 0.684375)"/>
      <use xlink:href="#Roboto-Regular-62" transform="translate(442.626953 0.684375)"/>
      <use xlink:href="#Roboto-Regular-65" transform="translate(498.779297 0.684375)"/>
      <use xlink:href="#Roboto-Regular-72" transform="translate(551.806641 0.684375)"/>
      <use xlink:href="#Roboto-Regular-2c" transform="translate(585.693359 0.684375)"/>
      <use xlink:href="#Roboto-Regular-20" transform="translate(605.371094 0.684375)"/>
      <use xlink:href="#STIXGeneral-Italic-6b" transform="translate(630.175781 0.684375)"/>
      <use xlink:href="#STIXGeneral-Regular-5b" transform="translate(698.642195 0.684375)"/>
      <use xlink:href="#STIXGeneral-Regular-6d" transform="translate(731.942183 0.684375)"/>
      <use xlink:href="#STIXGeneral-Regular-2212" transform="translate(811.317171 36.684375) scale(0.7)"/>
      <use xlink:href="#STIXGeneral-Regular-31" transform="translate(859.26716 36.684375) scale(0.7)"/>
      <use xlink:href="#STIXGeneral-Regular-5d" transform="translate(898.767149 0.684375)"/>
     </g>
    </g>
   </g>
   <g id="matplotlib.axis_2">
    <g id="ytick_1">
     <g id="line2d_11">
      <defs>
       <path id="m162d653816" d="M 0 0  L -3.5 0  " style="stroke: #000000; stroke-width: 0.8"/>
      </defs>
      <g>
       <use xlink:href="#m162d653816" x="38.15649" y="138.880331" style="stroke: #000000; stroke-width: 0.8"/>
      </g>
     </g>
     <g id="text_12">
      <!-- &#8722;1.0 -->
      <g transform="translate(15.48024 141.880331) scale(0.08 -0.08)">
       <defs>
        <path id="Roboto-Regular-2212" d="M 3134 2509  L 3134 2034  L 525 2034  L 525 2509  L 3134 2509  z " transform="scale(0.015625)"/>
       </defs>
       <use xlink:href="#Roboto-Regular-2212"/>
       <use xlink:href="#Roboto-Regular-31" x="57.177734"/>
       <use xlink:href="#Roboto-Regular-2e" x="113.378906"/>
       <use xlink:href="#Roboto-Regular-30" x="139.746094"/>
      </g>
     </g>
    </g>
    <g id="ytick_2">
     <g id="line2d_12">
      <g>
       <use xlink:href="#m162d653816" x="38.15649" y="115.97295" style="stroke: #000000; stroke-width: 0.8"/>
      </g>
     </g>
     <g id="text_13">
      <!-- &#8722;0.5 -->
      <g transform="translate(15.48024 118.97295) scale(0.08 -0.08)">
       <use xlink:href="#Roboto-Regular-2212"/>
       <use xlink:href="#Roboto-Regular-30" x="57.177734"/>
       <use xlink:href="#Roboto-Regular-2e" x="113.378906"/>
       <use xlink:href="#Roboto-Regular-35" x="139.746094"/>
      </g>
     </g>
    </g>
    <g id="ytick_3">
     <g id="line2d_13">
      <g>
       <use xlink:href="#m162d653816" x="38.15649" y="93.065568" style="stroke: #000000; stroke-width: 0.8"/>
      </g>
     </g>
     <g id="text_14">
      <!-- 0.0 -->
      <g transform="translate(20.05399 96.065568) scale(0.08 -0.08)">
       <use xlink:href="#Roboto-Regular-30"/>
       <use xlink:href="#Roboto-Regular-2e" x="56.201172"/>
       <use xlink:href="#Roboto-Regular-30" x="82.568359"/>
      </g>
     </g>
    </g>
    <g id="ytick_4">
     <g id="line2d_14">
      <g>
       <use xlink:href="#m162d653816" x="38.15649" y="70.158187" style="stroke: #000000; stroke-width: 0.8"/>
      </g>
     </g>
     <g id="text_15">
      <!-- 0.5 -->
      <g transform="translate(20.05399 73.158187) scale(0.08 -0.08)">
       <use xlink:href="#Roboto-Regular-30"/>
       <use xlink:href="#Roboto-Regular-2e" x="56.201172"/>
       <use xlink:href="#Roboto-Regular-35" x="82.568359"/>
      </g>
     </g>
    </g>
    <g id="ytick_5">
     <g id="line2d_15">
      <g>
       <use xlink:href="#m162d653816" x="38.15649" y="47.250805" style="stroke: #000000; stroke-width: 0.8"/>
      </g>
     </g>
     <g id="text_16">
      <!-- 1.0 -->
      <g transform="translate(20.05399 50.250805) scale(0.08 -0.08)">
       <use xlink:href="#Roboto-Regular-31"/>
       <use xlink:href="#Roboto-Regular-2e" x="56.201172"/>
       <use xlink:href="#Roboto-Regular-30" x="82.568359"/>
      </g>
     </g>
    </g>
    <g id="ytick_6">
     <g id="line2d_16">
      <g>
       <use xlink:href="#m162d653816" x="38.15649" y="24.343424" style="stroke: #000000; stroke-width: 0.8"/>
      </g>
     </g>
     <g id="text_17">
      <!-- 1.5 -->
      <g transform="translate(20.05399 27.343424) scale(0.08 -0.08)">
       <use xlink:href="#Roboto-Regular-31"/>
       <use xlink:href="#Roboto-Regular-2e" x="56.201172"/>
       <use xlink:href="#Roboto-Regular-35" x="82.568359"/>
      </g>
     </g>
    </g>
    <g id="text_18">
     <!-- Growth rate, $\sigma~[\rm day ^{-1}]$ -->
     <g transform="translate(9.72024 123.793354) rotate(-90) scale(0.08 -0.08)">
      <defs>
       <path id="Roboto-Regular-47" d="M 3891 2266  L 3891 600  Q 3763 413 3403 175  Q 3044 -63 2281 -63  Q 1450 -63 915 507  Q 381 1078 381 2100  L 381 2453  Q 381 3469 856 4041  Q 1331 4613 2213 4613  Q 2994 4613 3398 4219  Q 3803 3825 3891 3219  L 3288 3219  Q 3225 3588 2979 3853  Q 2734 4119 2213 4119  Q 1584 4119 1287 3676  Q 991 3234 988 2475  L 988 2100  Q 988 1313 1344 870  Q 1700 428 2284 428  Q 2769 428 2984 542  Q 3200 656 3291 759  L 3291 1778  L 2238 1778  L 2238 2266  L 3891 2266  z " transform="scale(0.015625)"/>
       <path id="Roboto-Regular-6f" d="M 288 1725  Q 288 2459 700 2951  Q 1113 3444 1822 3444  Q 2531 3444 2943 2961  Q 3356 2478 3366 1756  L 3366 1653  Q 3366 919 2952 428  Q 2538 -63 1828 -63  Q 1116 -63 702 428  Q 288 919 288 1653  L 288 1725  z M 866 1653  Q 866 1150 1105 781  Q 1344 413 1828 413  Q 2300 413 2540 777  Q 2781 1141 2784 1644  L 2784 1725  Q 2784 2222 2543 2595  Q 2303 2969 1822 2969  Q 1344 2969 1105 2595  Q 866 2222 866 1725  L 866 1653  z " transform="scale(0.015625)"/>
       <path id="Roboto-Regular-77" d="M 4659 3381  L 3678 0  L 3209 0  L 2388 2559  L 1588 0  L 1116 0  L 134 3381  L 713 3381  L 1378 856  L 2166 3381  L 2631 3381  L 3431 803  L 4084 3381  L 4659 3381  z " transform="scale(0.015625)"/>
       <path id="Roboto-Regular-74" d="M 1872 0  Q 1675 -63 1425 -63  Q 1103 -63 875 134  Q 647 331 647 841  L 647 2938  L 28 2938  L 28 3381  L 647 3381  L 647 4203  L 1225 4203  L 1225 3381  L 1856 3381  L 1856 2938  L 1225 2938  L 1225 838  Q 1225 578 1337 506  Q 1450 434 1597 434  Q 1706 434 1869 472  L 1872 0  z " transform="scale(0.015625)"/>
       <path id="Roboto-Regular-68" d="M 1844 2956  Q 1566 2956 1353 2806  Q 1141 2656 1019 2416  L 1019 0  L 441 0  L 441 4800  L 1019 4800  L 1019 2978  Q 1403 3444 2016 3444  Q 2513 3444 2805 3166  Q 3097 2888 3100 2231  L 3100 0  L 2519 0  L 2519 2222  Q 2519 2619 2345 2787  Q 2172 2956 1844 2956  z " transform="scale(0.015625)"/>
       <path id="STIXGeneral-Italic-3c3" d="M 3398 2739  L 3283 2266  L 2195 2266  Q 2291 2112 2457 1981  Q 2624 1850 2717 1725  Q 2810 1600 2810 1389  Q 2810 851 2288 390  Q 1766 -70 1107 -70  Q 659 -70 416 170  Q 173 410 173 832  Q 173 1274 409 1706  Q 646 2138 1113 2438  Q 1581 2739 2157 2739  L 3398 2739  z M 2272 1414  Q 2272 1709 2166 1939  Q 2061 2170 1901 2266  Q 1530 2266 1120 1770  Q 710 1274 710 640  Q 710 358 844 211  Q 979 64 1210 64  Q 1638 64 1955 525  Q 2272 986 2272 1414  z " transform="scale(0.015625)"/>
       <path id="STIXGeneral-Regular-64" d="M 3142 269  L 2202 -64  L 2176 -45  L 2176 365  Q 1869 -64 1357 -64  Q 826 -64 499 317  Q 173 698 173 1312  Q 173 1990 563 2467  Q 954 2944 1504 2944  Q 1850 2944 2176 2669  L 2176 3667  Q 2176 3866 2118 3930  Q 2061 3994 1882 3994  Q 1792 3994 1741 3987  L 1741 4090  Q 2323 4243 2682 4371  L 2714 4358  L 2714 730  Q 2714 506 2768 435  Q 2822 365 2995 365  Q 3034 365 3142 371  L 3142 269  z M 2176 653  L 2176 2125  Q 2176 2381 1981 2573  Q 1786 2765 1523 2765  Q 1158 2765 940 2438  Q 723 2112 723 1568  Q 723 979 963 624  Q 1203 269 1606 269  Q 1907 269 2080 474  Q 2176 582 2176 653  z " transform="scale(0.015625)"/>
       <path id="STIXGeneral-Regular-61" d="M 2829 422  L 2829 243  Q 2586 -64 2253 -64  Q 1888 -64 1843 403  L 1837 403  Q 1427 -64 909 -64  Q 608 -64 422 112  Q 237 288 237 602  Q 237 1050 685 1350  Q 992 1555 1837 1869  L 1837 2214  Q 1837 2502 1699 2646  Q 1562 2790 1338 2790  Q 1146 2790 1018 2697  Q 890 2605 890 2477  Q 890 2419 909 2348  Q 928 2278 928 2208  Q 928 2112 841 2029  Q 755 1946 634 1946  Q 525 1946 441 2029  Q 358 2112 358 2240  Q 358 2547 685 2752  Q 986 2944 1421 2944  Q 1939 2944 2176 2656  Q 2291 2522 2323 2384  Q 2355 2246 2355 1946  L 2355 723  Q 2355 301 2554 301  Q 2682 301 2829 422  z M 1837 813  L 1837 1715  Q 1248 1510 1018 1293  Q 800 1094 800 800  Q 800 557 921 432  Q 1043 307 1242 307  Q 1453 307 1613 410  Q 1747 506 1792 589  Q 1837 672 1837 813  z " transform="scale(0.015625)"/>
       <path id="STIXGeneral-Regular-79" d="M 3040 2880  L 3040 2784  Q 2925 2771 2854 2700  Q 2784 2630 2720 2458  L 1760 -160  Q 1510 -838 1257 -1116  Q 1005 -1395 640 -1395  Q 435 -1395 313 -1289  Q 192 -1184 192 -1024  Q 192 -902 272 -816  Q 352 -730 467 -730  Q 653 -730 800 -813  Q 883 -858 966 -858  Q 1101 -858 1286 -576  Q 1376 -448 1459 -211  Q 1542 26 1542 115  Q 1542 198 1274 762  L 429 2566  Q 346 2752 90 2790  L 90 2880  L 1402 2880  L 1402 2784  Q 1197 2778 1117 2739  Q 1037 2701 1037 2611  Q 1037 2541 1120 2349  L 1837 749  L 2458 2515  Q 2483 2573 2483 2630  Q 2483 2784 2189 2784  L 2189 2880  L 3040 2880  z " transform="scale(0.015625)"/>
      </defs>
      <use xlink:href="#Roboto-Regular-47" transform="translate(0 0.684375)"/>
      <use xlink:href="#Roboto-Regular-72" transform="translate(68.115234 0.684375)"/>
      <use xlink:href="#Roboto-Regular-6f" transform="translate(102.001953 0.684375)"/>
      <use xlink:href="#Roboto-Regular-77" transform="translate(159.033203 0.684375)"/>
      <use xlink:href="#Roboto-Regular-74" transform="translate(234.179688 0.684375)"/>
      <use xlink:href="#Roboto-Regular-68" transform="translate(266.894531 0.684375)"/>
      <use xlink:href="#Roboto-Regular-20" transform="translate(321.972656 0.684375)"/>
      <use xlink:href="#Roboto-Regular-72" transform="translate(346.777344 0.684375)"/>
      <use xlink:href="#Roboto-Regular-61" transform="translate(380.664062 0.684375)"/>
      <use xlink:href="#Roboto-Regular-74" transform="translate(435.058594 0.684375)"/>
      <use xlink:href="#Roboto-Regular-65" transform="translate(467.773438 0.684375)"/>
      <use xlink:href="#Roboto-Regular-2c" transform="translate(520.800781 0.684375)"/>
      <use xlink:href="#Roboto-Regular-20" transform="translate(540.478516 0.684375)"/>
      <use xlink:href="#STIXGeneral-Italic-3c3" transform="translate(565.283203 0.684375)"/>
      <use xlink:href="#STIXGeneral-Regular-5b" transform="translate(639.149611 0.684375)"/>
      <use xlink:href="#STIXGeneral-Regular-64" transform="translate(672.449599 0.684375)"/>
      <use xlink:href="#STIXGeneral-Regular-61" transform="translate(722.449583 0.684375)"/>
      <use xlink:href="#STIXGeneral-Regular-79" transform="translate(766.849577 0.684375)"/>
      <use xlink:href="#STIXGeneral-Regular-2212" transform="translate(818.424562 36.684375) scale(0.7)"/>
      <use xlink:href="#STIXGeneral-Regular-31" transform="translate(866.374551 36.684375) scale(0.7)"/>
      <use xlink:href="#STIXGeneral-Regular-5d" transform="translate(905.874541 0.684375)"/>
     </g>
    </g>
    <g id="text_19">
     <!-- 1e&#8722;2 -->
     <g transform="translate(38.15649 16.761947) scale(0.08 -0.08)">
      <use xlink:href="#Roboto-Regular-31"/>
      <use xlink:href="#Roboto-Regular-65" x="56.201172"/>
      <use xlink:href="#Roboto-Regular-2212" x="109.228516"/>
      <use xlink:href="#Roboto-Regular-32" x="166.40625"/>
     </g>
    </g>
   </g>
   <g id="line2d_17">
    <path d="M 38.15649 93.065568  L 335.482987 93.065568  " clip-path="url(#p3e95d2fbd8)" style="fill: none; stroke: #000000; stroke-width: 0.6; stroke-linecap: square"/>
   </g>
   <g id="line2d_18">
    <path d="M 38.15649 93.065568  L 41.696445 92.95508  L 45.330799 92.619225  L 49.106751 92.043964  L 52.977102 91.228595  L 57.036251 90.143514  L 61.284197 88.773807  L 65.76814 87.089293  L 70.48808 85.07606  L 75.585616 82.655776  L 81.155145 79.758565  L 87.338267 76.28554  L 94.606975 71.937314  L 104.188453 65.926158  L 125.75858 52.31456  L 133.263285 47.897274  L 139.635204 44.398904  L 145.346332 41.510919  L 150.632665 39.08309  L 155.588602 37.049786  L 160.261343 35.370803  L 164.698087 34.009348  L 168.946033 32.934055  L 173.052381 32.120441  L 177.06433 31.552021  L 180.934681 31.226411  L 184.710633 31.128976  L 188.439386 31.254811  L 192.07374 31.597574  L 195.660894 32.156083  L 199.248049 32.940067  L 202.788004 33.941055  L 206.327959 35.173812  L 209.867914 36.644018  L 213.40787 38.357105  L 216.947825 40.318258  L 220.48778 42.532417  L 224.074934 45.038995  L 227.709288 47.853158  L 231.390842 50.990308  L 235.072395 54.420176  L 238.848347 58.246429  L 242.671499 62.442994  L 246.54185 67.026011  L 250.4594 72.011744  L 254.471349 77.483088  L 258.530498 83.398822  L 262.684045 89.851301  L 266.884792 96.791012  L 271.179938 104.320067  L 275.569482 112.470121  L 280.053425 121.273357  L 284.584568 130.662007  L 289.210109 140.758873  L 293.930049 151.596944  L 298.744388 163.20946  L 303.700326 175.752103  L 306.555846 183.25  L 306.555846 183.25  " clip-path="url(#p3e95d2fbd8)" style="fill: none; stroke: #1f77b4; stroke-width: 1.5; stroke-linecap: square"/>
   </g>
   <g id="LineCollection_1">
    <path d="M 220.59374 57.905614  L 220.59374 41.058595  " clip-path="url(#p3e95d2fbd8)" style="fill: none; stroke: #ff7f0e; stroke-width: 1.5"/>
    <path d="M 240.86455 72.005686  L 240.86455 57.478257  " clip-path="url(#p3e95d2fbd8)" style="fill: none; stroke: #ff7f0e; stroke-width: 1.5"/>
    <path d="M 261.135353 84.33276  L 261.135353 71.278634  " clip-path="url(#p3e95d2fbd8)" style="fill: none; stroke: #ff7f0e; stroke-width: 1.5"/>
    <path d="M 281.406171 111.957181  L 281.406171 93.50716  " clip-path="url(#p3e95d2fbd8)" style="fill: none; stroke: #ff7f0e; stroke-width: 1.5"/>
    <path d="M 301.67697 125.766143  L 301.67697 109.30402  " clip-path="url(#p3e95d2fbd8)" style="fill: none; stroke: #ff7f0e; stroke-width: 1.5"/>
    <path d="M 321.947762 140.056499  L 321.947762 121.351553  " clip-path="url(#p3e95d2fbd8)" style="fill: none; stroke: #ff7f0e; stroke-width: 1.5"/>
    <path d="M 78.698102 78.278391  L 78.698102 65.487269  " clip-path="url(#p3e95d2fbd8)" style="fill: none; stroke: #ff7f0e; stroke-width: 1.5"/>
    <path d="M 98.968908 79.74462  L 98.968908 67.550938  " clip-path="url(#p3e95d2fbd8)" style="fill: none; stroke: #ff7f0e; stroke-width: 1.5"/>
    <path d="M 119.239714 61.217059  L 119.239714 47.215993  " clip-path="url(#p3e95d2fbd8)" style="fill: none; stroke: #ff7f0e; stroke-width: 1.5"/>
    <path d="M 139.51052 52.113949  L 139.51052 36.910533  " clip-path="url(#p3e95d2fbd8)" style="fill: none; stroke: #ff7f0e; stroke-width: 1.5"/>
    <path d="M 159.781323 47.555999  L 159.781323 28.310387  " clip-path="url(#p3e95d2fbd8)" style="fill: none; stroke: #ff7f0e; stroke-width: 1.5"/>
    <path d="M 180.052136 46.712082  L 180.052136 28.490699  " clip-path="url(#p3e95d2fbd8)" style="fill: none; stroke: #ff7f0e; stroke-width: 1.5"/>
    <path d="M 200.322938 39.881295  L 200.322938 22.22466  " clip-path="url(#p3e95d2fbd8)" style="fill: none; stroke: #ff7f0e; stroke-width: 1.5"/>
    <path d="M 184.106295 37.766794  L 184.106295 21.467951  " clip-path="url(#p3e95d2fbd8)" style="fill: none; stroke: #ff7f0e; stroke-width: 1.5"/>
    <path d="M 200.322938 48.897853  L 200.322938 31.436302  " clip-path="url(#p3e95d2fbd8)" style="fill: none; stroke: #ff7f0e; stroke-width: 1.5"/>
    <path d="M 216.539577 57.603419  L 216.539577 41.359627  " clip-path="url(#p3e95d2fbd8)" style="fill: none; stroke: #ff7f0e; stroke-width: 1.5"/>
    <path d="M 232.756221 72.249577  L 232.756221 56.347325  " clip-path="url(#p3e95d2fbd8)" style="fill: none; stroke: #ff7f0e; stroke-width: 1.5"/>
    <path d="M 248.972869 84.884424  L 248.972869 72.847363  " clip-path="url(#p3e95d2fbd8)" style="fill: none; stroke: #ff7f0e; stroke-width: 1.5"/>
    <path d="M 265.18952 99.89632  L 265.18952 82.041937  " clip-path="url(#p3e95d2fbd8)" style="fill: none; stroke: #ff7f0e; stroke-width: 1.5"/>
    <path d="M 281.406171 112.741775  L 281.406171 96.506934  " clip-path="url(#p3e95d2fbd8)" style="fill: none; stroke: #ff7f0e; stroke-width: 1.5"/>
    <path d="M 297.622806 122.624725  L 297.622806 105.1832  " clip-path="url(#p3e95d2fbd8)" style="fill: none; stroke: #ff7f0e; stroke-width: 1.5"/>
    <path d="M 313.839442 145.217785  L 313.839442 126.588145  " clip-path="url(#p3e95d2fbd8)" style="fill: none; stroke: #ff7f0e; stroke-width: 1.5"/>
    <path d="M 330.0561 154.532779  L 330.0561 136.052524  " clip-path="url(#p3e95d2fbd8)" style="fill: none; stroke: #ff7f0e; stroke-width: 1.5"/>
    <path d="M 70.58978 86.579467  L 70.58978 70.135986  " clip-path="url(#p3e95d2fbd8)" style="fill: none; stroke: #ff7f0e; stroke-width: 1.5"/>
    <path d="M 86.806424 75.624346  L 86.806424 63.019184  " clip-path="url(#p3e95d2fbd8)" style="fill: none; stroke: #ff7f0e; stroke-width: 1.5"/>
    <path d="M 103.023069 72.37065  L 103.023069 59.27449  " clip-path="url(#p3e95d2fbd8)" style="fill: none; stroke: #ff7f0e; stroke-width: 1.5"/>
    <path d="M 119.239714 55.815451  L 119.239714 41.519814  " clip-path="url(#p3e95d2fbd8)" style="fill: none; stroke: #ff7f0e; stroke-width: 1.5"/>
    <path d="M 135.45636 53.455028  L 135.45636 38.605085  " clip-path="url(#p3e95d2fbd8)" style="fill: none; stroke: #ff7f0e; stroke-width: 1.5"/>
    <path d="M 151.673005 45.60994  L 151.673005 28.18492  " clip-path="url(#p3e95d2fbd8)" style="fill: none; stroke: #ff7f0e; stroke-width: 1.5"/>
    <path d="M 167.889648 48.286038  L 167.889648 29.04493  " clip-path="url(#p3e95d2fbd8)" style="fill: none; stroke: #ff7f0e; stroke-width: 1.5"/>
    <path d="M 246.656199 72.281327  L 246.656199 56.498205  " clip-path="url(#p3e95d2fbd8)" style="fill: none; stroke: #ff7f0e; stroke-width: 1.5"/>
    <path d="M 269.822844 101.12078  L 269.822844 86.286324  " clip-path="url(#p3e95d2fbd8)" style="fill: none; stroke: #ff7f0e; stroke-width: 1.5"/>
    <path d="M 292.989465 127.313713  L 292.989465 111.171708  " clip-path="url(#p3e95d2fbd8)" style="fill: none; stroke: #ff7f0e; stroke-width: 1.5"/>
    <path d="M 316.156102 135.369415  L 316.156102 118.338176  " clip-path="url(#p3e95d2fbd8)" style="fill: none; stroke: #ff7f0e; stroke-width: 1.5"/>
    <path d="M 84.489761 72.131411  L 84.489761 57.928048  " clip-path="url(#p3e95d2fbd8)" style="fill: none; stroke: #ff7f0e; stroke-width: 1.5"/>
    <path d="M 107.656395 63.280337  L 107.656395 49.612307  " clip-path="url(#p3e95d2fbd8)" style="fill: none; stroke: #ff7f0e; stroke-width: 1.5"/>
    <path d="M 130.823031 43.700095  L 130.823031 29.110835  " clip-path="url(#p3e95d2fbd8)" style="fill: none; stroke: #ff7f0e; stroke-width: 1.5"/>
    <path d="M 153.989667 40.409343  L 153.989667 27.592317  " clip-path="url(#p3e95d2fbd8)" style="fill: none; stroke: #ff7f0e; stroke-width: 1.5"/>
    <path d="M 177.156305 38.535421  L 177.156305 23.670177  " clip-path="url(#p3e95d2fbd8)" style="fill: none; stroke: #ff7f0e; stroke-width: 1.5"/>
    <path d="M 200.322938 27.553506  L 200.322938 16.345927  " clip-path="url(#p3e95d2fbd8)" style="fill: none; stroke: #ff7f0e; stroke-width: 1.5"/>
    <path d="M 223.489573 47.445913  L 223.489573 36.844399  " clip-path="url(#p3e95d2fbd8)" style="fill: none; stroke: #ff7f0e; stroke-width: 1.5"/>
   </g>
   <g id="line2d_19">
    <path d="M 184.474636 31.128524  " clip-path="url(#p3e95d2fbd8)" style="fill: none; stroke: #2ca02c; stroke-width: 1.5; stroke-linecap: square"/>
    <defs>
     <path id="mf77664abe6" d="M -3 0  L 3 0  M 0 3  L 0 -3  " style="stroke: #2ca02c"/>
    </defs>
    <g clip-path="url(#p3e95d2fbd8)">
     <use xlink:href="#mf77664abe6" x="184.474636" y="31.128524" style="fill: #2ca02c; stroke: #2ca02c"/>
    </g>
   </g>
   <g id="LineCollection_2">
    <path d="M 184.474636 183.25  L 184.474636 31.128524  " clip-path="url(#p3e95d2fbd8)" style="fill: none; stroke-dasharray: 2.22,0.96; stroke-dashoffset: 0; stroke: #2ca02c; stroke-width: 0.6"/>
   </g>
   <g id="LineCollection_3">
    <path d="M 38.15649 31.128524  L 184.474636 31.128524  " clip-path="url(#p3e95d2fbd8)" style="fill: none; stroke-dasharray: 2.22,0.96; stroke-dashoffset: 0; stroke: #2ca02c; stroke-width: 0.6"/>
   </g>
   <g id="line2d_20">
    <path d="M 264.66642 152.62476  L 264.66642 19.761947  " clip-path="url(#p3e95d2fbd8)" style="fill: none; stroke-dasharray: 5.55,2.4; stroke-dashoffset: 0; stroke: #d62728; stroke-width: 1.5"/>
   </g>
   <g id="line2d_21">
    <defs>
     <path id="mc80b447533" d="M 0 1.5  C 0.397805 1.5 0.77937 1.341951 1.06066 1.06066  C 1.341951 0.77937 1.5 0.397805 1.5 0  C 1.5 -0.397805 1.341951 -0.77937 1.06066 -1.06066  C 0.77937 -1.341951 0.397805 -1.5 0 -1.5  C -0.397805 -1.5 -0.77937 -1.341951 -1.06066 -1.06066  C -1.341951 -0.77937 -1.5 -0.397805 -1.5 0  C -1.5 0.397805 -1.341951 0.77937 -1.06066 1.06066  C -0.77937 1.341951 -0.397805 1.5 0 1.5  z " style="stroke: #ff7f0e"/>
    </defs>
    <g clip-path="url(#p3e95d2fbd8)">
     <use xlink:href="#mc80b447533" x="220.59374" y="49.482105" style="fill: #ff7f0e; stroke: #ff7f0e"/>
     <use xlink:href="#mc80b447533" x="240.86455" y="64.741971" style="fill: #ff7f0e; stroke: #ff7f0e"/>
     <use xlink:href="#mc80b447533" x="261.135353" y="77.805697" style="fill: #ff7f0e; stroke: #ff7f0e"/>
     <use xlink:href="#mc80b447533" x="281.406171" y="102.732171" style="fill: #ff7f0e; stroke: #ff7f0e"/>
     <use xlink:href="#mc80b447533" x="301.67697" y="117.535082" style="fill: #ff7f0e; stroke: #ff7f0e"/>
     <use xlink:href="#mc80b447533" x="321.947762" y="130.704026" style="fill: #ff7f0e; stroke: #ff7f0e"/>
     <use xlink:href="#mc80b447533" x="78.698102" y="71.88283" style="fill: #ff7f0e; stroke: #ff7f0e"/>
     <use xlink:href="#mc80b447533" x="98.968908" y="73.647779" style="fill: #ff7f0e; stroke: #ff7f0e"/>
     <use xlink:href="#mc80b447533" x="119.239714" y="54.216526" style="fill: #ff7f0e; stroke: #ff7f0e"/>
     <use xlink:href="#mc80b447533" x="139.51052" y="44.512241" style="fill: #ff7f0e; stroke: #ff7f0e"/>
     <use xlink:href="#mc80b447533" x="159.781323" y="37.933193" style="fill: #ff7f0e; stroke: #ff7f0e"/>
     <use xlink:href="#mc80b447533" x="180.052136" y="37.60139" style="fill: #ff7f0e; stroke: #ff7f0e"/>
     <use xlink:href="#mc80b447533" x="200.322938" y="31.052978" style="fill: #ff7f0e; stroke: #ff7f0e"/>
     <use xlink:href="#mc80b447533" x="184.106295" y="29.617372" style="fill: #ff7f0e; stroke: #ff7f0e"/>
     <use xlink:href="#mc80b447533" x="200.322938" y="40.167078" style="fill: #ff7f0e; stroke: #ff7f0e"/>
     <use xlink:href="#mc80b447533" x="216.539577" y="49.481523" style="fill: #ff7f0e; stroke: #ff7f0e"/>
     <use xlink:href="#mc80b447533" x="232.756221" y="64.298451" style="fill: #ff7f0e; stroke: #ff7f0e"/>
     <use xlink:href="#mc80b447533" x="248.972869" y="78.865893" style="fill: #ff7f0e; stroke: #ff7f0e"/>
     <use xlink:href="#mc80b447533" x="265.18952" y="90.969128" style="fill: #ff7f0e; stroke: #ff7f0e"/>
     <use xlink:href="#mc80b447533" x="281.406171" y="104.624354" style="fill: #ff7f0e; stroke: #ff7f0e"/>
     <use xlink:href="#mc80b447533" x="297.622806" y="113.903963" style="fill: #ff7f0e; stroke: #ff7f0e"/>
     <use xlink:href="#mc80b447533" x="313.839442" y="135.902965" style="fill: #ff7f0e; stroke: #ff7f0e"/>
     <use xlink:href="#mc80b447533" x="330.0561" y="145.292652" style="fill: #ff7f0e; stroke: #ff7f0e"/>
     <use xlink:href="#mc80b447533" x="70.58978" y="78.357726" style="fill: #ff7f0e; stroke: #ff7f0e"/>
     <use xlink:href="#mc80b447533" x="86.806424" y="69.321765" style="fill: #ff7f0e; stroke: #ff7f0e"/>
     <use xlink:href="#mc80b447533" x="103.023069" y="65.82257" style="fill: #ff7f0e; stroke: #ff7f0e"/>
     <use xlink:href="#mc80b447533" x="119.239714" y="48.667632" style="fill: #ff7f0e; stroke: #ff7f0e"/>
     <use xlink:href="#mc80b447533" x="135.45636" y="46.030057" style="fill: #ff7f0e; stroke: #ff7f0e"/>
     <use xlink:href="#mc80b447533" x="151.673005" y="36.89743" style="fill: #ff7f0e; stroke: #ff7f0e"/>
     <use xlink:href="#mc80b447533" x="167.889648" y="38.665484" style="fill: #ff7f0e; stroke: #ff7f0e"/>
     <use xlink:href="#mc80b447533" x="246.656199" y="64.389766" style="fill: #ff7f0e; stroke: #ff7f0e"/>
     <use xlink:href="#mc80b447533" x="269.822844" y="93.703552" style="fill: #ff7f0e; stroke: #ff7f0e"/>
     <use xlink:href="#mc80b447533" x="292.989465" y="119.24271" style="fill: #ff7f0e; stroke: #ff7f0e"/>
     <use xlink:href="#mc80b447533" x="316.156102" y="126.853796" style="fill: #ff7f0e; stroke: #ff7f0e"/>
     <use xlink:href="#mc80b447533" x="84.489761" y="65.02973" style="fill: #ff7f0e; stroke: #ff7f0e"/>
     <use xlink:href="#mc80b447533" x="107.656395" y="56.446322" style="fill: #ff7f0e; stroke: #ff7f0e"/>
     <use xlink:href="#mc80b447533" x="130.823031" y="36.405465" style="fill: #ff7f0e; stroke: #ff7f0e"/>
     <use xlink:href="#mc80b447533" x="153.989667" y="34.00083" style="fill: #ff7f0e; stroke: #ff7f0e"/>
     <use xlink:href="#mc80b447533" x="177.156305" y="31.102799" style="fill: #ff7f0e; stroke: #ff7f0e"/>
     <use xlink:href="#mc80b447533" x="200.322938" y="21.949716" style="fill: #ff7f0e; stroke: #ff7f0e"/>
     <use xlink:href="#mc80b447533" x="223.489573" y="42.145156" style="fill: #ff7f0e; stroke: #ff7f0e"/>
    </g>
   </g>
   <g id="patch_3">
    <path d="M 38.15649 152.62476  L 38.15649 19.761947  " style="fill: none; stroke: #000000; stroke-width: 0.8; stroke-linejoin: miter; stroke-linecap: square"/>
   </g>
   <g id="patch_4">
    <path d="M 335.482987 152.62476  L 335.482987 19.761947  " style="fill: none; stroke: #000000; stroke-width: 0.8; stroke-linejoin: miter; stroke-linecap: square"/>
   </g>
   <g id="patch_5">
    <path d="M 38.15649 152.62476  L 335.482987 152.62476  " style="fill: none; stroke: #000000; stroke-width: 0.8; stroke-linejoin: miter; stroke-linecap: square"/>
   </g>
   <g id="patch_6">
    <path d="M 38.15649 19.761947  L 335.482987 19.761947  " style="fill: none; stroke: #000000; stroke-width: 0.8; stroke-linejoin: miter; stroke-linecap: square"/>
   </g>
   <g id="text_20">
    <!-- $\lambda_{\rm max}$ -->
    <g style="fill: #2ca02c" transform="translate(188.864181 118.16045) scale(0.08 -0.08)">
     <defs>
      <path id="STIXGeneral-Italic-3bb" d="M 2656 787  L 2758 787  Q 2560 -102 2112 -102  Q 1965 -102 1869 48  Q 1773 198 1773 499  Q 1773 672 1789 889  Q 1805 1107 1833 1446  Q 1862 1786 1875 2016  L 538 0  L -77 0  L 1907 2739  Q 1933 2970 1933 3245  Q 1933 3936 1619 3936  Q 1530 3936 1408 3821  Q 1286 3706 1203 3462  L 1101 3462  Q 1312 4339 1747 4339  Q 1926 4339 2041 4115  Q 2157 3891 2157 3475  Q 2157 3040 2093 2192  Q 2029 1344 2029 941  Q 2029 602 2089 451  Q 2150 301 2291 301  Q 2483 301 2656 787  z " transform="scale(0.015625)"/>
      <path id="STIXGeneral-Regular-78" d="M 3066 0  L 1779 0  L 1779 96  Q 1939 109 1987 137  Q 2035 166 2035 250  Q 2035 307 1997 365  L 1414 1261  L 909 474  Q 781 275 781 211  Q 781 96 1037 96  L 1037 0  L 109 0  L 109 96  Q 269 109 355 169  Q 442 230 576 422  L 1306 1478  L 704 2400  Q 557 2624 454 2704  Q 352 2784 211 2784  L 154 2784  L 154 2880  L 1478 2880  L 1478 2784  Q 1203 2778 1203 2643  Q 1203 2509 1498 2074  Q 1581 1958 1587 1946  Q 1619 1990 1779 2227  Q 1811 2285 1856 2349  Q 1901 2413 1923 2451  Q 1946 2490 1971 2528  Q 1997 2566 2006 2595  Q 2016 2624 2016 2643  Q 2016 2765 1760 2784  L 1760 2880  L 2771 2880  L 2771 2784  Q 2445 2771 2253 2502  L 1722 1734  L 2541 480  Q 2790 96 3066 96  L 3066 0  z " transform="scale(0.015625)"/>
     </defs>
     <use xlink:href="#STIXGeneral-Italic-3bb" transform="translate(0 0.203125)"/>
     <use xlink:href="#STIXGeneral-Regular-6d" transform="translate(45.799988 -13.025) scale(0.7)"/>
     <use xlink:href="#STIXGeneral-Regular-61" transform="translate(100.259979 -13.025) scale(0.7)"/>
     <use xlink:href="#STIXGeneral-Regular-78" transform="translate(131.339975 -13.025) scale(0.7)"/>
    </g>
   </g>
   <g id="text_21">
    <!-- $\sigma_{\rm max}$ -->
    <g style="fill: #2ca02c" transform="translate(44.763745 28.574468) scale(0.08 -0.08)">
     <use xlink:href="#STIXGeneral-Italic-3c3" transform="translate(0 0.203125)"/>
     <use xlink:href="#STIXGeneral-Regular-6d" transform="translate(49.799988 -13.025) scale(0.7)"/>
     <use xlink:href="#STIXGeneral-Regular-61" transform="translate(104.259979 -13.025) scale(0.7)"/>
     <use xlink:href="#STIXGeneral-Regular-78" transform="translate(135.339975 -13.025) scale(0.7)"/>
    </g>
   </g>
   <g id="text_22">
    <!-- $\lambda_{\rm min}$ -->
    <g style="fill: #d62728" transform="translate(269.196619 141.067831) scale(0.08 -0.08)">
     <defs>
      <path id="STIXGeneral-Regular-69" d="M 1152 4045  Q 1152 3904 1056 3811  Q 960 3718 819 3718  Q 685 3718 592 3811  Q 499 3904 499 4045  Q 499 4179 595 4275  Q 691 4371 826 4371  Q 966 4371 1059 4275  Q 1152 4179 1152 4045  z M 1619 0  L 102 0  L 102 96  Q 435 115 521 211  Q 608 307 608 666  L 608 2118  Q 608 2342 563 2432  Q 518 2522 397 2522  Q 243 2522 128 2490  L 128 2592  L 1120 2944  L 1146 2918  L 1146 672  Q 1146 314 1226 218  Q 1306 122 1619 96  L 1619 0  z " transform="scale(0.015625)"/>
      <path id="STIXGeneral-Regular-6e" d="M 3104 0  L 1773 0  L 1779 96  Q 2016 115 2096 233  Q 2176 352 2176 672  L 2176 1946  Q 2176 2592 1709 2592  Q 1549 2592 1408 2515  Q 1267 2438 1050 2227  L 1050 461  Q 1050 269 1136 192  Q 1222 115 1466 96  L 1466 0  L 115 0  L 115 96  Q 358 115 435 214  Q 512 314 512 602  L 512 2157  Q 512 2394 467 2483  Q 422 2573 288 2573  Q 160 2573 102 2547  L 102 2656  Q 550 2784 979 2944  L 1030 2925  L 1030 2426  L 1037 2426  Q 1491 2944 1958 2944  Q 2323 2944 2518 2688  Q 2714 2432 2714 1958  L 2714 544  Q 2714 288 2790 205  Q 2867 122 3104 96  L 3104 0  z " transform="scale(0.015625)"/>
     </defs>
     <use xlink:href="#STIXGeneral-Italic-3bb" transform="translate(0 0.203125)"/>
     <use xlink:href="#STIXGeneral-Regular-6d" transform="translate(45.799988 -13.025) scale(0.7)"/>
     <use xlink:href="#STIXGeneral-Regular-69" transform="translate(100.259979 -13.025) scale(0.7)"/>
     <use xlink:href="#STIXGeneral-Regular-6e" transform="translate(119.719971 -13.025) scale(0.7)"/>
    </g>
   </g>
   <g id="legend_1">
    <g id="patch_7">
     <path d="M 231.726737 17.104691  L 333.882987 17.104691  Q 335.482987 17.104691 335.482987 15.504691  L 335.482987 4.597191  Q 335.482987 2.997191 333.882987 2.997191  L 231.726737 2.997191  Q 230.126737 2.997191 230.126737 4.597191  L 230.126737 15.504691  Q 230.126737 17.104691 231.726737 17.104691  z " style="fill: #ffffff; opacity: 0.8; stroke: #cccccc; stroke-linejoin: miter"/>
    </g>
    <g id="line2d_22">
     <path d="M 233.326737 9.397191  L 241.326737 9.397191  L 249.326737 9.397191  " style="fill: none; stroke: #1f77b4; stroke-width: 1.5; stroke-linecap: square"/>
    </g>
    <g id="text_23">
     <!-- theory -->
     <g transform="translate(255.726737 12.197191) scale(0.08 -0.08)">
      <defs>
       <path id="Roboto-Regular-79" d="M 1594 -522  Q 1294 -1316 688 -1363  L 591 -1366  Q 406 -1366 266 -1316  L 263 -847  L 419 -859  Q 713 -859 878 -739  Q 1044 -619 1150 -306  L 1275 38  L 69 3381  L 700 3381  L 1547 850  L 2331 3381  L 2950 3381  L 1594 -522  z " transform="scale(0.015625)"/>
      </defs>
      <use xlink:href="#Roboto-Regular-74"/>
      <use xlink:href="#Roboto-Regular-68" x="32.714844"/>
      <use xlink:href="#Roboto-Regular-65" x="87.792969"/>
      <use xlink:href="#Roboto-Regular-6f" x="140.820312"/>
      <use xlink:href="#Roboto-Regular-72" x="197.851562"/>
      <use xlink:href="#Roboto-Regular-79" x="231.738281"/>
     </g>
    </g>
    <g id="LineCollection_4">
     <path d="M 302.051737 13.397191  L 302.051737 5.397191  " style="fill: none; stroke: #ff7f0e; stroke-width: 1.5"/>
    </g>
    <g id="line2d_23"/>
    <g id="line2d_24">
     <g>
      <use xlink:href="#mc80b447533" x="302.051737" y="9.397191" style="fill: #ff7f0e; stroke: #ff7f0e"/>
     </g>
    </g>
    <g id="text_24">
     <!-- data -->
     <g transform="translate(316.451737 12.197191) scale(0.08 -0.08)">
      <defs>
       <path id="Roboto-Regular-64" d="M 2622 0  L 2594 363  Q 2247 -63 1628 -63  Q 1034 -63 668 418  Q 303 900 297 1628  L 297 1719  Q 297 2494 664 2969  Q 1031 3444 1634 3444  Q 2231 3444 2572 3044  L 2572 4800  L 3153 4800  L 3153 0  L 2622 0  z M 878 1653  Q 878 1150 1090 789  Q 1303 428 1772 428  Q 2309 428 2572 919  L 2572 2475  Q 2313 2956 1778 2956  Q 1306 2956 1092 2589  Q 878 2222 878 1719  L 878 1653  z " transform="scale(0.015625)"/>
      </defs>
      <use xlink:href="#Roboto-Regular-64"/>
      <use xlink:href="#Roboto-Regular-61" x="56.396484"/>
      <use xlink:href="#Roboto-Regular-74" x="110.791016"/>
      <use xlink:href="#Roboto-Regular-61" x="143.505859"/>
     </g>
    </g>
   </g>
  </g>
 </g>
 <defs>
  <clipPath id="p3e95d2fbd8">
   <rect x="38.15649" y="19.761947" width="297.326497" height="132.862813"/>
  </clipPath>
 </defs>
</svg>
