<?xml version='1.0' encoding='ASCII' standalone='yes'?>
<svg xmlns:xlink="http://www.w3.org/1999/xlink" xmlns="http://www.w3.org/2000/svg" width="491.477824pt" height="303.75pt" viewBox="0 0 245.738912 151.875" version="1.1">
 <metadata>
  <rdf:RDF xmlns:dc="http://purl.org/dc/elements/1.1/" xmlns:cc="http://creativecommons.org/ns#" xmlns:rdf="http://www.w3.org/1999/02/22-rdf-syntax-ns#">
   <cc:Work>
    <dc:type rdf:resource="http://purl.org/dc/dcmitype/StillImage"/>
    <dc:date>2023-12-12T13:07:19.937186</dc:date>
    <dc:format>image/svg+xml</dc:format>
    <dc:creator>
     <cc:Agent>
      <dc:title>Matplotlib v3.8.0, https://matplotlib.org/</dc:title>
     </cc:Agent>
    </dc:creator>
   </cc:Work>
  </rdf:RDF>
 </metadata>
 <defs>
  <style type="text/css">*{stroke-linejoin: round; stroke-linecap: butt}</style>
 </defs>
 <g id="figure_1">
  <g id="patch_1">
   <path d="M 0 151.875  L 245.738912 151.875  L 245.738912 0  L 0 0  z " style="fill: #ffffff"/>
  </g>
  <g id="axes_1">
   <g id="patch_2">
    <path d="M 42.332115 116.777104  L 242.738672 116.777104  L 242.738672 3.00024  L 42.332115 3.00024  z " style="fill: #ffffff"/>
   </g>
   <g id="matplotlib.axis_1">
    <g id="xtick_1">
     <g id="line2d_1">
      <defs>
       <path id="ma1d7131217" d="M 0 0  L 0 3.5  " style="stroke: #000000; stroke-width: 0.8"/>
      </defs>
      <g>
       <use xlink:href="#ma1d7131217" x="48.196322" y="116.777104" style="stroke: #000000; stroke-width: 0.8"/>
      </g>
     </g>
     <g id="text_1">
      <!-- $\mathdefault{10^{1}}$ -->
      <g transform="translate(39.616322 132.027104) scale(0.11 -0.11)">
       <defs>
        <path id="Roboto-Regular-31" d="M 2278 4575  L 2278 0  L 1700 0  L 1700 3853  L 534 3428  L 534 3950  L 2188 4575  L 2278 4575  z " transform="scale(0.015625)"/>
        <path id="Roboto-Regular-30" d="M 3234 1944  Q 3234 825 2848 381  Q 2463 -63 1800 -63  Q 1156 -63 764 368  Q 372 800 359 1872  L 359 2638  Q 359 3753 750 4183  Q 1141 4613 1794 4613  Q 2447 4613 2834 4195  Q 3222 3778 3234 2709  L 3234 1944  z M 2653 2734  Q 2653 3503 2434 3822  Q 2216 4141 1794 4141  Q 1388 4141 1167 3831  Q 947 3522 941 2778  L 941 1850  Q 941 1088 1164 750  Q 1388 413 1800 413  Q 2222 413 2436 745  Q 2650 1078 2653 1825  L 2653 2734  z " transform="scale(0.015625)"/>
       </defs>
       <use xlink:href="#Roboto-Regular-31" transform="translate(0 0.98125)"/>
       <use xlink:href="#Roboto-Regular-30" transform="translate(56.201172 0.98125)"/>
       <use xlink:href="#Roboto-Regular-31" transform="translate(113.326836 37.960938) scale(0.7)"/>
      </g>
     </g>
    </g>
    <g id="xtick_2">
     <g id="line2d_2">
      <g>
       <use xlink:href="#ma1d7131217" x="176.354735" y="116.777104" style="stroke: #000000; stroke-width: 0.8"/>
      </g>
     </g>
     <g id="text_2">
      <!-- $\mathdefault{10^{2}}$ -->
      <g transform="translate(167.774735 132.027104) scale(0.11 -0.11)">
       <defs>
        <path id="Roboto-Regular-32" d="M 3359 475  L 3359 0  L 381 0  L 381 416  L 1925 2134  Q 2306 2566 2439 2819  Q 2572 3072 2572 3328  Q 2572 3663 2364 3900  Q 2156 4138 1778 4138  Q 1322 4138 1097 3878  Q 872 3619 872 3213  L 294 3213  Q 294 3788 672 4200  Q 1050 4613 1778 4613  Q 2422 4613 2786 4278  Q 3150 3944 3150 3397  Q 3150 2997 2903 2592  Q 2656 2188 2297 1797  L 1078 475  L 3359 475  z " transform="scale(0.015625)"/>
       </defs>
       <use xlink:href="#Roboto-Regular-31" transform="translate(0 0.565625)"/>
       <use xlink:href="#Roboto-Regular-30" transform="translate(56.201172 0.565625)"/>
       <use xlink:href="#Roboto-Regular-32" transform="translate(113.326836 37.545313) scale(0.7)"/>
      </g>
     </g>
    </g>
    <g id="xtick_3">
     <g id="line2d_3">
      <defs>
       <path id="mac5f997677" d="M 0 0  L 0 2  " style="stroke: #000000; stroke-width: 0.6"/>
      </defs>
      <g>
       <use xlink:href="#mac5f997677" x="42.332115" y="116.777104" style="stroke: #000000; stroke-width: 0.6"/>
      </g>
     </g>
    </g>
    <g id="xtick_4">
     <g id="line2d_4">
      <g>
       <use xlink:href="#mac5f997677" x="86.775849" y="116.777104" style="stroke: #000000; stroke-width: 0.6"/>
      </g>
     </g>
    </g>
    <g id="xtick_5">
     <g id="line2d_5">
      <g>
       <use xlink:href="#mac5f997677" x="109.343425" y="116.777104" style="stroke: #000000; stroke-width: 0.6"/>
      </g>
     </g>
    </g>
    <g id="xtick_6">
     <g id="line2d_6">
      <g>
       <use xlink:href="#mac5f997677" x="125.355375" y="116.777104" style="stroke: #000000; stroke-width: 0.6"/>
      </g>
     </g>
    </g>
    <g id="xtick_7">
     <g id="line2d_7">
      <g>
       <use xlink:href="#mac5f997677" x="137.775209" y="116.777104" style="stroke: #000000; stroke-width: 0.6"/>
      </g>
     </g>
    </g>
    <g id="xtick_8">
     <g id="line2d_8">
      <g>
       <use xlink:href="#mac5f997677" x="147.922951" y="116.777104" style="stroke: #000000; stroke-width: 0.6"/>
      </g>
     </g>
    </g>
    <g id="xtick_9">
     <g id="line2d_9">
      <g>
       <use xlink:href="#mac5f997677" x="156.502746" y="116.777104" style="stroke: #000000; stroke-width: 0.6"/>
      </g>
     </g>
    </g>
    <g id="xtick_10">
     <g id="line2d_10">
      <g>
       <use xlink:href="#mac5f997677" x="163.934902" y="116.777104" style="stroke: #000000; stroke-width: 0.6"/>
      </g>
     </g>
    </g>
    <g id="xtick_11">
     <g id="line2d_11">
      <g>
       <use xlink:href="#mac5f997677" x="170.490528" y="116.777104" style="stroke: #000000; stroke-width: 0.6"/>
      </g>
     </g>
    </g>
    <g id="xtick_12">
     <g id="line2d_12">
      <g>
       <use xlink:href="#mac5f997677" x="214.934261" y="116.777104" style="stroke: #000000; stroke-width: 0.6"/>
      </g>
     </g>
    </g>
    <g id="xtick_13">
     <g id="line2d_13">
      <g>
       <use xlink:href="#mac5f997677" x="237.501838" y="116.777104" style="stroke: #000000; stroke-width: 0.6"/>
      </g>
     </g>
    </g>
    <g id="text_3">
     <!-- Time [s] -->
     <g transform="translate(123.05594 146.640385) scale(0.11 -0.11)">
      <defs>
       <path id="Roboto-Regular-54" d="M 156 4056  L 156 4550  L 3672 4550  L 3672 4056  L 2209 4056  L 2209 0  L 1616 0  L 1616 4056  L 156 4056  z " transform="scale(0.015625)"/>
       <path id="Roboto-Regular-69" d="M 444 4278  Q 444 4419 530 4516  Q 616 4613 784 4613  Q 950 4613 1039 4516  Q 1128 4419 1128 4278  Q 1128 4144 1039 4048  Q 950 3953 784 3953  Q 616 3953 530 4048  Q 444 4144 444 4278  z M 1069 3381  L 1069 0  L 488 0  L 488 3381  L 1069 3381  z " transform="scale(0.015625)"/>
       <path id="Roboto-Regular-6d" d="M 1794 2956  Q 1225 2956 1016 2478  L 1016 0  L 434 0  L 434 3381  L 984 3381  L 1000 3013  Q 1366 3444 2000 3444  Q 2325 3444 2579 3314  Q 2834 3184 2969 2900  Q 3138 3144 3408 3294  Q 3678 3444 4044 3444  Q 4588 3444 4883 3153  Q 5178 2863 5178 2222  L 5178 0  L 4597 0  L 4597 2228  Q 4597 2653 4401 2804  Q 4206 2956 3875 2956  Q 3525 2956 3325 2748  Q 3125 2541 3094 2244  L 3094 0  L 2516 0  L 2516 2225  Q 2516 2622 2319 2789  Q 2122 2956 1794 2956  z " transform="scale(0.015625)"/>
       <path id="Roboto-Regular-65" d="M 3116 591  Q 2950 341 2647 139  Q 2344 -63 1844 -63  Q 1138 -63 714 396  Q 291 856 291 1572  L 291 1703  Q 291 2256 502 2645  Q 713 3034 1050 3239  Q 1388 3444 1769 3444  Q 2494 3444 2826 2970  Q 3159 2497 3159 1788  L 3159 1528  L 872 1528  Q 884 1063 1148 736  Q 1413 409 1875 409  Q 2181 409 2393 534  Q 2606 659 2766 869  L 3116 591  z M 1769 2969  Q 1425 2969 1187 2719  Q 950 2469 891 2000  L 2581 2000  L 2581 2044  Q 2559 2381 2386 2675  Q 2213 2969 1769 2969  z " transform="scale(0.015625)"/>
       <path id="Roboto-Regular-20" transform="scale(0.015625)"/>
       <path id="Roboto-Regular-5b" d="M 1634 5200  L 1634 4725  L 1038 4725  L 1038 -500  L 1634 -500  L 1634 -975  L 459 -975  L 459 5200  L 1634 5200  z " transform="scale(0.015625)"/>
       <path id="Roboto-Regular-73" d="M 2409 897  Q 2409 1081 2273 1229  Q 2138 1378 1647 1478  Q 1081 1594 747 1814  Q 413 2034 413 2456  Q 413 2856 755 3150  Q 1097 3444 1666 3444  Q 2272 3444 2612 3134  Q 2953 2825 2953 2388  L 2375 2388  Q 2375 2597 2190 2783  Q 2006 2969 1666 2969  Q 1306 2969 1150 2812  Q 994 2656 994 2472  Q 994 2288 1139 2173  Q 1284 2059 1756 1953  Q 2378 1813 2683 1584  Q 2988 1356 2988 941  Q 2988 494 2630 215  Q 2272 -63 1681 -63  Q 1009 -63 653 281  Q 297 625 297 1044  L 878 1044  Q 897 684 1155 548  Q 1413 413 1681 413  Q 2034 413 2221 550  Q 2409 688 2409 897  z " transform="scale(0.015625)"/>
       <path id="Roboto-Regular-5d" d="M 31 4725  L 31 5200  L 1213 5200  L 1213 -975  L 31 -975  L 31 -500  L 631 -500  L 631 4725  L 31 4725  z " transform="scale(0.015625)"/>
      </defs>
      <use xlink:href="#Roboto-Regular-54"/>
      <use xlink:href="#Roboto-Regular-69" x="59.667969"/>
      <use xlink:href="#Roboto-Regular-6d" x="83.984375"/>
      <use xlink:href="#Roboto-Regular-65" x="171.679688"/>
      <use xlink:href="#Roboto-Regular-20" x="224.707031"/>
      <use xlink:href="#Roboto-Regular-5b" x="249.511719"/>
      <use xlink:href="#Roboto-Regular-73" x="276.025391"/>
      <use xlink:href="#Roboto-Regular-5d" x="327.636719"/>
     </g>
    </g>
   </g>
   <g id="matplotlib.axis_2">
    <g id="ytick_1">
     <g id="line2d_14">
      <defs>
       <path id="me98b30889d" d="M 0 0  L -3.5 0  " style="stroke: #000000; stroke-width: 0.8"/>
      </defs>
      <g>
       <use xlink:href="#me98b30889d" x="42.332115" y="21.341971" style="stroke: #000000; stroke-width: 0.8"/>
      </g>
     </g>
     <g id="text_4">
      <!-- $\mathdefault{10^{0}}$ -->
      <g transform="translate(18.172115 25.466971) scale(0.11 -0.11)">
       <use xlink:href="#Roboto-Regular-31" transform="translate(0 0.565625)"/>
       <use xlink:href="#Roboto-Regular-30" transform="translate(56.201172 0.565625)"/>
       <use xlink:href="#Roboto-Regular-30" transform="translate(113.326836 37.545313) scale(0.7)"/>
      </g>
     </g>
    </g>
    <g id="ytick_2">
     <g id="line2d_15">
      <g>
       <use xlink:href="#me98b30889d" x="42.332115" y="85.548969" style="stroke: #000000; stroke-width: 0.8"/>
      </g>
     </g>
     <g id="text_5">
      <!-- $\mathdefault{10^{1}}$ -->
      <g transform="translate(18.172115 89.673969) scale(0.11 -0.11)">
       <use xlink:href="#Roboto-Regular-31" transform="translate(0 0.98125)"/>
       <use xlink:href="#Roboto-Regular-30" transform="translate(56.201172 0.98125)"/>
       <use xlink:href="#Roboto-Regular-31" transform="translate(113.326836 37.960938) scale(0.7)"/>
      </g>
     </g>
    </g>
    <g id="ytick_3">
     <g id="line2d_16">
      <defs>
       <path id="mcc9486013c" d="M 0 0  L -2 0  " style="stroke: #000000; stroke-width: 0.6"/>
      </defs>
      <g>
       <use xlink:href="#mcc9486013c" x="42.332115" y="7.097729" style="stroke: #000000; stroke-width: 0.6"/>
      </g>
     </g>
    </g>
    <g id="ytick_4">
     <g id="line2d_17">
      <g>
       <use xlink:href="#mcc9486013c" x="42.332115" y="11.396181" style="stroke: #000000; stroke-width: 0.6"/>
      </g>
     </g>
    </g>
    <g id="ytick_5">
     <g id="line2d_18">
      <g>
       <use xlink:href="#mcc9486013c" x="42.332115" y="15.11967" style="stroke: #000000; stroke-width: 0.6"/>
      </g>
     </g>
    </g>
    <g id="ytick_6">
     <g id="line2d_19">
      <g>
       <use xlink:href="#mcc9486013c" x="42.332115" y="18.40402" style="stroke: #000000; stroke-width: 0.6"/>
      </g>
     </g>
    </g>
    <g id="ytick_7">
     <g id="line2d_20">
      <g>
       <use xlink:href="#mcc9486013c" x="42.332115" y="40.670204" style="stroke: #000000; stroke-width: 0.6"/>
      </g>
     </g>
    </g>
    <g id="ytick_8">
     <g id="line2d_21">
      <g>
       <use xlink:href="#mcc9486013c" x="42.332115" y="51.976495" style="stroke: #000000; stroke-width: 0.6"/>
      </g>
     </g>
    </g>
    <g id="ytick_9">
     <g id="line2d_22">
      <g>
       <use xlink:href="#mcc9486013c" x="42.332115" y="59.998436" style="stroke: #000000; stroke-width: 0.6"/>
      </g>
     </g>
    </g>
    <g id="ytick_10">
     <g id="line2d_23">
      <g>
       <use xlink:href="#mcc9486013c" x="42.332115" y="66.220737" style="stroke: #000000; stroke-width: 0.6"/>
      </g>
     </g>
    </g>
    <g id="ytick_11">
     <g id="line2d_24">
      <g>
       <use xlink:href="#mcc9486013c" x="42.332115" y="71.304727" style="stroke: #000000; stroke-width: 0.6"/>
      </g>
     </g>
    </g>
    <g id="ytick_12">
     <g id="line2d_25">
      <g>
       <use xlink:href="#mcc9486013c" x="42.332115" y="75.60318" style="stroke: #000000; stroke-width: 0.6"/>
      </g>
     </g>
    </g>
    <g id="ytick_13">
     <g id="line2d_26">
      <g>
       <use xlink:href="#mcc9486013c" x="42.332115" y="79.326668" style="stroke: #000000; stroke-width: 0.6"/>
      </g>
     </g>
    </g>
    <g id="ytick_14">
     <g id="line2d_27">
      <g>
       <use xlink:href="#mcc9486013c" x="42.332115" y="82.611018" style="stroke: #000000; stroke-width: 0.6"/>
      </g>
     </g>
    </g>
    <g id="ytick_15">
     <g id="line2d_28">
      <g>
       <use xlink:href="#mcc9486013c" x="42.332115" y="104.877202" style="stroke: #000000; stroke-width: 0.6"/>
      </g>
     </g>
    </g>
    <g id="ytick_16">
     <g id="line2d_29">
      <g>
       <use xlink:href="#mcc9486013c" x="42.332115" y="116.183493" style="stroke: #000000; stroke-width: 0.6"/>
      </g>
     </g>
    </g>
    <g id="text_6">
     <!-- Front position [cm] -->
     <g transform="translate(11.93774 105.826562) rotate(-90) scale(0.11 -0.11)">
      <defs>
       <path id="Roboto-Regular-46" d="M 528 0  L 528 4550  L 3347 4550  L 3347 4056  L 1131 4056  L 1131 2503  L 3038 2503  L 3038 2009  L 1131 2009  L 1131 0  L 528 0  z " transform="scale(0.015625)"/>
       <path id="Roboto-Regular-72" d="M 1791 2888  Q 1225 2888 1019 2400  L 1019 0  L 441 0  L 441 3381  L 1003 3381  L 1016 2994  Q 1294 3444 1819 3444  Q 1981 3444 2075 3400  L 2072 2863  Q 1944 2888 1791 2888  z " transform="scale(0.015625)"/>
       <path id="Roboto-Regular-6f" d="M 288 1725  Q 288 2459 700 2951  Q 1113 3444 1822 3444  Q 2531 3444 2943 2961  Q 3356 2478 3366 1756  L 3366 1653  Q 3366 919 2952 428  Q 2538 -63 1828 -63  Q 1116 -63 702 428  Q 288 919 288 1653  L 288 1725  z M 866 1653  Q 866 1150 1105 781  Q 1344 413 1828 413  Q 2300 413 2540 777  Q 2781 1141 2784 1644  L 2784 1725  Q 2784 2222 2543 2595  Q 2303 2969 1822 2969  Q 1344 2969 1105 2595  Q 866 2222 866 1725  L 866 1653  z " transform="scale(0.015625)"/>
       <path id="Roboto-Regular-6e" d="M 1844 2956  Q 1566 2956 1353 2806  Q 1141 2656 1019 2416  L 1019 0  L 441 0  L 441 3381  L 988 3381  L 1006 2959  Q 1391 3444 2016 3444  Q 2513 3444 2805 3166  Q 3097 2888 3100 2231  L 3100 0  L 2519 0  L 2519 2222  Q 2519 2619 2345 2787  Q 2172 2956 1844 2956  z " transform="scale(0.015625)"/>
       <path id="Roboto-Regular-74" d="M 1872 0  Q 1675 -63 1425 -63  Q 1103 -63 875 134  Q 647 331 647 841  L 647 2938  L 28 2938  L 28 3381  L 647 3381  L 647 4203  L 1225 4203  L 1225 3381  L 1856 3381  L 1856 2938  L 1225 2938  L 1225 838  Q 1225 578 1337 506  Q 1450 434 1597 434  Q 1706 434 1869 472  L 1872 0  z " transform="scale(0.015625)"/>
       <path id="Roboto-Regular-70" d="M 1984 -63  Q 1375 -63 1019 328  L 1019 -1300  L 438 -1300  L 438 3381  L 969 3381  L 997 3009  Q 1353 3444 1975 3444  Q 2616 3444 2956 2969  Q 3297 2494 3297 1719  L 3297 1653  Q 3297 913 2955 425  Q 2613 -63 1984 -63  z M 1806 2956  Q 1281 2956 1019 2491  L 1019 872  Q 1284 413 1813 413  Q 2281 413 2498 781  Q 2716 1150 2716 1653  L 2716 1719  Q 2716 2222 2498 2589  Q 2281 2956 1806 2956  z " transform="scale(0.015625)"/>
       <path id="Roboto-Regular-63" d="M 1794 413  Q 2103 413 2336 597  Q 2569 781 2591 1069  L 3141 1069  Q 3119 616 2725 276  Q 2331 -63 1794 -63  Q 1031 -63 661 440  Q 291 944 291 1625  L 291 1756  Q 291 2438 661 2941  Q 1031 3444 1794 3444  Q 2388 3444 2753 3092  Q 3119 2741 3141 2219  L 2591 2219  Q 2569 2531 2355 2750  Q 2141 2969 1794 2969  Q 1438 2969 1236 2787  Q 1034 2606 951 2328  Q 869 2050 869 1756  L 869 1625  Q 869 1328 950 1050  Q 1031 772 1232 592  Q 1434 413 1794 413  z " transform="scale(0.015625)"/>
      </defs>
      <use xlink:href="#Roboto-Regular-46"/>
      <use xlink:href="#Roboto-Regular-72" x="55.273438"/>
      <use xlink:href="#Roboto-Regular-6f" x="89.160156"/>
      <use xlink:href="#Roboto-Regular-6e" x="146.191406"/>
      <use xlink:href="#Roboto-Regular-74" x="201.416016"/>
      <use xlink:href="#Roboto-Regular-20" x="234.130859"/>
      <use xlink:href="#Roboto-Regular-70" x="258.935547"/>
      <use xlink:href="#Roboto-Regular-6f" x="315.087891"/>
      <use xlink:href="#Roboto-Regular-73" x="372.119141"/>
      <use xlink:href="#Roboto-Regular-69" x="423.730469"/>
      <use xlink:href="#Roboto-Regular-74" x="448.046875"/>
      <use xlink:href="#Roboto-Regular-69" x="480.761719"/>
      <use xlink:href="#Roboto-Regular-6f" x="505.078125"/>
      <use xlink:href="#Roboto-Regular-6e" x="562.109375"/>
      <use xlink:href="#Roboto-Regular-20" x="617.333984"/>
      <use xlink:href="#Roboto-Regular-5b" x="642.138672"/>
      <use xlink:href="#Roboto-Regular-63" x="668.652344"/>
      <use xlink:href="#Roboto-Regular-6d" x="720.996094"/>
      <use xlink:href="#Roboto-Regular-5d" x="808.691406"/>
     </g>
    </g>
   </g>
   <g id="line2d_30">
    <path d="M 99.195682 30.244135  L 109.343425 32.476106  L 109.343425 34.542588  L 117.923219 36.466436  L 117.923219 38.266077  L 131.911001 41.550426  L 131.911001 43.058077  L 137.775209 44.488378  L 137.775209 47.146078  L 143.080029 48.385604  L 143.080029 50.710679  L 147.922951 51.804338  L 147.922951 57.594309  L 152.378008 58.452369  L 152.378008 60.878659  L 156.502746 61.642672  L 156.502746 62.386309  L 160.342785 63.110629  L 160.342785 64.505157  L 163.934902 65.177111  L 163.934902 67.713836  L 167.309177 68.313531  L 167.309177 70.038911  L 170.490528 70.591102  L 170.490528 72.18495  L 173.499828 72.696611  L 173.499828 74.654239  L 176.354735 75.122901  L 176.354735 75.583816  L 179.070322 76.037237  L 179.070322 77.780601  L 181.659556 78.199929  L 181.659556 80.591514  L 184.133674 80.970905  L 184.133674 82.438862  L 186.502478 82.794086  L 186.502478 83.83339  L 188.774568 84.171391  L 188.774568 85.483856  L 190.957534 85.802542  L 190.957534 86.429192  L 193.058104 86.737314  L 193.058104 87.641763  L 195.082272 87.936843  L 195.082272 88.803796  L 197.035402 89.086892  L 197.035402 91.770186  L 198.922311 92.024843  L 198.922311 92.277196  L 202.514428 92.775151  L 202.514428 95.139681  L 204.227132 95.365469  L 204.227132 95.589444  L 205.888703 95.811635  L 205.888703 96.032069  L 207.502106 96.250774  L 207.502106 96.467777  L 209.070054 96.683104  L 209.070054 98.34836  L 210.59504 98.549694  L 210.59504 98.749586  L 212.079354 98.948055  L 212.079354 99.340804  L 213.52511 99.535124  L 213.52511 100.299137  L 214.934261 100.486914  L 214.934261 100.673434  L 216.308615 100.858716  L 214.934261 101.042774  L 214.934261 101.407286  L 213.52511 101.58777  L 214.934261 101.767094  L 214.934261 101.945272  L 216.308615 102.122319  L 216.308615 102.298248  L 218.95952 102.646812  L 218.95952 102.819473  L 220.239082 102.991072  L 220.239082 103.499623  L 218.95952 103.667099  L 218.95952 104.489718  L 220.239082 104.651369  L 220.239082 104.812088  L 218.95952 104.971887  L 218.95952 105.44586  L 221.489888 105.757425  L 221.489888 105.911911  L 222.7132 106.065546  L 222.7132 106.21834  L 223.910203 106.370301  L 222.7132 106.521438  L 223.910203 106.67176  L 223.910203 108.273936  L 225.082004 108.415125  L 225.082004 108.695376  L 226.229643 108.834452  L 226.229643 108.972838  L 227.354095 109.110541  L 227.354095 109.247567  L 228.456279 109.383923  L 228.456279 109.519615  L 229.537061 109.654651  L 229.537061 109.922775  L 231.63763 110.188346  L 231.63763 110.841415  L 228.456279 111.226038  L 228.456279 111.479537  L 229.537061 111.605428  L 229.537061 111.605428  " clip-path="url(#p1586ecc525)" style="fill: none; stroke: #fde725; stroke-width: 1.5; stroke-linecap: square"/>
   </g>
   <g id="line2d_31">
    <path d="M 176.354735 69.475564  L 179.070322 70.038911  L 179.070322 71.132571  L 184.133674 72.18495  L 184.133674 76.037237  L 186.502478 76.483402  L 186.502478 77.354872  L 188.774568 77.780601  L 188.774568 78.199929  L 190.957534 78.613043  L 190.957534 81.714542  L 195.082272 82.438862  L 195.082272 82.794086  L 197.035402 83.144842  L 197.035402 83.83339  L 195.082272 84.171391  L 195.082272 84.835344  L 197.035402 85.161486  L 197.035402 86.117628  L 198.922311 86.429192  L 198.922311 86.737314  L 200.747343 87.042068  L 200.747343 87.343528  L 202.514428 87.641763  L 202.514428 88.803796  L 200.747343 89.086892  L 200.747343 89.919335  L 202.514428 90.191383  L 202.514428 90.727645  L 205.888703 91.253787  L 205.888703 91.513182  L 207.502106 91.770186  L 207.502106 92.277196  L 209.070054 92.527285  L 209.070054 95.589444  L 210.59504 95.811635  L 210.59504 96.467777  L 214.934261 97.108834  L 214.934261 97.319285  L 216.308615 97.528161  L 216.308615 97.941276  L 214.934261 98.145561  L 214.934261 101.225626  L 216.308615 101.407286  L 216.308615 102.298248  L 217.649848 102.473075  L 217.649848 102.646812  L 218.95952 102.819473  L 218.95952 102.991072  L 221.489888 103.331135  L 221.489888 103.499623  L 222.7132 103.667099  L 222.7132 103.833576  L 223.910203 103.999065  L 222.7132 104.163577  L 222.7132 104.327124  L 221.489888 104.489718  L 221.489888 104.971887  L 222.7132 105.130775  L 222.7132 106.21834  L 221.489888 106.370301  L 222.7132 106.521438  L 222.7132 106.821277  L 223.910203 106.969996  L 223.910203 107.117926  L 226.229643 107.411452  L 226.229643 107.701921  L 227.354095 107.846028  L 227.354095 108.555602  L 228.456279 108.695376  L 228.456279 108.972838  L 229.537061 109.110541  L 229.537061 109.247567  L 227.354095 109.519615  L 227.354095 109.922775  L 228.456279 110.055877  L 228.456279 110.188346  L 229.537061 110.320189  L 229.537061 110.970213  L 228.456279 111.098419  L 228.456279 111.226038  L 227.354095 111.353076  L 227.354095 111.479537  L 227.354095 111.479537  " clip-path="url(#p1586ecc525)" style="fill: none; stroke: #b5de2b; stroke-width: 1.5; stroke-linecap: square"/>
   </g>
   <g id="line2d_32">
    <path d="M 125.355375 25.160145  L 125.355375 27.817845  L 137.775209 32.476106  L 143.080029 34.542588  L 143.080029 38.266077  L 147.922951 39.956579  L 147.922951 43.058077  L 152.378008 44.488378  L 152.378008 45.848879  L 156.502746 47.146078  L 156.502746 49.572368  L 160.342785 50.710679  L 160.342785 51.804338  L 163.934902 52.856718  L 163.934902 55.794669  L 167.309177 56.709005  L 167.309177 57.594309  L 170.490528 58.452369  L 170.490528 62.386309  L 173.499828 63.110629  L 173.499828 64.505157  L 176.354735 65.177111  L 176.354735 67.10096  L 179.070322 67.713836  L 179.070322 69.475564  L 181.659556 70.038911  L 181.659556 73.199052  L 184.133674 73.692601  L 184.133674 74.654239  L 186.502478 75.122901  L 186.502478 77.354872  L 188.774568 77.780601  L 188.774568 78.613043  L 190.957534 79.020127  L 190.957534 79.421353  L 193.058104 79.816888  L 193.058104 80.206891  L 195.082272 80.591514  L 195.082272 82.794086  L 197.035402 83.144842  L 197.035402 83.83339  L 200.747343 84.505344  L 200.747343 86.429192  L 202.514428 86.737314  L 202.514428 89.086892  L 204.227132 89.367143  L 204.227132 89.644606  L 207.502106 90.191383  L 207.502106 90.460803  L 209.070054 90.727645  L 209.070054 91.513182  L 207.502106 91.770186  L 207.502106 92.527285  L 209.070054 92.775151  L 209.070054 93.020833  L 210.59504 93.264369  L 210.59504 93.505797  L 212.079354 93.745153  L 212.079354 94.682543  L 210.59504 94.912049  L 210.59504 95.589444  L 213.52511 96.032069  L 213.52511 96.250774  L 214.934261 96.467777  L 214.934261 96.683104  L 216.308615 96.896781  L 214.934261 97.108834  L 214.934261 97.319285  L 213.52511 97.528161  L 213.52511 97.735483  L 214.934261 97.941276  L 214.934261 98.145561  L 216.308615 98.34836  L 216.308615 98.549694  L 217.649848 98.749586  L 217.649848 98.948055  L 218.95952 99.145121  L 218.95952 99.728098  L 220.239082 99.919747  L 220.239082 101.945272  L 221.489888 102.122319  L 221.489888 102.298248  L 222.7132 102.473075  L 222.7132 102.991072  L 223.910203 103.161622  L 223.910203 103.667099  L 225.082004 103.833576  L 225.082004 103.999065  L 226.229643 104.163577  L 226.229643 104.327124  L 227.354095 104.489718  L 227.354095 105.44586  L 228.456279 105.602077  L 228.456279 105.911911  L 229.537061 106.065546  L 229.537061 108.415125  L 228.456279 108.555602  L 228.456279 108.834452  L 227.354095 108.972838  L 227.354095 109.110541  L 226.229643 109.247567  L 226.229643 109.654651  L 227.354095 109.789035  L 227.354095 109.922775  L 229.537061 110.188346  L 231.63763 110.320189  L 231.63763 110.712019  L 230.597254 110.841415  L 230.597254 111.226038  L 231.63763 111.353076  L 231.63763 111.353076  " clip-path="url(#p1586ecc525)" style="fill: none; stroke: #6ece58; stroke-width: 1.5; stroke-linecap: square"/>
   </g>
   <g id="line2d_33">
    <path d="M 109.343425 25.160145  L 117.923219 27.817845  L 117.923219 30.244135  L 125.355375 32.476106  L 125.355375 36.466436  L 131.911001 38.266077  L 131.911001 39.956579  L 137.775209 41.550426  L 137.775209 43.058077  L 143.080029 44.488378  L 143.080029 47.146078  L 147.922951 48.385604  L 147.922951 50.710679  L 152.378008 51.804338  L 152.378008 54.849333  L 156.502746 55.794669  L 156.502746 57.594309  L 160.342785 58.452369  L 160.342785 59.284811  L 163.934902 60.093121  L 163.934902 60.878659  L 167.309177 61.642672  L 167.309177 62.386309  L 170.490528 63.110629  L 170.490528 67.10096  L 173.499828 67.713836  L 173.499828 68.9006  L 176.354735 69.475564  L 176.354735 70.591102  L 179.070322 71.132571  L 179.070322 74.177565  L 181.659556 74.654239  L 181.659556 75.583816  L 184.133674 76.037237  L 184.133674 76.922541  L 186.502478 77.354872  L 186.502478 78.199929  L 188.774568 78.613043  L 188.774568 79.816888  L 190.957534 80.206891  L 190.957534 83.83339  L 193.058104 84.171391  L 193.058104 84.835344  L 195.082272 85.161486  L 195.082272 88.228832  L 197.035402 88.517796  L 197.035402 88.803796  L 198.922311 89.086892  L 198.922311 89.919335  L 200.747343 90.191383  L 200.747343 92.024843  L 202.514428 92.277196  L 202.514428 93.505797  L 204.227132 93.745153  L 204.227132 94.217787  L 205.888703 94.451133  L 205.888703 95.589444  L 207.502106 95.811635  L 207.502106 96.467777  L 209.070054 96.683104  L 209.070054 97.735483  L 210.59504 97.941276  L 210.59504 98.145561  L 212.079354 98.34836  L 212.079354 98.549694  L 213.52511 98.749586  L 213.52511 99.340804  L 212.079354 99.535124  L 212.079354 99.728098  L 210.59504 99.919747  L 210.59504 100.299137  L 212.079354 100.486914  L 212.079354 100.858716  L 214.934261 101.225626  L 214.934261 101.58777  L 216.308615 101.767094  L 216.308615 102.991072  L 217.649848 103.161622  L 217.649848 103.499623  L 220.239082 103.833576  L 220.239082 106.21834  L 221.489888 106.370301  L 221.489888 106.67176  L 222.7132 106.821277  L 222.7132 107.411452  L 220.239082 107.701921  L 220.239082 108.132028  L 221.489888 108.273936  L 225.082004 108.555602  L 227.354095 108.834452  L 227.354095 109.383923  L 226.229643 109.519615  L 226.229643 110.055877  L 227.354095 110.188346  L 227.354095 110.451412  L 222.7132 111.098419  L 222.7132 111.353076  L 222.7132 111.353076  " clip-path="url(#p1586ecc525)" style="fill: none; stroke: #35b779; stroke-width: 1.5; stroke-linecap: square"/>
   </g>
   <g id="line2d_34">
    <path d="M 117.923219 25.160145  L 117.923219 27.817845  L 131.911001 32.476106  L 131.911001 34.542588  L 137.775209 36.466436  L 137.775209 38.266077  L 143.080029 39.956579  L 143.080029 44.488378  L 147.922951 45.848879  L 147.922951 48.385604  L 152.378008 49.572368  L 152.378008 51.804338  L 156.502746 52.856718  L 156.502746 54.849333  L 160.342785 55.794669  L 160.342785 57.594309  L 163.934902 58.452369  L 163.934902 59.284811  L 167.309177 60.093121  L 167.309177 61.642672  L 170.490528 62.386309  L 170.490528 68.9006  L 173.499828 69.475564  L 173.499828 71.132571  L 176.354735 71.663725  L 176.354735 73.199052  L 179.070322 73.692601  L 179.070322 74.177565  L 181.659556 74.654239  L 181.659556 75.583816  L 184.133674 76.037237  L 184.133674 77.780601  L 186.502478 78.199929  L 186.502478 79.020127  L 188.774568 79.421353  L 188.774568 82.794086  L 190.957534 83.144842  L 190.957534 83.83339  L 195.082272 84.505344  L 195.082272 85.161486  L 197.035402 85.483856  L 197.035402 87.042068  L 198.922311 87.343528  L 198.922311 87.936843  L 200.747343 88.228832  L 198.922311 88.517796  L 198.922311 89.919335  L 200.747343 90.191383  L 200.747343 90.460803  L 202.514428 90.727645  L 202.514428 90.991957  L 204.227132 91.253787  L 204.227132 92.277196  L 205.888703 92.527285  L 205.888703 93.020833  L 207.502106 93.264369  L 207.502106 93.505797  L 209.070054 93.745153  L 209.070054 95.589444  L 210.59504 95.811635  L 210.59504 96.032069  L 212.079354 96.250774  L 212.079354 96.683104  L 213.52511 96.896781  L 213.52511 97.319285  L 214.934261 97.528161  L 214.934261 98.34836  L 212.079354 98.749586  L 212.079354 99.340804  L 214.934261 99.728098  L 214.934261 99.919747  L 216.308615 100.110087  L 216.308615 100.486914  L 218.95952 100.858716  L 218.95952 101.225626  L 217.649848 101.407286  L 217.649848 101.58777  L 216.308615 101.767094  L 216.308615 102.122319  L 217.649848 102.298248  L 217.649848 102.473075  L 218.95952 102.646812  L 218.95952 103.499623  L 220.239082 103.667099  L 220.239082 103.833576  L 221.489888 103.999065  L 221.489888 104.327124  L 222.7132 104.489718  L 222.7132 104.812088  L 221.489888 104.971887  L 221.489888 105.44586  L 222.7132 105.602077  L 222.7132 105.757425  L 223.910203 105.911911  L 223.910203 106.370301  L 221.489888 106.67176  L 221.489888 107.117926  L 225.082004 107.557065  L 225.082004 107.846028  L 226.229643 107.989395  L 226.229643 108.834452  L 227.354095 108.972838  L 227.354095 109.110541  L 228.456279 109.247567  L 227.354095 109.383923  L 227.354095 109.519615  L 226.229643 109.654651  L 226.229643 110.841415  L 225.082004 110.970213  L 225.082004 111.226038  L 227.354095 111.479537  L 227.354095 111.479537  " clip-path="url(#p1586ecc525)" style="fill: none; stroke: #1f9e89; stroke-width: 1.5; stroke-linecap: square"/>
   </g>
   <g id="line2d_35">
    <path d="M 99.195682 27.817845  L 99.195682 30.244135  L 109.343425 32.476106  L 109.343425 34.542588  L 117.923219 36.466436  L 117.923219 38.266077  L 125.355375 39.956579  L 125.355375 41.550426  L 137.775209 44.488378  L 137.775209 51.804338  L 143.080029 52.856718  L 143.080029 55.794669  L 147.922951 56.709005  L 147.922951 58.452369  L 152.378008 59.284811  L 152.378008 60.878659  L 156.502746 61.642672  L 156.502746 62.386309  L 160.342785 63.110629  L 160.342785 63.81661  L 163.934902 64.505157  L 163.934902 65.833253  L 167.309177 66.47431  L 167.309177 69.475564  L 170.490528 70.038911  L 170.490528 71.663725  L 173.499828 72.18495  L 173.499828 74.177565  L 176.354735 74.654239  L 176.354735 76.922541  M 193.058104 87.042068  L 193.058104 87.641763  L 195.082272 87.936843  L 195.082272 88.803796  L 197.035402 89.086892  L 197.035402 90.460803  L 198.922311 90.727645  L 198.922311 91.253787  L 200.747343 91.513182  L 200.747343 93.982471  L 202.514428 94.217787  L 202.514428 94.451133  L 204.227132 94.682543  L 204.227132 94.912049  L 205.888703 95.139681  L 205.888703 95.365469  L 207.502106 95.589444  L 207.502106 96.683104  L 209.070054 96.896781  L 209.070054 97.528161  L 210.59504 97.735483  L 210.59504 98.549694  L 212.079354 98.749586  L 212.079354 99.919747  L 213.52511 100.110087  L 213.52511 101.767094  L 214.934261 101.945272  L 214.934261 102.122319  L 216.308615 102.298248  L 216.308615 103.833576  L 217.649848 103.999065  L 217.649848 104.489718  L 218.95952 104.651369  L 218.95952 104.971887  L 220.239082 105.130775  L 220.239082 107.265075  L 221.489888 107.411452  L 221.489888 107.557065  L 222.7132 107.701921  L 222.7132 108.695376  L 221.489888 108.834452  L 221.489888 109.110541  L 222.7132 109.247567  L 222.7132 109.654651  L 223.910203 109.789035  L 223.910203 110.055877  L 225.082004 110.188346  L 225.082004 110.712019  L 227.354095 110.970213  L 226.229643 111.098419  L 226.229643 111.605428  L 226.229643 111.605428  " clip-path="url(#p1586ecc525)" style="fill: none; stroke: #26828e; stroke-width: 1.5; stroke-linecap: square"/>
   </g>
   <g id="line2d_36">
    <path d="M 160.342785 59.284811  L 160.342785 60.878659  L 163.934902 61.642672  L 163.934902 62.386309  L 167.309177 63.110629  L 167.309177 65.177111  L 170.490528 65.833253  L 170.490528 68.313531  L 173.499828 68.9006  L 173.499828 70.591102  L 176.354735 71.132571  L 176.354735 73.692601  L 179.070322 74.177565  L 179.070322 75.122901  L 181.659556 75.583816  L 181.659556 76.922541  L 184.133674 77.354872  L 184.133674 78.199929  L 186.502478 78.613043  L 186.502478 80.206891  L 188.774568 80.591514  L 188.774568 81.345202  L 190.957534 81.714542  L 190.957534 83.83339  L 193.058104 84.171391  L 193.058104 87.042068  L 195.082272 87.343528  L 195.082272 87.641763  L 197.035402 87.936843  L 197.035402 89.919335  L 198.922311 90.191383  L 198.922311 90.460803  L 200.747343 90.727645  L 200.747343 91.253787  L 202.514428 91.513182  L 202.514428 92.527285  L 205.888703 93.020833  L 205.888703 93.264369  L 207.502106 93.505797  L 207.502106 95.589444  L 209.070054 95.811635  L 209.070054 96.250774  L 210.59504 96.467777  L 210.59504 96.683104  L 212.079354 96.896781  L 212.079354 97.108834  L 213.52511 97.319285  L 213.52511 97.528161  L 214.934261 97.735483  L 214.934261 99.919747  L 216.308615 100.110087  L 216.308615 100.673434  L 217.649848 100.858716  L 217.649848 102.473075  L 218.95952 102.646812  L 218.95952 102.991072  L 220.239082 103.161622  L 220.239082 103.999065  L 221.489888 104.163577  L 221.489888 104.651369  L 222.7132 104.812088  L 222.7132 105.130775  L 223.910203 105.288762  L 223.910203 105.602077  L 222.7132 105.757425  L 222.7132 106.521438  L 223.910203 106.67176  L 223.910203 107.846028  L 226.229643 108.132028  L 226.229643 108.415125  L 227.354095 108.555602  L 227.354095 108.695376  L 228.456279 108.834452  L 228.456279 109.922775  L 229.537061 110.055877  L 229.537061 110.58202  L 228.456279 110.712019  L 228.456279 110.712019  " clip-path="url(#p1586ecc525)" style="fill: none; stroke: #31688e; stroke-width: 1.5; stroke-linecap: square"/>
   </g>
   <g id="line2d_37">
    <path d="M 99.195682 25.160145  L 99.195682 32.476106  L 109.343425 34.542588  L 109.343425 38.266077  L 117.923219 39.956579  L 117.923219 43.058077  L 125.355375 44.488378  L 125.355375 47.146078  L 131.911001 48.385604  L 131.911001 52.856718  L 137.775209 53.87082  L 137.775209 55.794669  L 143.080029 56.709005  L 143.080029 57.594309  L 147.922951 58.452369  L 147.922951 59.284811  L 152.378008 60.093121  L 152.378008 62.386309  L 156.502746 63.110629  L 156.502746 65.177111  L 160.342785 65.833253  L 160.342785 66.47431  L 163.934902 67.10096  L 163.934902 68.9006  L 167.309177 69.475564  L 167.309177 71.663725  L 170.490528 72.18495  L 170.490528 72.696611  L 173.499828 73.199052  L 173.499828 75.583816  L 176.354735 76.037237  L 176.354735 76.483402  L 179.070322 76.922541  L 179.070322 78.613043  L 181.659556 79.020127  L 181.659556 79.421353  L 184.133674 79.816888  L 184.133674 80.591514  L 186.502478 80.970905  L 186.502478 82.794086  L 184.133674 83.144842  L 184.133674 84.505344  L 186.502478 84.835344  L 186.502478 85.161486  L 188.774568 85.483856  L 188.774568 86.117628  L 190.957534 86.429192  L 190.957534 89.086892  L 193.058104 89.367143  L 193.058104 89.919335  L 195.082272 90.191383  L 195.082272 90.460803  L 197.035402 90.727645  L 197.035402 91.253787  L 198.922311 91.513182  L 198.922311 92.024843  L 200.747343 92.277196  L 200.747343 92.527285  L 202.514428 92.775151  L 202.514428 94.912049  L 204.227132 95.139681  L 204.227132 95.589444  L 205.888703 95.811635  L 205.888703 96.467777  L 204.227132 96.683104  L 204.227132 97.319285  L 209.070054 97.941276  L 209.070054 98.34836  L 207.502106 98.549694  L 207.502106 99.919747  L 209.070054 100.110087  L 209.070054 100.486914  L 210.59504 100.673434  L 210.59504 101.58777  L 212.079354 101.767094  L 212.079354 101.945272  L 213.52511 102.122319  L 213.52511 103.499623  L 214.934261 103.667099  L 214.934261 105.44586  L 216.308615 105.602077  L 216.308615 105.757425  L 217.649848 105.911911  L 220.239082 106.065546  L 220.239082 106.370301  L 217.649848 106.67176  L 217.649848 106.969996  L 220.239082 107.265075  L 220.239082 107.846028  L 218.95952 107.989395  L 218.95952 108.132028  L 220.239082 108.273936  L 220.239082 108.415125  L 222.7132 108.555602  L 222.7132 108.695376  L 223.910203 108.834452  L 223.910203 109.654651  L 221.489888 109.922775  L 221.489888 110.188346  L 225.082004 110.58202  L 225.082004 110.712019  L 220.239082 111.353076  L 220.239082 111.479537  L 220.239082 111.479537  " clip-path="url(#p1586ecc525)" style="fill: none; stroke: #3e4989; stroke-width: 1.5; stroke-linecap: square"/>
   </g>
   <g id="line2d_38">
    <path d="M 137.775209 47.146078  L 143.080029 48.385604  L 143.080029 50.710679  L 147.922951 51.804338  L 147.922951 54.849333  L 152.378008 55.794669  L 152.378008 60.878659  L 160.342785 62.386309  L 160.342785 63.110629  L 163.934902 63.81661  L 163.934902 64.505157  L 167.309177 65.177111  L 167.309177 68.9006  L 170.490528 69.475564  L 170.490528 71.132571  L 173.499828 71.663725  L 173.499828 72.696611  L 176.354735 73.199052  L 176.354735 76.037237  L 179.070322 76.483402  L 179.070322 77.780601  L 181.659556 78.199929  L 181.659556 79.020127  L 184.133674 79.421353  L 184.133674 80.591514  L 186.502478 80.970905  L 184.133674 81.345202  L 184.133674 82.079054  L 186.502478 82.438862  L 186.502478 83.144842  L 188.774568 83.491241  L 188.774568 84.171391  L 193.058104 84.835344  L 193.058104 86.117628  L 195.082272 86.429192  L 195.082272 87.343528  L 193.058104 87.641763  L 193.058104 88.803796  L 195.082272 89.086892  L 195.082272 89.367143  L 197.035402 89.644606  L 197.035402 90.460803  L 198.922311 90.727645  L 198.922311 90.991957  L 202.514428 91.513182  L 202.514428 93.745153  L 204.227132 93.982471  L 204.227132 96.032069  L 207.502106 96.467777  L 207.502106 96.683104  L 209.070054 96.896781  L 209.070054 97.735483  L 210.59504 97.941276  L 210.59504 98.145561  L 212.079354 98.34836  L 212.079354 98.749586  L 213.52511 98.948055  L 213.52511 99.145121  L 214.934261 99.340804  L 214.934261 99.919747  L 216.308615 100.110087  L 216.308615 100.673434  L 214.934261 100.858716  L 214.934261 101.58777  L 213.52511 101.767094  L 213.52511 101.945272  L 214.934261 102.122319  L 214.934261 102.298248  L 218.95952 102.819473  L 218.95952 103.331135  L 220.239082 103.499623  L 220.239082 103.667099  L 221.489888 103.833576  L 221.489888 105.130775  L 218.95952 105.44586  L 218.95952 105.757425  L 220.239082 105.911911  L 220.239082 106.065546  L 226.229643 106.821277  L 226.229643 107.557065  L 223.910203 107.846028  L 223.910203 108.972838  L 222.7132 109.110541  L 222.7132 110.188346  L 221.489888 110.320189  L 217.649848 110.58202  L 217.649848 110.841415  L 222.7132 111.098419  L 228.456279 111.353076  L 228.456279 111.353076  " clip-path="url(#p1586ecc525)" style="fill: none; stroke: #482878; stroke-width: 1.5; stroke-linecap: square"/>
   </g>
   <g id="line2d_39">
    <path d="M 0 0  " clip-path="url(#p1586ecc525)" style="fill: none; stroke: #440154; stroke-width: 1.5; stroke-linecap: square"/>
   </g>
   <g id="line2d_40">
    <path d="M 86.643846 8.171916  L 88.067829 9.207598  L 89.491811 10.243279  L 90.915793 11.278961  L 92.339776 12.314643  L 93.763758 13.350325  L 95.18774 14.386007  L 96.611723 15.421689  L 98.035705 16.457371  L 99.459687 17.493053  L 100.88367 18.528734  L 102.307652 19.564416  L 103.731635 20.600098  L 105.155617 21.63578  L 106.579599 22.671462  L 108.003582 23.707144  L 109.427564 24.742826  L 110.851546 25.778508  L 112.275529 26.814189  L 113.699511 27.849871  L 115.123493 28.885553  L 116.547476 29.921235  L 117.971458 30.956917  L 119.395441 31.992599  L 120.819423 33.028281  L 122.243405 34.063963  L 123.667388 35.099645  L 125.09137 36.135326  L 126.515352 37.171008  L 127.939335 38.20669  L 129.363317 39.242372  L 130.787299 40.278054  L 132.211282 41.313736  L 133.635264 42.349418  L 135.059246 43.3851  L 136.483229 44.420781  L 137.907211 45.456463  L 139.331194 46.492145  L 140.755176 47.527827  L 142.179158 48.563509  L 143.603141 49.599191  L 145.027123 50.634873  L 146.451105 51.670555  L 147.875088 52.706237  L 149.29907 53.741918  L 150.723052 54.7776  L 152.147035 55.813282  L 153.571017 56.848964  L 154.995 57.884646  L 156.418982 58.920328  L 157.842964 59.95601  L 159.266947 60.991692  L 160.690929 62.027373  L 162.114911 63.063055  L 163.538894 64.098737  L 164.962876 65.134419  L 166.386858 66.170101  L 167.810841 67.205783  L 169.234823 68.241465  L 170.658806 69.277147  L 172.082788 70.312828  L 173.50677 71.34851  L 174.930753 72.384192  L 176.354735 73.419874  L 177.778717 74.455556  L 179.2027 75.491238  L 180.626682 76.52692  L 182.050664 77.562602  L 183.474647 78.598284  L 184.898629 79.633965  L 186.322612 80.669647  L 187.746594 81.705329  L 189.170576 82.741011  L 190.594559 83.776693  L 192.018541 84.812375  L 193.442523 85.848057  L 194.866506 86.883739  L 196.290488 87.91942  L 197.71447 88.955102  L 199.138453 89.990784  L 200.562435 91.026466  L 201.986418 92.062148  L 203.4104 93.09783  L 204.834382 94.133512  L 206.258365 95.169194  L 207.682347 96.204876  L 209.106329 97.240557  L 210.530312 98.276239  L 211.954294 99.311921  L 213.378276 100.347603  L 214.802259 101.383285  L 216.226241 102.418967  L 217.650224 103.454649  L 219.074206 104.490331  L 220.498188 105.526012  L 221.922171 106.561694  L 223.346153 107.597376  L 224.770135 108.633058  L 226.194118 109.66874  L 227.6181 110.704422  " clip-path="url(#p1586ecc525)" style="fill: none; stroke: #ff7f0e; stroke-width: 1.5; stroke-linecap: square"/>
   </g>
   <g id="patch_3">
    <path d="M 42.332115 116.777104  L 42.332115 3.00024  " style="fill: none; stroke: #000000; stroke-width: 0.8; stroke-linejoin: miter; stroke-linecap: square"/>
   </g>
   <g id="patch_4">
    <path d="M 242.738672 116.777104  L 242.738672 3.00024  " style="fill: none; stroke: #000000; stroke-width: 0.8; stroke-linejoin: miter; stroke-linecap: square"/>
   </g>
   <g id="patch_5">
    <path d="M 42.332115 116.777104  L 242.738672 116.777104  " style="fill: none; stroke: #000000; stroke-width: 0.8; stroke-linejoin: miter; stroke-linecap: square"/>
   </g>
   <g id="patch_6">
    <path d="M 42.332115 3.00024  L 242.738672 3.00024  " style="fill: none; stroke: #000000; stroke-width: 0.8; stroke-linejoin: miter; stroke-linecap: square"/>
   </g>
   <g id="legend_1">
    <g id="patch_7">
     <path d="M 150.228672 27.784615  L 235.038672 27.784615  Q 237.238672 27.784615 237.238672 25.584615  L 237.238672 10.70024  Q 237.238672 8.50024 235.038672 8.50024  L 150.228672 8.50024  Q 148.028672 8.50024 148.028672 10.70024  L 148.028672 25.584615  Q 148.028672 27.784615 150.228672 27.784615  z " style="fill: #ffffff; opacity: 0.8; stroke: #cccccc; stroke-linejoin: miter"/>
    </g>
    <g id="line2d_41">
     <path d="M 152.428672 17.30024  L 163.428672 17.30024  L 174.428672 17.30024  " style="fill: none; stroke: #ff7f0e; stroke-width: 1.5; stroke-linecap: square"/>
    </g>
    <g id="text_7">
     <!-- $d = 0.01 t^{1.5}$ -->
     <g transform="translate(183.228672 21.15024) scale(0.11 -0.11)">
      <defs>
       <path id="STIXGeneral-Italic-64" d="M 3334 4371  L 3373 4333  L 3123 3360  L 2739 1958  Q 2323 429 2323 384  Q 2323 256 2438 256  Q 2522 256 2614 336  Q 2707 416 2963 710  L 3040 646  Q 2547 -83 2099 -83  Q 1978 -83 1907 -6  Q 1837 70 1837 205  Q 1837 397 1920 774  Q 1645 307 1379 118  Q 1114 -70 781 -70  Q 461 -70 278 125  Q 96 320 96 678  Q 96 1440 713 2131  Q 1331 2822 1965 2822  Q 2163 2822 2256 2732  Q 2349 2643 2381 2451  L 2387 2451  L 2675 3494  Q 2765 3808 2765 3949  Q 2765 4051 2694 4076  Q 2624 4102 2355 4115  L 2355 4224  Q 2848 4269 3334 4371  z M 2278 2310  Q 2278 2477 2185 2576  Q 2093 2675 1978 2675  Q 1677 2675 1395 2381  Q 1075 2042 864 1571  Q 653 1101 653 704  Q 653 486 752 361  Q 851 237 1024 237  Q 1312 237 1606 550  Q 1901 864 2089 1350  Q 2278 1837 2278 2310  z " transform="scale(0.015625)"/>
       <path id="STIXGeneral-Regular-3d" d="M 4077 2048  L 307 2048  L 307 2470  L 4077 2470  L 4077 2048  z M 4077 768  L 307 768  L 307 1190  L 4077 1190  L 4077 768  z " transform="scale(0.015625)"/>
       <path id="STIXGeneral-Regular-30" d="M 3046 2112  Q 3046 1683 2963 1302  Q 2880 922 2717 602  Q 2554 282 2266 96  Q 1978 -90 1600 -90  Q 1210 -90 915 108  Q 621 307 461 640  Q 301 973 227 1350  Q 154 1728 154 2150  Q 154 2746 301 3222  Q 448 3699 790 4012  Q 1133 4326 1626 4326  Q 2253 4326 2649 3712  Q 3046 3098 3046 2112  z M 2432 2080  Q 2432 3091 2217 3625  Q 2003 4160 1587 4160  Q 1190 4160 979 3622  Q 768 3085 768 2106  Q 768 1120 979 598  Q 1190 77 1600 77  Q 2003 77 2217 598  Q 2432 1120 2432 2080  z " transform="scale(0.015625)"/>
       <path id="STIXGeneral-Regular-2e" d="M 1158 275  Q 1158 134 1052 32  Q 947 -70 800 -70  Q 653 -70 550 32  Q 448 134 448 281  Q 448 429 553 534  Q 659 640 806 640  Q 947 640 1052 531  Q 1158 422 1158 275  z " transform="scale(0.015625)"/>
       <path id="STIXGeneral-Regular-31" d="M 2522 0  L 755 0  L 755 96  Q 1107 115 1235 227  Q 1363 339 1363 608  L 1363 3482  Q 1363 3795 1171 3795  Q 1082 3795 883 3718  L 710 3654  L 710 3744  L 1856 4326  L 1914 4307  L 1914 486  Q 1914 275 2042 185  Q 2170 96 2522 96  L 2522 0  z " transform="scale(0.015625)"/>
       <path id="STIXGeneral-Italic-74" d="M 1894 2739  L 1862 2534  L 1325 2534  L 768 435  Q 755 384 755 346  Q 755 243 851 243  Q 928 243 1030 342  Q 1133 442 1370 749  L 1453 704  Q 1158 256 969 93  Q 781 -70 538 -70  Q 243 -70 243 166  Q 243 230 346 640  L 845 2534  L 365 2534  L 358 2573  Q 358 2688 570 2733  Q 730 2771 992 2979  Q 1254 3187 1421 3437  Q 1459 3494 1510 3494  Q 1568 3494 1568 3443  Q 1568 3411 1562 3398  L 1382 2739  L 1894 2739  z " transform="scale(0.015625)"/>
       <path id="STIXGeneral-Regular-35" d="M 2803 4358  L 2573 3814  Q 2534 3731 2400 3731  L 1158 3731  L 902 3187  Q 1606 3053 1920 2896  Q 2234 2739 2502 2368  Q 2726 2061 2726 1555  Q 2726 1094 2576 780  Q 2426 467 2099 224  Q 1664 -90 1011 -90  Q 646 -90 422 19  Q 198 128 198 307  Q 198 550 486 550  Q 717 550 960 352  Q 1210 147 1414 147  Q 1747 147 2012 480  Q 2278 813 2278 1229  Q 2278 1843 1850 2189  Q 1293 2637 486 2637  Q 410 2637 410 2688  L 416 2720  L 1114 4237  L 2438 4237  Q 2547 4237 2608 4269  Q 2669 4301 2746 4403  L 2803 4358  z " transform="scale(0.015625)"/>
      </defs>
      <use xlink:href="#STIXGeneral-Italic-64" transform="translate(0 0.567188)"/>
      <use xlink:href="#STIXGeneral-Regular-3d" transform="translate(64.439981 0.567188)"/>
      <use xlink:href="#STIXGeneral-Regular-30" transform="translate(147.379962 0.567188)"/>
      <use xlink:href="#STIXGeneral-Regular-2e" transform="translate(197.379947 0.567188)"/>
      <use xlink:href="#STIXGeneral-Regular-30" transform="translate(222.379932 0.567188)"/>
      <use xlink:href="#STIXGeneral-Regular-31" transform="translate(272.379916 0.567188)"/>
      <use xlink:href="#STIXGeneral-Italic-74" transform="translate(322.379901 0.567188)"/>
      <use xlink:href="#STIXGeneral-Regular-31" transform="translate(358.558014 35.842188) scale(0.7)"/>
      <use xlink:href="#STIXGeneral-Regular-2e" transform="translate(393.558003 35.842188) scale(0.7)"/>
      <use xlink:href="#STIXGeneral-Regular-35" transform="translate(411.057993 35.842188) scale(0.7)"/>
     </g>
    </g>
   </g>
  </g>
 </g>
 <defs>
  <clipPath id="p1586ecc525">
   <rect x="42.332115" y="3.00024" width="200.406557" height="113.776864"/>
  </clipPath>
 </defs>
</svg>
